ISO-10303-21;
HEADER;
FILE_DESCRIPTION (( 'STEP AP203' ),
    '1' );
FILE_NAME ('Rumble Sleeve REF2015.STEP',
    '2026-04-04T17:36:11',
    ( '' ),
    ( '' ),
    'SwSTEP 2.0',
    'SolidWorks 2026',
    '' );
FILE_SCHEMA (( 'CONFIG_CONTROL_DESIGN' ));
ENDSEC;

DATA;
#1 = VERTEX_POINT ( 'NONE', #552 ) ;
#2 = CARTESIAN_POINT ( 'NONE',  ( 0.000000000000000000, 0.000000000000000000, 13.40000000000000036 ) ) ;
#3 = CC_DESIGN_APPROVAL ( #200, ( #639 ) ) ;
#4 = AXIS2_PLACEMENT_3D ( 'NONE', #187, #255, #396 ) ;
#5 = DIRECTION ( 'NONE',  ( -0.000000000000000000, -0.000000000000000000, -1.000000000000000000 ) ) ;
#6 = ORIENTED_EDGE ( 'NONE', *, *, #719, .T. ) ;
#7 = AXIS2_PLACEMENT_3D ( 'NONE', #323, #717, #57 ) ;
#8 = CARTESIAN_POINT ( 'NONE',  ( 90.62031866751559050, 2.410037680889265399, 14.53137084989845995 ) ) ;
#9 = DIRECTION ( 'NONE',  ( -0.4999999999999911737, 0.8660254037844437036, 0.000000000000000000 ) ) ;
#10 = CARTESIAN_POINT ( 'NONE',  ( 94.00000000000000000, 7.000000000000000000, 10.40000000000000036 ) ) ;
#11 = VECTOR ( 'NONE', #608, 1000.000000000000000 ) ;
#12 = ORIENTED_EDGE ( 'NONE', *, *, #123, .T. ) ;
#13 = CIRCLE ( 'NONE', #675, 5.849999999999994316 ) ;
#14 = DIRECTION ( 'NONE',  ( 0.000000000000000000, 0.000000000000000000, 1.000000000000000000 ) ) ;
#15 = DIRECTION ( 'NONE',  ( 0.000000000000000000, 0.000000000000000000, 1.000000000000000000 ) ) ;
#16 = ORIENTED_EDGE ( 'NONE', *, *, #805, .F. ) ;
#17 = LINE ( 'NONE', #91, #11 ) ;
#18 = DIRECTION ( 'NONE',  ( 1.000000000000000000, 0.000000000000000000, 0.000000000000000000 ) ) ;
#19 = VECTOR ( 'NONE', #103, 1000.000000000000114 ) ;
#20 = DIRECTION ( 'NONE',  ( 0.000000000000000000, 0.000000000000000000, 1.000000000000000000 ) ) ;
#21 = ORIENTED_EDGE ( 'NONE', *, *, #70, .F. ) ;
#22 = FACE_OUTER_BOUND ( 'NONE', #530, .T. ) ;
#23 = DIRECTION ( 'NONE',  ( -0.4999999999999911737, 0.8660254037844437036, 0.000000000000000000 ) ) ;
#24 = CARTESIAN_POINT ( 'NONE',  ( 94.00000000000000000, 7.000000000000000000, 7.900000000000000355 ) ) ;
#25 = ORIENTED_EDGE ( 'NONE', *, *, #295, .T. ) ;
#26 = PERSON_AND_ORGANIZATION_ROLE ( 'design_owner' ) ;
#27 = EDGE_CURVE ( 'NONE', #79, #51, #653, .T. ) ;
#28 = CARTESIAN_POINT ( 'NONE',  ( 94.00000000000000000, 7.000000000000000000, 13.39999999999999858 ) ) ;
#29 = CARTESIAN_POINT ( 'NONE',  ( 88.33513536299456348, 7.631908731072181595, 13.40000000000000036 ) ) ;
#30 = AXIS2_PLACEMENT_3D ( 'NONE', #528, #536, #241 ) ;
#31 = VERTEX_POINT ( 'NONE', #632 ) ;
#32 = DIRECTION ( 'NONE',  ( 0.000000000000000000, -0.000000000000000000, -1.000000000000000000 ) ) ;
#33 = LINE ( 'NONE', #326, #808 ) ;
#34 = ORIENTED_EDGE ( 'NONE', *, *, #884, .T. ) ;
#35 = PERSON_AND_ORGANIZATION ( #18446744073709551615, #18446744073709551615 ) ;
#36 = EDGE_LOOP ( 'NONE', ( #696, #198, #446, #181 ) ) ;
#37 = CIRCLE ( 'NONE', #327, 1.500000000000001332 ) ;
#38 = DIRECTION ( 'NONE',  ( -1.000000000000000000, 0.000000000000000000, 0.000000000000000000 ) ) ;
#39 = LINE ( 'NONE', #408, #481 ) ;
#40 = ADVANCED_FACE ( 'NONE', ( #795 ), #940, .T. ) ;
#41 = EDGE_CURVE ( 'NONE', #298, #925, #504, .T. ) ;
#42 = ORIENTED_EDGE ( 'NONE', *, *, #619, .F. ) ;
#43 = APPROVAL_ROLE ( '' ) ;
#44 = ORIENTED_EDGE ( 'NONE', *, *, #205, .F. ) ;
#45 = CARTESIAN_POINT ( 'NONE',  ( 99.76032862405334356, 5.979649989997683157, 7.900000000000000355 ) ) ;
#46 = FACE_BOUND ( 'NONE', #287, .T. ) ;
#47 = ORIENTED_EDGE ( 'NONE', *, *, #484, .T. ) ;
#48 = DIRECTION ( 'NONE',  ( 0.000000000000000000, 0.000000000000000000, -1.000000000000000000 ) ) ;
#49 = EDGE_CURVE ( 'NONE', #732, #826, #494, .T. ) ;
#50 = VERTEX_POINT ( 'NONE', #271 ) ;
#51 = VERTEX_POINT ( 'NONE', #571 ) ;
#52 = AXIS2_PLACEMENT_3D ( 'NONE', #106, #842, #407 ) ;
#53 = CARTESIAN_POINT ( 'NONE',  ( 94.00000000000000000, 7.000000000000000000, 29.94629867976520288 ) ) ;
#54 = VECTOR ( 'NONE', #292, 1000.000000000000000 ) ;
#55 = CARTESIAN_POINT ( 'NONE',  ( 88.33513536299456348, 7.631908731072181595, 13.40000000000000036 ) ) ;
#56 = ORIENTED_EDGE ( 'NONE', *, *, #71, .F. ) ;
#57 = DIRECTION ( 'NONE',  ( 0.5000000000000209832, 0.8660254037844264952, 0.000000000000000000 ) ) ;
#58 = ADVANCED_FACE ( 'NONE', ( #800 ), #726, .T. ) ;
#59 = CC_DESIGN_APPROVAL ( #404, ( #741 ) ) ;
#60 = CARTESIAN_POINT ( 'NONE',  ( 94.00000000000000000, 7.000000000000000000, 13.39999999999999858 ) ) ;
#61 = ORIENTED_EDGE ( 'NONE', *, *, #733, .F. ) ;
#62 = AXIS2_PLACEMENT_3D ( 'NONE', #102, #311, #686 ) ;
#63 = CYLINDRICAL_SURFACE ( 'NONE', #862, 0.3999999999999975797 ) ;
#64 = DIRECTION ( 'NONE',  ( 0.000000000000000000, 0.000000000000000000, -1.000000000000000000 ) ) ;
#65 = CC_DESIGN_PERSON_AND_ORGANIZATION_ASSIGNMENT ( #887, #588, ( #741 ) ) ;
#66 = AXIS2_PLACEMENT_3D ( 'NONE', #337, #626, #844 ) ;
#67 = ORIENTED_EDGE ( 'NONE', *, *, #620, .T. ) ;
#68 = PLANE ( 'NONE',  #622 ) ;
#69 = CYLINDRICAL_SURFACE ( 'NONE', #280, 0.3999999999999975797 ) ;
#70 = EDGE_CURVE ( 'NONE', #1, #104, #927, .T. ) ;
#71 = EDGE_CURVE ( 'NONE', #591, #359, #905, .T. ) ;
#72 = ORIENTED_EDGE ( 'NONE', *, *, #427, .F. ) ;
#73 = DIRECTION ( 'NONE',  ( 0.000000000000000000, 0.000000000000000000, 1.000000000000000000 ) ) ;
#74 = DIRECTION ( 'NONE',  ( 0.000000000000000000, 0.000000000000000000, 1.000000000000000000 ) ) ;
#75 = ORIENTED_EDGE ( 'NONE', *, *, #308, .F. ) ;
#76 = DIRECTION ( 'NONE',  ( -0.4999999999999939493, -0.8660254037844421493, 0.000000000000000000 ) ) ;
#77 = AXIS2_PLACEMENT_3D ( 'NONE', #28, #463, #735 ) ;
#78 = DIRECTION ( 'NONE',  ( 0.000000000000000000, 0.000000000000000000, 1.000000000000000000 ) ) ;
#79 = VERTEX_POINT ( 'NONE', #218 ) ;
#80 = COORDINATED_UNIVERSAL_TIME_OFFSET ( 1, 0, .AHEAD. ) ;
#81 = CARTESIAN_POINT ( 'NONE',  ( 94.00000000000000000, 7.000000000000000000, 13.39999999999999858 ) ) ;
#82 = CARTESIAN_POINT ( 'NONE',  ( 97.15912423566538791, 11.92366063652152519, 10.65000000000000213 ) ) ;
#83 = VECTOR ( 'NONE', #712, 1000.000000000000000 ) ;
#84 = ORIENTED_EDGE ( 'NONE', *, *, #251, .F. ) ;
#85 = VECTOR ( 'NONE', #616, 1000.000000000000000 ) ;
#86 = CYLINDRICAL_SURFACE ( 'NONE', #673, 0.3999999999999975797 ) ;
#87 = CARTESIAN_POINT ( 'NONE',  ( 97.37968133248436686, 11.58996231911076080, 7.900000000000000355 ) ) ;
#88 = DIRECTION ( 'NONE',  ( -1.000000000000000000, 0.000000000000000000, 0.000000000000000000 ) ) ;
#89 = CIRCLE ( 'NONE', #178, 0.3999999999999885314 ) ;
#90 = VERTEX_POINT ( 'NONE', #660 ) ;
#91 = CARTESIAN_POINT ( 'NONE',  ( 93.36607260738895775, 8.359461680554973739, 10.40000000000000036 ) ) ;
#92 = CIRCLE ( 'NONE', #628, 0.3999999999999975797 ) ;
#93 = CARTESIAN_POINT ( 'NONE',  ( 92.50000000000000000, 7.000000000000000000, 7.900000000000000355 ) ) ;
#94 = CARTESIAN_POINT ( 'NONE',  ( 88.15000000000000568, 7.000000000000000000, 13.39999999999999858 ) ) ;
#95 = VERTEX_POINT ( 'NONE', #437 ) ;
#96 = DIRECTION ( 'NONE',  ( 1.000000000000000000, 0.000000000000000000, 0.000000000000000000 ) ) ;
#97 = EDGE_CURVE ( 'NONE', #535, #50, #512, .T. ) ;
#98 = CIRCLE ( 'NONE', #635, 0.3999999999999975797 ) ;
#99 = CYLINDRICAL_SURFACE ( 'NONE', #840, 0.3999999999999975797 ) ;
#100 = CIRCLE ( 'NONE', #872, 4.999999999999990230 ) ;
#101 = ORIENTED_EDGE ( 'NONE', *, *, #579, .T. ) ;
#102 = CARTESIAN_POINT ( 'NONE',  ( 91.71481669547891613, 12.22187105018288023, 7.900000000000000355 ) ) ;
#103 = DIRECTION ( 'NONE',  ( 0.9063077870366479383, 0.4226182617407036601, -0.000000000000000000 ) ) ;
#104 = VERTEX_POINT ( 'NONE', #650 ) ;
#105 = CALENDAR_DATE ( 2026, 4, 4 ) ;
#106 = CARTESIAN_POINT ( 'NONE',  ( 91.71481669547891613, 12.22187105018288023, 13.40000000000000036 ) ) ;
#107 = DIRECTION ( 'NONE',  ( -0.000000000000000000, -0.000000000000000000, -1.000000000000000000 ) ) ;
#108 = CIRCLE ( 'NONE', #30, 5.849999999999994316 ) ;
#109 = VERTEX_POINT ( 'NONE', #867 ) ;
#110 = PERSON_AND_ORGANIZATION ( #18446744073709551615, #18446744073709551615 ) ;
#111 = FACE_OUTER_BOUND ( 'NONE', #177, .T. ) ;
#112 = EDGE_CURVE ( 'NONE', #894, #716, #37, .T. ) ;
#113 = EDGE_CURVE ( 'NONE', #706, #185, #863, .T. ) ;
#114 = FACE_OUTER_BOUND ( 'NONE', #561, .T. ) ;
#115 = ORIENTED_EDGE ( 'NONE', *, *, #835, .T. ) ;
#116 = CIRCLE ( 'NONE', #572, 0.3999999999999975797 ) ;
#117 = FACE_OUTER_BOUND ( 'NONE', #239, .T. ) ;
#118 = CARTESIAN_POINT ( 'NONE',  ( 96.68445307300842728, 1.802287839941922876, 13.40000000000000036 ) ) ;
#119 = ORIENTED_EDGE ( 'NONE', *, *, #306, .F. ) ;
#120 = DIRECTION ( 'NONE',  ( -0.000000000000000000, -0.000000000000000000, -1.000000000000000000 ) ) ;
#121 = ORIENTED_EDGE ( 'NONE', *, *, #803, .T. ) ;
#122 = DIRECTION ( 'NONE',  ( 0.000000000000000000, 0.000000000000000000, 1.000000000000000000 ) ) ;
#123 = EDGE_CURVE ( 'NONE', #583, #149, #116, .T. ) ;
#124 = DIRECTION ( 'NONE',  ( 1.000000000000000000, 0.000000000000000000, 0.000000000000000000 ) ) ;
#125 = ADVANCED_FACE ( 'NONE', ( #355 ), #69, .T. ) ;
#126 = EDGE_LOOP ( 'NONE', ( #857, #874, #332, #366 ) ) ;
#127 = APPROVAL_PERSON_ORGANIZATION ( #35, #503, #43 ) ;
#128 = CIRCLE ( 'NONE', #52, 0.3999999999999975797 ) ;
#129 = DIRECTION ( 'NONE',  ( 0.000000000000000000, 0.000000000000000000, 1.000000000000000000 ) ) ;
#130 = CIRCLE ( 'NONE', #540, 5.849999999999994316 ) ;
#131 = CARTESIAN_POINT ( 'NONE',  ( 98.95674002562954286, 7.656298954990750083, 29.94629867976520288 ) ) ;
#132 = ORIENTED_EDGE ( 'NONE', *, *, #306, .T. ) ;
#133 = CARTESIAN_POINT ( 'NONE',  ( 91.31554692699157272, 12.19771216005807801, 10.65000000000000213 ) ) ;
#134 = CC_DESIGN_DATE_AND_TIME_ASSIGNMENT ( #189, #774, ( #904 ) ) ;
#135 = FACE_OUTER_BOUND ( 'NONE', #830, .T. ) ;
#136 = ORIENTED_EDGE ( 'NONE', *, *, #868, .T. ) ;
#137 = FACE_OUTER_BOUND ( 'NONE', #142, .T. ) ;
#138 = EDGE_CURVE ( 'NONE', #1, #359, #289, .T. ) ;
#139 = EDGE_CURVE ( 'NONE', #648, #727, #814, .T. ) ;
#140 = CARTESIAN_POINT ( 'NONE',  ( 101.5586162282161524, 8.869573753828150942, 10.40000000000000036 ) ) ;
#141 = AXIS2_PLACEMENT_3D ( 'NONE', #913, #849, #551 ) ;
#142 = EDGE_LOOP ( 'NONE', ( #318, #457, #84, #924 ) ) ;
#143 = CARTESIAN_POINT ( 'NONE',  ( 88.23967137594667065, 8.020350010002360364, 7.900000000000000355 ) ) ;
#144 = CARTESIAN_POINT ( 'NONE',  ( 99.66486463700543652, 6.368091268927858373, 13.40000000000000036 ) ) ;
#145 = ORIENTED_EDGE ( 'NONE', *, *, #112, .T. ) ;
#146 = EDGE_CURVE ( 'NONE', #390, #583, #524, .T. ) ;
#147 = DIRECTION ( 'NONE',  ( 0.000000000000000000, 0.000000000000000000, 1.000000000000000000 ) ) ;
#148 = DIRECTION ( 'NONE',  ( 1.000000000000000000, 0.000000000000000000, 0.000000000000000000 ) ) ;
#149 = VERTEX_POINT ( 'NONE', #275 ) ;
#150 = CARTESIAN_POINT ( 'NONE',  ( 90.62031866751559050, 2.410037680889265399, 13.40000000000000036 ) ) ;
#151 = ORIENTED_EDGE ( 'NONE', *, *, #748, .T. ) ;
#152 = EDGE_CURVE ( 'NONE', #583, #638, #202, .T. ) ;
#153 = SECURITY_CLASSIFICATION_LEVEL ( 'unclassified' ) ;
#154 = LINE ( 'NONE', #690, #490 ) ;
#155 = LOCAL_TIME ( 19, 36, 11.00000000000000000, #80 ) ;
#156 = DIRECTION ( 'NONE',  ( 1.000000000000000000, 0.000000000000000000, 0.000000000000000000 ) ) ;
#157 = AXIS2_PLACEMENT_3D ( 'NONE', #773, #704, #338 ) ;
#158 = ORIENTED_EDGE ( 'NONE', *, *, #112, .F. ) ;
#159 = CARTESIAN_POINT ( 'NONE',  ( 94.00000000000000000, 7.000000000000000000, 7.900000000000000355 ) ) ;
#160 = DIRECTION ( 'NONE',  ( -0.000000000000000000, -0.000000000000000000, -1.000000000000000000 ) ) ;
#161 = ORIENTED_EDGE ( 'NONE', *, *, #776, .T. ) ;
#162 = ADVANCED_FACE ( 'NONE', ( #135 ), #720, .F. ) ;
#163 = CARTESIAN_POINT ( 'NONE',  ( 88.15000000000000568, 7.000000000000000000, 7.900000000000000355 ) ) ;
#164 = AXIS2_PLACEMENT_3D ( 'NONE', #24, #752, #383 ) ;
#165 = CYLINDRICAL_SURFACE ( 'NONE', #854, 5.849999999999994316 ) ;
#166 = DIRECTION ( 'NONE',  ( 1.000000000000000000, 0.000000000000000000, 0.000000000000000000 ) ) ;
#167 = EDGE_LOOP ( 'NONE', ( #190, #765, #513, #303, #577, #121, #845, #67 ) ) ;
#168 = DIRECTION ( 'NONE',  ( 0.000000000000000000, 0.000000000000000000, 1.000000000000000000 ) ) ;
#169 = CARTESIAN_POINT ( 'NONE',  ( 94.00000000000000000, 7.000000000000000000, 29.94629867976520288 ) ) ;
#170 = CARTESIAN_POINT ( 'NONE',  ( 95.99651528261297528, 1.501234072422002130, 10.65000000000000213 ) ) ;
#171 = CIRCLE ( 'NONE', #465, 0.3999999999999975797 ) ;
#172 = ORIENTED_EDGE ( 'NONE', *, *, #139, .F. ) ;
#173 = AXIS2_PLACEMENT_3D ( 'NONE', #722, #584, #349 ) ;
#174 = CARTESIAN_POINT ( 'NONE',  ( 95.99651528261297528, 1.501234072422004795, 7.900000000000000355 ) ) ;
#175 = CARTESIAN_POINT ( 'NONE',  ( 94.00000000000000000, 7.000000000000000000, 29.94629867976520288 ) ) ;
#176 = APPLICATION_CONTEXT ( 'configuration controlled 3d designs of mechanical parts and assemblies' ) ;
#177 = EDGE_LOOP ( 'NONE', ( #412, #778, #438, #836 ) ) ;
#178 = AXIS2_PLACEMENT_3D ( 'NONE', #353, #938, #76 ) ;
#179 = LINE ( 'NONE', #917, #344 ) ;
#180 = DIRECTION ( 'NONE',  ( 0.000000000000000000, 0.000000000000000000, 1.000000000000000000 ) ) ;
#181 = ORIENTED_EDGE ( 'NONE', *, *, #204, .T. ) ;
#182 = CARTESIAN_POINT ( 'NONE',  ( 91.31554692699157272, 12.19771216005807801, 7.900000000000000355 ) ) ;
#183 = VECTOR ( 'NONE', #631, 1000.000000000000000 ) ;
#184 = DIRECTION ( 'NONE',  ( -1.000000000000000000, 0.000000000000000000, 0.000000000000000000 ) ) ;
#185 = VERTEX_POINT ( 'NONE', #731 ) ;
#186 = VERTEX_POINT ( 'NONE', #460 ) ;
#187 = CARTESIAN_POINT ( 'NONE',  ( 94.00000000000000000, 7.000000000000000000, 7.900000000000000355 ) ) ;
#188 = VERTEX_POINT ( 'NONE', #897 ) ;
#189 = DATE_AND_TIME ( #558, #417 ) ;
#190 = ORIENTED_EDGE ( 'NONE', *, *, #295, .F. ) ;
#191 = EDGE_CURVE ( 'NONE', #95, #149, #312, .T. ) ;
#192 = LINE ( 'NONE', #777, #907 ) ;
#193 = ORIENTED_EDGE ( 'NONE', *, *, #139, .T. ) ;
#194 = AXIS2_PLACEMENT_3D ( 'NONE', #175, #107, #398 ) ;
#195 = CARTESIAN_POINT ( 'NONE',  ( 87.93513536299455779, 7.631908731072181595, 14.53137084989845995 ) ) ;
#196 = UNCERTAINTY_MEASURE_WITH_UNIT (LENGTH_MEASURE( 1.000000000000000082E-05 ), #447, 'distance_accuracy_value', 'NONE');
#197 = DIRECTION ( 'NONE',  ( 0.000000000000000000, 0.000000000000000000, 1.000000000000000000 ) ) ;
#198 = ORIENTED_EDGE ( 'NONE', *, *, #146, .F. ) ;
#199 = FACE_BOUND ( 'NONE', #683, .T. ) ;
#200 = APPROVAL ( #807, 'Deckungsgleich' ) ;
#201 = CIRCLE ( 'NONE', #7, 0.3999999999999946931 ) ;
#202 = LINE ( 'NONE', #499, #865 ) ;
#203 = EDGE_LOOP ( 'NONE', ( #496, #780, #801, #634 ) ) ;
#204 = EDGE_CURVE ( 'NONE', #864, #638, #13, .T. ) ;
#205 = EDGE_CURVE ( 'NONE', #879, #185, #502, .T. ) ;
#206 = LINE ( 'NONE', #501, #875 ) ;
#207 = AXIS2_PLACEMENT_3D ( 'NONE', #527, #679, #458 ) ;
#208 = VECTOR ( 'NONE', #78, 1000.000000000000000 ) ;
#209 = DIRECTION ( 'NONE',  ( -1.000000000000000000, 0.000000000000000000, 0.000000000000000000 ) ) ;
#210 = ORIENTED_EDGE ( 'NONE', *, *, #596, .T. ) ;
#211 = CYLINDRICAL_SURFACE ( 'NONE', #593, 0.3999999999999975797 ) ;
#212 = DIRECTION ( 'NONE',  ( -0.000000000000000000, -0.000000000000000000, -1.000000000000000000 ) ) ;
#213 = EDGE_CURVE ( 'NONE', #186, #535, #414, .T. ) ;
#214 = VECTOR ( 'NONE', #670, 1000.000000000000000 ) ;
#215 = ORIENTED_EDGE ( 'NONE', *, *, #223, .F. ) ;
#216 = CARTESIAN_POINT ( 'NONE',  ( 97.76381334144036828, 11.47841591757570257, 13.40000000000000036 ) ) ;
#217 = AXIS2_PLACEMENT_3D ( 'NONE', #489, #268, #779 ) ;
#218 = CARTESIAN_POINT ( 'NONE',  ( 87.93513536299455779, 7.631908731072181595, 7.900000000000000355 ) ) ;
#219 = CIRCLE ( 'NONE', #346, 4.999999999999990230 ) ;
#220 = ORIENTED_EDGE ( 'NONE', *, *, #276, .T. ) ;
#221 = APPROVAL_DATE_TIME ( #815, #404 ) ;
#222 = CARTESIAN_POINT ( 'NONE',  ( 94.00000000000000000, 7.000000000000000000, 7.900000000000000355 ) ) ;
#223 = EDGE_CURVE ( 'NONE', #258, #50, #546, .T. ) ;
#224 = ORIENTED_EDGE ( 'NONE', *, *, #138, .T. ) ;
#225 = PERSON_AND_ORGANIZATION ( #18446744073709551615, #18446744073709551615 ) ;
#226 = CIRCLE ( 'NONE', #882, 0.3999999999999907518 ) ;
#227 = CYLINDRICAL_SURFACE ( 'NONE', #693, 5.849999999999994316 ) ;
#228 = CARTESIAN_POINT ( 'NONE',  ( 94.00000000000000000, 7.000000000000000000, 7.900000000000000355 ) ) ;
#229 = ORIENTED_EDGE ( 'NONE', *, *, #931, .F. ) ;
#230 = CC_DESIGN_PERSON_AND_ORGANIZATION_ASSIGNMENT ( #310, #26, ( #762 ) ) ;
#231 = CARTESIAN_POINT ( 'NONE',  ( 94.00000000000000000, 7.000000000000000000, 8.900000000000002132 ) ) ;
#232 = FACE_OUTER_BOUND ( 'NONE', #291, .T. ) ;
#233 = AXIS2_PLACEMENT_3D ( 'NONE', #433, #943, #493 ) ;
#234 = ORIENTED_EDGE ( 'NONE', *, *, #467, .F. ) ;
#235 = ADVANCED_FACE ( 'NONE', ( #232 ), #99, .T. ) ;
#236 = EDGE_CURVE ( 'NONE', #621, #864, #379, .T. ) ;
#237 = DIRECTION ( 'NONE',  ( -1.000000000000000000, 0.000000000000000000, 0.000000000000000000 ) ) ;
#238 = DIRECTION ( 'NONE',  ( -0.000000000000000000, -0.000000000000000000, -1.000000000000000000 ) ) ;
#239 = EDGE_LOOP ( 'NONE', ( #792, #252, #786, #328 ) ) ;
#240 = APPROVAL_ROLE ( '' ) ;
#241 = DIRECTION ( 'NONE',  ( 1.000000000000000000, 0.000000000000000000, 0.000000000000000000 ) ) ;
#242 = CARTESIAN_POINT ( 'NONE',  ( 90.62031866751559050, 2.410037680889265399, 13.40000000000000036 ) ) ;
#243 = ORIENTED_EDGE ( 'NONE', *, *, #449, .F. ) ;
#244 = DIRECTION ( 'NONE',  ( 0.000000000000000000, 0.000000000000000000, 1.000000000000000000 ) ) ;
#245 = DIRECTION ( 'NONE',  ( 1.000000000000000000, 0.000000000000000000, 0.000000000000000000 ) ) ;
#246 = VECTOR ( 'NONE', #519, 1000.000000000000000 ) ;
#247 = ORIENTED_EDGE ( 'NONE', *, *, #825, .F. ) ;
#248 = CIRCLE ( 'NONE', #422, 0.3999999999999975797 ) ;
#249 = FACE_OUTER_BOUND ( 'NONE', #203, .T. ) ;
#250 = DIRECTION ( 'NONE',  ( -0.000000000000000000, -0.000000000000000000, -1.000000000000000000 ) ) ;
#251 = EDGE_CURVE ( 'NONE', #51, #401, #525, .T. ) ;
#252 = ORIENTED_EDGE ( 'NONE', *, *, #277, .F. ) ;
#253 = APPROVAL_DATE_TIME ( #623, #503 ) ;
#254 = ORIENTED_EDGE ( 'NONE', *, *, #495, .T. ) ;
#255 = DIRECTION ( 'NONE',  ( 0.000000000000000000, 0.000000000000000000, 1.000000000000000000 ) ) ;
#256 = AXIS2_PLACEMENT_3D ( 'NONE', #687, #749, #88 ) ;
#257 = PLANE ( 'NONE',  #66 ) ;
#258 = VERTEX_POINT ( 'NONE', #371 ) ;
#259 = ORIENTED_EDGE ( 'NONE', *, *, #642, .T. ) ;
#260 = CARTESIAN_POINT ( 'NONE',  ( 87.93513536299455779, 7.631908731072181595, 13.40000000000000036 ) ) ;
#261 = AXIS2_PLACEMENT_3D ( 'NONE', #81, #594, #96 ) ;
#262 = FACE_OUTER_BOUND ( 'NONE', #709, .T. ) ;
#263 = EDGE_CURVE ( 'NONE', #31, #486, #705, .T. ) ;
#264 = EDGE_LOOP ( 'NONE', ( #837, #919, #568, #761 ) ) ;
#265 = AXIS2_PLACEMENT_3D ( 'NONE', #542, #926, #38 ) ;
#266 = COORDINATED_UNIVERSAL_TIME_OFFSET ( 1, 0, .AHEAD. ) ;
#267 = ORIENTED_EDGE ( 'NONE', *, *, #817, .T. ) ;
#268 = DIRECTION ( 'NONE',  ( 0.000000000000000000, 0.000000000000000000, 1.000000000000000000 ) ) ;
#269 = ORIENTED_EDGE ( 'NONE', *, *, #276, .F. ) ;
#270 = CARTESIAN_POINT ( 'NONE',  ( 92.50000000000000000, 7.000000000000000000, 8.900000000000002132 ) ) ;
#271 = CARTESIAN_POINT ( 'NONE',  ( 92.00348471738702472, 12.49876592757799543, 7.900000000000000355 ) ) ;
#272 = CIRCLE ( 'NONE', #77, 4.999999999999990230 ) ;
#273 = ORIENTED_EDGE ( 'NONE', *, *, #787, .F. ) ;
#274 = DIRECTION ( 'NONE',  ( -0.000000000000000000, 0.000000000000000000, 1.000000000000000000 ) ) ;
#275 = CARTESIAN_POINT ( 'NONE',  ( 99.84357730867380099, 6.725948476463424974, 13.40000000000000036 ) ) ;
#276 = EDGE_CURVE ( 'NONE', #109, #841, #92, .T. ) ;
#277 = EDGE_CURVE ( 'NONE', #380, #648, #428, .T. ) ;
#278 = ORIENTED_EDGE ( 'NONE', *, *, #620, .F. ) ;
#279 = FACE_OUTER_BOUND ( 'NONE', #750, .T. ) ;
#280 = AXIS2_PLACEMENT_3D ( 'NONE', #362, #784, #567 ) ;
#281 = CARTESIAN_POINT ( 'NONE',  ( 94.00000000000000000, 7.000000000000000000, 13.40000000000000036 ) ) ;
#282 = EDGE_LOOP ( 'NONE', ( #234, #132, #500, #307, #671, #624, #562, #754 ) ) ;
#283 = PLANE ( 'NONE',  #543 ) ;
#284 = MANIFOLD_SOLID_BREP ( 'Basisteil-Rumble_Sleeve-1', #405 ) ;
#285 = AXIS2_PLACEMENT_3D ( 'NONE', #222, #824, #302 ) ;
#286 = DIRECTION ( 'NONE',  ( 0.9063077870366479383, 0.4226182617407036601, -0.000000000000000000 ) ) ;
#287 = EDGE_LOOP ( 'NONE', ( #851, #657 ) ) ;
#288 = LINE ( 'NONE', #858, #589 ) ;
#289 = LINE ( 'NONE', #131, #738 ) ;
#290 = ADVANCED_FACE ( 'NONE', ( #600 ), #365, .T. ) ;
#291 = EDGE_LOOP ( 'NONE', ( #442, #850, #313, #665 ) ) ;
#292 = DIRECTION ( 'NONE',  ( 0.000000000000000000, 0.000000000000000000, 1.000000000000000000 ) ) ;
#293 = CC_DESIGN_SECURITY_CLASSIFICATION ( #904, ( #639 ) ) ;
#294 = CIRCLE ( 'NONE', #217, 0.3999999999999975797 ) ;
#295 = EDGE_CURVE ( 'NONE', #591, #879, #681, .T. ) ;
#296 = LINE ( 'NONE', #809, #920 ) ;
#297 = APPROVAL_PERSON_ORGANIZATION ( #514, #200, #734 ) ;
#298 = VERTEX_POINT ( 'NONE', #94 ) ;
#299 = APPROVAL_DATE_TIME ( #666, #200 ) ;
#300 = DIRECTION ( 'NONE',  ( -0.000000000000000000, -0.000000000000000000, -1.000000000000000000 ) ) ;
#301 = AXIS2_PLACEMENT_3D ( 'NONE', #714, #497, #789 ) ;
#302 = DIRECTION ( 'NONE',  ( 1.000000000000000000, 0.000000000000000000, 0.000000000000000000 ) ) ;
#303 = ORIENTED_EDGE ( 'NONE', *, *, #817, .F. ) ;
#304 = DIRECTION ( 'NONE',  ( 0.000000000000000000, 0.000000000000000000, 1.000000000000000000 ) ) ;
#305 = CARTESIAN_POINT ( 'NONE',  ( 94.00000000000000000, 7.000000000000000000, 13.39999999999999858 ) ) ;
#306 = EDGE_CURVE ( 'NONE', #188, #90, #296, .T. ) ;
#307 = ORIENTED_EDGE ( 'NONE', *, *, #449, .T. ) ;
#308 = EDGE_CURVE ( 'NONE', #343, #109, #98, .T. ) ;
#309 = CIRCLE ( 'NONE', #871, 5.849999999999994316 ) ;
#310 = PERSON_AND_ORGANIZATION ( #18446744073709551615, #18446744073709551615 ) ;
#311 = DIRECTION ( 'NONE',  ( 0.000000000000000000, 0.000000000000000000, 1.000000000000000000 ) ) ;
#312 = LINE ( 'NONE', #883, #208 ) ;
#313 = ORIENTED_EDGE ( 'NONE', *, *, #27, .T. ) ;
#314 = MECHANICAL_CONTEXT ( 'NONE', #176, 'mechanical' ) ;
#315 = FACE_OUTER_BOUND ( 'NONE', #126, .T. ) ;
#316 = EDGE_CURVE ( 'NONE', #258, #186, #736, .T. ) ;
#317 = DIRECTION ( 'NONE',  ( 0.000000000000000000, -0.000000000000000000, -1.000000000000000000 ) ) ;
#318 = ORIENTED_EDGE ( 'NONE', *, *, #41, .F. ) ;
#319 = DIRECTION ( 'NONE',  ( -0.000000000000000000, -0.000000000000000000, -1.000000000000000000 ) ) ;
#320 = AXIS2_PLACEMENT_3D ( 'NONE', #159, #14, #609 ) ;
#321 = DIRECTION ( 'NONE',  ( 0.000000000000000000, 0.000000000000000000, -1.000000000000000000 ) ) ;
#322 = EDGE_LOOP ( 'NONE', ( #215, #42, #521, #453, #898, #692, #491, #425, #813, #517, #61, #602, #273, #869, #885, #247 ) ) ;
#323 = CARTESIAN_POINT ( 'NONE',  ( 88.33513536299456348, 7.631908731072181595, 7.900000000000000355 ) ) ;
#324 = EDGE_CURVE ( 'NONE', #90, #104, #309, .T. ) ;
#325 = LOCAL_TIME ( 19, 36, 11.00000000000000000, #266 ) ;
#326 = CARTESIAN_POINT ( 'NONE',  ( 99.75857503175184604, 8.030200758922346083, 29.94629867976520288 ) ) ;
#327 = AXIS2_PLACEMENT_3D ( 'NONE', #429, #856, #124 ) ;
#328 = ORIENTED_EDGE ( 'NONE', *, *, #49, .T. ) ;
#329 = EDGE_LOOP ( 'NONE', ( #16, #172, #474, #420 ) ) ;
#330 = DIRECTION ( 'NONE',  ( 0.000000000000000000, 0.000000000000000000, 1.000000000000000000 ) ) ;
#331 = CARTESIAN_POINT ( 'NONE',  ( 88.15642269132619901, 7.274051523536614994, 13.40000000000000036 ) ) ;
#332 = ORIENTED_EDGE ( 'NONE', *, *, #483, .T. ) ;
#333 = AXIS2_PLACEMENT_3D ( 'NONE', #598, #168, #684 ) ;
#334 = CARTESIAN_POINT ( 'NONE',  ( 95.99651528261297528, 1.501234072422004795, 13.40000000000000036 ) ) ;
#335 = AXIS2_PLACEMENT_3D ( 'NONE', #515, #15, #148 ) ;
#336 = EDGE_CURVE ( 'NONE', #486, #31, #507, .T. ) ;
#337 = CARTESIAN_POINT ( 'NONE',  ( 0.000000000000000000, 0.000000000000000000, 7.900000000000000355 ) ) ;
#338 = DIRECTION ( 'NONE',  ( 0.5000000000000209832, 0.8660254037844264952, 0.000000000000000000 ) ) ;
#339 = APPROVAL_STATUS ( 'not_yet_approved' ) ;
#340 = ORIENTED_EDGE ( 'NONE', *, *, #395, .F. ) ;
#341 = DIRECTION ( 'NONE',  ( 0.000000000000000000, 0.000000000000000000, 1.000000000000000000 ) ) ;
#342 = VECTOR ( 'NONE', #5, 1000.000000000000000 ) ;
#343 = VERTEX_POINT ( 'NONE', #742 ) ;
#344 = VECTOR ( 'NONE', #48, 1000.000000000000000 ) ;
#345 = CYLINDRICAL_SURFACE ( 'NONE', #265, 5.849999999999994316 ) ;
#346 = AXIS2_PLACEMENT_3D ( 'NONE', #658, #147, #364 ) ;
#347 = DIRECTION ( 'NONE',  ( -1.000000000000000000, 0.000000000000000000, 0.000000000000000000 ) ) ;
#348 = ORIENTED_EDGE ( 'NONE', *, *, #766, .T. ) ;
#349 = DIRECTION ( 'NONE',  ( 1.000000000000000000, 0.000000000000000000, 0.000000000000000000 ) ) ;
#350 = CARTESIAN_POINT ( 'NONE',  ( 89.00000000000001421, 7.000000000000000000, 29.94629867976520288 ) ) ;
#351 = CIRCLE ( 'NONE', #516, 5.849999999999994316 ) ;
#352 = ORIENTED_EDGE ( 'NONE', *, *, #316, .F. ) ;
#353 = CARTESIAN_POINT ( 'NONE',  ( 99.66486463700543652, 6.368091268927858373, 7.900000000000000355 ) ) ;
#354 = AXIS2_PLACEMENT_3D ( 'NONE', #228, #812, #156 ) ;
#355 = FACE_OUTER_BOUND ( 'NONE', #909, .T. ) ;
#356 = ORIENTED_EDGE ( 'NONE', *, *, #718, .F. ) ;
#357 = LINE ( 'NONE', #133, #54 ) ;
#358 = DIRECTION ( 'NONE',  ( -0.000000000000000000, -0.000000000000000000, -1.000000000000000000 ) ) ;
#359 = VERTEX_POINT ( 'NONE', #393 ) ;
#360 = DIRECTION ( 'NONE',  ( 1.000000000000000000, 0.000000000000000000, 0.000000000000000000 ) ) ;
#361 = ADVANCED_FACE ( 'NONE', ( #485 ), #538, .F. ) ;
#362 = CARTESIAN_POINT ( 'NONE',  ( 90.62031866751559050, 2.410037680889265399, 14.53137084989845995 ) ) ;
#363 = ORIENTED_EDGE ( 'NONE', *, *, #652, .T. ) ;
#364 = DIRECTION ( 'NONE',  ( 1.000000000000000000, 0.000000000000000000, 0.000000000000000000 ) ) ;
#365 = CYLINDRICAL_SURFACE ( 'NONE', #753, 0.3999999999999975797 ) ;
#366 = ORIENTED_EDGE ( 'NONE', *, *, #748, .F. ) ;
#367 = CALENDAR_DATE ( 2026, 4, 4 ) ;
#368 = DIRECTION ( 'NONE',  ( -1.000000000000000000, 0.000000000000000000, 0.000000000000000000 ) ) ;
#369 = AXIS2_PLACEMENT_3D ( 'NONE', #936, #358, #873 ) ;
#370 = EDGE_CURVE ( 'NONE', #553, #611, #614, .T. ) ;
#371 = CARTESIAN_POINT ( 'NONE',  ( 97.15912423566538791, 11.92366063652152519, 7.900000000000000355 ) ) ;
#372 = CIRCLE ( 'NONE', #498, 5.849999999999994316 ) ;
#373 = ORIENTED_EDGE ( 'NONE', *, *, #747, .T. ) ;
#374 = DIRECTION ( 'NONE',  ( -0.000000000000000000, -0.000000000000000000, -1.000000000000000000 ) ) ;
#375 = CARTESIAN_POINT ( 'NONE',  ( 97.76381334144036828, 11.47841591757570257, 7.900000000000000355 ) ) ;
#376 = ADVANCED_FACE ( 'NONE', ( #403 ), #544, .F. ) ;
#377 = EDGE_CURVE ( 'NONE', #359, #510, #772, .T. ) ;
#378 = DIRECTION ( 'NONE',  ( -0.000000000000000000, -0.000000000000000000, -1.000000000000000000 ) ) ;
#379 = CIRCLE ( 'NONE', #256, 0.3999999999999975797 ) ;
#380 = VERTEX_POINT ( 'NONE', #839 ) ;
#381 = DIRECTION ( 'NONE',  ( -1.000000000000000000, 0.000000000000000000, 0.000000000000000000 ) ) ;
#382 = LINE ( 'NONE', #758, #441 ) ;
#383 = DIRECTION ( 'NONE',  ( 1.000000000000000000, 0.000000000000000000, 0.000000000000000000 ) ) ;
#384 = EDGE_LOOP ( 'NONE', ( #340, #775, #210, #847, #34, #259, #677, #193, #661, #101, #545, #468, #220, #161, #6, #688, #12, #399, #914, #56, #820, #806 ) ) ;
#385 =( NAMED_UNIT ( * ) SI_UNIT ( $, .STERADIAN. ) SOLID_ANGLE_UNIT ( ) );
#386 = ADVANCED_FACE ( 'NONE', ( #703 ), #764, .T. ) ;
#387 = DIRECTION ( 'NONE',  ( 1.000000000000000000, 0.000000000000000000, 0.000000000000000000 ) ) ;
#388 = CIRCLE ( 'NONE', #537, 0.3999999999999892530 ) ;
#389 = CARTESIAN_POINT ( 'NONE',  ( 88.33513536299456348, 7.631908731072181595, 14.53137084989845995 ) ) ;
#390 = VERTEX_POINT ( 'NONE', #118 ) ;
#391 = CALENDAR_DATE ( 2026, 4, 4 ) ;
#392 = CARTESIAN_POINT ( 'NONE',  ( 99.75857503175186025, 8.030200758922347859, 13.40000000000000036 ) ) ;
#393 = CARTESIAN_POINT ( 'NONE',  ( 98.95674002562954286, 7.656298954990744754, 13.39999999999999858 ) ) ;
#394 = ORIENTED_EDGE ( 'NONE', *, *, #395, .T. ) ;
#395 = EDGE_CURVE ( 'NONE', #188, #937, #39, .T. ) ;
#396 = DIRECTION ( 'NONE',  ( 1.000000000000000000, 0.000000000000000000, 0.000000000000000000 ) ) ;
#397 = AXIS2_PLACEMENT_3D ( 'NONE', #818, #674, #18 ) ;
#398 = DIRECTION ( 'NONE',  ( -1.000000000000000000, 0.000000000000000000, 0.000000000000000000 ) ) ;
#399 = ORIENTED_EDGE ( 'NONE', *, *, #464, .T. ) ;
#400 = PRODUCT_DEFINITION_SHAPE ( 'NONE', 'NONE',  #741 ) ;
#401 = VERTEX_POINT ( 'NONE', #331 ) ;
#402 = CYLINDRICAL_SURFACE ( 'NONE', #509, 1.500000000000001332 ) ;
#403 = FACE_OUTER_BOUND ( 'NONE', #461, .T. ) ;
#404 = APPROVAL ( #891, 'Deckungsgleich' ) ;
#405 = CLOSED_SHELL ( 'NONE', ( #162, #923, #235, #916, #911, #548, #531, #448, #386, #40, #886, #708, #788, #668, #901, #409, #659, #915, #125, #290, #410, #58, #361, #939, #376, #651 ) ) ;
#406 = ORIENTED_EDGE ( 'NONE', *, *, #316, .T. ) ;
#407 = DIRECTION ( 'NONE',  ( 1.000000000000000000, 0.000000000000000000, 0.000000000000000000 ) ) ;
#408 = CARTESIAN_POINT ( 'NONE',  ( 13.47389940120557483, -28.89487051213450641, 13.40000000000000036 ) ) ;
#409 = ADVANCED_FACE ( 'NONE', ( #46, #691 ), #257, .F. ) ;
#410 = ADVANCED_FACE ( 'NONE', ( #262 ), #556, .T. ) ;
#411 = ORIENTED_EDGE ( 'NONE', *, *, #578, .T. ) ;
#412 = ORIENTED_EDGE ( 'NONE', *, *, #868, .F. ) ;
#413 = CARTESIAN_POINT ( 'NONE',  ( 94.00000000000000000, 7.000000000000000000, 13.39999999999999858 ) ) ;
#414 = CIRCLE ( 'NONE', #581, 5.849999999999994316 ) ;
#415 = EDGE_LOOP ( 'NONE', ( #743, #573, #701, #406 ) ) ;
#416 = LINE ( 'NONE', #711, #85 ) ;
#417 = LOCAL_TIME ( 19, 36, 11.00000000000000000, #470 ) ;
#418 = DIRECTION ( 'NONE',  ( 1.000000000000000000, 0.000000000000000000, 0.000000000000000000 ) ) ;
#419 = AXIS2_PLACEMENT_3D ( 'NONE', #707, #330, #763 ) ;
#420 = ORIENTED_EDGE ( 'NONE', *, *, #787, .T. ) ;
#421 = DIRECTION ( 'NONE',  ( 1.000000000000000000, 0.000000000000000000, -0.000000000000000000 ) ) ;
#422 = AXIS2_PLACEMENT_3D ( 'NONE', #569, #73, #439 ) ;
#423 = DIRECTION ( 'NONE',  ( 0.000000000000000000, 0.000000000000000000, 1.000000000000000000 ) ) ;
#424 = AXIS2_PLACEMENT_3D ( 'NONE', #492, #511, #728 ) ;
#425 = ORIENTED_EDGE ( 'NONE', *, *, #578, .F. ) ;
#426 = FACE_OUTER_BOUND ( 'NONE', #860, .T. ) ;
#427 = EDGE_CURVE ( 'NONE', #713, #621, #829, .T. ) ;
#428 = CIRCLE ( 'NONE', #335, 5.849999999999994316 ) ;
#429 = CARTESIAN_POINT ( 'NONE',  ( 94.00000000000000000, 7.000000000000000000, 8.900000000000002132 ) ) ;
#430 = ORIENTED_EDGE ( 'NONE', *, *, #377, .T. ) ;
#431 = CARTESIAN_POINT ( 'NONE',  ( 94.00000000000000000, 7.000000000000000000, 10.40000000000000036 ) ) ;
#432 = AXIS2_PLACEMENT_3D ( 'NONE', #700, #250, #184 ) ;
#433 = CARTESIAN_POINT ( 'NONE',  ( 94.00000000000000000, 7.000000000000000000, 13.39999999999999858 ) ) ;
#434 = EDGE_LOOP ( 'NONE', ( #278, #44 ) ) ;
#435 = DIRECTION ( 'NONE',  ( -0.000000000000000000, -0.000000000000000000, -1.000000000000000000 ) ) ;
#436 = EDGE_CURVE ( 'NONE', #727, #401, #682, .T. ) ;
#437 = CARTESIAN_POINT ( 'NONE',  ( 99.84357730867380099, 6.725948476463421422, 7.900000000000000355 ) ) ;
#438 = ORIENTED_EDGE ( 'NONE', *, *, #718, .T. ) ;
#439 = DIRECTION ( 'NONE',  ( 1.000000000000000000, 0.000000000000000000, 0.000000000000000000 ) ) ;
#440 = DIRECTION ( 'NONE',  ( -1.000000000000000000, 0.000000000000000000, 0.000000000000000000 ) ) ;
#441 = VECTOR ( 'NONE', #740, 1000.000000000000000 ) ;
#442 = ORIENTED_EDGE ( 'NONE', *, *, #436, .F. ) ;
#443 = CARTESIAN_POINT ( 'NONE',  ( 97.68888524040744414, 10.37522231610070023, 13.40000000000000036 ) ) ;
#444 = CARTESIAN_POINT ( 'NONE',  ( 97.76381334144036828, 11.47841591757570257, 10.65000000000000213 ) ) ;
#445 = DIRECTION ( 'NONE',  ( 1.000000000000000000, 0.000000000000000000, 0.000000000000000000 ) ) ;
#446 = ORIENTED_EDGE ( 'NONE', *, *, #547, .F. ) ;
#447 =( LENGTH_UNIT ( ) NAMED_UNIT ( * ) SI_UNIT ( .MILLI., .METRE. ) );
#448 = ADVANCED_FACE ( 'NONE', ( #114 ), #834, .T. ) ;
#449 = EDGE_CURVE ( 'NONE', #104, #510, #33, .T. ) ;
#450 = CARTESIAN_POINT ( 'NONE',  ( 97.68888524040741572, 10.37522231610069490, 10.40000000000000036 ) ) ;
#451 = VECTOR ( 'NONE', #286, 1000.000000000000114 ) ;
#452 = CARTESIAN_POINT ( 'NONE',  ( 94.00000000000000000, 7.000000000000000000, 7.900000000000000355 ) ) ;
#453 = ORIENTED_EDGE ( 'NONE', *, *, #899, .F. ) ;
#454 = FACE_OUTER_BOUND ( 'NONE', #282, .T. ) ;
#455 = DIRECTION ( 'NONE',  ( 0.000000000000000000, 0.000000000000000000, -1.000000000000000000 ) ) ;
#456 = AXIS2_PLACEMENT_3D ( 'NONE', #590, #317, #605 ) ;
#457 = ORIENTED_EDGE ( 'NONE', *, *, #579, .F. ) ;
#458 = DIRECTION ( 'NONE',  ( -0.9063077870366473832, -0.4226182617407047704, 0.000000000000000000 ) ) ;
#459 = CARTESIAN_POINT ( 'NONE',  ( 90.23618665855958909, 2.521584082424328077, 7.900000000000000355 ) ) ;
#460 = CARTESIAN_POINT ( 'NONE',  ( 97.15912423566538791, 11.92366063652152519, 13.40000000000000036 ) ) ;
#461 = EDGE_LOOP ( 'NONE', ( #21, #224, #430, #243 ) ) ;
#462 =( NAMED_UNIT ( * ) PLANE_ANGLE_UNIT ( ) SI_UNIT ( $, .RADIAN. ) );
#463 = DIRECTION ( 'NONE',  ( 0.000000000000000000, 0.000000000000000000, 1.000000000000000000 ) ) ;
#464 = EDGE_CURVE ( 'NONE', #149, #510, #351, .T. ) ;
#465 = AXIS2_PLACEMENT_3D ( 'NONE', #613, #832, #387 ) ;
#466 = DIRECTION ( 'NONE',  ( -0.000000000000000000, -0.000000000000000000, -1.000000000000000000 ) ) ;
#467 = EDGE_CURVE ( 'NONE', #188, #796, #929, .T. ) ;
#468 = ORIENTED_EDGE ( 'NONE', *, *, #308, .T. ) ;
#469 = AXIS2_PLACEMENT_3D ( 'NONE', #431, #930, #580 ) ;
#470 = COORDINATED_UNIVERSAL_TIME_OFFSET ( 1, 0, .AHEAD. ) ;
#471 = FACE_OUTER_BOUND ( 'NONE', #167, .T. ) ;
#472 = APPROVAL_PERSON_ORGANIZATION ( #603, #404, #240 ) ;
#473 = CARTESIAN_POINT ( 'NONE',  ( 0.000000000000000000, 0.000000000000000000, 10.40000000000000036 ) ) ;
#474 = ORIENTED_EDGE ( 'NONE', *, *, #816, .T. ) ;
#475 = ORIENTED_EDGE ( 'NONE', *, *, #97, .F. ) ;
#476 = CYLINDRICAL_SURFACE ( 'NONE', #685, 4.999999999999990230 ) ;
#477 = CIRCLE ( 'NONE', #261, 5.849999999999994316 ) ;
#478 = PRODUCT_RELATED_PRODUCT_CATEGORY ( 'detail', '', ( #762 ) ) ;
#479 = CARTESIAN_POINT ( 'NONE',  ( 94.00000000000000000, 7.000000000000000000, 13.39999999999999858 ) ) ;
#480 = ORIENTED_EDGE ( 'NONE', *, *, #652, .F. ) ;
#481 = VECTOR ( 'NONE', #918, 1000.000000000000114 ) ;
#482 = CARTESIAN_POINT ( 'NONE',  ( 94.00000000000000000, 7.000000000000000000, 13.40000000000000036 ) ) ;
#483 = EDGE_CURVE ( 'NONE', #925, #539, #730, .T. ) ;
#484 = EDGE_CURVE ( 'NONE', #539, #505, #565, .T. ) ;
#485 = FACE_OUTER_BOUND ( 'NONE', #607, .T. ) ;
#486 = VERTEX_POINT ( 'NONE', #93 ) ;
#487 = CARTESIAN_POINT ( 'NONE',  ( 90.22031866751559903, 2.410037680889265399, 14.53137084989845995 ) ) ;
#488 = ORIENTED_EDGE ( 'NONE', *, *, #70, .T. ) ;
#489 = CARTESIAN_POINT ( 'NONE',  ( 96.28518330452108387, 1.778128949817119331, 13.40000000000000036 ) ) ;
#490 = VECTOR ( 'NONE', #900, 1000.000000000000000 ) ;
#491 = ORIENTED_EDGE ( 'NONE', *, *, #563, .F. ) ;
#492 = CARTESIAN_POINT ( 'NONE',  ( 94.00000000000000000, 7.000000000000000000, 29.94629867976520288 ) ) ;
#493 = DIRECTION ( 'NONE',  ( 1.000000000000000000, 0.000000000000000000, 0.000000000000000000 ) ) ;
#494 = CIRCLE ( 'NONE', #617, 5.849999999999994316 ) ;
#495 = EDGE_CURVE ( 'NONE', #706, #591, #272, .T. ) ;
#496 = ORIENTED_EDGE ( 'NONE', *, *, #370, .F. ) ;
#497 = DIRECTION ( 'NONE',  ( -0.000000000000000000, -0.000000000000000000, -1.000000000000000000 ) ) ;
#498 = AXIS2_PLACEMENT_3D ( 'NONE', #413, #341, #921 ) ;
#499 = CARTESIAN_POINT ( 'NONE',  ( 99.76032862405334356, 5.979649989997683157, 10.65000000000000213 ) ) ;
#500 = ORIENTED_EDGE ( 'NONE', *, *, #324, .T. ) ;
#501 = CARTESIAN_POINT ( 'NONE',  ( 88.23967137594667065, 8.020350010002360364, 10.65000000000000213 ) ) ;
#502 = CIRCLE ( 'NONE', #456, 4.999999999999990230 ) ;
#503 = APPROVAL ( #339, 'Deckungsgleich' ) ;
#504 = LINE ( 'NONE', #508, #782 ) ;
#505 = VERTEX_POINT ( 'NONE', #828 ) ;
#506 = CARTESIAN_POINT ( 'NONE',  ( 91.71481669547891613, 12.22187105018288023, 14.53137084989845995 ) ) ;
#507 = CIRCLE ( 'NONE', #354, 1.500000000000001332 ) ;
#508 = CARTESIAN_POINT ( 'NONE',  ( 88.15000000000000568, 7.000000000000000000, 29.94629867976520288 ) ) ;
#509 = AXIS2_PLACEMENT_3D ( 'NONE', #482, #906, #641 ) ;
#510 = VERTEX_POINT ( 'NONE', #392 ) ;
#511 = DIRECTION ( 'NONE',  ( -0.000000000000000000, -0.000000000000000000, -1.000000000000000000 ) ) ;
#512 = LINE ( 'NONE', #723, #771 ) ;
#513 = ORIENTED_EDGE ( 'NONE', *, *, #138, .F. ) ;
#514 = PERSON_AND_ORGANIZATION ( #18446744073709551615, #18446744073709551615 ) ;
#515 = CARTESIAN_POINT ( 'NONE',  ( 94.00000000000000000, 7.000000000000000000, 13.39999999999999858 ) ) ;
#516 = AXIS2_PLACEMENT_3D ( 'NONE', #479, #745, #896 ) ;
#517 = ORIENTED_EDGE ( 'NONE', *, *, #483, .F. ) ;
#518 = PERSON_AND_ORGANIZATION_ROLE ( 'design_supplier' ) ;
#519 = DIRECTION ( 'NONE',  ( -0.000000000000000000, -0.000000000000000000, -1.000000000000000000 ) ) ;
#520 = CARTESIAN_POINT ( 'NONE',  ( 96.28518330452108387, 1.778128949817119331, 14.53137084989845995 ) ) ;
#521 = ORIENTED_EDGE ( 'NONE', *, *, #729, .F. ) ;
#522 = DATE_TIME_ROLE ( 'creation_date' ) ;
#523 = DIRECTION ( 'NONE',  ( 0.000000000000000000, -0.000000000000000000, -1.000000000000000000 ) ) ;
#524 = CIRCLE ( 'NONE', #823, 5.849999999999994316 ) ;
#525 = LINE ( 'NONE', #610, #793 ) ;
#526 = ORIENTED_EDGE ( 'NONE', *, *, #541, .T. ) ;
#527 = CARTESIAN_POINT ( 'NONE',  ( 93.36607260738895775, 8.359461680554973739, 10.40000000000000036 ) ) ;
#528 = CARTESIAN_POINT ( 'NONE',  ( 94.00000000000000000, 7.000000000000000000, 7.900000000000000355 ) ) ;
#529 = DIRECTION ( 'NONE',  ( -1.000000000000000000, 0.000000000000000000, 0.000000000000000000 ) ) ;
#530 = EDGE_LOOP ( 'NONE', ( #394, #348, #229, #119 ) ) ;
#531 = ADVANCED_FACE ( 'NONE', ( #454 ), #165, .T. ) ;
#532 = CALENDAR_DATE ( 2026, 4, 4 ) ;
#533 = CARTESIAN_POINT ( 'NONE',  ( 90.62031866751559050, 2.410037680889265399, 7.900000000000000355 ) ) ;
#534 = DIRECTION ( 'NONE',  ( -1.000000000000000000, 0.000000000000000000, -0.000000000000000000 ) ) ;
#535 = VERTEX_POINT ( 'NONE', #892 ) ;
#536 = DIRECTION ( 'NONE',  ( 0.000000000000000000, 0.000000000000000000, 1.000000000000000000 ) ) ;
#537 = AXIS2_PLACEMENT_3D ( 'NONE', #87, #304, #888 ) ;
#538 = PLANE ( 'NONE',  #601 ) ;
#539 = VERTEX_POINT ( 'NONE', #459 ) ;
#540 = AXIS2_PLACEMENT_3D ( 'NONE', #550, #122, #770 ) ;
#541 = EDGE_CURVE ( 'NONE', #737, #841, #154, .T. ) ;
#542 = CARTESIAN_POINT ( 'NONE',  ( 94.00000000000000000, 7.000000000000000000, 29.94629867976520288 ) ) ;
#543 = AXIS2_PLACEMENT_3D ( 'NONE', #2, #129, #421 ) ;
#544 = PLANE ( 'NONE',  #554 ) ;
#545 = ORIENTED_EDGE ( 'NONE', *, *, #757, .T. ) ;
#546 = CIRCLE ( 'NONE', #164, 5.849999999999994316 ) ;
#547 = EDGE_CURVE ( 'NONE', #864, #390, #382, .T. ) ;
#548 = ADVANCED_FACE ( 'NONE', ( #315 ), #227, .T. ) ;
#549 = ORIENTED_EDGE ( 'NONE', *, *, #563, .T. ) ;
#550 = CARTESIAN_POINT ( 'NONE',  ( 94.00000000000000000, 7.000000000000000000, 13.39999999999999858 ) ) ;
#551 = DIRECTION ( 'NONE',  ( -1.000000000000000000, 0.000000000000000000, 0.000000000000000000 ) ) ;
#552 = CARTESIAN_POINT ( 'NONE',  ( 98.95674002562952865, 7.656298954990750083, 10.40000000000000036 ) ) ;
#553 = VERTEX_POINT ( 'NONE', #680 ) ;
#554 = AXIS2_PLACEMENT_3D ( 'NONE', #908, #695, #768 ) ;
#555 = DIRECTION ( 'NONE',  ( 1.000000000000000000, 0.000000000000000000, 0.000000000000000000 ) ) ;
#556 = CYLINDRICAL_SURFACE ( 'NONE', #141, 0.3999999999999975797 ) ;
#557 = ORIENTED_EDGE ( 'NONE', *, *, #566, .T. ) ;
#558 = CALENDAR_DATE ( 2026, 4, 4 ) ;
#559 = ORIENTED_EDGE ( 'NONE', *, *, #213, .F. ) ;
#560 = CARTESIAN_POINT ( 'NONE',  ( 88.23967137594667065, 8.020350010002360364, 13.40000000000000036 ) ) ;
#561 = EDGE_LOOP ( 'NONE', ( #352, #853, #475, #559 ) ) ;
#562 = ORIENTED_EDGE ( 'NONE', *, *, #729, .T. ) ;
#563 = EDGE_CURVE ( 'NONE', #737, #621, #108, .T. ) ;
#564 = DIRECTION ( 'NONE',  ( -0.000000000000000000, -0.000000000000000000, -1.000000000000000000 ) ) ;
#565 = CIRCLE ( 'NONE', #612, 0.3999999999999907518 ) ;
#566 = EDGE_CURVE ( 'NONE', #611, #732, #645, .T. ) ;
#567 = DIRECTION ( 'NONE',  ( -1.000000000000000000, 0.000000000000000000, 0.000000000000000000 ) ) ;
#568 = ORIENTED_EDGE ( 'NONE', *, *, #236, .T. ) ;
#569 = CARTESIAN_POINT ( 'NONE',  ( 91.71481669547891613, 12.22187105018288023, 7.900000000000000355 ) ) ;
#570 = APPLICATION_CONTEXT ( 'configuration controlled 3d designs of mechanical parts and assemblies' ) ;
#571 = CARTESIAN_POINT ( 'NONE',  ( 88.15642269132619901, 7.274051523536618546, 7.900000000000000355 ) ) ;
#572 = AXIS2_PLACEMENT_3D ( 'NONE', #144, #74, #418 ) ;
#573 = ORIENTED_EDGE ( 'NONE', *, *, #606, .T. ) ;
#574 = FACE_OUTER_BOUND ( 'NONE', #329, .T. ) ;
#575 = CC_DESIGN_DATE_AND_TIME_ASSIGNMENT ( #689, #522, ( #741 ) ) ;
#576 = DIRECTION ( 'NONE',  ( -0.000000000000000000, -0.000000000000000000, -1.000000000000000000 ) ) ;
#577 = ORIENTED_EDGE ( 'NONE', *, *, #766, .F. ) ;
#578 = EDGE_CURVE ( 'NONE', #505, #737, #226, .T. ) ;
#579 = EDGE_CURVE ( 'NONE', #401, #298, #477, .T. ) ;
#580 = DIRECTION ( 'NONE',  ( -1.000000000000000000, 0.000000000000000000, 0.000000000000000000 ) ) ;
#581 = AXIS2_PLACEMENT_3D ( 'NONE', #305, #20, #889 ) ;
#582 = DIRECTION ( 'NONE',  ( -0.000000000000000000, -0.000000000000000000, -1.000000000000000000 ) ) ;
#583 = VERTEX_POINT ( 'NONE', #667 ) ;
#584 = DIRECTION ( 'NONE',  ( 0.000000000000000000, 0.000000000000000000, 1.000000000000000000 ) ) ;
#585 = CARTESIAN_POINT ( 'NONE',  ( 94.00000000000000000, 7.000000000000000000, 7.900000000000000355 ) ) ;
#586 = VECTOR ( 'NONE', #564, 1000.000000000000000 ) ;
#587 = ORIENTED_EDGE ( 'NONE', *, *, #113, .F. ) ;
#588 = PERSON_AND_ORGANIZATION_ROLE ( 'creator' ) ;
#589 = VECTOR ( 'NONE', #655, 1000.000000000000000 ) ;
#590 = CARTESIAN_POINT ( 'NONE',  ( 94.00000000000000000, 7.000000000000000000, 8.900000000000002132 ) ) ;
#591 = VERTEX_POINT ( 'NONE', #599 ) ;
#592 = PERSON_AND_ORGANIZATION ( #18446744073709551615, #18446744073709551615 ) ;
#593 = AXIS2_PLACEMENT_3D ( 'NONE', #506, #374, #739 ) ;
#594 = DIRECTION ( 'NONE',  ( 0.000000000000000000, 0.000000000000000000, 1.000000000000000000 ) ) ;
#595 = DIRECTION ( 'NONE',  ( -1.000000000000000000, 0.000000000000000000, 0.000000000000000000 ) ) ;
#596 = EDGE_CURVE ( 'NONE', #796, #186, #171, .T. ) ;
#597 = VERTEX_POINT ( 'NONE', #375 ) ;
#598 = CARTESIAN_POINT ( 'NONE',  ( 0.000000000000000000, 0.000000000000000000, 0.000000000000000000 ) ) ;
#599 = CARTESIAN_POINT ( 'NONE',  ( 98.99999999999998579, 7.000000000000000888, 13.39999999999999858 ) ) ;
#600 = FACE_OUTER_BOUND ( 'NONE', #264, .T. ) ;
#601 = AXIS2_PLACEMENT_3D ( 'NONE', #473, #321, #534 ) ;
#602 = ORIENTED_EDGE ( 'NONE', *, *, #27, .F. ) ;
#603 = PERSON_AND_ORGANIZATION ( #18446744073709551615, #18446744073709551615 ) ;
#604 = CARTESIAN_POINT ( 'NONE',  ( 90.62031866751559050, 2.410037680889265399, 7.900000000000000355 ) ) ;
#605 = DIRECTION ( 'NONE',  ( 1.000000000000000000, 0.000000000000000000, 0.000000000000000000 ) ) ;
#606 = EDGE_CURVE ( 'NONE', #796, #597, #751, .T. ) ;
#607 = EDGE_LOOP ( 'NONE', ( #810, #267, #488, #724 ) ) ;
#608 = DIRECTION ( 'NONE',  ( -0.9063077870366474942, -0.4226182617407047704, -0.000000000000000000 ) ) ;
#609 = DIRECTION ( 'NONE',  ( 1.000000000000000000, 0.000000000000000000, 0.000000000000000000 ) ) ;
#610 = CARTESIAN_POINT ( 'NONE',  ( 88.15642269132619901, 7.274051523536618546, 10.65000000000000213 ) ) ;
#611 = VERTEX_POINT ( 'NONE', #811 ) ;
#612 = AXIS2_PLACEMENT_3D ( 'NONE', #533, #244, #9 ) ;
#613 = CARTESIAN_POINT ( 'NONE',  ( 97.37968133248436686, 11.58996231911076080, 13.40000000000000036 ) ) ;
#614 = LINE ( 'NONE', #618, #183 ) ;
#615 = VERTEX_POINT ( 'NONE', #450 ) ;
#616 = DIRECTION ( 'NONE',  ( -0.000000000000000000, -0.000000000000000000, -1.000000000000000000 ) ) ;
#617 = AXIS2_PLACEMENT_3D ( 'NONE', #585, #197, #643 ) ;
#618 = CARTESIAN_POINT ( 'NONE',  ( 91.31481669547892466, 12.22187105018288023, 14.53137084989845995 ) ) ;
#619 = EDGE_CURVE ( 'NONE', #597, #258, #388, .T. ) ;
#620 = EDGE_CURVE ( 'NONE', #185, #879, #100, .T. ) ;
#621 = VERTEX_POINT ( 'NONE', #174 ) ;
#622 = AXIS2_PLACEMENT_3D ( 'NONE', #725, #274, #360 ) ;
#623 = DATE_AND_TIME ( #105, #325 ) ;
#624 = ORIENTED_EDGE ( 'NONE', *, *, #191, .F. ) ;
#625 = DIRECTION ( 'NONE',  ( -1.000000000000000000, 0.000000000000000000, 0.000000000000000000 ) ) ;
#626 = DIRECTION ( 'NONE',  ( -0.000000000000000000, 0.000000000000000000, 1.000000000000000000 ) ) ;
#627 = EDGE_LOOP ( 'NONE', ( #72, #890, #654, #549 ) ) ;
#628 = AXIS2_PLACEMENT_3D ( 'NONE', #242, #819, #804 ) ;
#629 = ORIENTED_EDGE ( 'NONE', *, *, #899, .T. ) ;
#630 = CARTESIAN_POINT ( 'NONE',  ( 91.71481669547891613, 12.22187105018288023, 14.53137084989845995 ) ) ;
#631 = DIRECTION ( 'NONE',  ( -0.000000000000000000, -0.000000000000000000, -1.000000000000000000 ) ) ;
#632 = CARTESIAN_POINT ( 'NONE',  ( 95.50000000000000000, 7.000000000000000000, 7.900000000000000355 ) ) ;
#633 = PERSON_AND_ORGANIZATION_ROLE ( 'classification_officer' ) ;
#634 = ORIENTED_EDGE ( 'NONE', *, *, #825, .T. ) ;
#635 = AXIS2_PLACEMENT_3D ( 'NONE', #150, #676, #445 ) ;
#636 = CARTESIAN_POINT ( 'NONE',  ( 89.00000000000001421, 7.000000000000000000, 13.39999999999999858 ) ) ;
#637 = DESIGN_CONTEXT ( 'detailed design', #570, 'design' ) ;
#638 = VERTEX_POINT ( 'NONE', #45 ) ;
#639 = PRODUCT_DEFINITION_FORMATION_WITH_SPECIFIED_SOURCE ( 'Symmetrisch', '', #762, .NOT_KNOWN. ) ;
#640 = AXIS2_PLACEMENT_3D ( 'NONE', #852, #32, #555 ) ;
#641 = DIRECTION ( 'NONE',  ( -1.000000000000000000, 0.000000000000000000, 0.000000000000000000 ) ) ;
#642 = EDGE_CURVE ( 'NONE', #553, #380, #128, .T. ) ;
#643 = DIRECTION ( 'NONE',  ( 1.000000000000000000, 0.000000000000000000, 0.000000000000000000 ) ) ;
#644 = CYLINDRICAL_SURFACE ( 'NONE', #301, 4.999999999999990230 ) ;
#645 = CIRCLE ( 'NONE', #62, 0.3999999999999975797 ) ;
#646 = DIRECTION ( 'NONE',  ( 0.000000000000000000, 0.000000000000000000, 1.000000000000000000 ) ) ;
#647 = CC_DESIGN_PERSON_AND_ORGANIZATION_ASSIGNMENT ( #225, #518, ( #639 ) ) ;
#648 = VERTEX_POINT ( 'NONE', #560 ) ;
#649 = CARTESIAN_POINT ( 'NONE',  ( 88.33513536299456348, 7.631908731072181595, 14.53137084989845995 ) ) ;
#650 = CARTESIAN_POINT ( 'NONE',  ( 99.75857503175184604, 8.030200758922346083, 10.40000000000000036 ) ) ;
#651 = ADVANCED_FACE ( 'NONE', ( #111 ), #402, .F. ) ;
#652 = EDGE_CURVE ( 'NONE', #109, #505, #838, .T. ) ;
#653 = CIRCLE ( 'NONE', #157, 0.3999999999999946931 ) ;
#654 = ORIENTED_EDGE ( 'NONE', *, *, #541, .F. ) ;
#655 = DIRECTION ( 'NONE',  ( 0.000000000000000000, 0.000000000000000000, -1.000000000000000000 ) ) ;
#656 = CARTESIAN_POINT ( 'NONE',  ( 94.00000000000000000, 7.000000000000000000, 29.94629867976520288 ) ) ;
#657 = ORIENTED_EDGE ( 'NONE', *, *, #263, .T. ) ;
#658 = CARTESIAN_POINT ( 'NONE',  ( 94.00000000000000000, 7.000000000000000000, 13.39999999999999858 ) ) ;
#659 = ADVANCED_FACE ( 'NONE', ( #249 ), #694, .T. ) ;
#660 = CARTESIAN_POINT ( 'NONE',  ( 98.49072024652973312, 10.74912412003229001, 10.40000000000000036 ) ) ;
#661 = ORIENTED_EDGE ( 'NONE', *, *, #436, .T. ) ;
#662 = FACE_OUTER_BOUND ( 'NONE', #384, .T. ) ;
#663 = DIRECTION ( 'NONE',  ( 0.000000000000000000, 0.000000000000000000, 1.000000000000000000 ) ) ;
#664 = CC_DESIGN_APPROVAL ( #503, ( #904 ) ) ;
#665 = ORIENTED_EDGE ( 'NONE', *, *, #251, .T. ) ;
#666 = DATE_AND_TIME ( #367, #155 ) ;
#667 = CARTESIAN_POINT ( 'NONE',  ( 99.76032862405334356, 5.979649989997683157, 13.40000000000000036 ) ) ;
#668 = ADVANCED_FACE ( 'NONE', ( #471 ), #476, .F. ) ;
#669 = VECTOR ( 'NONE', #781, 1000.000000000000000 ) ;
#670 = DIRECTION ( 'NONE',  ( 0.000000000000000000, 0.000000000000000000, 1.000000000000000000 ) ) ;
#671 = ORIENTED_EDGE ( 'NONE', *, *, #464, .F. ) ;
#672 = PLANE ( 'NONE',  #207 ) ;
#673 = AXIS2_PLACEMENT_3D ( 'NONE', #8, #876, #381 ) ;
#674 = DIRECTION ( 'NONE',  ( 0.000000000000000000, 0.000000000000000000, 1.000000000000000000 ) ) ;
#675 = AXIS2_PLACEMENT_3D ( 'NONE', #452, #893, #166 ) ;
#676 = DIRECTION ( 'NONE',  ( 0.000000000000000000, 0.000000000000000000, 1.000000000000000000 ) ) ;
#677 = ORIENTED_EDGE ( 'NONE', *, *, #277, .T. ) ;
#678 = CC_DESIGN_PERSON_AND_ORGANIZATION_ASSIGNMENT ( #110, #633, ( #904 ) ) ;
#679 = DIRECTION ( 'NONE',  ( -0.4226182617407048259, 0.9063077870366474942, 0.000000000000000000 ) ) ;
#680 = CARTESIAN_POINT ( 'NONE',  ( 91.31481669547892466, 12.22187105018288023, 13.40000000000000036 ) ) ;
#681 = LINE ( 'NONE', #877, #342 ) ;
#682 = CIRCLE ( 'NONE', #798, 0.3999999999999975797 ) ;
#683 = EDGE_LOOP ( 'NONE', ( #373, #145 ) ) ;
#684 = DIRECTION ( 'NONE',  ( 1.000000000000000000, 0.000000000000000000, 0.000000000000000000 ) ) ;
#685 = AXIS2_PLACEMENT_3D ( 'NONE', #53, #702, #625 ) ;
#686 = DIRECTION ( 'NONE',  ( 1.000000000000000000, 0.000000000000000000, 0.000000000000000000 ) ) ;
#687 = CARTESIAN_POINT ( 'NONE',  ( 96.28518330452108387, 1.778128949817119331, 7.900000000000000355 ) ) ;
#688 = ORIENTED_EDGE ( 'NONE', *, *, #146, .T. ) ;
#689 = DATE_AND_TIME ( #391, #922 ) ;
#690 = CARTESIAN_POINT ( 'NONE',  ( 90.84087576433458366, 2.076339363478505007, 10.65000000000000213 ) ) ;
#691 = FACE_OUTER_BOUND ( 'NONE', #322, .T. ) ;
#692 = ORIENTED_EDGE ( 'NONE', *, *, #236, .F. ) ;
#693 = AXIS2_PLACEMENT_3D ( 'NONE', #881, #300, #237 ) ;
#694 = CYLINDRICAL_SURFACE ( 'NONE', #756, 0.3999999999999975797 ) ;
#695 = DIRECTION ( 'NONE',  ( 0.4226182617407037156, -0.9063077870366480493, 0.000000000000000000 ) ) ;
#696 = ORIENTED_EDGE ( 'NONE', *, *, #152, .F. ) ;
#697 = EDGE_LOOP ( 'NONE', ( #269, #363, #411, #526 ) ) ;
#698 = DIRECTION ( 'NONE',  ( -0.000000000000000000, -0.000000000000000000, -1.000000000000000000 ) ) ;
#699 = AXIS2_PLACEMENT_3D ( 'NONE', #656, #212, #347 ) ;
#700 = CARTESIAN_POINT ( 'NONE',  ( 94.00000000000000000, 7.000000000000000000, 29.94629867976520288 ) ) ;
#701 = ORIENTED_EDGE ( 'NONE', *, *, #619, .T. ) ;
#702 = DIRECTION ( 'NONE',  ( -0.000000000000000000, -0.000000000000000000, -1.000000000000000000 ) ) ;
#703 = FACE_OUTER_BOUND ( 'NONE', #36, .T. ) ;
#704 = DIRECTION ( 'NONE',  ( 0.000000000000000000, 0.000000000000000000, 1.000000000000000000 ) ) ;
#705 = CIRCLE ( 'NONE', #285, 1.500000000000001332 ) ;
#706 = VERTEX_POINT ( 'NONE', #636 ) ;
#707 = CARTESIAN_POINT ( 'NONE',  ( 94.00000000000000000, 7.000000000000000000, 7.900000000000000355 ) ) ;
#708 = ADVANCED_FACE ( 'NONE', ( #117 ), #345, .T. ) ;
#709 = EDGE_LOOP ( 'NONE', ( #928, #721, #629, #933 ) ) ;
#710 = SHAPE_DEFINITION_REPRESENTATION ( #400, #783 ) ;
#711 = CARTESIAN_POINT ( 'NONE',  ( 97.68888524040741572, 10.37522231610069134, 29.94629867976520288 ) ) ;
#712 = DIRECTION ( 'NONE',  ( -0.000000000000000000, -0.000000000000000000, -1.000000000000000000 ) ) ;
#713 = VERTEX_POINT ( 'NONE', #334 ) ;
#714 = CARTESIAN_POINT ( 'NONE',  ( 94.00000000000000000, 7.000000000000000000, 29.94629867976520288 ) ) ;
#715 = DIRECTION ( 'NONE',  ( 1.000000000000000000, 0.000000000000000000, 0.000000000000000000 ) ) ;
#716 = VERTEX_POINT ( 'NONE', #270 ) ;
#717 = DIRECTION ( 'NONE',  ( 0.000000000000000000, 0.000000000000000000, 1.000000000000000000 ) ) ;
#718 = EDGE_CURVE ( 'NONE', #716, #486, #179, .T. ) ;
#719 = EDGE_CURVE ( 'NONE', #713, #390, #294, .T. ) ;
#720 = CYLINDRICAL_SURFACE ( 'NONE', #746, 1.500000000000001332 ) ;
#721 = ORIENTED_EDGE ( 'NONE', *, *, #152, .T. ) ;
#722 = CARTESIAN_POINT ( 'NONE',  ( 91.71481669547891613, 12.22187105018288023, 13.40000000000000036 ) ) ;
#723 = CARTESIAN_POINT ( 'NONE',  ( 92.00348471738702472, 12.49876592757799720, 10.65000000000000213 ) ) ;
#724 = ORIENTED_EDGE ( 'NONE', *, *, #324, .F. ) ;
#725 = CARTESIAN_POINT ( 'NONE',  ( 0.000000000000000000, 0.000000000000000000, 8.900000000000002132 ) ) ;
#726 = CYLINDRICAL_SURFACE ( 'NONE', #369, 0.3999999999999975797 ) ;
#727 = VERTEX_POINT ( 'NONE', #260 ) ;
#728 = DIRECTION ( 'NONE',  ( -1.000000000000000000, 0.000000000000000000, 0.000000000000000000 ) ) ;
#729 = EDGE_CURVE ( 'NONE', #95, #597, #831, .T. ) ;
#730 = CIRCLE ( 'NONE', #320, 5.849999999999994316 ) ;
#731 = CARTESIAN_POINT ( 'NONE',  ( 89.00000000000001421, 7.000000000000000000, 8.900000000000002132 ) ) ;
#732 = VERTEX_POINT ( 'NONE', #182 ) ;
#733 = EDGE_CURVE ( 'NONE', #51, #925, #799, .T. ) ;
#734 = APPROVAL_ROLE ( '' ) ;
#735 = DIRECTION ( 'NONE',  ( 1.000000000000000000, 0.000000000000000000, 0.000000000000000000 ) ) ;
#736 = LINE ( 'NONE', #82, #214 ) ;
#737 = VERTEX_POINT ( 'NONE', #767 ) ;
#738 = VECTOR ( 'NONE', #859, 1000.000000000000000 ) ;
#739 = DIRECTION ( 'NONE',  ( -1.000000000000000000, 0.000000000000000000, 0.000000000000000000 ) ) ;
#740 = DIRECTION ( 'NONE',  ( 0.000000000000000000, 0.000000000000000000, 1.000000000000000000 ) ) ;
#741 = PRODUCT_DEFINITION ( 'Allgemein', '', #639, #637 ) ;
#742 = CARTESIAN_POINT ( 'NONE',  ( 90.23618665855958909, 2.521584082424328077, 13.40000000000000036 ) ) ;
#743 = ORIENTED_EDGE ( 'NONE', *, *, #596, .F. ) ;
#744 = APPLICATION_PROTOCOL_DEFINITION ( 'international standard', 'config_control_design', 1994, #176 ) ;
#745 = DIRECTION ( 'NONE',  ( 0.000000000000000000, 0.000000000000000000, 1.000000000000000000 ) ) ;
#746 = AXIS2_PLACEMENT_3D ( 'NONE', #281, #64, #209 ) ;
#747 = EDGE_CURVE ( 'NONE', #716, #894, #759, .T. ) ;
#748 = EDGE_CURVE ( 'NONE', #343, #539, #192, .T. ) ;
#749 = DIRECTION ( 'NONE',  ( 0.000000000000000000, 0.000000000000000000, 1.000000000000000000 ) ) ;
#750 = EDGE_LOOP ( 'NONE', ( #941, #910, #557, #115 ) ) ;
#751 = LINE ( 'NONE', #444, #246 ) ;
#752 = DIRECTION ( 'NONE',  ( 0.000000000000000000, 0.000000000000000000, 1.000000000000000000 ) ) ;
#753 = AXIS2_PLACEMENT_3D ( 'NONE', #520, #378, #440 ) ;
#754 = ORIENTED_EDGE ( 'NONE', *, *, #606, .F. ) ;
#755 = COORDINATED_UNIVERSAL_TIME_OFFSET ( 1, 0, .AHEAD. ) ;
#756 = AXIS2_PLACEMENT_3D ( 'NONE', #630, #698, #912 ) ;
#757 = EDGE_CURVE ( 'NONE', #298, #343, #130, .T. ) ;
#758 = CARTESIAN_POINT ( 'NONE',  ( 96.68445307300842728, 1.802287839941922876, 10.65000000000000213 ) ) ;
#759 = CIRCLE ( 'NONE', #640, 1.500000000000001332 ) ;
#760 = CARTESIAN_POINT ( 'NONE',  ( 14.74175418642760071, -31.61379387324436152, 13.40000000000000036 ) ) ;
#761 = ORIENTED_EDGE ( 'NONE', *, *, #547, .T. ) ;
#762 = PRODUCT ( 'Rumble Sleeve REF2015', 'Rumble Sleeve REF2015', '', ( #314 ) ) ;
#763 = DIRECTION ( 'NONE',  ( 1.000000000000000000, 0.000000000000000000, 0.000000000000000000 ) ) ;
#764 = CYLINDRICAL_SURFACE ( 'NONE', #432, 5.849999999999994316 ) ;
#765 = ORIENTED_EDGE ( 'NONE', *, *, #71, .T. ) ;
#766 = EDGE_CURVE ( 'NONE', #937, #615, #416, .T. ) ;
#767 = CARTESIAN_POINT ( 'NONE',  ( 90.84087576433458366, 2.076339363478507671, 7.900000000000000355 ) ) ;
#768 = DIRECTION ( 'NONE',  ( 0.9063077870366479383, 0.4226182617407036601, 0.000000000000000000 ) ) ;
#769 = ORIENTED_EDGE ( 'NONE', *, *, #205, .T. ) ;
#770 = DIRECTION ( 'NONE',  ( 1.000000000000000000, 0.000000000000000000, 0.000000000000000000 ) ) ;
#771 = VECTOR ( 'NONE', #576, 1000.000000000000000 ) ;
#772 = LINE ( 'NONE', #760, #19 ) ;
#773 = CARTESIAN_POINT ( 'NONE',  ( 88.33513536299456348, 7.631908731072181595, 7.900000000000000355 ) ) ;
#774 = DATE_TIME_ROLE ( 'classification_date' ) ;
#775 = ORIENTED_EDGE ( 'NONE', *, *, #467, .T. ) ;
#776 = EDGE_CURVE ( 'NONE', #841, #713, #372, .T. ) ;
#777 = CARTESIAN_POINT ( 'NONE',  ( 90.23618665855958909, 2.521584082424328077, 10.65000000000000213 ) ) ;
#778 = ORIENTED_EDGE ( 'NONE', *, *, #747, .F. ) ;
#779 = DIRECTION ( 'NONE',  ( 1.000000000000000000, 0.000000000000000000, 0.000000000000000000 ) ) ;
#780 = ORIENTED_EDGE ( 'NONE', *, *, #884, .F. ) ;
#781 = DIRECTION ( 'NONE',  ( -0.000000000000000000, -0.000000000000000000, -1.000000000000000000 ) ) ;
#782 = VECTOR ( 'NONE', #582, 1000.000000000000000 ) ;
#783 = ADVANCED_BREP_SHAPE_REPRESENTATION ( 'Rumble Sleeve REF2015', ( #284, #333 ), #790 ) ;
#784 = DIRECTION ( 'NONE',  ( -0.000000000000000000, -0.000000000000000000, -1.000000000000000000 ) ) ;
#785 = CIRCLE ( 'NONE', #173, 0.3999999999999975797 ) ;
#786 = ORIENTED_EDGE ( 'NONE', *, *, #835, .F. ) ;
#787 = EDGE_CURVE ( 'NONE', #826, #79, #201, .T. ) ;
#788 = ADVANCED_FACE ( 'NONE', ( #199, #861 ), #68, .T. ) ;
#789 = DIRECTION ( 'NONE',  ( -1.000000000000000000, 0.000000000000000000, 0.000000000000000000 ) ) ;
#790 =( GEOMETRIC_REPRESENTATION_CONTEXT ( 3 ) GLOBAL_UNCERTAINTY_ASSIGNED_CONTEXT ( ( #196 ) ) GLOBAL_UNIT_ASSIGNED_CONTEXT ( ( #447, #462, #385 ) ) REPRESENTATION_CONTEXT ( 'NONE', 'WORKASPACE' ) );
#791 = DIRECTION ( 'NONE',  ( -0.000000000000000000, -0.000000000000000000, -1.000000000000000000 ) ) ;
#792 = ORIENTED_EDGE ( 'NONE', *, *, #816, .F. ) ;
#793 = VECTOR ( 'NONE', #663, 1000.000000000000000 ) ;
#794 = CARTESIAN_POINT ( 'NONE',  ( 96.68445307300842728, 1.802287839941922876, 7.900000000000000355 ) ) ;
#795 = FACE_OUTER_BOUND ( 'NONE', #627, .T. ) ;
#796 = VERTEX_POINT ( 'NONE', #216 ) ;
#797 = CARTESIAN_POINT ( 'NONE',  ( 98.99999999999998579, 7.000000000000000888, 8.900000000000002132 ) ) ;
#798 = AXIS2_PLACEMENT_3D ( 'NONE', #29, #902, #245 ) ;
#799 = CIRCLE ( 'NONE', #4, 5.849999999999994316 ) ;
#800 = FACE_OUTER_BOUND ( 'NONE', #415, .T. ) ;
#801 = ORIENTED_EDGE ( 'NONE', *, *, #97, .T. ) ;
#802 = CARTESIAN_POINT ( 'NONE',  ( 90.84087576433458366, 2.076339363478496569, 13.40000000000000036 ) ) ;
#803 = EDGE_CURVE ( 'NONE', #937, #706, #219, .T. ) ;
#804 = DIRECTION ( 'NONE',  ( 1.000000000000000000, 0.000000000000000000, 0.000000000000000000 ) ) ;
#805 = EDGE_CURVE ( 'NONE', #727, #79, #942, .T. ) ;
#806 = ORIENTED_EDGE ( 'NONE', *, *, #803, .F. ) ;
#807 = APPROVAL_STATUS ( 'not_yet_approved' ) ;
#808 = VECTOR ( 'NONE', #180, 1000.000000000000000 ) ;
#809 = CARTESIAN_POINT ( 'NONE',  ( 98.49072024652973312, 10.74912412003228823, 29.94629867976520288 ) ) ;
#810 = ORIENTED_EDGE ( 'NONE', *, *, #931, .T. ) ;
#811 = CARTESIAN_POINT ( 'NONE',  ( 91.31481669547892466, 12.22187105018288023, 7.900000000000000355 ) ) ;
#812 = DIRECTION ( 'NONE',  ( 0.000000000000000000, 0.000000000000000000, 1.000000000000000000 ) ) ;
#813 = ORIENTED_EDGE ( 'NONE', *, *, #484, .F. ) ;
#814 = CIRCLE ( 'NONE', #935, 0.3999999999999975797 ) ;
#815 = DATE_AND_TIME ( #532, #878 ) ;
#816 = EDGE_CURVE ( 'NONE', #648, #826, #206, .T. ) ;
#817 = EDGE_CURVE ( 'NONE', #615, #1, #833, .T. ) ;
#818 = CARTESIAN_POINT ( 'NONE',  ( 94.00000000000000000, 7.000000000000000000, 13.39999999999999858 ) ) ;
#819 = DIRECTION ( 'NONE',  ( 0.000000000000000000, 0.000000000000000000, 1.000000000000000000 ) ) ;
#820 = ORIENTED_EDGE ( 'NONE', *, *, #495, .F. ) ;
#821 = FACE_OUTER_BOUND ( 'NONE', #697, .T. ) ;
#822 = DIRECTION ( 'NONE',  ( 0.000000000000000000, 0.000000000000000000, 1.000000000000000000 ) ) ;
#823 = AXIS2_PLACEMENT_3D ( 'NONE', #60, #646, #932 ) ;
#824 = DIRECTION ( 'NONE',  ( 0.000000000000000000, 0.000000000000000000, 1.000000000000000000 ) ) ;
#825 = EDGE_CURVE ( 'NONE', #50, #611, #248, .T. ) ;
#826 = VERTEX_POINT ( 'NONE', #143 ) ;
#827 = COORDINATED_UNIVERSAL_TIME_OFFSET ( 1, 0, .AHEAD. ) ;
#828 = CARTESIAN_POINT ( 'NONE',  ( 90.22031866751559903, 2.410037680889265399, 7.900000000000000355 ) ) ;
#829 = LINE ( 'NONE', #170, #846 ) ;
#830 = EDGE_LOOP ( 'NONE', ( #158, #136, #903, #356 ) ) ;
#831 = CIRCLE ( 'NONE', #419, 5.849999999999994316 ) ;
#832 = DIRECTION ( 'NONE',  ( 0.000000000000000000, 0.000000000000000000, 1.000000000000000000 ) ) ;
#833 = CIRCLE ( 'NONE', #469, 4.999999999999990230 ) ;
#834 = CYLINDRICAL_SURFACE ( 'NONE', #194, 5.849999999999994316 ) ;
#835 = EDGE_CURVE ( 'NONE', #732, #380, #357, .T. ) ;
#836 = ORIENTED_EDGE ( 'NONE', *, *, #263, .F. ) ;
#837 = ORIENTED_EDGE ( 'NONE', *, *, #719, .F. ) ;
#838 = LINE ( 'NONE', #487, #586 ) ;
#839 = CARTESIAN_POINT ( 'NONE',  ( 91.31554692699157272, 12.19771216005807801, 13.40000000000000036 ) ) ;
#840 = AXIS2_PLACEMENT_3D ( 'NONE', #389, #238, #529 ) ;
#841 = VERTEX_POINT ( 'NONE', #802 ) ;
#842 = DIRECTION ( 'NONE',  ( 0.000000000000000000, 0.000000000000000000, 1.000000000000000000 ) ) ;
#843 = CC_DESIGN_PERSON_AND_ORGANIZATION_ASSIGNMENT ( #592, #880, ( #639 ) ) ;
#844 = DIRECTION ( 'NONE',  ( 1.000000000000000000, 0.000000000000000000, 0.000000000000000000 ) ) ;
#845 = ORIENTED_EDGE ( 'NONE', *, *, #113, .T. ) ;
#846 = VECTOR ( 'NONE', #466, 1000.000000000000000 ) ;
#847 = ORIENTED_EDGE ( 'NONE', *, *, #213, .T. ) ;
#848 = DIRECTION ( 'NONE',  ( 1.000000000000000000, 0.000000000000000000, 0.000000000000000000 ) ) ;
#849 = DIRECTION ( 'NONE',  ( -0.000000000000000000, -0.000000000000000000, -1.000000000000000000 ) ) ;
#850 = ORIENTED_EDGE ( 'NONE', *, *, #805, .T. ) ;
#851 = ORIENTED_EDGE ( 'NONE', *, *, #336, .T. ) ;
#852 = CARTESIAN_POINT ( 'NONE',  ( 94.00000000000000000, 7.000000000000000000, 8.900000000000002132 ) ) ;
#853 = ORIENTED_EDGE ( 'NONE', *, *, #223, .T. ) ;
#854 = AXIS2_PLACEMENT_3D ( 'NONE', #169, #319, #368 ) ;
#855 = CARTESIAN_POINT ( 'NONE',  ( 95.50000000000000000, 7.000000000000000000, 8.900000000000002132 ) ) ;
#856 = DIRECTION ( 'NONE',  ( 0.000000000000000000, -0.000000000000000000, -1.000000000000000000 ) ) ;
#857 = ORIENTED_EDGE ( 'NONE', *, *, #757, .F. ) ;
#858 = CARTESIAN_POINT ( 'NONE',  ( 95.50000000000000000, 7.000000000000000000, 13.40000000000000036 ) ) ;
#859 = DIRECTION ( 'NONE',  ( 0.000000000000000000, 0.000000000000000000, 1.000000000000000000 ) ) ;
#860 = EDGE_LOOP ( 'NONE', ( #254, #25, #769, #587 ) ) ;
#861 = FACE_OUTER_BOUND ( 'NONE', #434, .T. ) ;
#862 = AXIS2_PLACEMENT_3D ( 'NONE', #649, #934, #866 ) ;
#863 = LINE ( 'NONE', #350, #83 ) ;
#864 = VERTEX_POINT ( 'NONE', #794 ) ;
#865 = VECTOR ( 'NONE', #791, 1000.000000000000000 ) ;
#866 = DIRECTION ( 'NONE',  ( -1.000000000000000000, 0.000000000000000000, 0.000000000000000000 ) ) ;
#867 = CARTESIAN_POINT ( 'NONE',  ( 90.22031866751559903, 2.410037680889265399, 13.40000000000000036 ) ) ;
#868 = EDGE_CURVE ( 'NONE', #894, #31, #288, .T. ) ;
#869 = ORIENTED_EDGE ( 'NONE', *, *, #49, .F. ) ;
#870 = CYLINDRICAL_SURFACE ( 'NONE', #424, 5.849999999999994316 ) ;
#871 = AXIS2_PLACEMENT_3D ( 'NONE', #10, #455, #595 ) ;
#872 = AXIS2_PLACEMENT_3D ( 'NONE', #231, #523, #848 ) ;
#873 = DIRECTION ( 'NONE',  ( -1.000000000000000000, 0.000000000000000000, 0.000000000000000000 ) ) ;
#874 = ORIENTED_EDGE ( 'NONE', *, *, #41, .T. ) ;
#875 = VECTOR ( 'NONE', #435, 1000.000000000000000 ) ;
#876 = DIRECTION ( 'NONE',  ( -0.000000000000000000, -0.000000000000000000, -1.000000000000000000 ) ) ;
#877 = CARTESIAN_POINT ( 'NONE',  ( 98.99999999999998579, 7.000000000000000888, 29.94629867976520288 ) ) ;
#878 = LOCAL_TIME ( 19, 36, 11.00000000000000000, #755 ) ;
#879 = VERTEX_POINT ( 'NONE', #797 ) ;
#880 = PERSON_AND_ORGANIZATION_ROLE ( 'creator' ) ;
#881 = CARTESIAN_POINT ( 'NONE',  ( 94.00000000000000000, 7.000000000000000000, 29.94629867976520288 ) ) ;
#882 = AXIS2_PLACEMENT_3D ( 'NONE', #604, #822, #23 ) ;
#883 = CARTESIAN_POINT ( 'NONE',  ( 99.84357730867380099, 6.725948476463421422, 10.65000000000000213 ) ) ;
#884 = EDGE_CURVE ( 'NONE', #535, #553, #785, .T. ) ;
#885 = ORIENTED_EDGE ( 'NONE', *, *, #566, .F. ) ;
#886 = ADVANCED_FACE ( 'NONE', ( #137 ), #870, .T. ) ;
#887 = PERSON_AND_ORGANIZATION ( #18446744073709551615, #18446744073709551615 ) ;
#888 = DIRECTION ( 'NONE',  ( 0.4999999999999930611, -0.8660254037844425934, 0.000000000000000000 ) ) ;
#889 = DIRECTION ( 'NONE',  ( 1.000000000000000000, 0.000000000000000000, 0.000000000000000000 ) ) ;
#890 = ORIENTED_EDGE ( 'NONE', *, *, #776, .F. ) ;
#891 = APPROVAL_STATUS ( 'not_yet_approved' ) ;
#892 = CARTESIAN_POINT ( 'NONE',  ( 92.00348471738702472, 12.49876592757799543, 13.40000000000000036 ) ) ;
#893 = DIRECTION ( 'NONE',  ( 0.000000000000000000, 0.000000000000000000, 1.000000000000000000 ) ) ;
#894 = VERTEX_POINT ( 'NONE', #855 ) ;
#895 = APPLICATION_PROTOCOL_DEFINITION ( 'international standard', 'config_control_design', 1994, #570 ) ;
#896 = DIRECTION ( 'NONE',  ( 1.000000000000000000, 0.000000000000000000, 0.000000000000000000 ) ) ;
#897 = CARTESIAN_POINT ( 'NONE',  ( 98.49072024652974733, 10.74912412003229356, 13.40000000000000036 ) ) ;
#898 = ORIENTED_EDGE ( 'NONE', *, *, #204, .F. ) ;
#899 = EDGE_CURVE ( 'NONE', #638, #95, #89, .T. ) ;
#900 = DIRECTION ( 'NONE',  ( 0.000000000000000000, 0.000000000000000000, 1.000000000000000000 ) ) ;
#901 = ADVANCED_FACE ( 'NONE', ( #662 ), #283, .T. ) ;
#902 = DIRECTION ( 'NONE',  ( 0.000000000000000000, 0.000000000000000000, 1.000000000000000000 ) ) ;
#903 = ORIENTED_EDGE ( 'NONE', *, *, #336, .F. ) ;
#904 = SECURITY_CLASSIFICATION ( '', '', #153 ) ;
#905 = CIRCLE ( 'NONE', #233, 4.999999999999990230 ) ;
#906 = DIRECTION ( 'NONE',  ( 0.000000000000000000, 0.000000000000000000, -1.000000000000000000 ) ) ;
#907 = VECTOR ( 'NONE', #120, 1000.000000000000000 ) ;
#908 = CARTESIAN_POINT ( 'NONE',  ( 101.5586162282161524, 8.869573753828150942, 10.40000000000000036 ) ) ;
#909 = EDGE_LOOP ( 'NONE', ( #480, #75, #151, #47 ) ) ;
#910 = ORIENTED_EDGE ( 'NONE', *, *, #370, .T. ) ;
#911 = ADVANCED_FACE ( 'NONE', ( #426 ), #644, .F. ) ;
#912 = DIRECTION ( 'NONE',  ( -1.000000000000000000, 0.000000000000000000, 0.000000000000000000 ) ) ;
#913 = CARTESIAN_POINT ( 'NONE',  ( 99.66486463700543652, 6.368091268927858373, 14.53137084989845995 ) ) ;
#914 = ORIENTED_EDGE ( 'NONE', *, *, #377, .F. ) ;
#915 = ADVANCED_FACE ( 'NONE', ( #574 ), #63, .T. ) ;
#916 = ADVANCED_FACE ( 'NONE', ( #279 ), #211, .T. ) ;
#917 = CARTESIAN_POINT ( 'NONE',  ( 92.50000000000000000, 7.000000000000000000, 13.40000000000000036 ) ) ;
#918 = DIRECTION ( 'NONE',  ( -0.9063077870366473832, -0.4226182617407047704, 0.000000000000000000 ) ) ;
#919 = ORIENTED_EDGE ( 'NONE', *, *, #427, .T. ) ;
#920 = VECTOR ( 'NONE', #160, 1000.000000000000000 ) ;
#921 = DIRECTION ( 'NONE',  ( 1.000000000000000000, 0.000000000000000000, 0.000000000000000000 ) ) ;
#922 = LOCAL_TIME ( 19, 36, 11.00000000000000000, #827 ) ;
#923 = ADVANCED_FACE ( 'NONE', ( #821 ), #86, .T. ) ;
#924 = ORIENTED_EDGE ( 'NONE', *, *, #733, .T. ) ;
#925 = VERTEX_POINT ( 'NONE', #163 ) ;
#926 = DIRECTION ( 'NONE',  ( -0.000000000000000000, -0.000000000000000000, -1.000000000000000000 ) ) ;
#927 = LINE ( 'NONE', #140, #451 ) ;
#928 = ORIENTED_EDGE ( 'NONE', *, *, #123, .F. ) ;
#929 = CIRCLE ( 'NONE', #397, 5.849999999999994316 ) ;
#930 = DIRECTION ( 'NONE',  ( 0.000000000000000000, 0.000000000000000000, -1.000000000000000000 ) ) ;
#931 = EDGE_CURVE ( 'NONE', #90, #615, #17, .T. ) ;
#932 = DIRECTION ( 'NONE',  ( 1.000000000000000000, 0.000000000000000000, 0.000000000000000000 ) ) ;
#933 = ORIENTED_EDGE ( 'NONE', *, *, #191, .T. ) ;
#934 = DIRECTION ( 'NONE',  ( -0.000000000000000000, -0.000000000000000000, -1.000000000000000000 ) ) ;
#935 = AXIS2_PLACEMENT_3D ( 'NONE', #55, #423, #715 ) ;
#936 = CARTESIAN_POINT ( 'NONE',  ( 97.37968133248436686, 11.58996231911076080, 14.53137084989845995 ) ) ;
#937 = VERTEX_POINT ( 'NONE', #443 ) ;
#938 = DIRECTION ( 'NONE',  ( 0.000000000000000000, 0.000000000000000000, 1.000000000000000000 ) ) ;
#939 = ADVANCED_FACE ( 'NONE', ( #22 ), #672, .F. ) ;
#940 = CYLINDRICAL_SURFACE ( 'NONE', #699, 5.849999999999994316 ) ;
#941 = ORIENTED_EDGE ( 'NONE', *, *, #642, .F. ) ;
#942 = LINE ( 'NONE', #195, #669 ) ;
#943 = DIRECTION ( 'NONE',  ( 0.000000000000000000, 0.000000000000000000, 1.000000000000000000 ) ) ;
ENDSEC;
END-ISO-10303-21;
