ISO-10303-21;
HEADER;
FILE_DESCRIPTION (( 'STEP AP203' ),
    '1' );
FILE_NAME ('Screen Lens Frame REF2008.STEP',
    '2026-04-04T17:36:11',
    ( '' ),
    ( '' ),
    'SwSTEP 2.0',
    'SolidWorks 2026',
    '' );
FILE_SCHEMA (( 'CONFIG_CONTROL_DESIGN' ));
ENDSEC;

DATA;
#1 = ORIENTED_EDGE ( 'NONE', *, *, #836, .T. ) ;
#2 = CARTESIAN_POINT ( 'NONE',  ( 56.74999999999998579, 81.90000000000000568, 18.59999999999999787 ) ) ;
#3 = EDGE_CURVE ( 'NONE', #608, #517, #462, .T. ) ;
#4 = DIRECTION ( 'NONE',  ( 1.000000000000000000, 1.776718643924104268E-16, 0.000000000000000000 ) ) ;
#5 = VECTOR ( 'NONE', #276, 1000.000000000000000 ) ;
#6 = ORIENTED_EDGE ( 'NONE', *, *, #99, .T. ) ;
#7 = DATE_AND_TIME ( #647, #374 ) ;
#8 = CC_DESIGN_PERSON_AND_ORGANIZATION_ASSIGNMENT ( #684, #408, ( #254 ) ) ;
#9 = DIRECTION ( 'NONE',  ( 8.988204538739930552E-17, -1.000000000000000000, 0.000000000000000000 ) ) ;
#10 = DIRECTION ( 'NONE',  ( 0.000000000000000000, 0.000000000000000000, 1.000000000000000000 ) ) ;
#11 = ORIENTED_EDGE ( 'NONE', *, *, #836, .F. ) ;
#12 = AXIS2_PLACEMENT_3D ( 'NONE', #283, #65, #426 ) ;
#13 = AXIS2_PLACEMENT_3D ( 'NONE', #866, #722, #220 ) ;
#14 = AXIS2_PLACEMENT_3D ( 'NONE', #386, #292, #244 ) ;
#15 = CARTESIAN_POINT ( 'NONE',  ( 57.25000000000000000, 83.50000000000000000, 18.99999999999999645 ) ) ;
#16 = DIRECTION ( 'NONE',  ( 0.000000000000000000, -0.000000000000000000, 1.000000000000000000 ) ) ;
#17 = CARTESIAN_POINT ( 'NONE',  ( 53.44999999999998863, 10.90000000000000036, 19.89999999999999858 ) ) ;
#18 = ORIENTED_EDGE ( 'NONE', *, *, #161, .F. ) ;
#19 = APPROVAL_ROLE ( '' ) ;
#20 = DIRECTION ( 'NONE',  ( -1.000000000000000000, 0.000000000000000000, 0.000000000000000000 ) ) ;
#21 = EDGE_CURVE ( 'NONE', #189, #329, #340, .T. ) ;
#22 = DIRECTION ( 'NONE',  ( 0.000000000000000000, 0.000000000000000000, 1.000000000000000000 ) ) ;
#23 = ORIENTED_EDGE ( 'NONE', *, *, #366, .T. ) ;
#24 = PLANE ( 'NONE',  #819 ) ;
#25 = CARTESIAN_POINT ( 'NONE',  ( -56.75000000000001421, 14.19999999999998863, 18.99999999999999645 ) ) ;
#26 = LINE ( 'NONE', #446, #791 ) ;
#27 = ORIENTED_EDGE ( 'NONE', *, *, #21, .T. ) ;
#28 = VECTOR ( 'NONE', #176, 1000.000000000000000 ) ;
#29 = DIRECTION ( 'NONE',  ( 1.000000000000000000, 0.000000000000000000, 0.000000000000000000 ) ) ;
#30 = CARTESIAN_POINT ( 'NONE',  ( 60.25000000000000000, 9.299999999999988276, 18.60000000000000497 ) ) ;
#31 = AXIS2_PLACEMENT_3D ( 'NONE', #95, #873, #657 ) ;
#32 = EDGE_LOOP ( 'NONE', ( #539, #433, #109, #828 ) ) ;
#33 = PERSON_AND_ORGANIZATION ( #18446744073709551615, #18446744073709551615 ) ;
#34 = CYLINDRICAL_SURFACE ( 'NONE', #537, 3.299999999999997158 ) ;
#35 = EDGE_CURVE ( 'NONE', #566, #809, #62, .T. ) ;
#36 = CARTESIAN_POINT ( 'NONE',  ( -55.25000000000001421, 80.39999999999999147, 18.99999999999999645 ) ) ;
#37 = ORIENTED_EDGE ( 'NONE', *, *, #342, .F. ) ;
#38 = DATE_AND_TIME ( #312, #491 ) ;
#39 = ORIENTED_EDGE ( 'NONE', *, *, #448, .F. ) ;
#40 = LINE ( 'NONE', #181, #516 ) ;
#41 = DIRECTION ( 'NONE',  ( 0.000000000000000000, -0.000000000000000000, 1.000000000000000000 ) ) ;
#42 = AXIS2_PLACEMENT_3D ( 'NONE', #745, #609, #255 ) ;
#43 = ORIENTED_EDGE ( 'NONE', *, *, #240, .F. ) ;
#44 = COORDINATED_UNIVERSAL_TIME_OFFSET ( 1, 0, .AHEAD. ) ;
#45 = EDGE_LOOP ( 'NONE', ( #63, #631, #152, #605 ) ) ;
#46 = CARTESIAN_POINT ( 'NONE',  ( -20.49999999999998934, 85.09999999999999432, 18.60000000000000497 ) ) ;
#47 = PRODUCT_DEFINITION_FORMATION_WITH_SPECIFIED_SOURCE ( 'Symmetrisch', '', #369, .NOT_KNOWN. ) ;
#48 = DIRECTION ( 'NONE',  ( 0.000000000000000000, -0.000000000000000000, 1.000000000000000000 ) ) ;
#49 = ORIENTED_EDGE ( 'NONE', *, *, #333, .F. ) ;
#50 = ADVANCED_FACE ( 'NONE', ( #782 ), #849, .T. ) ;
#51 = VERTEX_POINT ( 'NONE', #218 ) ;
#52 = CARTESIAN_POINT ( 'NONE',  ( -56.75000000000001421, 10.89999999999998792, 19.89999999999999858 ) ) ;
#53 = EDGE_CURVE ( 'NONE', #482, #385, #487, .T. ) ;
#54 = ORIENTED_EDGE ( 'NONE', *, *, #464, .T. ) ;
#55 = ORIENTED_EDGE ( 'NONE', *, *, #285, .T. ) ;
#56 = CARTESIAN_POINT ( 'NONE',  ( -55.25000000000001421, 81.89999999999999147, 18.59999999999999787 ) ) ;
#57 = VECTOR ( 'NONE', #198, 1000.000000000000000 ) ;
#58 = DIRECTION ( 'NONE',  ( -0.000000000000000000, -0.000000000000000000, -1.000000000000000000 ) ) ;
#59 = CARTESIAN_POINT ( 'NONE',  ( -60.25000000000000000, 9.299999999999988276, 18.60000000000000497 ) ) ;
#60 = AXIS2_PLACEMENT_3D ( 'NONE', #843, #781, #772 ) ;
#61 = VECTOR ( 'NONE', #41, 1000.000000000000000 ) ;
#62 = LINE ( 'NONE', #213, #889 ) ;
#63 = ORIENTED_EDGE ( 'NONE', *, *, #907, .T. ) ;
#64 = VECTOR ( 'NONE', #510, 1000.000000000000000 ) ;
#65 = DIRECTION ( 'NONE',  ( 1.000000000000000000, 0.000000000000000000, 0.000000000000000000 ) ) ;
#66 = EDGE_CURVE ( 'NONE', #282, #375, #142, .T. ) ;
#67 = DIRECTION ( 'NONE',  ( 1.000000000000000000, 0.000000000000000000, 0.000000000000000000 ) ) ;
#68 = ORIENTED_EDGE ( 'NONE', *, *, #366, .F. ) ;
#69 = PLANE ( 'NONE',  #612 ) ;
#70 = DIRECTION ( 'NONE',  ( 0.000000000000000000, -1.000000000000000000, 0.000000000000000000 ) ) ;
#71 = ORIENTED_EDGE ( 'NONE', *, *, #474, .T. ) ;
#72 = CARTESIAN_POINT ( 'NONE',  ( 60.25000000000000711, 83.50000000000000000, 18.99999999999999645 ) ) ;
#73 = LINE ( 'NONE', #697, #572 ) ;
#74 = VERTEX_POINT ( 'NONE', #281 ) ;
#75 = ADVANCED_FACE ( 'NONE', ( #428 ), #346, .T. ) ;
#76 = CARTESIAN_POINT ( 'NONE',  ( -57.24999999999999289, 6.299999999999992717, -124.5086650067004683 ) ) ;
#77 = CIRCLE ( 'NONE', #314, 3.299999999999997158 ) ;
#78 = DIRECTION ( 'NONE',  ( 0.000000000000000000, 0.000000000000000000, -1.000000000000000000 ) ) ;
#79 = APPROVAL ( #894, 'Deckungsgleich' ) ;
#80 = ORIENTED_EDGE ( 'NONE', *, *, #199, .F. ) ;
#81 = CARTESIAN_POINT ( 'NONE',  ( 56.74999999999998579, 14.20000000000000107, 19.89999999999999858 ) ) ;
#82 = FACE_OUTER_BOUND ( 'NONE', #32, .T. ) ;
#83 = AXIS2_PLACEMENT_3D ( 'NONE', #203, #424, #136 ) ;
#84 = EDGE_LOOP ( 'NONE', ( #538, #494, #543, #918 ) ) ;
#85 = PERSON_AND_ORGANIZATION_ROLE ( 'design_owner' ) ;
#86 = CIRCLE ( 'NONE', #636, 2.899999999999999911 ) ;
#87 = DIRECTION ( 'NONE',  ( 0.000000000000000000, 0.000000000000000000, 1.000000000000000000 ) ) ;
#88 = DIRECTION ( 'NONE',  ( 1.000000000000000000, 0.000000000000000000, 0.000000000000000000 ) ) ;
#89 = VERTEX_POINT ( 'NONE', #769 ) ;
#90 = VECTOR ( 'NONE', #197, 1000.000000000000000 ) ;
#91 = CIRCLE ( 'NONE', #13, 2.899999999999999911 ) ;
#92 = DATE_TIME_ROLE ( 'creation_date' ) ;
#93 = EDGE_CURVE ( 'NONE', #351, #837, #320, .T. ) ;
#94 = CARTESIAN_POINT ( 'NONE',  ( 55.24999999999998579, 81.90000000000000568, 19.89999999999999858 ) ) ;
#95 = CARTESIAN_POINT ( 'NONE',  ( -57.25000000000000000, 80.50000000000000000, 18.60000000000000497 ) ) ;
#96 = ORIENTED_EDGE ( 'NONE', *, *, #907, .F. ) ;
#97 = CARTESIAN_POINT ( 'NONE',  ( 0.000000000000000000, 0.000000000000000000, 0.000000000000000000 ) ) ;
#98 = FACE_OUTER_BOUND ( 'NONE', #646, .T. ) ;
#99 = EDGE_CURVE ( 'NONE', #663, #748, #499, .T. ) ;
#100 = LINE ( 'NONE', #666, #270 ) ;
#101 = ORIENTED_EDGE ( 'NONE', *, *, #3, .T. ) ;
#102 = DIRECTION ( 'NONE',  ( -1.000000000000000000, -8.988204538739930552E-17, 0.000000000000000000 ) ) ;
#103 = DIRECTION ( 'NONE',  ( 1.000000000000000000, 0.000000000000000000, -0.000000000000000000 ) ) ;
#104 = VERTEX_POINT ( 'NONE', #130 ) ;
#105 = VECTOR ( 'NONE', #672, 1000.000000000000000 ) ;
#106 = DIRECTION ( 'NONE',  ( 0.000000000000000000, 0.000000000000000000, 1.000000000000000000 ) ) ;
#107 = CARTESIAN_POINT ( 'NONE',  ( -22.91867732448956119, 83.50000000000000000, 18.60000000000000497 ) ) ;
#108 = AXIS2_PLACEMENT_3D ( 'NONE', #299, #514, #802 ) ;
#109 = ORIENTED_EDGE ( 'NONE', *, *, #739, .F. ) ;
#110 = APPROVAL_ROLE ( '' ) ;
#111 = CARTESIAN_POINT ( 'NONE',  ( 53.70000000000000284, 78.89999999999999147, 18.60000000000000497 ) ) ;
#112 = DIRECTION ( 'NONE',  ( 0.000000000000000000, -0.000000000000000000, 1.000000000000000000 ) ) ;
#113 = EDGE_LOOP ( 'NONE', ( #703, #551, #242, #68 ) ) ;
#114 = ORIENTED_EDGE ( 'NONE', *, *, #905, .F. ) ;
#115 = DIRECTION ( 'NONE',  ( 1.776718643924104021E-16, -1.000000000000000000, 0.000000000000000000 ) ) ;
#116 = PLANE ( 'NONE',  #461 ) ;
#117 = AXIS2_PLACEMENT_3D ( 'NONE', #439, #876, #298 ) ;
#118 = ORIENTED_EDGE ( 'NONE', *, *, #795, .T. ) ;
#119 = ORIENTED_EDGE ( 'NONE', *, *, #531, .T. ) ;
#120 = LINE ( 'NONE', #52, #896 ) ;
#121 = EDGE_CURVE ( 'NONE', #709, #351, #354, .T. ) ;
#122 = ORIENTED_EDGE ( 'NONE', *, *, #295, .F. ) ;
#123 = PERSON_AND_ORGANIZATION ( #18446744073709551615, #18446744073709551615 ) ;
#124 = ORIENTED_EDGE ( 'NONE', *, *, #212, .F. ) ;
#125 = CARTESIAN_POINT ( 'NONE',  ( 22.93770469435378700, 83.50000000000000000, 18.59999999999999787 ) ) ;
#126 = EDGE_CURVE ( 'NONE', #620, #638, #248, .T. ) ;
#127 = CARTESIAN_POINT ( 'NONE',  ( -53.70000000000000284, 78.89999999999999147, 18.60000000000000497 ) ) ;
#128 = CARTESIAN_POINT ( 'NONE',  ( -55.24999999999998579, 81.89999999999999147, 19.89999999999999858 ) ) ;
#129 = VECTOR ( 'NONE', #273, 1000.000000000000000 ) ;
#130 = CARTESIAN_POINT ( 'NONE',  ( 22.93770469435378700, 83.50000000000000000, 18.99999999999999645 ) ) ;
#131 = ORIENTED_EDGE ( 'NONE', *, *, #66, .T. ) ;
#132 = FACE_OUTER_BOUND ( 'NONE', #902, .T. ) ;
#133 = EDGE_CURVE ( 'NONE', #319, #140, #711, .T. ) ;
#134 = CIRCLE ( 'NONE', #293, 3.299999999999997158 ) ;
#135 = APPROVAL_PERSON_ORGANIZATION ( #875, #147, #879 ) ;
#136 = DIRECTION ( 'NONE',  ( 1.000000000000000000, 0.000000000000000000, 0.000000000000000000 ) ) ;
#137 = ORIENTED_EDGE ( 'NONE', *, *, #454, .F. ) ;
#138 = DIRECTION ( 'NONE',  ( -8.988204538739930552E-17, -1.000000000000000000, 0.000000000000000000 ) ) ;
#139 = LINE ( 'NONE', #633, #288 ) ;
#140 = VERTEX_POINT ( 'NONE', #412 ) ;
#141 = PLANE ( 'NONE',  #12 ) ;
#142 = LINE ( 'NONE', #350, #5 ) ;
#143 = EDGE_CURVE ( 'NONE', #737, #300, #73, .T. ) ;
#144 = EDGE_LOOP ( 'NONE', ( #96, #262, #114, #363 ) ) ;
#145 = EDGE_CURVE ( 'NONE', #74, #744, #174, .T. ) ;
#146 = DIRECTION ( 'NONE',  ( -1.000000000000000000, -1.222712582186295884E-16, 0.000000000000000000 ) ) ;
#147 = APPROVAL ( #305, 'Deckungsgleich' ) ;
#148 = CARTESIAN_POINT ( 'NONE',  ( 22.93770469435378700, 83.50000000000000000, 18.60000000000000497 ) ) ;
#149 = ORIENTED_EDGE ( 'NONE', *, *, #806, .F. ) ;
#150 = VECTOR ( 'NONE', #373, 1000.000000000000000 ) ;
#151 = CARTESIAN_POINT ( 'NONE',  ( -53.70000000000000284, 78.89999999999999147, 18.60000000000000497 ) ) ;
#152 = ORIENTED_EDGE ( 'NONE', *, *, #308, .T. ) ;
#153 = FACE_OUTER_BOUND ( 'NONE', #304, .T. ) ;
#154 = FACE_OUTER_BOUND ( 'NONE', #908, .T. ) ;
#155 = CARTESIAN_POINT ( 'NONE',  ( 56.74999999999998579, 14.20000000000000107, 18.99999999999999645 ) ) ;
#156 = EDGE_CURVE ( 'NONE', #566, #620, #844, .T. ) ;
#157 = ORIENTED_EDGE ( 'NONE', *, *, #454, .T. ) ;
#158 = LINE ( 'NONE', #593, #732 ) ;
#159 = VECTOR ( 'NONE', #740, 1000.000000000000000 ) ;
#160 = DIRECTION ( 'NONE',  ( 1.000000000000000000, 0.000000000000000000, 0.000000000000000000 ) ) ;
#161 = EDGE_CURVE ( 'NONE', #760, #338, #700, .T. ) ;
#162 = CARTESIAN_POINT ( 'NONE',  ( -53.70000000000000284, 13.89999999999997726, 18.60000000000000497 ) ) ;
#163 = VERTEX_POINT ( 'NONE', #565 ) ;
#164 = EDGE_CURVE ( 'NONE', #501, #163, #139, .T. ) ;
#165 = DIRECTION ( 'NONE',  ( -0.000000000000000000, -0.000000000000000000, -1.000000000000000000 ) ) ;
#166 = CYLINDRICAL_SURFACE ( 'NONE', #14, 3.000000000000002665 ) ;
#167 = CARTESIAN_POINT ( 'NONE',  ( -53.70000000000000284, 78.89999999999999147, 19.89999999999999858 ) ) ;
#168 = ORIENTED_EDGE ( 'NONE', *, *, #126, .F. ) ;
#169 = DIRECTION ( 'NONE',  ( 0.000000000000000000, 0.000000000000000000, -1.000000000000000000 ) ) ;
#170 = CARTESIAN_POINT ( 'NONE',  ( 60.25000000000000711, 83.50000000000000000, -124.5086650067004683 ) ) ;
#171 = CYLINDRICAL_SURFACE ( 'NONE', #625, 1.500000000000001332 ) ;
#172 = ORIENTED_EDGE ( 'NONE', *, *, #99, .F. ) ;
#173 = EDGE_CURVE ( 'NONE', #517, #566, #483, .T. ) ;
#174 = CIRCLE ( 'NONE', #696, 3.000000000000002665 ) ;
#175 = FACE_OUTER_BOUND ( 'NONE', #834, .T. ) ;
#176 = DIRECTION ( 'NONE',  ( 0.000000000000000000, 0.000000000000000000, 1.000000000000000000 ) ) ;
#177 = CC_DESIGN_PERSON_AND_ORGANIZATION_ASSIGNMENT ( #123, #321, ( #47 ) ) ;
#178 = ORIENTED_EDGE ( 'NONE', *, *, #674, .T. ) ;
#179 = VECTOR ( 'NONE', #165, 1000.000000000000000 ) ;
#180 = VECTOR ( 'NONE', #325, 1000.000000000000000 ) ;
#181 = CARTESIAN_POINT ( 'NONE',  ( 56.74999999999998579, 10.90000000000000036, 18.99999999999999645 ) ) ;
#182 = LINE ( 'NONE', #455, #702 ) ;
#183 = DIRECTION ( 'NONE',  ( 0.000000000000000000, 1.000000000000000000, 0.000000000000000000 ) ) ;
#184 = CARTESIAN_POINT ( 'NONE',  ( 18.06229530564619523, 83.50000000000000000, 18.99999999999999645 ) ) ;
#185 = CARTESIAN_POINT ( 'NONE',  ( 57.24999999999999289, 6.299999999999992717, 18.99999999999999645 ) ) ;
#186 = ORIENTED_EDGE ( 'NONE', *, *, #639, .T. ) ;
#187 = EDGE_CURVE ( 'NONE', #756, #878, #708, .T. ) ;
#188 = CARTESIAN_POINT ( 'NONE',  ( 53.44999999999998863, 14.20000000000000107, 18.59999999999999787 ) ) ;
#189 = VERTEX_POINT ( 'NONE', #440 ) ;
#190 = EDGE_LOOP ( 'NONE', ( #223, #619, #296, #863 ) ) ;
#191 = EDGE_CURVE ( 'NONE', #89, #855, #26, .T. ) ;
#192 = MANIFOLD_SOLID_BREP ( 'Basisteil-Screen_Lens_Frame-1', #456 ) ;
#193 = CYLINDRICAL_SURFACE ( 'NONE', #683, 2.899999999999999911 ) ;
#194 = ORIENTED_EDGE ( 'NONE', *, *, #199, .T. ) ;
#195 = VECTOR ( 'NONE', #733, 1000.000000000000000 ) ;
#196 = EDGE_LOOP ( 'NONE', ( #798, #678, #721, #172 ) ) ;
#197 = DIRECTION ( 'NONE',  ( -1.000000000000000000, -1.222712582186295884E-16, 0.000000000000000000 ) ) ;
#198 = DIRECTION ( 'NONE',  ( -1.000000000000000000, -0.000000000000000000, -0.000000000000000000 ) ) ;
#199 = EDGE_CURVE ( 'NONE', #319, #488, #100, .T. ) ;
#200 = VERTEX_POINT ( 'NONE', #645 ) ;
#201 = PLANE ( 'NONE',  #730 ) ;
#202 = VECTOR ( 'NONE', #921, 1000.000000000000000 ) ;
#203 = CARTESIAN_POINT ( 'NONE',  ( 55.24999999999998579, 80.40000000000000568, 19.89999999999999858 ) ) ;
#204 = CIRCLE ( 'NONE', #117, 3.000000000000002665 ) ;
#205 = EDGE_LOOP ( 'NONE', ( #37, #252, #581, #497 ) ) ;
#206 = LINE ( 'NONE', #72, #864 ) ;
#207 = VECTOR ( 'NONE', #211, 1000.000000000000000 ) ;
#208 = AXIS2_PLACEMENT_3D ( 'NONE', #97, #571, #860 ) ;
#209 = CARTESIAN_POINT ( 'NONE',  ( 60.25000000000000711, 83.50000000000000000, -124.5086650067004683 ) ) ;
#210 = ORIENTED_EDGE ( 'NONE', *, *, #214, .F. ) ;
#211 = DIRECTION ( 'NONE',  ( 1.000000000000000000, 1.776718643924104268E-16, 0.000000000000000000 ) ) ;
#212 = EDGE_CURVE ( 'NONE', #488, #756, #870, .T. ) ;
#213 = CARTESIAN_POINT ( 'NONE',  ( 56.74999999999998579, 81.90000000000000568, 19.89999999999999858 ) ) ;
#214 = EDGE_CURVE ( 'NONE', #783, #763, #720, .T. ) ;
#215 = ORIENTED_EDGE ( 'NONE', *, *, #464, .F. ) ;
#216 = CARTESIAN_POINT ( 'NONE',  ( 57.24999999999999289, 6.299999999999992717, -124.5086650067004683 ) ) ;
#217 = CC_DESIGN_APPROVAL ( #79, ( #254 ) ) ;
#218 = CARTESIAN_POINT ( 'NONE',  ( -56.75000000000001421, 14.19999999999998863, 19.89999999999999858 ) ) ;
#219 = ORIENTED_EDGE ( 'NONE', *, *, #639, .F. ) ;
#220 = DIRECTION ( 'NONE',  ( 1.000000000000000000, 0.000000000000000000, 0.000000000000000000 ) ) ;
#221 = CARTESIAN_POINT ( 'NONE',  ( -53.45000000000001705, 14.19999999999998863, 18.99999999999999645 ) ) ;
#222 = AXIS2_PLACEMENT_3D ( 'NONE', #36, #611, #898 ) ;
#223 = ORIENTED_EDGE ( 'NONE', *, *, #187, .T. ) ;
#224 = DIRECTION ( 'NONE',  ( 1.000000000000000000, 0.000000000000000000, 0.000000000000000000 ) ) ;
#225 = VECTOR ( 'NONE', #812, 1000.000000000000000 ) ;
#226 = DIRECTION ( 'NONE',  ( 0.000000000000000000, -0.000000000000000000, 1.000000000000000000 ) ) ;
#227 = CARTESIAN_POINT ( 'NONE',  ( -53.45000000000001705, 10.89999999999998792, 18.99999999999999645 ) ) ;
#228 = EDGE_LOOP ( 'NONE', ( #290, #643, #693, #11 ) ) ;
#229 = EDGE_CURVE ( 'NONE', #737, #338, #574, .T. ) ;
#230 = PLANE ( 'NONE',  #820 ) ;
#231 = DIRECTION ( 'NONE',  ( 1.000000000000000000, 0.000000000000000000, 0.000000000000000000 ) ) ;
#232 = ORIENTED_EDGE ( 'NONE', *, *, #862, .T. ) ;
#233 = DIRECTION ( 'NONE',  ( 0.000000000000000000, -1.000000000000000000, 0.000000000000000000 ) ) ;
#234 = VECTOR ( 'NONE', #527, 1000.000000000000000 ) ;
#235 = FACE_OUTER_BOUND ( 'NONE', #228, .T. ) ;
#236 = CARTESIAN_POINT ( 'NONE',  ( 56.74999999999998579, 10.90000000000000036, 19.89999999999999858 ) ) ;
#237 = ORIENTED_EDGE ( 'NONE', *, *, #785, .T. ) ;
#238 =( NAMED_UNIT ( * ) SI_UNIT ( $, .STERADIAN. ) SOLID_ANGLE_UNIT ( ) );
#239 = CARTESIAN_POINT ( 'NONE',  ( -60.25000000000000711, 83.50000000000000000, -124.5086650067004683 ) ) ;
#240 = EDGE_CURVE ( 'NONE', #140, #756, #241, .T. ) ;
#241 = LINE ( 'NONE', #585, #64 ) ;
#242 = ORIENTED_EDGE ( 'NONE', *, *, #145, .F. ) ;
#243 = CALENDAR_DATE ( 2026, 4, 4 ) ;
#244 = DIRECTION ( 'NONE',  ( 1.000000000000000000, 0.000000000000000000, 0.000000000000000000 ) ) ;
#245 = PRODUCT_RELATED_PRODUCT_CATEGORY ( 'detail', '', ( #369 ) ) ;
#246 = LINE ( 'NONE', #107, #550 ) ;
#247 = ORIENTED_EDGE ( 'NONE', *, *, #920, .T. ) ;
#248 = CIRCLE ( 'NONE', #858, 1.500000000000001332 ) ;
#249 = CARTESIAN_POINT ( 'NONE',  ( -57.24999999999999289, 6.299999999999992717, 18.99999999999999645 ) ) ;
#250 = CARTESIAN_POINT ( 'NONE',  ( 60.25000000000000711, 83.50000000000000000, 18.99999999999999645 ) ) ;
#251 = VERTEX_POINT ( 'NONE', #155 ) ;
#252 = ORIENTED_EDGE ( 'NONE', *, *, #764, .F. ) ;
#253 = CIRCLE ( 'NONE', #774, 3.000000000000002665 ) ;
#254 = SECURITY_CLASSIFICATION ( '', '', #884 ) ;
#255 = DIRECTION ( 'NONE',  ( 8.988204538739930552E-17, 1.000000000000000000, 0.000000000000000000 ) ) ;
#256 = LINE ( 'NONE', #250, #180 ) ;
#257 = EDGE_CURVE ( 'NONE', #140, #783, #861, .T. ) ;
#258 = ORIENTED_EDGE ( 'NONE', *, *, #808, .F. ) ;
#259 = FACE_OUTER_BOUND ( 'NONE', #887, .T. ) ;
#260 = CARTESIAN_POINT ( 'NONE',  ( -60.25000000000000711, 80.50000000000000000, 18.60000000000000497 ) ) ;
#261 = ADVANCED_FACE ( 'NONE', ( #309 ), #595, .F. ) ;
#262 = ORIENTED_EDGE ( 'NONE', *, *, #164, .F. ) ;
#263 = COORDINATED_UNIVERSAL_TIME_OFFSET ( 1, 0, .AHEAD. ) ;
#264 = DIRECTION ( 'NONE',  ( -1.000000000000000000, 0.000000000000000000, 0.000000000000000000 ) ) ;
#265 = ORIENTED_EDGE ( 'NONE', *, *, #53, .F. ) ;
#266 = ORIENTED_EDGE ( 'NONE', *, *, #306, .T. ) ;
#267 = CARTESIAN_POINT ( 'NONE',  ( 56.74999999999998579, 80.40000000000000568, 18.99999999999999645 ) ) ;
#268 = CIRCLE ( 'NONE', #388, 3.299999999999997158 ) ;
#269 = DIRECTION ( 'NONE',  ( -0.000000000000000000, 0.000000000000000000, 1.000000000000000000 ) ) ;
#270 = VECTOR ( 'NONE', #716, 1000.000000000000000 ) ;
#271 = ORIENTED_EDGE ( 'NONE', *, *, #333, .T. ) ;
#272 = CARTESIAN_POINT ( 'NONE',  ( -53.70000000000000284, 13.89999999999997726, 19.89999999999999858 ) ) ;
#273 = DIRECTION ( 'NONE',  ( 1.000000000000000000, 0.000000000000000000, 0.000000000000000000 ) ) ;
#274 = VERTEX_POINT ( 'NONE', #378 ) ;
#275 = LINE ( 'NONE', #698, #460 ) ;
#276 = DIRECTION ( 'NONE',  ( 1.000000000000000000, 0.000000000000000000, 0.000000000000000000 ) ) ;
#277 = ORIENTED_EDGE ( 'NONE', *, *, #121, .T. ) ;
#278 = DIRECTION ( 'NONE',  ( 0.000000000000000000, 0.000000000000000000, 1.000000000000000000 ) ) ;
#279 = LOCAL_TIME ( 19, 36, 11.00000000000000000, #799 ) ;
#280 = EDGE_CURVE ( 'NONE', #300, #530, #77, .T. ) ;
#281 = CARTESIAN_POINT ( 'NONE',  ( -60.25000000000000000, 9.299999999999988276, 18.99999999999999645 ) ) ;
#282 = VERTEX_POINT ( 'NONE', #520 ) ;
#283 = CARTESIAN_POINT ( 'NONE',  ( 53.70000000000000284, 78.89999999999999147, 18.60000000000000497 ) ) ;
#284 = CARTESIAN_POINT ( 'NONE',  ( -57.24999999999999289, 9.299999999999988276, 18.60000000000000497 ) ) ;
#285 = EDGE_CURVE ( 'NONE', #837, #399, #807, .T. ) ;
#286 = EDGE_LOOP ( 'NONE', ( #511, #575, #851, #137 ) ) ;
#287 = CARTESIAN_POINT ( 'NONE',  ( 60.25000000000000000, 9.299999999999988276, 18.99999999999999645 ) ) ;
#288 = VECTOR ( 'NONE', #555, 1000.000000000000000 ) ;
#289 = DIRECTION ( 'NONE',  ( -1.000000000000000000, -0.000000000000000000, -0.000000000000000000 ) ) ;
#290 = ORIENTED_EDGE ( 'NONE', *, *, #531, .F. ) ;
#291 = CARTESIAN_POINT ( 'NONE',  ( -18.08132267551041750, 83.50000000000000000, 18.60000000000000497 ) ) ;
#292 = DIRECTION ( 'NONE',  ( 0.000000000000000000, 0.000000000000000000, 1.000000000000000000 ) ) ;
#293 = AXIS2_PLACEMENT_3D ( 'NONE', #691, #623, #322 ) ;
#294 = CARTESIAN_POINT ( 'NONE',  ( 60.25000000000000000, 6.299999999999992717, 18.99999999999999645 ) ) ;
#295 = EDGE_CURVE ( 'NONE', #809, #482, #628, .T. ) ;
#296 = ORIENTED_EDGE ( 'NONE', *, *, #257, .F. ) ;
#297 = CYLINDRICAL_SURFACE ( 'NONE', #331, 3.299999999999997158 ) ;
#298 = DIRECTION ( 'NONE',  ( 1.000000000000000000, -1.156482317317870344E-15, 0.000000000000000000 ) ) ;
#299 = CARTESIAN_POINT ( 'NONE',  ( 57.25000000000000000, 80.50000000000000000, 18.60000000000000497 ) ) ;
#300 = VERTEX_POINT ( 'NONE', #227 ) ;
#301 = COORDINATED_UNIVERSAL_TIME_OFFSET ( 1, 0, .AHEAD. ) ;
#302 = CARTESIAN_POINT ( 'NONE',  ( -18.08132267551041750, 83.50000000000000000, 18.59999999999999787 ) ) ;
#303 = DIRECTION ( 'NONE',  ( 1.000000000000000000, 1.069873509413008899E-16, -0.000000000000000000 ) ) ;
#304 = EDGE_LOOP ( 'NONE', ( #817, #447, #779, #1 ) ) ;
#305 = APPROVAL_STATUS ( 'not_yet_approved' ) ;
#306 = EDGE_CURVE ( 'NONE', #163, #663, #838, .T. ) ;
#307 = PLANE ( 'NONE',  #485 ) ;
#308 = EDGE_CURVE ( 'NONE', #104, #663, #787, .T. ) ;
#309 = FACE_OUTER_BOUND ( 'NONE', #45, .T. ) ;
#310 = EDGE_LOOP ( 'NONE', ( #560, #71, #258, #922, #451, #909, #626, #882 ) ) ;
#311 = CC_DESIGN_PERSON_AND_ORGANIZATION_ASSIGNMENT ( #33, #398, ( #47 ) ) ;
#312 = CALENDAR_DATE ( 2026, 4, 4 ) ;
#313 = FACE_OUTER_BOUND ( 'NONE', #286, .T. ) ;
#314 = AXIS2_PLACEMENT_3D ( 'NONE', #221, #384, #877 ) ;
#315 = LINE ( 'NONE', #534, #225 ) ;
#316 = EDGE_LOOP ( 'NONE', ( #761, #124, #717, #613 ) ) ;
#317 = CARTESIAN_POINT ( 'NONE',  ( 0.000000000000000000, 0.000000000000000000, 18.99999999999999645 ) ) ;
#318 = FACE_OUTER_BOUND ( 'NONE', #417, .T. ) ;
#319 = VERTEX_POINT ( 'NONE', #362 ) ;
#320 = CIRCLE ( 'NONE', #741, 3.000000000000002665 ) ;
#321 = PERSON_AND_ORGANIZATION_ROLE ( 'design_supplier' ) ;
#322 = DIRECTION ( 'NONE',  ( 1.000000000000000000, 0.000000000000000000, 0.000000000000000000 ) ) ;
#323 = ADVANCED_FACE ( 'NONE', ( #82 ), #792, .T. ) ;
#324 = AXIS2_PLACEMENT_3D ( 'NONE', #670, #814, #804 ) ;
#325 = DIRECTION ( 'NONE',  ( -1.000000000000000000, 0.000000000000000000, 0.000000000000000000 ) ) ;
#326 = ORIENTED_EDGE ( 'NONE', *, *, #739, .T. ) ;
#327 = EDGE_CURVE ( 'NONE', #744, #476, #662, .T. ) ;
#328 = PERSON_AND_ORGANIZATION ( #18446744073709551615, #18446744073709551615 ) ;
#329 = VERTEX_POINT ( 'NONE', #580 ) ;
#330 = AXIS2_PLACEMENT_3D ( 'NONE', #406, #602, #888 ) ;
#331 = AXIS2_PLACEMENT_3D ( 'NONE', #582, #452, #224 ) ;
#332 = CARTESIAN_POINT ( 'NONE',  ( 60.25000000000000711, 83.50000000000000000, 18.99999999999999645 ) ) ;
#333 = EDGE_CURVE ( 'NONE', #399, #282, #675, .T. ) ;
#334 = CARTESIAN_POINT ( 'NONE',  ( 53.70000000000000284, 13.89999999999999503, 18.60000000000000497 ) ) ;
#335 = EDGE_LOOP ( 'NONE', ( #425, #472, #210, #437 ) ) ;
#336 = DATE_AND_TIME ( #824, #536 ) ;
#337 = LINE ( 'NONE', #56, #401 ) ;
#338 = VERTEX_POINT ( 'NONE', #17 ) ;
#339 = EDGE_LOOP ( 'NONE', ( #393, #842, #659, #186 ) ) ;
#340 = CIRCLE ( 'NONE', #815, 3.000000000000002665 ) ;
#341 = DIRECTION ( 'NONE',  ( 1.000000000000000000, 1.776718643924104021E-16, 0.000000000000000000 ) ) ;
#342 = EDGE_CURVE ( 'NONE', #748, #89, #506, .T. ) ;
#343 = CARTESIAN_POINT ( 'NONE',  ( 53.44999999999998863, 10.90000000000000036, 18.59999999999999787 ) ) ;
#344 = APPROVAL ( #660, 'Deckungsgleich' ) ;
#345 = FACE_OUTER_BOUND ( 'NONE', #478, .T. ) ;
#346 = CYLINDRICAL_SURFACE ( 'NONE', #723, 3.000000000000002665 ) ;
#347 = VECTOR ( 'NONE', #289, 1000.000000000000000 ) ;
#348 = VERTEX_POINT ( 'NONE', #30 ) ;
#349 = LINE ( 'NONE', #76, #850 ) ;
#350 = CARTESIAN_POINT ( 'NONE',  ( 60.25000000000000711, 83.50000000000000000, 18.60000000000000497 ) ) ;
#351 = VERTEX_POINT ( 'NONE', #617 ) ;
#352 = FACE_OUTER_BOUND ( 'NONE', #144, .T. ) ;
#353 = EDGE_CURVE ( 'NONE', #530, #51, #315, .T. ) ;
#354 = LINE ( 'NONE', #917, #648 ) ;
#355 = AXIS2_PLACEMENT_3D ( 'NONE', #826, #477, #264 ) ;
#356 = ORIENTED_EDGE ( 'NONE', *, *, #591, .F. ) ;
#357 = LINE ( 'NONE', #640, #179 ) ;
#358 = EDGE_CURVE ( 'NONE', #673, #274, #256, .T. ) ;
#359 = CARTESIAN_POINT ( 'NONE',  ( 55.24999999999998579, 81.90000000000000568, 18.59999999999999787 ) ) ;
#360 = ORIENTED_EDGE ( 'NONE', *, *, #808, .T. ) ;
#361 = CARTESIAN_POINT ( 'NONE',  ( -53.70000000000000284, 78.89999999999999147, 18.60000000000000497 ) ) ;
#362 = CARTESIAN_POINT ( 'NONE',  ( 53.70000000000000284, 78.89999999999999147, 18.60000000000000497 ) ) ;
#363 = ORIENTED_EDGE ( 'NONE', *, *, #358, .F. ) ;
#364 = PERSON_AND_ORGANIZATION ( #18446744073709551615, #18446744073709551615 ) ;
#365 = LINE ( 'NONE', #872, #746 ) ;
#366 = EDGE_CURVE ( 'NONE', #837, #74, #600, .T. ) ;
#367 = CARTESIAN_POINT ( 'NONE',  ( -56.75000000000001421, 10.89999999999998792, 18.59999999999999787 ) ) ;
#368 = ORIENTED_EDGE ( 'NONE', *, *, #173, .T. ) ;
#369 = PRODUCT ( 'Screen Lens Frame REF2008', 'Screen Lens Frame REF2008', '', ( #718 ) ) ;
#370 = CARTESIAN_POINT ( 'NONE',  ( 60.25000000000000000, 6.299999999999992717, -124.5086650067004683 ) ) ;
#371 = FACE_OUTER_BOUND ( 'NONE', #205, .T. ) ;
#372 = AXIS2_PLACEMENT_3D ( 'NONE', #644, #480, #928 ) ;
#373 = DIRECTION ( 'NONE',  ( 1.000000000000000000, -0.000000000000000000, -0.000000000000000000 ) ) ;
#374 = LOCAL_TIME ( 19, 36, 11.00000000000000000, #652 ) ;
#375 = VERTEX_POINT ( 'NONE', #392 ) ;
#376 = PERSON_AND_ORGANIZATION ( #18446744073709551615, #18446744073709551615 ) ;
#377 = CARTESIAN_POINT ( 'NONE',  ( 53.70000000000000284, 78.89999999999999147, 19.89999999999999858 ) ) ;
#378 = CARTESIAN_POINT ( 'NONE',  ( -18.08132267551041750, 83.50000000000000000, 18.99999999999999645 ) ) ;
#379 = ORIENTED_EDGE ( 'NONE', *, *, #486, .T. ) ;
#380 = EDGE_CURVE ( 'NONE', #375, #200, #246, .T. ) ;
#381 = CARTESIAN_POINT ( 'NONE',  ( -53.70000000000000284, 13.89999999999997549, 19.89999999999999858 ) ) ;
#382 = ADVANCED_FACE ( 'NONE', ( #541, #318 ), #116, .F. ) ;
#383 = FACE_OUTER_BOUND ( 'NONE', #429, .T. ) ;
#384 = DIRECTION ( 'NONE',  ( -0.000000000000000000, 0.000000000000000000, -1.000000000000000000 ) ) ;
#385 = VERTEX_POINT ( 'NONE', #603 ) ;
#386 = CARTESIAN_POINT ( 'NONE',  ( 57.25000000000000000, 80.50000000000000000, -124.5086650067004683 ) ) ;
#387 = FACE_OUTER_BOUND ( 'NONE', #521, .T. ) ;
#388 = AXIS2_PLACEMENT_3D ( 'NONE', #459, #112, #688 ) ;
#389 = ORIENTED_EDGE ( 'NONE', *, *, #3, .F. ) ;
#390 = DIRECTION ( 'NONE',  ( 1.000000000000000000, 1.069873509413008899E-16, 0.000000000000000000 ) ) ;
#391 = AXIS2_PLACEMENT_3D ( 'NONE', #881, #22, #88 ) ;
#392 = CARTESIAN_POINT ( 'NONE',  ( -22.91867732448956119, 83.50000000000000000, 18.60000000000000497 ) ) ;
#393 = ORIENTED_EDGE ( 'NONE', *, *, #133, .T. ) ;
#394 = DIRECTION ( 'NONE',  ( 1.000000000000000000, 0.000000000000000000, 0.000000000000000000 ) ) ;
#395 = EDGE_CURVE ( 'NONE', #855, #892, #789, .T. ) ;
#396 = CARTESIAN_POINT ( 'NONE',  ( 0.000000000000000000, 0.000000000000000000, 18.59999999999999787 ) ) ;
#397 = ORIENTED_EDGE ( 'NONE', *, *, #825, .F. ) ;
#398 = PERSON_AND_ORGANIZATION_ROLE ( 'creator' ) ;
#399 = VERTEX_POINT ( 'NONE', #260 ) ;
#400 = DIRECTION ( 'NONE',  ( 1.000000000000000000, 0.000000000000000000, 0.000000000000000000 ) ) ;
#401 = VECTOR ( 'NONE', #106, 1000.000000000000000 ) ;
#402 = LINE ( 'NONE', #742, #105 ) ;
#403 = EDGE_LOOP ( 'NONE', ( #803, #54, #101, #368, #586, #457, #326, #859 ) ) ;
#404 = VERTEX_POINT ( 'NONE', #681 ) ;
#405 = APPROVAL_PERSON_ORGANIZATION ( #376, #344, #19 ) ;
#406 = CARTESIAN_POINT ( 'NONE',  ( 56.74999999999998579, 10.90000000000000036, 18.59999999999999787 ) ) ;
#407 = EDGE_LOOP ( 'NONE', ( #556, #232, #397, #615 ) ) ;
#408 = PERSON_AND_ORGANIZATION_ROLE ( 'classification_officer' ) ;
#409 = ADVANCED_FACE ( 'NONE', ( #387 ), #171, .T. ) ;
#410 = DIRECTION ( 'NONE',  ( 0.000000000000000000, 1.000000000000000000, 0.000000000000000000 ) ) ;
#411 = CC_DESIGN_DATE_AND_TIME_ASSIGNMENT ( #729, #92, ( #573 ) ) ;
#412 = CARTESIAN_POINT ( 'NONE',  ( -53.70000000000000284, 78.89999999999999147, 18.60000000000000497 ) ) ;
#413 = VECTOR ( 'NONE', #269, 1000.000000000000000 ) ;
#414 = CARTESIAN_POINT ( 'NONE',  ( 53.70000000000000284, 13.89999999999999503, 18.59999999999999787 ) ) ;
#415 = DESIGN_CONTEXT ( 'detailed design', #610, 'design' ) ;
#416 = CARTESIAN_POINT ( 'NONE',  ( -57.24999999999999289, 9.299999999999988276, 18.99999999999998934 ) ) ;
#417 = EDGE_LOOP ( 'NONE', ( #651, #266, #6, #833, #706, #119, #277, #421, #55, #271, #131, #247 ) ) ;
#418 = DIRECTION ( 'NONE',  ( 0.000000000000000000, 0.000000000000000000, 1.000000000000000000 ) ) ;
#419 = VECTOR ( 'NONE', #169, 1000.000000000000000 ) ;
#420 = CARTESIAN_POINT ( 'NONE',  ( -53.70000000000000284, 78.89999999999999147, 19.89999999999999858 ) ) ;
#421 = ORIENTED_EDGE ( 'NONE', *, *, #93, .T. ) ;
#422 = EDGE_CURVE ( 'NONE', #638, #517, #821, .T. ) ;
#423 = DIRECTION ( 'NONE',  ( -1.000000000000000000, 0.000000000000000000, -0.000000000000000000 ) ) ;
#424 = DIRECTION ( 'NONE',  ( 0.000000000000000000, -0.000000000000000000, 1.000000000000000000 ) ) ;
#425 = ORIENTED_EDGE ( 'NONE', *, *, #840, .T. ) ;
#426 = DIRECTION ( 'NONE',  ( 0.000000000000000000, 0.000000000000000000, -1.000000000000000000 ) ) ;
#427 = EDGE_CURVE ( 'NONE', #783, #878, #182, .T. ) ;
#428 = FACE_OUTER_BOUND ( 'NONE', #113, .T. ) ;
#429 = EDGE_LOOP ( 'NONE', ( #389, #622, #475, #776 ) ) ;
#430 = FACE_OUTER_BOUND ( 'NONE', #190, .T. ) ;
#431 = CARTESIAN_POINT ( 'NONE',  ( -55.25000000000001421, 80.39999999999999147, 19.89999999999999858 ) ) ;
#432 = AXIS2_PLACEMENT_3D ( 'NONE', #367, #650, #10 ) ;
#433 = ORIENTED_EDGE ( 'NONE', *, *, #353, .T. ) ;
#434 = APPLICATION_PROTOCOL_DEFINITION ( 'international standard', 'config_control_design', 1994, #468 ) ;
#435 = CARTESIAN_POINT ( 'NONE',  ( 20.49999999999998934, 85.07085830778127900, 18.99999999999999645 ) ) ;
#436 = DIRECTION ( 'NONE',  ( 0.000000000000000000, -0.000000000000000000, 1.000000000000000000 ) ) ;
#437 = ORIENTED_EDGE ( 'NONE', *, *, #427, .T. ) ;
#438 = APPROVAL_DATE_TIME ( #7, #147 ) ;
#439 = CARTESIAN_POINT ( 'NONE',  ( 57.24999999999999289, 9.299999999999991829, 18.60000000000000497 ) ) ;
#440 = CARTESIAN_POINT ( 'NONE',  ( -57.25000000000000000, 83.50000000000000000, 18.99999999999999645 ) ) ;
#441 = AXIS2_PLACEMENT_3D ( 'NONE', #818, #680, #465 ) ;
#442 = ORIENTED_EDGE ( 'NONE', *, *, #448, .T. ) ;
#443 = CALENDAR_DATE ( 2026, 4, 4 ) ;
#444 = FACE_OUTER_BOUND ( 'NONE', #813, .T. ) ;
#445 = AXIS2_PLACEMENT_3D ( 'NONE', #470, #115, #341 ) ;
#446 = CARTESIAN_POINT ( 'NONE',  ( 60.25000000000000711, 80.50000000000000000, -124.5086650067004683 ) ) ;
#447 = ORIENTED_EDGE ( 'NONE', *, *, #758, .T. ) ;
#448 = EDGE_CURVE ( 'NONE', #329, #74, #545, .T. ) ;
#449 = CYLINDRICAL_SURFACE ( 'NONE', #846, 3.000000000000002665 ) ;
#450 = DIRECTION ( 'NONE',  ( -0.000000000000000000, -0.000000000000000000, 1.000000000000000000 ) ) ;
#451 = ORIENTED_EDGE ( 'NONE', *, *, #687, .F. ) ;
#452 = DIRECTION ( 'NONE',  ( 0.000000000000000000, 0.000000000000000000, 1.000000000000000000 ) ) ;
#453 = DIRECTION ( 'NONE',  ( 0.000000000000000000, -1.000000000000000000, 0.000000000000000000 ) ) ;
#454 = EDGE_CURVE ( 'NONE', #200, #189, #402, .T. ) ;
#455 = CARTESIAN_POINT ( 'NONE',  ( -53.70000000000000284, 13.89999999999997726, 18.60000000000000497 ) ) ;
#456 = CLOSED_SHELL ( 'NONE', ( #753, #559, #323, #822, #552, #743, #848, #629, #883, #618, #50, #738, #382, #780, #515, #854, #725, #492, #409, #692, #925, #75, #599, #504, #522, #653, #261 ) ) ;
#457 = ORIENTED_EDGE ( 'NONE', *, *, #295, .T. ) ;
#458 = CARTESIAN_POINT ( 'NONE',  ( 56.74999999999998579, 10.90000000000000036, 18.99999999999999645 ) ) ;
#459 = CARTESIAN_POINT ( 'NONE',  ( 53.44999999999998863, 14.20000000000000107, 19.89999999999999858 ) ) ;
#460 = VECTOR ( 'NONE', #138, 1000.000000000000000 ) ;
#461 = AXIS2_PLACEMENT_3D ( 'NONE', #396, #48, #103 ) ;
#462 = LINE ( 'NONE', #823, #529 ) ;
#463 = DATE_TIME_ROLE ( 'classification_date' ) ;
#464 = EDGE_CURVE ( 'NONE', #338, #608, #268, .T. ) ;
#465 = DIRECTION ( 'NONE',  ( -1.000000000000000000, 0.000000000000000000, 0.000000000000000000 ) ) ;
#466 = VECTOR ( 'NONE', #590, 1000.000000000000000 ) ;
#467 = DIRECTION ( 'NONE',  ( -1.000000000000000000, 0.000000000000000000, 0.000000000000000000 ) ) ;
#468 = APPLICATION_CONTEXT ( 'configuration controlled 3d designs of mechanical parts and assemblies' ) ;
#469 = ORIENTED_EDGE ( 'NONE', *, *, #920, .F. ) ;
#470 = CARTESIAN_POINT ( 'NONE',  ( -53.70000000000000284, 13.89999999999997726, 18.60000000000000497 ) ) ;
#471 = CARTESIAN_POINT ( 'NONE',  ( -56.75000000000001421, 80.39999999999999147, 19.89999999999999858 ) ) ;
#472 = ORIENTED_EDGE ( 'NONE', *, *, #486, .F. ) ;
#473 = PLANE ( 'NONE',  #535 ) ;
#474 = EDGE_CURVE ( 'NONE', #385, #404, #912, .T. ) ;
#475 = ORIENTED_EDGE ( 'NONE', *, *, #687, .T. ) ;
#476 = VERTEX_POINT ( 'NONE', #185 ) ;
#477 = DIRECTION ( 'NONE',  ( -0.000000000000000000, 0.000000000000000000, -1.000000000000000000 ) ) ;
#478 = EDGE_LOOP ( 'NONE', ( #549, #874, #360, #871 ) ) ;
#479 = ORIENTED_EDGE ( 'NONE', *, *, #327, .T. ) ;
#480 = DIRECTION ( 'NONE',  ( 0.000000000000000000, 1.000000000000000000, -0.000000000000000000 ) ) ;
#481 = DIRECTION ( 'NONE',  ( -0.000000000000000000, 0.000000000000000000, -1.000000000000000000 ) ) ;
#482 = VERTEX_POINT ( 'NONE', #471 ) ;
#483 = CIRCLE ( 'NONE', #83, 1.500000000000001332 ) ;
#484 = CARTESIAN_POINT ( 'NONE',  ( 53.44999999999998863, 10.90000000000000036, 18.99999999999999645 ) ) ;
#485 = AXIS2_PLACEMENT_3D ( 'NONE', #239, #102, #9 ) ;
#486 = EDGE_CURVE ( 'NONE', #763, #542, #755, .T. ) ;
#487 = LINE ( 'NONE', #624, #202 ) ;
#488 = VERTEX_POINT ( 'NONE', #796 ) ;
#489 = DIRECTION ( 'NONE',  ( 0.000000000000000000, -0.000000000000000000, 1.000000000000000000 ) ) ;
#490 = VECTOR ( 'NONE', #919, 1000.000000000000000 ) ;
#491 = LOCAL_TIME ( 19, 36, 11.00000000000000000, #263 ) ;
#492 = ADVANCED_FACE ( 'NONE', ( #444 ), #594, .T. ) ;
#493 = DIRECTION ( 'NONE',  ( 0.000000000000000000, 0.000000000000000000, 1.000000000000000000 ) ) ;
#494 = ORIENTED_EDGE ( 'NONE', *, *, #143, .F. ) ;
#495 = FACE_OUTER_BOUND ( 'NONE', #403, .T. ) ;
#496 = DIRECTION ( 'NONE',  ( -0.000000000000000000, 0.000000000000000000, -1.000000000000000000 ) ) ;
#497 = ORIENTED_EDGE ( 'NONE', *, *, #191, .F. ) ;
#498 = FACE_BOUND ( 'NONE', #316, .T. ) ;
#499 = LINE ( 'NONE', #773, #129 ) ;
#500 = EDGE_CURVE ( 'NONE', #385, #530, #365, .T. ) ;
#501 = VERTEX_POINT ( 'NONE', #302 ) ;
#502 = FACE_OUTER_BOUND ( 'NONE', #84, .T. ) ;
#503 = VECTOR ( 'NONE', #524, 1000.000000000000000 ) ;
#504 = ADVANCED_FACE ( 'NONE', ( #371 ), #166, .T. ) ;
#505 = CARTESIAN_POINT ( 'NONE',  ( 20.49999999999998934, 85.07085830778127900, 18.60000000000000497 ) ) ;
#506 = CIRCLE ( 'NONE', #108, 3.000000000000002665 ) ;
#507 = EDGE_LOOP ( 'NONE', ( #903, #356, #215, #18 ) ) ;
#508 = PERSON_AND_ORGANIZATION ( #18446744073709551615, #18446744073709551615 ) ;
#509 = PLANE ( 'NONE',  #726 ) ;
#510 = DIRECTION ( 'NONE',  ( -0.000000000000000000, -0.000000000000000000, 1.000000000000000000 ) ) ;
#511 = ORIENTED_EDGE ( 'NONE', *, *, #380, .F. ) ;
#512 = APPLICATION_PROTOCOL_DEFINITION ( 'international standard', 'config_control_design', 1994, #610 ) ;
#513 = PLANE ( 'NONE',  #606 ) ;
#514 = DIRECTION ( 'NONE',  ( -0.000000000000000000, 0.000000000000000000, -1.000000000000000000 ) ) ;
#515 = ADVANCED_FACE ( 'NONE', ( #811 ), #230, .F. ) ;
#516 = VECTOR ( 'NONE', #390, 1000.000000000000000 ) ;
#517 = VERTEX_POINT ( 'NONE', #598 ) ;
#518 = LINE ( 'NONE', #810, #701 ) ;
#519 = CARTESIAN_POINT ( 'NONE',  ( 57.24999999999999289, 9.299999999999991829, -124.5086650067004683 ) ) ;
#520 = CARTESIAN_POINT ( 'NONE',  ( -57.25000000000000000, 83.50000000000000000, 18.60000000000000497 ) ) ;
#521 = EDGE_LOOP ( 'NONE', ( #914, #265, #122, #563 ) ) ;
#522 = ADVANCED_FACE ( 'NONE', ( #154 ), #885, .T. ) ;
#523 = DIRECTION ( 'NONE',  ( 0.000000000000000000, -0.000000000000000000, -1.000000000000000000 ) ) ;
#524 = DIRECTION ( 'NONE',  ( -0.000000000000000000, -0.000000000000000000, 1.000000000000000000 ) ) ;
#525 = DIRECTION ( 'NONE',  ( 8.988204538739930552E-17, -1.000000000000000000, 0.000000000000000000 ) ) ;
#526 = ORIENTED_EDGE ( 'NONE', *, *, #156, .F. ) ;
#527 = DIRECTION ( 'NONE',  ( 0.000000000000000000, -0.000000000000000000, -1.000000000000000000 ) ) ;
#528 = CARTESIAN_POINT ( 'NONE',  ( -55.25000000000001421, 80.39999999999999147, 18.59999999999999787 ) ) ;
#529 = VECTOR ( 'NONE', #183, 1000.000000000000000 ) ;
#530 = VERTEX_POINT ( 'NONE', #25 ) ;
#531 = EDGE_CURVE ( 'NONE', #348, #709, #204, .T. ) ;
#532 = ORIENTED_EDGE ( 'NONE', *, *, #568, .T. ) ;
#533 = FACE_OUTER_BOUND ( 'NONE', #788, .T. ) ;
#534 = CARTESIAN_POINT ( 'NONE',  ( -56.75000000000001421, 14.19999999999998863, 18.59999999999999787 ) ) ;
#535 = AXIS2_PLACEMENT_3D ( 'NONE', #317, #544, #759 ) ;
#536 = LOCAL_TIME ( 19, 36, 11.00000000000000000, #301 ) ;
#537 = AXIS2_PLACEMENT_3D ( 'NONE', #188, #750, #394 ) ;
#538 = ORIENTED_EDGE ( 'NONE', *, *, #280, .F. ) ;
#539 = ORIENTED_EDGE ( 'NONE', *, *, #500, .T. ) ;
#540 = PLANE ( 'NONE',  #445 ) ;
#541 = FACE_BOUND ( 'NONE', #339, .T. ) ;
#542 = VERTEX_POINT ( 'NONE', #655 ) ;
#543 = ORIENTED_EDGE ( 'NONE', *, *, #714, .F. ) ;
#544 = DIRECTION ( 'NONE',  ( 0.000000000000000000, 0.000000000000000000, -1.000000000000000000 ) ) ;
#545 = LINE ( 'NONE', #751, #671 ) ;
#546 = ORIENTED_EDGE ( 'NONE', *, *, #658, .T. ) ;
#547 = LINE ( 'NONE', #111, #801 ) ;
#548 = ADVANCED_BREP_SHAPE_REPRESENTATION ( 'Screen Lens Frame REF2008', ( #192, #208 ), #805 ) ;
#549 = ORIENTED_EDGE ( 'NONE', *, *, #35, .F. ) ;
#550 = VECTOR ( 'NONE', #901, 1000.000000000000000 ) ;
#551 = ORIENTED_EDGE ( 'NONE', *, *, #758, .F. ) ;
#552 = ADVANCED_FACE ( 'NONE', ( #383 ), #509, .T. ) ;
#553 = DIRECTION ( 'NONE',  ( -0.000000000000000000, -1.000000000000000000, -0.000000000000000000 ) ) ;
#554 = AXIS2_PLACEMENT_3D ( 'NONE', #505, #450, #231 ) ;
#555 = DIRECTION ( 'NONE',  ( 1.000000000000000000, 0.000000000000000000, 0.000000000000000000 ) ) ;
#556 = ORIENTED_EDGE ( 'NONE', *, *, #785, .F. ) ;
#557 = PLANE ( 'NONE',  #60 ) ;
#558 = CARTESIAN_POINT ( 'NONE',  ( 55.24999999999998579, 80.40000000000000568, 18.99999999999999645 ) ) ;
#559 = ADVANCED_FACE ( 'NONE', ( #313 ), #513, .T. ) ;
#560 = ORIENTED_EDGE ( 'NONE', *, *, #500, .F. ) ;
#561 = CARTESIAN_POINT ( 'NONE',  ( -53.70000000000000284, 13.89999999999997726, 18.60000000000000497 ) ) ;
#562 = CARTESIAN_POINT ( 'NONE',  ( -57.25000000000000000, 80.50000000000000000, 18.99999999999998934 ) ) ;
#563 = ORIENTED_EDGE ( 'NONE', *, *, #669, .F. ) ;
#564 = CARTESIAN_POINT ( 'NONE',  ( -57.25000000000000000, 83.50000000000000000, -124.5086650067004683 ) ) ;
#565 = CARTESIAN_POINT ( 'NONE',  ( 18.06229530564619523, 83.50000000000000000, 18.60000000000000497 ) ) ;
#566 = VERTEX_POINT ( 'NONE', #94 ) ;
#567 = LINE ( 'NONE', #777, #490 ) ;
#568 = EDGE_CURVE ( 'NONE', #542, #488, #880, .T. ) ;
#569 = DIRECTION ( 'NONE',  ( 0.000000000000000000, -0.000000000000000000, 1.000000000000000000 ) ) ;
#570 = ORIENTED_EDGE ( 'NONE', *, *, #893, .F. ) ;
#571 = DIRECTION ( 'NONE',  ( 0.000000000000000000, 0.000000000000000000, 1.000000000000000000 ) ) ;
#572 = VECTOR ( 'NONE', #926, 1000.000000000000000 ) ;
#573 = PRODUCT_DEFINITION ( 'Allgemein', '', #47, #415 ) ;
#574 = LINE ( 'NONE', #236, #869 ) ;
#575 = ORIENTED_EDGE ( 'NONE', *, *, #66, .F. ) ;
#576 = DIRECTION ( 'NONE',  ( -0.000000000000000000, -0.000000000000000000, 1.000000000000000000 ) ) ;
#577 = VECTOR ( 'NONE', #278, 1000.000000000000000 ) ;
#578 = CARTESIAN_POINT ( 'NONE',  ( 56.74999999999998579, 14.20000000000000107, 18.59999999999999787 ) ) ;
#579 = AXIS2_PLACEMENT_3D ( 'NONE', #665, #16, #29 ) ;
#580 = CARTESIAN_POINT ( 'NONE',  ( -60.25000000000000711, 80.50000000000000000, 18.99999999999999645 ) ) ;
#581 = ORIENTED_EDGE ( 'NONE', *, *, #395, .F. ) ;
#582 = CARTESIAN_POINT ( 'NONE',  ( -53.45000000000001705, 14.19999999999998863, 18.59999999999999787 ) ) ;
#583 = DIRECTION ( 'NONE',  ( 0.000000000000000000, 0.000000000000000000, -1.000000000000000000 ) ) ;
#584 = EDGE_CURVE ( 'NONE', #104, #673, #86, .T. ) ;
#585 = CARTESIAN_POINT ( 'NONE',  ( -53.70000000000000284, 78.89999999999999147, 18.60000000000000497 ) ) ;
#586 = ORIENTED_EDGE ( 'NONE', *, *, #35, .T. ) ;
#587 =( NAMED_UNIT ( * ) PLANE_ANGLE_UNIT ( ) SI_UNIT ( $, .RADIAN. ) );
#588 = LINE ( 'NONE', #578, #234 ) ;
#589 = UNCERTAINTY_MEASURE_WITH_UNIT (LENGTH_MEASURE( 1.000000000000000082E-05 ), #790, 'distance_accuracy_value', 'NONE');
#590 = DIRECTION ( 'NONE',  ( 0.000000000000000000, -1.000000000000000000, 0.000000000000000000 ) ) ;
#591 = EDGE_CURVE ( 'NONE', #608, #251, #588, .T. ) ;
#592 = ORIENTED_EDGE ( 'NONE', *, *, #658, .F. ) ;
#593 = CARTESIAN_POINT ( 'NONE',  ( 18.06229530564619523, 83.50000000000000000, 18.60000000000000497 ) ) ;
#594 = CYLINDRICAL_SURFACE ( 'NONE', #579, 1.500000000000001332 ) ;
#595 = CYLINDRICAL_SURFACE ( 'NONE', #554, 2.899999999999999911 ) ;
#596 = ORIENTED_EDGE ( 'NONE', *, *, #422, .F. ) ;
#597 = VECTOR ( 'NONE', #4, 1000.000000000000000 ) ;
#598 = CARTESIAN_POINT ( 'NONE',  ( 56.74999999999998579, 80.40000000000000568, 19.89999999999999858 ) ) ;
#599 = ADVANCED_FACE ( 'NONE', ( #235 ), #449, .T. ) ;
#600 = LINE ( 'NONE', #886, #28 ) ;
#601 = ORIENTED_EDGE ( 'NONE', *, *, #380, .T. ) ;
#602 = DIRECTION ( 'NONE',  ( 1.069873509413008899E-16, -1.000000000000000000, 0.000000000000000000 ) ) ;
#603 = CARTESIAN_POINT ( 'NONE',  ( -56.75000000000001421, 80.39999999999999147, 18.99999999999999645 ) ) ;
#604 = AXIS2_PLACEMENT_3D ( 'NONE', #209, #637, #493 ) ;
#605 = ORIENTED_EDGE ( 'NONE', *, *, #306, .F. ) ;
#606 = AXIS2_PLACEMENT_3D ( 'NONE', #170, #800, #87 ) ;
#607 = SHAPE_DEFINITION_REPRESENTATION ( #786, #548 ) ;
#608 = VERTEX_POINT ( 'NONE', #81 ) ;
#609 = DIRECTION ( 'NONE',  ( 1.000000000000000000, -8.988204538739930552E-17, 0.000000000000000000 ) ) ;
#610 = APPLICATION_CONTEXT ( 'configuration controlled 3d designs of mechanical parts and assemblies' ) ;
#611 = DIRECTION ( 'NONE',  ( -0.000000000000000000, 0.000000000000000000, -1.000000000000000000 ) ) ;
#612 = AXIS2_PLACEMENT_3D ( 'NONE', #2, #924, #146 ) ;
#613 = ORIENTED_EDGE ( 'NONE', *, *, #840, .F. ) ;
#614 = APPROVAL_DATE_TIME ( #38, #79 ) ;
#615 = ORIENTED_EDGE ( 'NONE', *, *, #191, .T. ) ;
#616 = FACE_BOUND ( 'NONE', #310, .T. ) ;
#617 = CARTESIAN_POINT ( 'NONE',  ( -57.24999999999999289, 6.299999999999992717, 18.60000000000000497 ) ) ;
#618 = ADVANCED_FACE ( 'NONE', ( #98 ), #307, .T. ) ;
#619 = ORIENTED_EDGE ( 'NONE', *, *, #427, .F. ) ;
#620 = VERTEX_POINT ( 'NONE', #867 ) ;
#621 = CARTESIAN_POINT ( 'NONE',  ( 57.24999999999999289, 6.299999999999992717, 18.60000000000000497 ) ) ;
#622 = ORIENTED_EDGE ( 'NONE', *, *, #591, .T. ) ;
#623 = DIRECTION ( 'NONE',  ( 0.000000000000000000, -0.000000000000000000, 1.000000000000000000 ) ) ;
#624 = CARTESIAN_POINT ( 'NONE',  ( -56.75000000000001421, 80.39999999999999147, 18.59999999999999787 ) ) ;
#625 = AXIS2_PLACEMENT_3D ( 'NONE', #528, #832, #827 ) ;
#626 = ORIENTED_EDGE ( 'NONE', *, *, #674, .F. ) ;
#627 = LINE ( 'NONE', #839, #90 ) ;
#628 = CIRCLE ( 'NONE', #715, 1.500000000000001332 ) ;
#629 = ADVANCED_FACE ( 'NONE', ( #762 ), #831, .T. ) ;
#630 = DIRECTION ( 'NONE',  ( 0.000000000000000000, 0.000000000000000000, 1.000000000000000000 ) ) ;
#631 = ORIENTED_EDGE ( 'NONE', *, *, #584, .F. ) ;
#632 = DIRECTION ( 'NONE',  ( -0.000000000000000000, 0.000000000000000000, 1.000000000000000000 ) ) ;
#633 = CARTESIAN_POINT ( 'NONE',  ( 60.25000000000000711, 83.50000000000000000, 18.60000000000000497 ) ) ;
#634 = ORIENTED_EDGE ( 'NONE', *, *, #143, .T. ) ;
#635 = CARTESIAN_POINT ( 'NONE',  ( 57.24999999999999289, 9.299999999999991829, 18.99999999999998934 ) ) ;
#636 = AXIS2_PLACEMENT_3D ( 'NONE', #435, #649, #20 ) ;
#637 = DIRECTION ( 'NONE',  ( 0.000000000000000000, 1.000000000000000000, -0.000000000000000000 ) ) ;
#638 = VERTEX_POINT ( 'NONE', #267 ) ;
#639 = EDGE_CURVE ( 'NONE', #763, #319, #547, .T. ) ;
#640 = CARTESIAN_POINT ( 'NONE',  ( 60.25000000000000000, 9.299999999999988276, -124.5086650067004683 ) ) ;
#641 = EDGE_CURVE ( 'NONE', #251, #760, #757, .T. ) ;
#642 = DIRECTION ( 'NONE',  ( -1.000000000000000000, 0.000000000000000000, 0.000000000000000000 ) ) ;
#643 = ORIENTED_EDGE ( 'NONE', *, *, #862, .F. ) ;
#644 = CARTESIAN_POINT ( 'NONE',  ( 60.25000000000000711, 83.50000000000000000, -124.5086650067004683 ) ) ;
#645 = CARTESIAN_POINT ( 'NONE',  ( -22.91867732448956119, 83.50000000000000000, 18.99999999999999645 ) ) ;
#646 = EDGE_LOOP ( 'NONE', ( #793, #23, #39, #770 ) ) ;
#647 = CALENDAR_DATE ( 2026, 4, 4 ) ;
#648 = VECTOR ( 'NONE', #642, 1000.000000000000000 ) ;
#649 = DIRECTION ( 'NONE',  ( -0.000000000000000000, 0.000000000000000000, -1.000000000000000000 ) ) ;
#650 = DIRECTION ( 'NONE',  ( -1.000000000000000000, 0.000000000000000000, 0.000000000000000000 ) ) ;
#651 = ORIENTED_EDGE ( 'NONE', *, *, #164, .T. ) ;
#652 = COORDINATED_UNIVERSAL_TIME_OFFSET ( 1, 0, .AHEAD. ) ;
#653 = ADVANCED_FACE ( 'NONE', ( #533 ), #193, .F. ) ;
#654 = VECTOR ( 'NONE', #418, 1000.000000000000000 ) ;
#655 = CARTESIAN_POINT ( 'NONE',  ( 53.70000000000000284, 13.89999999999999503, 19.89999999999999858 ) ) ;
#656 = CC_DESIGN_APPROVAL ( #344, ( #47 ) ) ;
#657 = DIRECTION ( 'NONE',  ( 1.000000000000000000, 0.000000000000000000, 0.000000000000000000 ) ) ;
#658 = EDGE_CURVE ( 'NONE', #274, #200, #923, .T. ) ;
#659 = ORIENTED_EDGE ( 'NONE', *, *, #214, .T. ) ;
#660 = APPROVAL_STATUS ( 'not_yet_approved' ) ;
#661 = CARTESIAN_POINT ( 'NONE',  ( -53.70000000000000284, 78.89999999999999147, 18.60000000000000497 ) ) ;
#662 = LINE ( 'NONE', #294, #150 ) ;
#663 = VERTEX_POINT ( 'NONE', #125 ) ;
#664 = DIRECTION ( 'NONE',  ( -0.000000000000000000, -0.000000000000000000, -1.000000000000000000 ) ) ;
#665 = CARTESIAN_POINT ( 'NONE',  ( 55.24999999999998579, 80.40000000000000568, 18.59999999999999787 ) ) ;
#666 = CARTESIAN_POINT ( 'NONE',  ( 53.70000000000000284, 78.89999999999999147, 18.60000000000000497 ) ) ;
#667 = ORIENTED_EDGE ( 'NONE', *, *, #229, .F. ) ;
#668 = LINE ( 'NONE', #291, #419 ) ;
#669 = EDGE_CURVE ( 'NONE', #404, #809, #337, .T. ) ;
#670 = CARTESIAN_POINT ( 'NONE',  ( -57.25000000000000000, 80.50000000000000000, -124.5086650067004683 ) ) ;
#671 = VECTOR ( 'NONE', #525, 1000.000000000000000 ) ;
#672 = DIRECTION ( 'NONE',  ( -1.000000000000000000, 0.000000000000000000, 0.000000000000000000 ) ) ;
#673 = VERTEX_POINT ( 'NONE', #184 ) ;
#674 = EDGE_CURVE ( 'NONE', #300, #760, #40, .T. ) ;
#675 = CIRCLE ( 'NONE', #31, 3.000000000000002665 ) ;
#676 = FACE_OUTER_BOUND ( 'NONE', #507, .T. ) ;
#677 = CARTESIAN_POINT ( 'NONE',  ( 57.25000000000000000, 80.50000000000000000, 18.99999999999998934 ) ) ;
#678 = ORIENTED_EDGE ( 'NONE', *, *, #699, .F. ) ;
#679 = ORIENTED_EDGE ( 'NONE', *, *, #699, .T. ) ;
#680 = DIRECTION ( 'NONE',  ( -0.000000000000000000, 0.000000000000000000, -1.000000000000000000 ) ) ;
#681 = CARTESIAN_POINT ( 'NONE',  ( -55.25000000000001421, 81.89999999999999147, 18.99999999999999645 ) ) ;
#682 = ORIENTED_EDGE ( 'NONE', *, *, #173, .F. ) ;
#683 = AXIS2_PLACEMENT_3D ( 'NONE', #46, #895, #400 ) ;
#684 = PERSON_AND_ORGANIZATION ( #18446744073709551615, #18446744073709551615 ) ;
#685 = ORIENTED_EDGE ( 'NONE', *, *, #133, .F. ) ;
#686 = LINE ( 'NONE', #458, #771 ) ;
#687 = EDGE_CURVE ( 'NONE', #251, #638, #686, .T. ) ;
#688 = DIRECTION ( 'NONE',  ( 1.000000000000000000, 0.000000000000000000, 0.000000000000000000 ) ) ;
#689 = CC_DESIGN_APPROVAL ( #147, ( #573 ) ) ;
#690 = ORIENTED_EDGE ( 'NONE', *, *, #905, .T. ) ;
#691 = CARTESIAN_POINT ( 'NONE',  ( -53.45000000000001705, 14.19999999999998863, 19.89999999999999858 ) ) ;
#692 = ADVANCED_FACE ( 'NONE', ( #676 ), #34, .T. ) ;
#693 = ORIENTED_EDGE ( 'NONE', *, *, #795, .F. ) ;
#694 = DATE_AND_TIME ( #243, #775 ) ;
#695 = LINE ( 'NONE', #332, #891 ) ;
#696 = AXIS2_PLACEMENT_3D ( 'NONE', #416, #569, #857 ) ;
#697 = CARTESIAN_POINT ( 'NONE',  ( -53.45000000000001705, 10.89999999999998792, 18.59999999999999787 ) ) ;
#698 = CARTESIAN_POINT ( 'NONE',  ( 60.25000000000000711, 83.50000000000000000, 18.60000000000000497 ) ) ;
#699 = EDGE_CURVE ( 'NONE', #892, #104, #695, .T. ) ;
#700 = LINE ( 'NONE', #343, #413 ) ;
#701 = VECTOR ( 'NONE', #664, 1000.000000000000000 ) ;
#702 = VECTOR ( 'NONE', #747, 1000.000000000000000 ) ;
#703 = ORIENTED_EDGE ( 'NONE', *, *, #93, .F. ) ;
#704 = DIRECTION ( 'NONE',  ( -0.000000000000000000, -0.000000000000000000, -1.000000000000000000 ) ) ;
#705 = DIRECTION ( 'NONE',  ( 0.000000000000000000, -0.000000000000000000, 1.000000000000000000 ) ) ;
#706 = ORIENTED_EDGE ( 'NONE', *, *, #825, .T. ) ;
#707 = CARTESIAN_POINT ( 'NONE',  ( -53.70000000000000284, 78.89999999999999147, 19.89999999999999858 ) ) ;
#708 = LINE ( 'NONE', #420, #749 ) ;
#709 = VERTEX_POINT ( 'NONE', #621 ) ;
#710 = CARTESIAN_POINT ( 'NONE',  ( 60.25000000000000711, 80.50000000000000000, 18.99999999999999645 ) ) ;
#711 = LINE ( 'NONE', #127, #57 ) ;
#712 = ORIENTED_EDGE ( 'NONE', *, *, #395, .T. ) ;
#713 = CARTESIAN_POINT ( 'NONE',  ( 57.25000000000000000, 83.50000000000000000, 18.60000000000000497 ) ) ;
#714 = EDGE_CURVE ( 'NONE', #51, #737, #134, .T. ) ;
#715 = AXIS2_PLACEMENT_3D ( 'NONE', #431, #436, #727 ) ;
#716 = DIRECTION ( 'NONE',  ( -0.000000000000000000, -0.000000000000000000, 1.000000000000000000 ) ) ;
#717 = ORIENTED_EDGE ( 'NONE', *, *, #568, .F. ) ;
#718 = MECHANICAL_CONTEXT ( 'NONE', #468, 'mechanical' ) ;
#719 = DIRECTION ( 'NONE',  ( 1.000000000000000000, 0.000000000000000000, 0.000000000000000000 ) ) ;
#720 = LINE ( 'NONE', #162, #597 ) ;
#721 = ORIENTED_EDGE ( 'NONE', *, *, #764, .T. ) ;
#722 = DIRECTION ( 'NONE',  ( 0.000000000000000000, 0.000000000000000000, 1.000000000000000000 ) ) ;
#723 = AXIS2_PLACEMENT_3D ( 'NONE', #778, #630, #913 ) ;
#724 = CARTESIAN_POINT ( 'NONE',  ( 56.74999999999998579, 10.90000000000000036, 18.59999999999999787 ) ) ;
#725 = ADVANCED_FACE ( 'NONE', ( #900 ), #540, .F. ) ;
#726 = AXIS2_PLACEMENT_3D ( 'NONE', #724, #160, #583 ) ;
#727 = DIRECTION ( 'NONE',  ( 1.000000000000000000, 0.000000000000000000, 0.000000000000000000 ) ) ;
#728 = ORIENTED_EDGE ( 'NONE', *, *, #358, .T. ) ;
#729 = DATE_AND_TIME ( #443, #279 ) ;
#730 = AXIS2_PLACEMENT_3D ( 'NONE', #361, #423, #632 ) ;
#731 = DIRECTION ( 'NONE',  ( -0.000000000000000000, 1.000000000000000000, 0.000000000000000000 ) ) ;
#732 = VECTOR ( 'NONE', #576, 1000.000000000000000 ) ;
#733 = DIRECTION ( 'NONE',  ( -8.988204538739930552E-17, 1.000000000000000000, 0.000000000000000000 ) ) ;
#734 = ORIENTED_EDGE ( 'NONE', *, *, #161, .T. ) ;
#735 = DIRECTION ( 'NONE',  ( 0.000000000000000000, 0.000000000000000000, 1.000000000000000000 ) ) ;
#736 = CARTESIAN_POINT ( 'NONE',  ( -60.25000000000000711, 83.50000000000000000, 18.60000000000000497 ) ) ;
#737 = VERTEX_POINT ( 'NONE', #911 ) ;
#738 = ADVANCED_FACE ( 'NONE', ( #616, #259 ), #473, .F. ) ;
#739 = EDGE_CURVE ( 'NONE', #482, #51, #120, .T. ) ;
#740 = DIRECTION ( 'NONE',  ( -0.000000000000000000, 1.000000000000000000, -0.000000000000000000 ) ) ;
#741 = AXIS2_PLACEMENT_3D ( 'NONE', #284, #481, #67 ) ;
#742 = CARTESIAN_POINT ( 'NONE',  ( 60.25000000000000711, 83.50000000000000000, 18.99999999999999645 ) ) ;
#743 = ADVANCED_FACE ( 'NONE', ( #175 ), #835, .T. ) ;
#744 = VERTEX_POINT ( 'NONE', #249 ) ;
#745 = CARTESIAN_POINT ( 'NONE',  ( 60.25000000000000711, 83.50000000000000000, -124.5086650067004683 ) ) ;
#746 = VECTOR ( 'NONE', #453, 1000.000000000000000 ) ;
#747 = DIRECTION ( 'NONE',  ( -0.000000000000000000, -0.000000000000000000, 1.000000000000000000 ) ) ;
#748 = VERTEX_POINT ( 'NONE', #713 ) ;
#749 = VECTOR ( 'NONE', #70, 1000.000000000000000 ) ;
#750 = DIRECTION ( 'NONE',  ( -0.000000000000000000, 0.000000000000000000, 1.000000000000000000 ) ) ;
#751 = CARTESIAN_POINT ( 'NONE',  ( -60.25000000000000711, 83.50000000000000000, 18.99999999999999645 ) ) ;
#752 = ORIENTED_EDGE ( 'NONE', *, *, #21, .F. ) ;
#753 = ADVANCED_FACE ( 'NONE', ( #352 ), #784, .T. ) ;
#754 = DIRECTION ( 'NONE',  ( -0.000000000000000000, 1.000000000000000000, -0.000000000000000000 ) ) ;
#755 = LINE ( 'NONE', #334, #503 ) ;
#756 = VERTEX_POINT ( 'NONE', #707 ) ;
#757 = CIRCLE ( 'NONE', #441, 3.299999999999997158 ) ;
#758 = EDGE_CURVE ( 'NONE', #744, #351, #349, .T. ) ;
#759 = DIRECTION ( 'NONE',  ( -1.000000000000000000, 0.000000000000000000, 0.000000000000000000 ) ) ;
#760 = VERTEX_POINT ( 'NONE', #484 ) ;
#761 = ORIENTED_EDGE ( 'NONE', *, *, #187, .F. ) ;
#762 = FACE_OUTER_BOUND ( 'NONE', #407, .T. ) ;
#763 = VERTEX_POINT ( 'NONE', #414 ) ;
#764 = EDGE_CURVE ( 'NONE', #892, #748, #567, .T. ) ;
#765 = VERTEX_POINT ( 'NONE', #287 ) ;
#766 = LINE ( 'NONE', #564, #654 ) ;
#767 = VECTOR ( 'NONE', #58, 1000.000000000000000 ) ;
#768 = CC_DESIGN_DATE_AND_TIME_ASSIGNMENT ( #694, #463, ( #254 ) ) ;
#769 = CARTESIAN_POINT ( 'NONE',  ( 60.25000000000000711, 80.50000000000000000, 18.60000000000000497 ) ) ;
#770 = ORIENTED_EDGE ( 'NONE', *, *, #893, .T. ) ;
#771 = VECTOR ( 'NONE', #410, 1000.000000000000000 ) ;
#772 = DIRECTION ( 'NONE',  ( 1.000000000000000000, 0.000000000000000000, -0.000000000000000000 ) ) ;
#773 = CARTESIAN_POINT ( 'NONE',  ( 60.25000000000000711, 83.50000000000000000, 18.60000000000000497 ) ) ;
#774 = AXIS2_PLACEMENT_3D ( 'NONE', #635, #489, #856 ) ;
#775 = LOCAL_TIME ( 19, 36, 11.00000000000000000, #44 ) ;
#776 = ORIENTED_EDGE ( 'NONE', *, *, #422, .T. ) ;
#777 = CARTESIAN_POINT ( 'NONE',  ( 57.25000000000000000, 83.50000000000000000, -124.5086650067004683 ) ) ;
#778 = CARTESIAN_POINT ( 'NONE',  ( -57.24999999999999289, 9.299999999999988276, -124.5086650067004683 ) ) ;
#779 = ORIENTED_EDGE ( 'NONE', *, *, #121, .F. ) ;
#780 = ADVANCED_FACE ( 'NONE', ( #430 ), #201, .F. ) ;
#781 = DIRECTION ( 'NONE',  ( 0.000000000000000000, -0.000000000000000000, 1.000000000000000000 ) ) ;
#782 = FACE_OUTER_BOUND ( 'NONE', #196, .T. ) ;
#783 = VERTEX_POINT ( 'NONE', #561 ) ;
#784 = PLANE ( 'NONE',  #372 ) ;
#785 = EDGE_CURVE ( 'NONE', #765, #855, #206, .T. ) ;
#786 = PRODUCT_DEFINITION_SHAPE ( 'NONE', 'NONE',  #573 ) ;
#787 = LINE ( 'NONE', #148, #915 ) ;
#788 = EDGE_LOOP ( 'NONE', ( #601, #592, #690, #469 ) ) ;
#789 = CIRCLE ( 'NONE', #865, 3.000000000000002665 ) ;
#790 =( LENGTH_UNIT ( ) NAMED_UNIT ( * ) SI_UNIT ( .MILLI., .METRE. ) );
#791 = VECTOR ( 'NONE', #797, 1000.000000000000000 ) ;
#792 = PLANE ( 'NONE',  #432 ) ;
#793 = ORIENTED_EDGE ( 'NONE', *, *, #285, .F. ) ;
#794 = PERSON_AND_ORGANIZATION_ROLE ( 'creator' ) ;
#795 = EDGE_CURVE ( 'NONE', #476, #765, #253, .T. ) ;
#796 = CARTESIAN_POINT ( 'NONE',  ( 53.70000000000000284, 78.89999999999999147, 19.89999999999999858 ) ) ;
#797 = DIRECTION ( 'NONE',  ( 0.000000000000000000, 0.000000000000000000, 1.000000000000000000 ) ) ;
#798 = ORIENTED_EDGE ( 'NONE', *, *, #308, .F. ) ;
#799 = COORDINATED_UNIVERSAL_TIME_OFFSET ( 1, 0, .AHEAD. ) ;
#800 = DIRECTION ( 'NONE',  ( 0.000000000000000000, 1.000000000000000000, -0.000000000000000000 ) ) ;
#801 = VECTOR ( 'NONE', #754, 1000.000000000000000 ) ;
#802 = DIRECTION ( 'NONE',  ( 1.000000000000000000, 0.000000000000000000, 0.000000000000000000 ) ) ;
#803 = ORIENTED_EDGE ( 'NONE', *, *, #229, .T. ) ;
#804 = DIRECTION ( 'NONE',  ( 1.000000000000000000, 0.000000000000000000, 0.000000000000000000 ) ) ;
#805 =( GEOMETRIC_REPRESENTATION_CONTEXT ( 3 ) GLOBAL_UNCERTAINTY_ASSIGNED_CONTEXT ( ( #589 ) ) GLOBAL_UNIT_ASSIGNED_CONTEXT ( ( #790, #587, #238 ) ) REPRESENTATION_CONTEXT ( 'NONE', 'WORKASPACE' ) );
#806 = EDGE_CURVE ( 'NONE', #282, #189, #766, .T. ) ;
#807 = LINE ( 'NONE', #736, #195 ) ;
#808 = EDGE_CURVE ( 'NONE', #620, #404, #627, .T. ) ;
#809 = VERTEX_POINT ( 'NONE', #128 ) ;
#810 = CARTESIAN_POINT ( 'NONE',  ( -60.25000000000000711, 80.50000000000000000, -124.5086650067004683 ) ) ;
#811 = FACE_OUTER_BOUND ( 'NONE', #830, .T. ) ;
#812 = DIRECTION ( 'NONE',  ( 0.000000000000000000, 0.000000000000000000, 1.000000000000000000 ) ) ;
#813 = EDGE_LOOP ( 'NONE', ( #168, #526, #682, #596 ) ) ;
#814 = DIRECTION ( 'NONE',  ( 0.000000000000000000, 0.000000000000000000, 1.000000000000000000 ) ) ;
#815 = AXIS2_PLACEMENT_3D ( 'NONE', #562, #705, #853 ) ;
#816 = CARTESIAN_POINT ( 'NONE',  ( 56.74999999999998579, 80.40000000000000568, 18.59999999999999787 ) ) ;
#817 = ORIENTED_EDGE ( 'NONE', *, *, #327, .F. ) ;
#818 = CARTESIAN_POINT ( 'NONE',  ( 53.44999999999998863, 14.20000000000000107, 18.99999999999999645 ) ) ;
#819 = AXIS2_PLACEMENT_3D ( 'NONE', #370, #233, #523 ) ;
#820 = AXIS2_PLACEMENT_3D ( 'NONE', #661, #731, #226 ) ;
#821 = LINE ( 'NONE', #816, #61 ) ;
#822 = ADVANCED_FACE ( 'NONE', ( #345 ), #69, .T. ) ;
#823 = CARTESIAN_POINT ( 'NONE',  ( 56.74999999999998579, 10.90000000000000036, 19.89999999999999858 ) ) ;
#824 = CALENDAR_DATE ( 2026, 4, 4 ) ;
#825 = EDGE_CURVE ( 'NONE', #89, #348, #275, .T. ) ;
#826 = CARTESIAN_POINT ( 'NONE',  ( -20.49999999999998934, 85.09999999999999432, 18.99999999999999645 ) ) ;
#827 = DIRECTION ( 'NONE',  ( 1.000000000000000000, 0.000000000000000000, 0.000000000000000000 ) ) ;
#828 = ORIENTED_EDGE ( 'NONE', *, *, #53, .T. ) ;
#829 = APPROVAL_DATE_TIME ( #336, #344 ) ;
#830 = EDGE_LOOP ( 'NONE', ( #899, #43, #685, #194 ) ) ;
#831 = PLANE ( 'NONE',  #42 ) ;
#832 = DIRECTION ( 'NONE',  ( 0.000000000000000000, 0.000000000000000000, 1.000000000000000000 ) ) ;
#833 = ORIENTED_EDGE ( 'NONE', *, *, #342, .T. ) ;
#834 = EDGE_LOOP ( 'NONE', ( #178, #734, #667, #634 ) ) ;
#835 = PLANE ( 'NONE',  #330 ) ;
#836 = EDGE_CURVE ( 'NONE', #709, #476, #916, .T. ) ;
#837 = VERTEX_POINT ( 'NONE', #59 ) ;
#838 = CIRCLE ( 'NONE', #391, 2.899999999999999911 ) ;
#839 = CARTESIAN_POINT ( 'NONE',  ( 56.74999999999998579, 81.90000000000000568, 18.99999999999999645 ) ) ;
#840 = EDGE_CURVE ( 'NONE', #878, #542, #852, .T. ) ;
#841 = DIRECTION ( 'NONE',  ( -1.000000000000000000, 0.000000000000000000, 0.000000000000000000 ) ) ;
#842 = ORIENTED_EDGE ( 'NONE', *, *, #257, .T. ) ;
#843 = CARTESIAN_POINT ( 'NONE',  ( 0.000000000000000000, 0.000000000000000000, 19.89999999999999858 ) ) ;
#844 = LINE ( 'NONE', #359, #767 ) ;
#845 = ORIENTED_EDGE ( 'NONE', *, *, #145, .T. ) ;
#846 = AXIS2_PLACEMENT_3D ( 'NONE', #519, #735, #719 ) ;
#847 = DIRECTION ( 'NONE',  ( 8.988204538739930552E-17, 1.000000000000000000, -0.000000000000000000 ) ) ;
#848 = ADVANCED_FACE ( 'NONE', ( #498, #495 ), #557, .T. ) ;
#849 = PLANE ( 'NONE',  #604 ) ;
#850 = VECTOR ( 'NONE', #704, 1000.000000000000000 ) ;
#851 = ORIENTED_EDGE ( 'NONE', *, *, #806, .T. ) ;
#852 = LINE ( 'NONE', #272, #207 ) ;
#853 = DIRECTION ( 'NONE',  ( -1.000000000000000000, 0.000000000000000000, 0.000000000000000000 ) ) ;
#854 = ADVANCED_FACE ( 'NONE', ( #132 ), #141, .F. ) ;
#855 = VERTEX_POINT ( 'NONE', #710 ) ;
#856 = DIRECTION ( 'NONE',  ( -1.000000000000000000, 0.000000000000000000, 0.000000000000000000 ) ) ;
#857 = DIRECTION ( 'NONE',  ( -1.000000000000000000, 0.000000000000000000, 0.000000000000000000 ) ) ;
#858 = AXIS2_PLACEMENT_3D ( 'NONE', #558, #496, #841 ) ;
#859 = ORIENTED_EDGE ( 'NONE', *, *, #714, .T. ) ;
#860 = DIRECTION ( 'NONE',  ( 1.000000000000000000, 0.000000000000000000, 0.000000000000000000 ) ) ;
#861 = LINE ( 'NONE', #151, #466 ) ;
#862 = EDGE_CURVE ( 'NONE', #765, #348, #357, .T. ) ;
#863 = ORIENTED_EDGE ( 'NONE', *, *, #240, .T. ) ;
#864 = VECTOR ( 'NONE', #847, 1000.000000000000000 ) ;
#865 = AXIS2_PLACEMENT_3D ( 'NONE', #677, #890, #467 ) ;
#866 = CARTESIAN_POINT ( 'NONE',  ( -20.49999999999998934, 85.09999999999999432, 18.60000000000000497 ) ) ;
#867 = CARTESIAN_POINT ( 'NONE',  ( 55.24999999999998579, 81.90000000000000568, 18.99999999999999645 ) ) ;
#868 = CC_DESIGN_PERSON_AND_ORGANIZATION_ASSIGNMENT ( #508, #794, ( #573 ) ) ;
#869 = VECTOR ( 'NONE', #303, 1000.000000000000000 ) ;
#870 = LINE ( 'NONE', #167, #347 ) ;
#871 = ORIENTED_EDGE ( 'NONE', *, *, #669, .T. ) ;
#872 = CARTESIAN_POINT ( 'NONE',  ( -56.75000000000001421, 10.89999999999998792, 18.99999999999999645 ) ) ;
#873 = DIRECTION ( 'NONE',  ( -0.000000000000000000, 0.000000000000000000, -1.000000000000000000 ) ) ;
#874 = ORIENTED_EDGE ( 'NONE', *, *, #156, .T. ) ;
#875 = PERSON_AND_ORGANIZATION ( #18446744073709551615, #18446744073709551615 ) ;
#876 = DIRECTION ( 'NONE',  ( -0.000000000000000000, 0.000000000000000000, -1.000000000000000000 ) ) ;
#877 = DIRECTION ( 'NONE',  ( -1.000000000000000000, 0.000000000000000000, 0.000000000000000000 ) ) ;
#878 = VERTEX_POINT ( 'NONE', #381 ) ;
#879 = APPROVAL_ROLE ( '' ) ;
#880 = LINE ( 'NONE', #377, #159 ) ;
#881 = CARTESIAN_POINT ( 'NONE',  ( 20.49999999999998934, 85.07085830778127900, 18.60000000000000497 ) ) ;
#882 = ORIENTED_EDGE ( 'NONE', *, *, #280, .T. ) ;
#883 = ADVANCED_FACE ( 'NONE', ( #153 ), #24, .T. ) ;
#884 = SECURITY_CLASSIFICATION_LEVEL ( 'unclassified' ) ;
#885 = CYLINDRICAL_SURFACE ( 'NONE', #324, 3.000000000000002665 ) ;
#886 = CARTESIAN_POINT ( 'NONE',  ( -60.25000000000000000, 9.299999999999988276, -124.5086650067004683 ) ) ;
#887 = EDGE_LOOP ( 'NONE', ( #679, #927, #728, #546, #157, #27, #442, #845, #479, #118, #237, #712 ) ) ;
#888 = DIRECTION ( 'NONE',  ( 1.000000000000000000, 1.069873509413008899E-16, 0.000000000000000000 ) ) ;
#889 = VECTOR ( 'NONE', #929, 1000.000000000000000 ) ;
#890 = DIRECTION ( 'NONE',  ( 0.000000000000000000, -0.000000000000000000, 1.000000000000000000 ) ) ;
#891 = VECTOR ( 'NONE', #904, 1000.000000000000000 ) ;
#892 = VERTEX_POINT ( 'NONE', #15 ) ;
#893 = EDGE_CURVE ( 'NONE', #329, #399, #518, .T. ) ;
#894 = APPROVAL_STATUS ( 'not_yet_approved' ) ;
#895 = DIRECTION ( 'NONE',  ( -0.000000000000000000, -0.000000000000000000, 1.000000000000000000 ) ) ;
#896 = VECTOR ( 'NONE', #553, 1000.000000000000000 ) ;
#897 = APPROVAL_PERSON_ORGANIZATION ( #328, #79, #110 ) ;
#898 = DIRECTION ( 'NONE',  ( -1.000000000000000000, 0.000000000000000000, 0.000000000000000000 ) ) ;
#899 = ORIENTED_EDGE ( 'NONE', *, *, #212, .T. ) ;
#900 = FACE_OUTER_BOUND ( 'NONE', #335, .T. ) ;
#901 = DIRECTION ( 'NONE',  ( -0.000000000000000000, -0.000000000000000000, 1.000000000000000000 ) ) ;
#902 = EDGE_LOOP ( 'NONE', ( #532, #80, #219, #379 ) ) ;
#903 = ORIENTED_EDGE ( 'NONE', *, *, #641, .F. ) ;
#904 = DIRECTION ( 'NONE',  ( -1.000000000000000000, 0.000000000000000000, 0.000000000000000000 ) ) ;
#905 = EDGE_CURVE ( 'NONE', #274, #501, #668, .T. ) ;
#906 = CC_DESIGN_SECURITY_CLASSIFICATION ( #254, ( #47 ) ) ;
#907 = EDGE_CURVE ( 'NONE', #163, #673, #158, .T. ) ;
#908 = EDGE_LOOP ( 'NONE', ( #49, #570, #752, #149 ) ) ;
#909 = ORIENTED_EDGE ( 'NONE', *, *, #641, .T. ) ;
#910 = CC_DESIGN_PERSON_AND_ORGANIZATION_ASSIGNMENT ( #364, #85, ( #369 ) ) ;
#911 = CARTESIAN_POINT ( 'NONE',  ( -53.44999999999998863, 10.89999999999998792, 19.89999999999999858 ) ) ;
#912 = CIRCLE ( 'NONE', #222, 1.500000000000001332 ) ;
#913 = DIRECTION ( 'NONE',  ( 1.000000000000000000, 0.000000000000000000, 0.000000000000000000 ) ) ;
#914 = ORIENTED_EDGE ( 'NONE', *, *, #474, .F. ) ;
#915 = VECTOR ( 'NONE', #78, 1000.000000000000000 ) ;
#916 = LINE ( 'NONE', #216, #577 ) ;
#917 = CARTESIAN_POINT ( 'NONE',  ( 60.25000000000000000, 6.299999999999992717, 18.60000000000000497 ) ) ;
#918 = ORIENTED_EDGE ( 'NONE', *, *, #353, .F. ) ;
#919 = DIRECTION ( 'NONE',  ( -0.000000000000000000, -0.000000000000000000, -1.000000000000000000 ) ) ;
#920 = EDGE_CURVE ( 'NONE', #375, #501, #91, .T. ) ;
#921 = DIRECTION ( 'NONE',  ( -0.000000000000000000, -0.000000000000000000, -1.000000000000000000 ) ) ;
#922 = ORIENTED_EDGE ( 'NONE', *, *, #126, .T. ) ;
#923 = CIRCLE ( 'NONE', #355, 2.899999999999999911 ) ;
#924 = DIRECTION ( 'NONE',  ( -1.222712582186295884E-16, 1.000000000000000000, 0.000000000000000000 ) ) ;
#925 = ADVANCED_FACE ( 'NONE', ( #502 ), #297, .T. ) ;
#926 = DIRECTION ( 'NONE',  ( -0.000000000000000000, -0.000000000000000000, -1.000000000000000000 ) ) ;
#927 = ORIENTED_EDGE ( 'NONE', *, *, #584, .T. ) ;
#928 = DIRECTION ( 'NONE',  ( 0.000000000000000000, 0.000000000000000000, 1.000000000000000000 ) ) ;
#929 = DIRECTION ( 'NONE',  ( -1.000000000000000000, -1.222712582186295884E-16, 0.000000000000000000 ) ) ;
ENDSEC;
END-ISO-10303-21;
