ISO-10303-21;
HEADER;
FILE_DESCRIPTION (( 'STEP AP203' ),
    '1' );
FILE_NAME ('Speaker Plug REF2016.STEP',
    '2026-04-04T17:36:12',
    ( '' ),
    ( '' ),
    'SwSTEP 2.0',
    'SolidWorks 2026',
    '' );
FILE_SCHEMA (( 'CONFIG_CONTROL_DESIGN' ));
ENDSEC;

DATA;
#1 = CARTESIAN_POINT ( 'NONE',  ( 67.60735864956268415, 17.44036073870084635, 4.804383374054810751 ) ) ;
#2 = VECTOR ( 'NONE', #29, 1000.000000000000000 ) ;
#3 = DIRECTION ( 'NONE',  ( -1.000000000000000000, 0.000000000000000000, 0.000000000000000000 ) ) ;
#4 = DIRECTION ( 'NONE',  ( -1.000000000000000000, 0.000000000000000000, 0.000000000000000000 ) ) ;
#5 = AXIS2_PLACEMENT_3D ( 'NONE', #56, #215, #508 ) ;
#6 = AXIS2_PLACEMENT_3D ( 'NONE', #160, #326, #123 ) ;
#7 = ORIENTED_EDGE ( 'NONE', *, *, #459, .F. ) ;
#8 = APPROVAL_PERSON_ORGANIZATION ( #518, #448, #475 ) ;
#9 = CARTESIAN_POINT ( 'NONE',  ( 65.50000000000001421, 17.00000000000000000, 5.900000000000000355 ) ) ;
#10 = ORIENTED_EDGE ( 'NONE', *, *, #144, .F. ) ;
#11 = DIRECTION ( 'NONE',  ( 0.000000000000000000, 0.000000000000000000, 1.000000000000000000 ) ) ;
#12 = DIRECTION ( 'NONE',  ( 1.000000000000000000, 0.000000000000000000, 0.000000000000000000 ) ) ;
#13 = UNCERTAINTY_MEASURE_WITH_UNIT (LENGTH_MEASURE( 1.000000000000000082E-05 ), #486, 'distance_accuracy_value', 'NONE');
#14 = CARTESIAN_POINT ( 'NONE',  ( 65.50000000000001421, 17.00000000000000000, 4.200000000000000178 ) ) ;
#15 = ORIENTED_EDGE ( 'NONE', *, *, #474, .T. ) ;
#16 = APPROVAL ( #411, 'Deckungsgleich' ) ;
#17 = DIRECTION ( 'NONE',  ( 0.000000000000000000, 0.000000000000000000, 1.000000000000000000 ) ) ;
#18 = EDGE_LOOP ( 'NONE', ( #67, #15, #507, #284, #452 ) ) ;
#19 = DIRECTION ( 'NONE',  ( 1.000000000000000000, 0.000000000000000000, 0.000000000000000000 ) ) ;
#20 = VERTEX_POINT ( 'NONE', #364 ) ;
#21 = CLOSED_SHELL ( 'NONE', ( #516, #184, #161, #25, #241, #420, #454, #483, #312, #293, #30, #329, #65, #88 ) ) ;
#22 = PRODUCT_DEFINITION_FORMATION_WITH_SPECIFIED_SOURCE ( 'Symmetrisch', '', #368, .NOT_KNOWN. ) ;
#23 = CARTESIAN_POINT ( 'NONE',  ( 67.68549950300669593, 17.44976631219662622, 5.700761060381651646 ) ) ;
#24 = VERTEX_POINT ( 'NONE', #522 ) ;
#25 = ADVANCED_FACE ( 'NONE', ( #234 ), #361, .T. ) ;
#26 = CARTESIAN_POINT ( 'NONE',  ( 65.50000000000001421, 14.19999999999999929, 3.200000000000000622 ) ) ;
#27 = VECTOR ( 'NONE', #190, 1000.000000000000000 ) ;
#28 = ORIENTED_EDGE ( 'NONE', *, *, #158, .F. ) ;
#29 = DIRECTION ( 'NONE',  ( 1.000000000000000000, 0.000000000000000000, 0.000000000000000000 ) ) ;
#30 = ADVANCED_FACE ( 'NONE', ( #240 ), #182, .T. ) ;
#31 = ORIENTED_EDGE ( 'NONE', *, *, #50, .T. ) ;
#32 = CIRCLE ( 'NONE', #396, 2.064118258694624952 ) ;
#33 = LINE ( 'NONE', #232, #2 ) ;
#34 = LINE ( 'NONE', #48, #225 ) ;
#35 = DIRECTION ( 'NONE',  ( 1.000000000000000000, 0.000000000000000000, 0.000000000000000000 ) ) ;
#36 = CARTESIAN_POINT ( 'NONE',  ( 67.59011037477644379, 17.43673211487387320, 4.602919396231543558 ) ) ;
#37 = FACE_OUTER_BOUND ( 'NONE', #141, .T. ) ;
#38 = DIRECTION ( 'NONE',  ( 0.000000000000000000, -0.000000000000000000, 1.000000000000000000 ) ) ;
#39 = PERSON_AND_ORGANIZATION ( #18446744073709551615, #18446744073709551615 ) ;
#40 = CARTESIAN_POINT ( 'NONE',  ( 67.65898889890105750, 17.44891160848793632, 5.401994051475209169 ) ) ;
#41 = CARTESIAN_POINT ( 'NONE',  ( 67.70000000000001705, 17.00000000000000000, 5.900000000000000355 ) ) ;
#42 = CARTESIAN_POINT ( 'NONE',  ( 65.50000000000001421, 17.00000000000000000, 3.200000000000000622 ) ) ;
#43 = EDGE_CURVE ( 'NONE', #20, #473, #476, .T. ) ;
#44 = LINE ( 'NONE', #332, #301 ) ;
#45 = VECTOR ( 'NONE', #69, 1000.000000000000000 ) ;
#46 = ORIENTED_EDGE ( 'NONE', *, *, #212, .T. ) ;
#47 = SECURITY_CLASSIFICATION ( '', '', #446 ) ;
#48 = CARTESIAN_POINT ( 'NONE',  ( 60.75000000000000000, 19.80000000000000071, 3.200000000000000622 ) ) ;
#49 = ORIENTED_EDGE ( 'NONE', *, *, #64, .F. ) ;
#50 = EDGE_CURVE ( 'NONE', #303, #191, #397, .T. ) ;
#51 = AXIS2_PLACEMENT_3D ( 'NONE', #73, #157, #239 ) ;
#52 = CARTESIAN_POINT ( 'NONE',  ( 67.52229186042650610, 17.41342449991422470, 5.900000000000000355 ) ) ;
#53 = EDGE_LOOP ( 'NONE', ( #456, #262, #172, #468, #148, #493, #104, #219, #413, #84 ) ) ;
#54 = DIRECTION ( 'NONE',  ( 1.000000000000000000, 0.000000000000000000, 0.000000000000000000 ) ) ;
#55 = VERTEX_POINT ( 'NONE', #156 ) ;
#56 = CARTESIAN_POINT ( 'NONE',  ( 65.50000000000001421, 17.00000000000000000, 5.700761060381651646 ) ) ;
#57 = EDGE_LOOP ( 'NONE', ( #222, #95, #417, #347 ) ) ;
#58 = LINE ( 'NONE', #512, #324 ) ;
#59 = VERTEX_POINT ( 'NONE', #283 ) ;
#60 = DIRECTION ( 'NONE',  ( -1.000000000000000000, 0.000000000000000000, 0.000000000000000000 ) ) ;
#61 = EDGE_LOOP ( 'NONE', ( #496, #228, #339, #509 ) ) ;
#62 = CARTESIAN_POINT ( 'NONE',  ( 68.26360272108711058, 16.54999999999999716, 3.200000000000000622 ) ) ;
#63 = VERTEX_POINT ( 'NONE', #238 ) ;
#64 = EDGE_CURVE ( 'NONE', #466, #427, #355, .T. ) ;
#65 = ADVANCED_FACE ( 'NONE', ( #480 ), #76, .F. ) ;
#66 = VECTOR ( 'NONE', #395, 1000.000000000000000 ) ;
#67 = ORIENTED_EDGE ( 'NONE', *, *, #362, .T. ) ;
#68 = CARTESIAN_POINT ( 'NONE',  ( 65.50000000000001421, 14.20000000000000107, 3.200000000000000622 ) ) ;
#69 = DIRECTION ( 'NONE',  ( -0.000000000000000000, -0.000000000000000000, 1.000000000000000000 ) ) ;
#70 = VECTOR ( 'NONE', #408, 1000.000000000000000 ) ;
#71 = LINE ( 'NONE', #68, #66 ) ;
#72 = CARTESIAN_POINT ( 'NONE',  ( 67.55625000000001990, 16.57357774741460332, 4.200000000000001066 ) ) ;
#73 = CARTESIAN_POINT ( 'NONE',  ( 65.50000000000001421, 17.00000000000000000, 5.900000000000000355 ) ) ;
#74 = CARTESIAN_POINT ( 'NONE',  ( 67.66762491990736805, 16.55080996559795992, 5.499319565245537333 ) ) ;
#75 = APPROVAL_STATUS ( 'not_yet_approved' ) ;
#76 = PLANE ( 'NONE',  #479 ) ;
#77 = EDGE_CURVE ( 'NONE', #380, #208, #521, .T. ) ;
#78 = CARTESIAN_POINT ( 'NONE',  ( 67.63294038012082865, 17.44574252199156916, 5.103184109879943087 ) ) ;
#79 = PERSON_AND_ORGANIZATION_ROLE ( 'classification_officer' ) ;
#80 = EDGE_CURVE ( 'NONE', #374, #259, #142, .T. ) ;
#81 = FACE_OUTER_BOUND ( 'NONE', #132, .T. ) ;
#82 = VERTEX_POINT ( 'NONE', #244 ) ;
#83 = CARTESIAN_POINT ( 'NONE',  ( 67.68549950300669593, 17.44976631219662622, 5.700761060381651646 ) ) ;
#84 = ORIENTED_EDGE ( 'NONE', *, *, #170, .T. ) ;
#85 = CC_DESIGN_PERSON_AND_ORGANIZATION_ASSIGNMENT ( #164, #287, ( #22 ) ) ;
#86 = DATE_TIME_ROLE ( 'classification_date' ) ;
#87 = DIRECTION ( 'NONE',  ( -0.000000000000000000, -1.000000000000000000, -0.000000000000000000 ) ) ;
#88 = ADVANCED_FACE ( 'NONE', ( #519 ), #154, .F. ) ;
#89 = CC_DESIGN_APPROVAL ( #16, ( #47 ) ) ;
#90 = COORDINATED_UNIVERSAL_TIME_OFFSET ( 1, 0, .AHEAD. ) ;
#91 = CARTESIAN_POINT ( 'NONE',  ( 65.50000000000001421, 17.00000000000000000, 3.200000000000000622 ) ) ;
#92 = ORIENTED_EDGE ( 'NONE', *, *, #404, .F. ) ;
#93 = AXIS2_PLACEMENT_3D ( 'NONE', #145, #103, #268 ) ;
#94 = LINE ( 'NONE', #166, #438 ) ;
#95 = ORIENTED_EDGE ( 'NONE', *, *, #511, .F. ) ;
#96 = PLANE ( 'NONE',  #350 ) ;
#97 = ORIENTED_EDGE ( 'NONE', *, *, #424, .T. ) ;
#98 = CIRCLE ( 'NONE', #5, 2.231299579444540271 ) ;
#99 = CARTESIAN_POINT ( 'NONE',  ( 63.26870042055547572, 17.00000000000000000, 5.700761060381651646 ) ) ;
#100 = ORIENTED_EDGE ( 'NONE', *, *, #389, .T. ) ;
#101 = DIRECTION ( 'NONE',  ( -1.000000000000000000, -7.304098846218107057E-16, -0.000000000000000000 ) ) ;
#102 = VERTEX_POINT ( 'NONE', #487 ) ;
#103 = DIRECTION ( 'NONE',  ( -0.000000000000000000, -0.000000000000000000, -1.000000000000000000 ) ) ;
#104 = ORIENTED_EDGE ( 'NONE', *, *, #406, .T. ) ;
#105 = EDGE_CURVE ( 'NONE', #55, #466, #385, .T. ) ;
#106 = DIRECTION ( 'NONE',  ( 1.000000000000000000, 0.000000000000000000, 0.000000000000000000 ) ) ;
#107 = ORIENTED_EDGE ( 'NONE', *, *, #511, .T. ) ;
#108 = APPROVAL_DATE_TIME ( #471, #409 ) ;
#109 = CC_DESIGN_PERSON_AND_ORGANIZATION_ASSIGNMENT ( #39, #275, ( #127 ) ) ;
#110 = DIRECTION ( 'NONE',  ( -0.000000000000000000, -0.000000000000000000, 1.000000000000000000 ) ) ;
#111 = APPLICATION_PROTOCOL_DEFINITION ( 'international standard', 'config_control_design', 1994, #472 ) ;
#112 = CARTESIAN_POINT ( 'NONE',  ( 69.32458504642511343, 16.54999999999999716, 3.200000000000000622 ) ) ;
#113 = AXIS2_PLACEMENT_3D ( 'NONE', #176, #465, #381 ) ;
#114 = AXIS2_PLACEMENT_3D ( 'NONE', #517, #399, #193 ) ;
#115 = CC_DESIGN_SECURITY_CLASSIFICATION ( #47, ( #22 ) ) ;
#116 = PERSON_AND_ORGANIZATION ( #18446744073709551615, #18446744073709551615 ) ;
#117 = CARTESIAN_POINT ( 'NONE',  ( 67.70000000000001705, 17.45000000000000284, 3.200000000000000622 ) ) ;
#118 = APPROVAL_DATE_TIME ( #435, #448 ) ;
#119 = EDGE_CURVE ( 'NONE', #349, #513, #445, .T. ) ;
#120 = AXIS2_PLACEMENT_3D ( 'NONE', #357, #398, #35 ) ;
#121 = CARTESIAN_POINT ( 'NONE',  ( 67.60662273173582548, 16.55901685126476508, 4.797600818007854429 ) ) ;
#122 = CARTESIAN_POINT ( 'NONE',  ( 60.75000000000000000, 14.20000000000000284, 3.200000000000000622 ) ) ;
#123 = DIRECTION ( 'NONE',  ( -1.000000000000000000, 0.000000000000000000, 0.000000000000000000 ) ) ;
#124 = EDGE_CURVE ( 'NONE', #20, #55, #274, .T. ) ;
#125 = CYLINDRICAL_SURFACE ( 'NONE', #205, 2.799999999999997158 ) ;
#126 = DIRECTION ( 'NONE',  ( -1.000000000000000000, 0.000000000000000000, 0.000000000000000000 ) ) ;
#127 = PRODUCT_DEFINITION ( 'Allgemein', '', #22, #231 ) ;
#128 = SHAPE_DEFINITION_REPRESENTATION ( #337, #331 ) ;
#129 = CARTESIAN_POINT ( 'NONE',  ( 67.62890817421687473, 16.55205819615518337, 5.767257923481410309 ) ) ;
#130 = DATE_AND_TIME ( #490, #372 ) ;
#131 = DIRECTION ( 'NONE',  ( 0.000000000000000000, 0.000000000000000000, 1.000000000000000000 ) ) ;
#132 = EDGE_LOOP ( 'NONE', ( #358, #28, #135, #46 ) ) ;
#133 = LINE ( 'NONE', #451, #70 ) ;
#134 = CARTESIAN_POINT ( 'NONE',  ( 65.50000000000001421, 17.00000000000000000, 4.200000000000000178 ) ) ;
#135 = ORIENTED_EDGE ( 'NONE', *, *, #430, .F. ) ;
#136 = EDGE_CURVE ( 'NONE', #349, #217, #34, .T. ) ;
#137 = CARTESIAN_POINT ( 'NONE',  ( 60.75000000000000000, 19.80000000000000071, 3.200000000000000622 ) ) ;
#138 = ORIENTED_EDGE ( 'NONE', *, *, #196, .F. ) ;
#139 = CIRCLE ( 'NONE', #489, 2.064118258694624952 ) ;
#140 = CARTESIAN_POINT ( 'NONE',  ( 67.52229186042650610, 17.41342449991422470, 5.900000000000000355 ) ) ;
#141 = EDGE_LOOP ( 'NONE', ( #305, #177, #342, #269 ) ) ;
#142 = B_SPLINE_CURVE_WITH_KNOTS ( 'NONE', 3,
 ( #441, #40, #78, #1, #36, #317, #152 ),
 .UNSPECIFIED., .F., .F.,
 ( 4, 3, 4 ),
 ( 2.007805935971136087E-07, 0.0009000271051318240031, 0.001506717983845017907 ),
 .UNSPECIFIED. ) ;
#143 =( GEOMETRIC_REPRESENTATION_CONTEXT ( 3 ) GLOBAL_UNCERTAINTY_ASSIGNED_CONTEXT ( ( #13 ) ) GLOBAL_UNIT_ASSIGNED_CONTEXT ( ( #486, #318, #237 ) ) REPRESENTATION_CONTEXT ( 'NONE', 'WORKASPACE' ) );
#144 = EDGE_CURVE ( 'NONE', #102, #224, #44, .T. ) ;
#145 = CARTESIAN_POINT ( 'NONE',  ( 67.70000000000001705, 17.00000000000000000, 4.200000000000000178 ) ) ;
#146 = ORIENTED_EDGE ( 'NONE', *, *, #500, .F. ) ;
#147 = DIRECTION ( 'NONE',  ( -0.000000000000000000, -0.000000000000000000, -1.000000000000000000 ) ) ;
#148 = ORIENTED_EDGE ( 'NONE', *, *, #459, .T. ) ;
#149 = COORDINATED_UNIVERSAL_TIME_OFFSET ( 1, 0, .AHEAD. ) ;
#150 = CARTESIAN_POINT ( 'NONE',  ( 67.63250771890659507, 16.55509013048392575, 5.096397870900300830 ) ) ;
#151 = CARTESIAN_POINT ( 'NONE',  ( 0.000000000000000000, 0.000000000000000000, 0.000000000000000000 ) ) ;
#152 = CARTESIAN_POINT ( 'NONE',  ( 67.55625000000001990, 17.42642225258539668, 4.200000000000001066 ) ) ;
#153 = CALENDAR_DATE ( 2026, 4, 4 ) ;
#154 = PLANE ( 'NONE',  #250 ) ;
#155 = VECTOR ( 'NONE', #110, 1000.000000000000000 ) ;
#156 = CARTESIAN_POINT ( 'NONE',  ( 67.70000000000001705, 16.54999999999999716, 4.200000000000000178 ) ) ;
#157 = DIRECTION ( 'NONE',  ( 0.000000000000000000, 0.000000000000000000, -1.000000000000000000 ) ) ;
#158 = EDGE_CURVE ( 'NONE', #297, #59, #505, .T. ) ;
#159 = CONICAL_SURFACE ( 'NONE', #51, 2.064118258694624952, 0.6981317007977593248 ) ;
#160 = CARTESIAN_POINT ( 'NONE',  ( 67.70000000000001705, 17.00000000000000000, 4.200000000000000178 ) ) ;
#161 = ADVANCED_FACE ( 'NONE', ( #207 ), #366, .T. ) ;
#162 = CARTESIAN_POINT ( 'NONE',  ( 65.50000000000001421, 17.00000000000000000, 3.200000000000000622 ) ) ;
#163 = VECTOR ( 'NONE', #376, 1000.000000000000227 ) ;
#164 = PERSON_AND_ORGANIZATION ( #18446744073709551615, #18446744073709551615 ) ;
#165 = CARTESIAN_POINT ( 'NONE',  ( 60.75000000000000000, 19.80000000000000071, 4.200000000000000178 ) ) ;
#166 = CARTESIAN_POINT ( 'NONE',  ( 60.75000000000000000, 14.20000000000000284, 4.200000000000000178 ) ) ;
#167 = ORIENTED_EDGE ( 'NONE', *, *, #335, .T. ) ;
#168 = PERSON_AND_ORGANIZATION ( #18446744073709551615, #18446744073709551615 ) ;
#169 = DIRECTION ( 'NONE',  ( 1.000000000000000000, 0.000000000000000000, -0.000000000000000000 ) ) ;
#170 = EDGE_CURVE ( 'NONE', #82, #297, #133, .T. ) ;
#171 = DIRECTION ( 'NONE',  ( 0.000000000000000000, 0.000000000000000000, 1.000000000000000000 ) ) ;
#172 = ORIENTED_EDGE ( 'NONE', *, *, #105, .T. ) ;
#173 = CARTESIAN_POINT ( 'NONE',  ( 68.26360272108711058, 16.54999999999999716, 3.200000000000000622 ) ) ;
#174 = EDGE_CURVE ( 'NONE', #208, #427, #410, .T. ) ;
#175 = MANIFOLD_SOLID_BREP ( 'Basisteil-Speaker_Plug-1', #21 ) ;
#176 = CARTESIAN_POINT ( 'NONE',  ( 65.50000000000001421, 17.00000000000000000, 4.200000000000000178 ) ) ;
#177 = ORIENTED_EDGE ( 'NONE', *, *, #272, .T. ) ;
#178 = CARTESIAN_POINT ( 'NONE',  ( 67.70000000000001705, 17.00000000000000000, 3.200000000000000622 ) ) ;
#179 = CC_DESIGN_PERSON_AND_ORGANIZATION_ASSIGNMENT ( #494, #201, ( #22 ) ) ;
#180 = ORIENTED_EDGE ( 'NONE', *, *, #233, .F. ) ;
#181 = CIRCLE ( 'NONE', #260, 2.799999999999997158 ) ;
#182 = CONICAL_SURFACE ( 'NONE', #320, 2.064118258694624952, 0.6981317007977593248 ) ;
#183 = LOCAL_TIME ( 19, 36, 12.00000000000000000, #482 ) ;
#184 = ADVANCED_FACE ( 'NONE', ( #81 ), #125, .T. ) ;
#185 = DIRECTION ( 'NONE',  ( -0.000000000000000000, 0.000000000000000000, -1.000000000000000000 ) ) ;
#186 = ORIENTED_EDGE ( 'NONE', *, *, #520, .T. ) ;
#187 = AXIS2_PLACEMENT_3D ( 'NONE', #14, #302, #460 ) ;
#188 = CARTESIAN_POINT ( 'NONE',  ( 65.50000000000001421, 17.00000000000000000, 5.700761060381651646 ) ) ;
#189 = EDGE_LOOP ( 'NONE', ( #10, #167, #425, #419 ) ) ;
#190 = DIRECTION ( 'NONE',  ( 0.000000000000000000, 0.000000000000000000, 1.000000000000000000 ) ) ;
#191 = VERTEX_POINT ( 'NONE', #495 ) ;
#192 = LINE ( 'NONE', #122, #27 ) ;
#193 = DIRECTION ( 'NONE',  ( -1.000000000000000000, -7.304098846218107057E-16, 0.000000000000000000 ) ) ;
#194 = DIRECTION ( 'NONE',  ( -1.000000000000000000, 0.000000000000000000, 0.000000000000000000 ) ) ;
#195 = CARTESIAN_POINT ( 'NONE',  ( 65.50000000000001421, 17.00000000000000000, 5.900000000000000355 ) ) ;
#196 = EDGE_CURVE ( 'NONE', #217, #82, #94, .T. ) ;
#197 = CALENDAR_DATE ( 2026, 4, 4 ) ;
#198 = DIRECTION ( 'NONE',  ( 0.000000000000000000, 0.000000000000000000, -1.000000000000000000 ) ) ;
#199 = CARTESIAN_POINT ( 'NONE',  ( 60.75000000000000000, 14.20000000000000284, 3.200000000000000622 ) ) ;
#200 = CC_DESIGN_DATE_AND_TIME_ASSIGNMENT ( #334, #86, ( #47 ) ) ;
#201 = PERSON_AND_ORGANIZATION_ROLE ( 'creator' ) ;
#202 = CARTESIAN_POINT ( 'NONE',  ( 60.75000000000000000, 14.20000000000000284, 3.200000000000000622 ) ) ;
#203 = ORIENTED_EDGE ( 'NONE', *, *, #105, .F. ) ;
#204 = VECTOR ( 'NONE', #101, 1000.000000000000000 ) ;
#205 = AXIS2_PLACEMENT_3D ( 'NONE', #91, #330, #54 ) ;
#206 = CC_DESIGN_APPROVAL ( #448, ( #127 ) ) ;
#207 = FACE_OUTER_BOUND ( 'NONE', #333, .T. ) ;
#208 = VERTEX_POINT ( 'NONE', #373 ) ;
#209 = CARTESIAN_POINT ( 'NONE',  ( 63.43588174130539414, 17.00000000000000000, 5.900000000000000355 ) ) ;
#210 = AXIS2_PLACEMENT_3D ( 'NONE', #316, #279, #282 ) ;
#211 = EDGE_LOOP ( 'NONE', ( #515, #382, #31, #7, #310, #429, #461, #294, #49, #203 ) ) ;
#212 = EDGE_CURVE ( 'NONE', #299, #473, #278, .T. ) ;
#213 = DIRECTION ( 'NONE',  ( 1.000000000000000000, 0.000000000000000000, 0.000000000000000000 ) ) ;
#214 = ORIENTED_EDGE ( 'NONE', *, *, #257, .T. ) ;
#215 = DIRECTION ( 'NONE',  ( -0.000000000000000000, -0.000000000000000000, -1.000000000000000000 ) ) ;
#216 = EDGE_CURVE ( 'NONE', #380, #24, #32, .T. ) ;
#217 = VERTEX_POINT ( 'NONE', #165 ) ;
#218 = LINE ( 'NONE', #227, #504 ) ;
#219 = ORIENTED_EDGE ( 'NONE', *, *, #404, .T. ) ;
#220 = CC_DESIGN_DATE_AND_TIME_ASSIGNMENT ( #314, #442, ( #127 ) ) ;
#221 = FACE_OUTER_BOUND ( 'NONE', #18, .T. ) ;
#222 = ORIENTED_EDGE ( 'NONE', *, *, #170, .F. ) ;
#223 = DIRECTION ( 'NONE',  ( -3.652049423109053529E-16, -1.000000000000000000, 0.000000000000000000 ) ) ;
#224 = VERTEX_POINT ( 'NONE', #418 ) ;
#225 = VECTOR ( 'NONE', #171, 1000.000000000000000 ) ;
#226 = LOCAL_TIME ( 19, 36, 12.00000000000000000, #273 ) ;
#227 = CARTESIAN_POINT ( 'NONE',  ( 60.75000000000000000, 19.80000000000000071, 4.200000000000000178 ) ) ;
#228 = ORIENTED_EDGE ( 'NONE', *, *, #498, .F. ) ;
#229 = DIRECTION ( 'NONE',  ( 0.000000000000000000, 0.000000000000000000, 1.000000000000000000 ) ) ;
#230 = ORIENTED_EDGE ( 'NONE', *, *, #136, .T. ) ;
#231 = DESIGN_CONTEXT ( 'detailed design', #313, 'design' ) ;
#232 = CARTESIAN_POINT ( 'NONE',  ( 65.50000000000001421, 17.45000000000000284, 4.200000000000000178 ) ) ;
#233 = EDGE_CURVE ( 'NONE', #374, #380, #478, .T. ) ;
#234 = FACE_OUTER_BOUND ( 'NONE', #290, .T. ) ;
#235 = AXIS2_PLACEMENT_3D ( 'NONE', #9, #11, #169 ) ;
#236 = AXIS2_PLACEMENT_3D ( 'NONE', #41, #439, #360 ) ;
#237 =( NAMED_UNIT ( * ) SI_UNIT ( $, .STERADIAN. ) SOLID_ANGLE_UNIT ( ) );
#238 = CARTESIAN_POINT ( 'NONE',  ( 65.50000000000001421, 19.80000000000000426, 4.200000000000000178 ) ) ;
#239 = DIRECTION ( 'NONE',  ( -1.000000000000000000, 0.000000000000000000, 0.000000000000000000 ) ) ;
#240 = FACE_OUTER_BOUND ( 'NONE', #267, .T. ) ;
#241 = ADVANCED_FACE ( 'NONE', ( #289 ), #497, .T. ) ;
#242 = APPROVAL_ROLE ( '' ) ;
#243 = DIRECTION ( 'NONE',  ( 1.000000000000000000, -0.000000000000000000, -0.000000000000000000 ) ) ;
#244 = CARTESIAN_POINT ( 'NONE',  ( 60.75000000000000000, 14.20000000000000284, 4.200000000000000178 ) ) ;
#245 = CALENDAR_DATE ( 2026, 4, 4 ) ;
#246 = DIRECTION ( 'NONE',  ( 0.000000000000000000, 0.000000000000000000, 1.000000000000000000 ) ) ;
#247 = DIRECTION ( 'NONE',  ( 0.000000000000000000, 0.000000000000000000, 1.000000000000000000 ) ) ;
#248 = ORIENTED_EDGE ( 'NONE', *, *, #43, .F. ) ;
#249 = AXIS2_PLACEMENT_3D ( 'NONE', #162, #247, #213 ) ;
#250 = AXIS2_PLACEMENT_3D ( 'NONE', #319, #280, #38 ) ;
#251 = LOCAL_TIME ( 19, 36, 12.00000000000000000, #149 ) ;
#252 = DIRECTION ( 'NONE',  ( 1.000000000000000000, 0.000000000000000000, 0.000000000000000000 ) ) ;
#253 = CARTESIAN_POINT ( 'NONE',  ( 67.57450535970706085, 16.56413182821898289, 5.833678036521266819 ) ) ;
#254 = VECTOR ( 'NONE', #463, 1000.000000000000000 ) ;
#255 = ORIENTED_EDGE ( 'NONE', *, *, #216, .F. ) ;
#256 = EDGE_CURVE ( 'NONE', #59, #55, #286, .T. ) ;
#257 = EDGE_CURVE ( 'NONE', #24, #208, #139, .T. ) ;
#258 = LINE ( 'NONE', #209, #163 ) ;
#259 = VERTEX_POINT ( 'NONE', #416 ) ;
#260 = AXIS2_PLACEMENT_3D ( 'NONE', #340, #501, #506 ) ;
#261 = DIRECTION ( 'NONE',  ( 1.000000000000000000, -3.652049423109053529E-16, 0.000000000000000000 ) ) ;
#262 = ORIENTED_EDGE ( 'NONE', *, *, #256, .T. ) ;
#263 = PRODUCT_RELATED_PRODUCT_CATEGORY ( 'detail', '', ( #368 ) ) ;
#264 = DIRECTION ( 'NONE',  ( 0.000000000000000000, 0.000000000000000000, 1.000000000000000000 ) ) ;
#265 = ORIENTED_EDGE ( 'NONE', *, *, #136, .F. ) ;
#266 = FACE_OUTER_BOUND ( 'NONE', #271, .T. ) ;
#267 = EDGE_LOOP ( 'NONE', ( #308, #255, #180, #458 ) ) ;
#268 = DIRECTION ( 'NONE',  ( -1.000000000000000000, 0.000000000000000000, 0.000000000000000000 ) ) ;
#269 = ORIENTED_EDGE ( 'NONE', *, *, #174, .F. ) ;
#270 = CARTESIAN_POINT ( 'NONE',  ( 67.70000000000001705, 17.45000000000000284, 3.200000000000000622 ) ) ;
#271 = EDGE_LOOP ( 'NONE', ( #323, #503, #146, #422, #391, #354, #97, #186 ) ) ;
#272 = EDGE_CURVE ( 'NONE', #24, #434, #258, .T. ) ;
#273 = COORDINATED_UNIVERSAL_TIME_OFFSET ( 1, 0, .AHEAD. ) ;
#274 = LINE ( 'NONE', #436, #45 ) ;
#275 = PERSON_AND_ORGANIZATION_ROLE ( 'creator' ) ;
#276 = CARTESIAN_POINT ( 'NONE',  ( 67.68549950300669593, 16.55023368780337734, 5.700761060381648981 ) ) ;
#277 = CIRCLE ( 'NONE', #187, 2.799999999999997158 ) ;
#278 = CIRCLE ( 'NONE', #370, 2.799999999999997158 ) ;
#279 = DIRECTION ( 'NONE',  ( -0.000000000000000000, 0.000000000000000000, -1.000000000000000000 ) ) ;
#280 = DIRECTION ( 'NONE',  ( 0.000000000000000000, 1.000000000000000000, 0.000000000000000000 ) ) ;
#281 = AXIS2_PLACEMENT_3D ( 'NONE', #188, #147, #106 ) ;
#282 = DIRECTION ( 'NONE',  ( -1.000000000000000000, 0.000000000000000000, 0.000000000000000000 ) ) ;
#283 = CARTESIAN_POINT ( 'NONE',  ( 68.26360272108711058, 16.54999999999999716, 4.200000000000000178 ) ) ;
#284 = ORIENTED_EDGE ( 'NONE', *, *, #367, .T. ) ;
#285 = PERSON_AND_ORGANIZATION ( #18446744073709551615, #18446744073709551615 ) ;
#286 = LINE ( 'NONE', #447, #462 ) ;
#287 = PERSON_AND_ORGANIZATION_ROLE ( 'design_supplier' ) ;
#288 = CARTESIAN_POINT ( 'NONE',  ( 67.68549950300669593, 16.55023368780337734, 5.700761060381648981 ) ) ;
#289 = FACE_OUTER_BOUND ( 'NONE', #189, .T. ) ;
#290 = EDGE_LOOP ( 'NONE', ( #92, #450, #100, #230 ) ) ;
#291 = APPROVAL_DATE_TIME ( #130, #16 ) ;
#292 = DIRECTION ( 'NONE',  ( 0.000000000000000000, 0.000000000000000000, 1.000000000000000000 ) ) ;
#293 = ADVANCED_FACE ( 'NONE', ( #295 ), #412, .T. ) ;
#294 = ORIENTED_EDGE ( 'NONE', *, *, #174, .T. ) ;
#295 = FACE_OUTER_BOUND ( 'NONE', #470, .T. ) ;
#296 = AXIS2_PLACEMENT_3D ( 'NONE', #386, #185, #348 ) ;
#297 = VERTEX_POINT ( 'NONE', #336 ) ;
#298 = DIRECTION ( 'NONE',  ( -1.000000000000000000, -7.304098846218107057E-16, -0.000000000000000000 ) ) ;
#299 = VERTEX_POINT ( 'NONE', #457 ) ;
#300 = AXIS2_PLACEMENT_3D ( 'NONE', #134, #17, #19 ) ;
#301 = VECTOR ( 'NONE', #246, 1000.000000000000000 ) ;
#302 = DIRECTION ( 'NONE',  ( 0.000000000000000000, 0.000000000000000000, 1.000000000000000000 ) ) ;
#303 = VERTEX_POINT ( 'NONE', #270 ) ;
#304 = FACE_OUTER_BOUND ( 'NONE', #57, .T. ) ;
#305 = ORIENTED_EDGE ( 'NONE', *, *, #257, .F. ) ;
#306 = CIRCLE ( 'NONE', #281, 2.231299579444540271 ) ;
#307 = LINE ( 'NONE', #467, #204 ) ;
#308 = ORIENTED_EDGE ( 'NONE', *, *, #272, .F. ) ;
#309 = LINE ( 'NONE', #173, #328 ) ;
#310 = ORIENTED_EDGE ( 'NONE', *, *, #80, .F. ) ;
#311 = EDGE_CURVE ( 'NONE', #59, #473, #309, .T. ) ;
#312 = ADVANCED_FACE ( 'NONE', ( #221 ), #343, .T. ) ;
#313 = APPLICATION_CONTEXT ( 'configuration controlled 3d designs of mechanical parts and assemblies' ) ;
#314 = DATE_AND_TIME ( #153, #251 ) ;
#315 = DIRECTION ( 'NONE',  ( -0.000000000000000000, -1.000000000000000000, -0.000000000000000000 ) ) ;
#316 = CARTESIAN_POINT ( 'NONE',  ( 65.50000000000001421, 17.00000000000000000, 4.200000000000000178 ) ) ;
#317 = CARTESIAN_POINT ( 'NONE',  ( 67.57307370151734460, 17.43209364304040676, 4.401452730564562543 ) ) ;
#318 =( NAMED_UNIT ( * ) PLANE_ANGLE_UNIT ( ) SI_UNIT ( $, .RADIAN. ) );
#319 = CARTESIAN_POINT ( 'NONE',  ( 69.32458504642511343, 17.45000000000000284, 3.200000000000000622 ) ) ;
#320 = AXIS2_PLACEMENT_3D ( 'NONE', #195, #198, #194 ) ;
#321 = LOCAL_TIME ( 19, 36, 12.00000000000000000, #405 ) ;
#322 = CARTESIAN_POINT ( 'NONE',  ( 60.75000000000000000, 14.20000000000000284, 3.200000000000000622 ) ) ;
#323 = ORIENTED_EDGE ( 'NONE', *, *, #43, .T. ) ;
#324 = VECTOR ( 'NONE', #60, 1000.000000000000000 ) ;
#325 = PERSON_AND_ORGANIZATION ( #18446744073709551615, #18446744073709551615 ) ;
#326 = DIRECTION ( 'NONE',  ( -0.000000000000000000, -0.000000000000000000, -1.000000000000000000 ) ) ;
#327 = DIRECTION ( 'NONE',  ( 0.000000000000000000, 0.000000000000000000, 1.000000000000000000 ) ) ;
#328 = VECTOR ( 'NONE', #433, 1000.000000000000000 ) ;
#329 = ADVANCED_FACE ( 'NONE', ( #502 ), #426, .F. ) ;
#330 = DIRECTION ( 'NONE',  ( 0.000000000000000000, 0.000000000000000000, 1.000000000000000000 ) ) ;
#331 = ADVANCED_BREP_SHAPE_REPRESENTATION ( 'Speaker Plug REF2016', ( #175, #510 ), #143 ) ;
#332 = CARTESIAN_POINT ( 'NONE',  ( 68.26360272108711058, 17.45000000000000284, 3.200000000000000622 ) ) ;
#333 = EDGE_LOOP ( 'NONE', ( #138, #265, #384, #107 ) ) ;
#334 = DATE_AND_TIME ( #245, #321 ) ;
#335 = EDGE_CURVE ( 'NONE', #102, #377, #181, .T. ) ;
#336 = CARTESIAN_POINT ( 'NONE',  ( 65.50000000000001421, 14.19999999999999929, 4.200000000000000178 ) ) ;
#337 = PRODUCT_DEFINITION_SHAPE ( 'NONE', 'NONE',  #127 ) ;
#338 = CARTESIAN_POINT ( 'NONE',  ( 67.62890817421687473, 17.44794180384482019, 5.767257923481410309 ) ) ;
#339 = ORIENTED_EDGE ( 'NONE', *, *, #50, .F. ) ;
#340 = CARTESIAN_POINT ( 'NONE',  ( 65.50000000000001421, 17.00000000000000000, 3.200000000000000622 ) ) ;
#341 = LINE ( 'NONE', #26, #254 ) ;
#342 = ORIENTED_EDGE ( 'NONE', *, *, #362, .F. ) ;
#343 = CONICAL_SURFACE ( 'NONE', #113, 2.100000000000004530, 0.08726646259971651554 ) ;
#344 = AXIS2_PLACEMENT_3D ( 'NONE', #369, #131, #421 ) ;
#345 = DIRECTION ( 'NONE',  ( -0.000000000000000000, -0.000000000000000000, 1.000000000000000000 ) ) ;
#346 = APPROVAL_PERSON_ORGANIZATION ( #116, #409, #242 ) ;
#347 = ORIENTED_EDGE ( 'NONE', *, *, #430, .T. ) ;
#348 = DIRECTION ( 'NONE',  ( -1.000000000000000000, 0.000000000000000000, 0.000000000000000000 ) ) ;
#349 = VERTEX_POINT ( 'NONE', #137 ) ;
#350 = AXIS2_PLACEMENT_3D ( 'NONE', #383, #223, #261 ) ;
#351 = CARTESIAN_POINT ( 'NONE',  ( 67.55625000000001990, 16.57357774741460332, 4.200000000000001066 ) ) ;
#352 = CC_DESIGN_PERSON_AND_ORGANIZATION_ASSIGNMENT ( #325, #359, ( #368 ) ) ;
#353 = ORIENTED_EDGE ( 'NONE', *, *, #124, .T. ) ;
#354 = ORIENTED_EDGE ( 'NONE', *, *, #335, .F. ) ;
#355 = B_SPLINE_CURVE_WITH_KNOTS ( 'NONE', 3,
 ( #72, #484, #121, #150, #407, #74, #276 ),
 .UNSPECIFIED., .F., .F.,
 ( 4, 3, 4 ),
 ( 2.007692938033078559E-07, 0.0009000264049726457551, 0.001506718388271154150 ),
 .UNSPECIFIED. ) ;
#356 = CC_DESIGN_PERSON_AND_ORGANIZATION_ASSIGNMENT ( #285, #79, ( #47 ) ) ;
#357 = CARTESIAN_POINT ( 'NONE',  ( 67.70000000000001705, 17.00000000000000000, 3.200000000000000622 ) ) ;
#358 = ORIENTED_EDGE ( 'NONE', *, *, #311, .F. ) ;
#359 = PERSON_AND_ORGANIZATION_ROLE ( 'design_owner' ) ;
#360 = DIRECTION ( 'NONE',  ( 1.000000000000000000, 0.000000000000000000, 0.000000000000000000 ) ) ;
#361 = PLANE ( 'NONE',  #114 ) ;
#362 = EDGE_CURVE ( 'NONE', #427, #434, #98, .T. ) ;
#363 = FACE_OUTER_BOUND ( 'NONE', #53, .T. ) ;
#364 = CARTESIAN_POINT ( 'NONE',  ( 67.70000000000001705, 16.54999999999999716, 3.200000000000000622 ) ) ;
#365 = APPROVAL_ROLE ( '' ) ;
#366 = PLANE ( 'NONE',  #453 ) ;
#367 = EDGE_CURVE ( 'NONE', #259, #466, #437, .T. ) ;
#368 = PRODUCT ( 'Speaker Plug REF2016', 'Speaker Plug REF2016', '', ( #477 ) ) ;
#369 = CARTESIAN_POINT ( 'NONE',  ( 65.50000000000001421, 17.00000000000000000, 4.200000000000000178 ) ) ;
#370 = AXIS2_PLACEMENT_3D ( 'NONE', #42, #491, #126 ) ;
#371 = VECTOR ( 'NONE', #315, 1000.000000000000000 ) ;
#372 = LOCAL_TIME ( 19, 36, 12.00000000000000000, #90 ) ;
#373 = CARTESIAN_POINT ( 'NONE',  ( 67.52229186042650610, 16.58657550008577886, 5.900000000000000355 ) ) ;
#374 = VERTEX_POINT ( 'NONE', #23 ) ;
#375 = VECTOR ( 'NONE', #264, 1000.000000000000000 ) ;
#376 = DIRECTION ( 'NONE',  ( -0.6427876096865603461, 0.000000000000000000, -0.7660444431189603609 ) ) ;
#377 = VERTEX_POINT ( 'NONE', #431 ) ;
#378 = DIRECTION ( 'NONE',  ( 0.000000000000000000, 0.000000000000000000, 1.000000000000000000 ) ) ;
#379 = DIRECTION ( 'NONE',  ( 1.000000000000000000, 0.000000000000000000, 0.000000000000000000 ) ) ;
#380 = VERTEX_POINT ( 'NONE', #140 ) ;
#381 = DIRECTION ( 'NONE',  ( 1.000000000000000000, 0.000000000000000000, 0.000000000000000000 ) ) ;
#382 = ORIENTED_EDGE ( 'NONE', *, *, #520, .F. ) ;
#383 = CARTESIAN_POINT ( 'NONE',  ( 65.50000000000001421, 14.20000000000000107, 3.200000000000000622 ) ) ;
#384 = ORIENTED_EDGE ( 'NONE', *, *, #119, .T. ) ;
#385 = CIRCLE ( 'NONE', #6, 0.4500000000000059508 ) ;
#386 = CARTESIAN_POINT ( 'NONE',  ( 65.50000000000001421, 17.00000000000000000, 3.200000000000000622 ) ) ;
#387 = APPROVAL_PERSON_ORGANIZATION ( #168, #16, #365 ) ;
#388 = ORIENTED_EDGE ( 'NONE', *, *, #216, .T. ) ;
#389 = EDGE_CURVE ( 'NONE', #377, #349, #307, .T. ) ;
#390 = LINE ( 'NONE', #469, #375 ) ;
#391 = ORIENTED_EDGE ( 'NONE', *, *, #389, .F. ) ;
#392 = CIRCLE ( 'NONE', #120, 0.4500000000000059508 ) ;
#393 = APPROVAL_STATUS ( 'not_yet_approved' ) ;
#394 = ORIENTED_EDGE ( 'NONE', *, *, #77, .F. ) ;
#395 = DIRECTION ( 'NONE',  ( 1.000000000000000000, -3.652049423109053529E-16, -0.000000000000000000 ) ) ;
#396 = AXIS2_PLACEMENT_3D ( 'NONE', #449, #327, #252 ) ;
#397 = LINE ( 'NONE', #117, #155 ) ;
#398 = DIRECTION ( 'NONE',  ( 0.000000000000000000, 0.000000000000000000, 1.000000000000000000 ) ) ;
#399 = DIRECTION ( 'NONE',  ( -7.304098846218107057E-16, 1.000000000000000000, 0.000000000000000000 ) ) ;
#400 = DIRECTION ( 'NONE',  ( 1.000000000000000000, 0.000000000000000000, 0.000000000000000000 ) ) ;
#401 = DIRECTION ( 'NONE',  ( 0.000000000000000000, -1.000000000000000000, -0.000000000000000000 ) ) ;
#402 = APPLICATION_PROTOCOL_DEFINITION ( 'international standard', 'config_control_design', 1994, #313 ) ;
#403 = DIRECTION ( 'NONE',  ( 0.000000000000000000, 0.000000000000000000, -1.000000000000000000 ) ) ;
#404 = EDGE_CURVE ( 'NONE', #63, #217, #218, .T. ) ;
#405 = COORDINATED_UNIVERSAL_TIME_OFFSET ( 1, 0, .AHEAD. ) ;
#406 = EDGE_CURVE ( 'NONE', #224, #63, #277, .T. ) ;
#407 = CARTESIAN_POINT ( 'NONE',  ( 67.64996049767272268, 16.55244256536781577, 5.297859777205288445 ) ) ;
#408 = DIRECTION ( 'NONE',  ( 1.000000000000000000, -3.652049423109053529E-16, -0.000000000000000000 ) ) ;
#409 = APPROVAL ( #75, 'Deckungsgleich' ) ;
#410 = B_SPLINE_CURVE_WITH_KNOTS ( 'NONE', 3,
 ( #455, #253, #129, #288 ),
 .UNSPECIFIED., .F., .F.,
 ( 4, 4 ),
 ( 2.614555175498044310E-07, 0.0002603645446509869252 ),
 .UNSPECIFIED. ) ;
#411 = APPROVAL_STATUS ( 'not_yet_approved' ) ;
#412 = PLANE ( 'NONE',  #235 ) ;
#413 = ORIENTED_EDGE ( 'NONE', *, *, #196, .T. ) ;
#414 = AXIS2_PLACEMENT_3D ( 'NONE', #178, #345, #379 ) ;
#415 = VECTOR ( 'NONE', #243, 1000.000000000000000 ) ;
#416 = CARTESIAN_POINT ( 'NONE',  ( 67.55625000000001990, 17.42642225258539668, 4.200000000000001066 ) ) ;
#417 = ORIENTED_EDGE ( 'NONE', *, *, #500, .T. ) ;
#418 = CARTESIAN_POINT ( 'NONE',  ( 68.26360272108711058, 17.45000000000000284, 4.200000000000000178 ) ) ;
#419 = ORIENTED_EDGE ( 'NONE', *, *, #406, .F. ) ;
#420 = ADVANCED_FACE ( 'NONE', ( #304 ), #96, .T. ) ;
#421 = DIRECTION ( 'NONE',  ( -1.000000000000000000, 0.000000000000000000, 0.000000000000000000 ) ) ;
#422 = ORIENTED_EDGE ( 'NONE', *, *, #119, .F. ) ;
#423 = CARTESIAN_POINT ( 'NONE',  ( 67.68549950300669593, 16.55023368780337734, 5.700761060381648981 ) ) ;
#424 = EDGE_CURVE ( 'NONE', #102, #303, #58, .T. ) ;
#425 = ORIENTED_EDGE ( 'NONE', *, *, #444, .T. ) ;
#426 = CYLINDRICAL_SURFACE ( 'NONE', #414, 0.4500000000000059508 ) ;
#427 = VERTEX_POINT ( 'NONE', #423 ) ;
#428 = PLANE ( 'NONE',  #296 ) ;
#429 = ORIENTED_EDGE ( 'NONE', *, *, #233, .T. ) ;
#430 = EDGE_CURVE ( 'NONE', #299, #297, #341, .T. ) ;
#431 = CARTESIAN_POINT ( 'NONE',  ( 65.50000000000001421, 19.80000000000000426, 3.200000000000000622 ) ) ;
#432 = EDGE_LOOP ( 'NONE', ( #499, #248, #353, #464 ) ) ;
#433 = DIRECTION ( 'NONE',  ( -0.000000000000000000, -0.000000000000000000, -1.000000000000000000 ) ) ;
#434 = VERTEX_POINT ( 'NONE', #99 ) ;
#435 = DATE_AND_TIME ( #514, #183 ) ;
#436 = CARTESIAN_POINT ( 'NONE',  ( 67.70000000000001705, 16.54999999999999716, 3.200000000000000622 ) ) ;
#437 = CIRCLE ( 'NONE', #300, 2.100000000000004530 ) ;
#438 = VECTOR ( 'NONE', #87, 1000.000000000000000 ) ;
#439 = DIRECTION ( 'NONE',  ( 0.000000000000000000, 0.000000000000000000, 1.000000000000000000 ) ) ;
#440 = PLANE ( 'NONE',  #210 ) ;
#441 = CARTESIAN_POINT ( 'NONE',  ( 67.68549950300669593, 17.44976631219662622, 5.700761060381651646 ) ) ;
#442 = DATE_TIME_ROLE ( 'creation_date' ) ;
#443 = CARTESIAN_POINT ( 'NONE',  ( 69.32458504642511343, 16.54999999999999716, 3.200000000000000622 ) ) ;
#444 = EDGE_CURVE ( 'NONE', #377, #63, #390, .T. ) ;
#445 = LINE ( 'NONE', #199, #371 ) ;
#446 = SECURITY_CLASSIFICATION_LEVEL ( 'unclassified' ) ;
#447 = CARTESIAN_POINT ( 'NONE',  ( 65.50000000000001421, 16.54999999999999716, 4.200000000000000178 ) ) ;
#448 = APPROVAL ( #393, 'Deckungsgleich' ) ;
#449 = CARTESIAN_POINT ( 'NONE',  ( 65.50000000000001421, 17.00000000000000000, 5.900000000000000355 ) ) ;
#450 = ORIENTED_EDGE ( 'NONE', *, *, #444, .F. ) ;
#451 = CARTESIAN_POINT ( 'NONE',  ( 65.50000000000001421, 14.20000000000000107, 4.200000000000000178 ) ) ;
#452 = ORIENTED_EDGE ( 'NONE', *, *, #64, .T. ) ;
#453 = AXIS2_PLACEMENT_3D ( 'NONE', #202, #3, #292 ) ;
#454 = ADVANCED_FACE ( 'NONE', ( #266 ), #428, .T. ) ;
#455 = CARTESIAN_POINT ( 'NONE',  ( 67.52229186042650610, 16.58657550008577886, 5.900000000000000355 ) ) ;
#456 = ORIENTED_EDGE ( 'NONE', *, *, #158, .T. ) ;
#457 = CARTESIAN_POINT ( 'NONE',  ( 65.50000000000001421, 14.19999999999999929, 3.200000000000000622 ) ) ;
#458 = ORIENTED_EDGE ( 'NONE', *, *, #474, .F. ) ;
#459 = EDGE_CURVE ( 'NONE', #259, #191, #485, .T. ) ;
#460 = DIRECTION ( 'NONE',  ( -1.000000000000000000, 0.000000000000000000, 0.000000000000000000 ) ) ;
#461 = ORIENTED_EDGE ( 'NONE', *, *, #77, .T. ) ;
#462 = VECTOR ( 'NONE', #4, 1000.000000000000000 ) ;
#463 = DIRECTION ( 'NONE',  ( 0.000000000000000000, 0.000000000000000000, 1.000000000000000000 ) ) ;
#464 = ORIENTED_EDGE ( 'NONE', *, *, #256, .F. ) ;
#465 = DIRECTION ( 'NONE',  ( 0.000000000000000000, 0.000000000000000000, 1.000000000000000000 ) ) ;
#466 = VERTEX_POINT ( 'NONE', #351 ) ;
#467 = CARTESIAN_POINT ( 'NONE',  ( 60.75000000000000000, 19.80000000000000071, 3.200000000000000622 ) ) ;
#468 = ORIENTED_EDGE ( 'NONE', *, *, #367, .F. ) ;
#469 = CARTESIAN_POINT ( 'NONE',  ( 65.50000000000001421, 19.80000000000000426, 3.200000000000000622 ) ) ;
#470 = EDGE_LOOP ( 'NONE', ( #394, #388, #214 ) ) ;
#471 = DATE_AND_TIME ( #197, #226 ) ;
#472 = APPLICATION_CONTEXT ( 'configuration controlled 3d designs of mechanical parts and assemblies' ) ;
#473 = VERTEX_POINT ( 'NONE', #62 ) ;
#474 = EDGE_CURVE ( 'NONE', #434, #374, #306, .T. ) ;
#475 = APPROVAL_ROLE ( '' ) ;
#476 = LINE ( 'NONE', #112, #415 ) ;
#477 = MECHANICAL_CONTEXT ( 'NONE', #472, 'mechanical' ) ;
#478 = B_SPLINE_CURVE_WITH_KNOTS ( 'NONE', 3,
 ( #83, #338, #488, #52 ),
 .UNSPECIFIED., .F., .F.,
 ( 4, 4 ),
 ( 2.607668176522292060E-07, 0.0002603638559510893045 ),
 .UNSPECIFIED. ) ;
#479 = AXIS2_PLACEMENT_3D ( 'NONE', #443, #401, #403 ) ;
#480 = FACE_OUTER_BOUND ( 'NONE', #432, .T. ) ;
#481 = CC_DESIGN_APPROVAL ( #409, ( #22 ) ) ;
#482 = COORDINATED_UNIVERSAL_TIME_OFFSET ( 1, 0, .AHEAD. ) ;
#483 = ADVANCED_FACE ( 'NONE', ( #363 ), #440, .F. ) ;
#484 = CARTESIAN_POINT ( 'NONE',  ( 67.58120200679879019, 16.56516624694627637, 4.498783825751528909 ) ) ;
#485 = CIRCLE ( 'NONE', #93, 0.4500000000000059508 ) ;
#486 =( LENGTH_UNIT ( ) NAMED_UNIT ( * ) SI_UNIT ( .MILLI., .METRE. ) );
#487 = CARTESIAN_POINT ( 'NONE',  ( 68.26360272108711058, 17.45000000000000284, 3.200000000000000622 ) ) ;
#488 = CARTESIAN_POINT ( 'NONE',  ( 67.57450535970706085, 17.43586817178102066, 5.833678036521266819 ) ) ;
#489 = AXIS2_PLACEMENT_3D ( 'NONE', #492, #378, #12 ) ;
#490 = CALENDAR_DATE ( 2026, 4, 4 ) ;
#491 = DIRECTION ( 'NONE',  ( 0.000000000000000000, 0.000000000000000000, 1.000000000000000000 ) ) ;
#492 = CARTESIAN_POINT ( 'NONE',  ( 65.50000000000001421, 17.00000000000000000, 5.900000000000000355 ) ) ;
#493 = ORIENTED_EDGE ( 'NONE', *, *, #498, .T. ) ;
#494 = PERSON_AND_ORGANIZATION ( #18446744073709551615, #18446744073709551615 ) ;
#495 = CARTESIAN_POINT ( 'NONE',  ( 67.70000000000001705, 17.45000000000000284, 4.200000000000000178 ) ) ;
#496 = ORIENTED_EDGE ( 'NONE', *, *, #144, .T. ) ;
#497 = CYLINDRICAL_SURFACE ( 'NONE', #249, 2.799999999999997158 ) ;
#498 = EDGE_CURVE ( 'NONE', #191, #224, #33, .T. ) ;
#499 = ORIENTED_EDGE ( 'NONE', *, *, #311, .T. ) ;
#500 = EDGE_CURVE ( 'NONE', #513, #299, #71, .T. ) ;
#501 = DIRECTION ( 'NONE',  ( 0.000000000000000000, 0.000000000000000000, 1.000000000000000000 ) ) ;
#502 = FACE_OUTER_BOUND ( 'NONE', #211, .T. ) ;
#503 = ORIENTED_EDGE ( 'NONE', *, *, #212, .F. ) ;
#504 = VECTOR ( 'NONE', #298, 1000.000000000000000 ) ;
#505 = CIRCLE ( 'NONE', #344, 2.799999999999997158 ) ;
#506 = DIRECTION ( 'NONE',  ( -1.000000000000000000, 0.000000000000000000, 0.000000000000000000 ) ) ;
#507 = ORIENTED_EDGE ( 'NONE', *, *, #80, .T. ) ;
#508 = DIRECTION ( 'NONE',  ( 1.000000000000000000, 0.000000000000000000, 0.000000000000000000 ) ) ;
#509 = ORIENTED_EDGE ( 'NONE', *, *, #424, .F. ) ;
#510 = AXIS2_PLACEMENT_3D ( 'NONE', #151, #229, #400 ) ;
#511 = EDGE_CURVE ( 'NONE', #513, #82, #192, .T. ) ;
#512 = CARTESIAN_POINT ( 'NONE',  ( 69.32458504642511343, 17.45000000000000284, 3.200000000000000622 ) ) ;
#513 = VERTEX_POINT ( 'NONE', #322 ) ;
#514 = CALENDAR_DATE ( 2026, 4, 4 ) ;
#515 = ORIENTED_EDGE ( 'NONE', *, *, #124, .F. ) ;
#516 = ADVANCED_FACE ( 'NONE', ( #37 ), #159, .T. ) ;
#517 = CARTESIAN_POINT ( 'NONE',  ( 60.75000000000000000, 19.80000000000000071, 3.200000000000000622 ) ) ;
#518 = PERSON_AND_ORGANIZATION ( #18446744073709551615, #18446744073709551615 ) ;
#519 = FACE_OUTER_BOUND ( 'NONE', #61, .T. ) ;
#520 = EDGE_CURVE ( 'NONE', #303, #20, #392, .T. ) ;
#521 = CIRCLE ( 'NONE', #236, 0.4500000000000059508 ) ;
#522 = CARTESIAN_POINT ( 'NONE',  ( 63.43588174130539414, 17.00000000000000000, 5.900000000000000355 ) ) ;
ENDSEC;
END-ISO-10303-21;
