ISO-10303-21;
HEADER;
FILE_DESCRIPTION (( 'STEP AP203' ),
    '1' );
FILE_NAME ('uSD2PSX Stiffener REF2018.STEP',
    '2026-04-04T17:36:22',
    ( '' ),
    ( '' ),
    'SwSTEP 2.0',
    'SolidWorks 2026',
    '' );
FILE_SCHEMA (( 'CONFIG_CONTROL_DESIGN' ));
ENDSEC;

DATA;
#1 = AXIS2_PLACEMENT_3D ( 'NONE', #723, #31, #437 ) ;
#2 = CARTESIAN_POINT ( 'NONE',  ( -0.9999999999999997780, -24.99999999999999645, 0.4000000000000000222 ) ) ;
#3 = EDGE_CURVE ( 'NONE', #261, #154, #745, .T. ) ;
#4 = CARTESIAN_POINT ( 'NONE',  ( -20.99999999999999645, -26.00000000000000000, 0.000000000000000000 ) ) ;
#5 = LINE ( 'NONE', #590, #166 ) ;
#6 = PRODUCT_DEFINITION ( 'Allgemein', '', #55, #424 ) ;
#7 = ORIENTED_EDGE ( 'NONE', *, *, #11, .F. ) ;
#8 = DIRECTION ( 'NONE',  ( 0.000000000000000000, -0.000000000000000000, -1.000000000000000000 ) ) ;
#9 = CIRCLE ( 'NONE', #586, 1.000000000000000000 ) ;
#10 = DIRECTION ( 'NONE',  ( 1.000000000000000000, 1.476360405086644556E-16, -0.000000000000000000 ) ) ;
#11 = EDGE_CURVE ( 'NONE', #485, #261, #601, .T. ) ;
#12 = ORIENTED_EDGE ( 'NONE', *, *, #354, .F. ) ;
#13 = DIRECTION ( 'NONE',  ( 1.000000000000000000, 0.000000000000000000, 0.000000000000000000 ) ) ;
#14 = AXIS2_PLACEMENT_3D ( 'NONE', #234, #400, #565 ) ;
#15 = CARTESIAN_POINT ( 'NONE',  ( -0.9999999999999997780, -24.99999999999999645, 0.000000000000000000 ) ) ;
#16 = EDGE_LOOP ( 'NONE', ( #301, #587, #433, #525 ) ) ;
#17 = DIRECTION ( 'NONE',  ( 1.000000000000000000, 0.000000000000000000, 0.000000000000000000 ) ) ;
#18 = AXIS2_PLACEMENT_3D ( 'NONE', #679, #357, #449 ) ;
#19 = FACE_OUTER_BOUND ( 'NONE', #379, .T. ) ;
#20 = APPROVAL_PERSON_ORGANIZATION ( #264, #84, #387 ) ;
#21 = ORIENTED_EDGE ( 'NONE', *, *, #743, .T. ) ;
#22 = CARTESIAN_POINT ( 'NONE',  ( -19.00000000000000355, -2.500000000000002220, 0.000000000000000000 ) ) ;
#23 = CYLINDRICAL_SURFACE ( 'NONE', #43, 0.5000000000000004441 ) ;
#24 = ORIENTED_EDGE ( 'NONE', *, *, #359, .F. ) ;
#25 = ORIENTED_EDGE ( 'NONE', *, *, #99, .F. ) ;
#26 = CARTESIAN_POINT ( 'NONE',  ( -17.80000000000000071, -19.00000000000000000, 0.000000000000000000 ) ) ;
#27 = AXIS2_PLACEMENT_3D ( 'NONE', #518, #167, #280 ) ;
#28 = ORIENTED_EDGE ( 'NONE', *, *, #136, .F. ) ;
#29 =( NAMED_UNIT ( * ) SI_UNIT ( $, .STERADIAN. ) SOLID_ANGLE_UNIT ( ) );
#30 = EDGE_LOOP ( 'NONE', ( #547, #249, #670, #551 ) ) ;
#31 = DIRECTION ( 'NONE',  ( 0.000000000000000000, -0.000000000000000000, 1.000000000000000000 ) ) ;
#32 = VERTEX_POINT ( 'NONE', #87 ) ;
#33 = APPLICATION_PROTOCOL_DEFINITION ( 'international standard', 'config_control_design', 1994, #127 ) ;
#34 = VERTEX_POINT ( 'NONE', #319 ) ;
#35 = DIRECTION ( 'NONE',  ( -6.938893903907227392E-16, -1.000000000000000000, -0.000000000000000000 ) ) ;
#36 = ORIENTED_EDGE ( 'NONE', *, *, #604, .F. ) ;
#37 = EDGE_LOOP ( 'NONE', ( #130, #259, #618, #36 ) ) ;
#38 = EDGE_CURVE ( 'NONE', #611, #504, #494, .T. ) ;
#39 = LINE ( 'NONE', #95, #193 ) ;
#40 = ORIENTED_EDGE ( 'NONE', *, *, #539, .F. ) ;
#41 = EDGE_CURVE ( 'NONE', #312, #529, #749, .T. ) ;
#42 = PERSON_AND_ORGANIZATION_ROLE ( 'creator' ) ;
#43 = AXIS2_PLACEMENT_3D ( 'NONE', #175, #406, #638 ) ;
#44 = DIRECTION ( 'NONE',  ( 1.476360405086644556E-16, -1.000000000000000000, 0.000000000000000000 ) ) ;
#45 = ORIENTED_EDGE ( 'NONE', *, *, #90, .F. ) ;
#46 = CALENDAR_DATE ( 2026, 4, 4 ) ;
#47 = FACE_BOUND ( 'NONE', #697, .T. ) ;
#48 = CARTESIAN_POINT ( 'NONE',  ( -7.800000000000001599, -19.50000000000000000, 0.4000000000000000222 ) ) ;
#49 = COORDINATED_UNIVERSAL_TIME_OFFSET ( 1, 0, .AHEAD. ) ;
#50 = VECTOR ( 'NONE', #641, 1000.000000000000000 ) ;
#51 = DIRECTION ( 'NONE',  ( -0.000000000000000000, -0.000000000000000000, 1.000000000000000000 ) ) ;
#52 = VECTOR ( 'NONE', #51, 1000.000000000000000 ) ;
#53 = CARTESIAN_POINT ( 'NONE',  ( -7.300000000000000711, -23.50000000000000000, 0.4000000000000000222 ) ) ;
#54 = CIRCLE ( 'NONE', #384, 0.5000000000000004441 ) ;
#55 = PRODUCT_DEFINITION_FORMATION_WITH_SPECIFIED_SOURCE ( 'Symmetrisch', '', #719, .NOT_KNOWN. ) ;
#56 = DIRECTION ( 'NONE',  ( 0.000000000000000000, -0.000000000000000000, 1.000000000000000000 ) ) ;
#57 = CARTESIAN_POINT ( 'NONE',  ( -1.000000000000000888, -26.00000000000000000, 0.000000000000000000 ) ) ;
#58 = EDGE_CURVE ( 'NONE', #556, #611, #120, .T. ) ;
#59 = FACE_OUTER_BOUND ( 'NONE', #314, .T. ) ;
#60 = LINE ( 'NONE', #402, #153 ) ;
#61 = CARTESIAN_POINT ( 'NONE',  ( -17.80000000000000071, -19.50000000000000000, 0.4000000000000000222 ) ) ;
#62 = VERTEX_POINT ( 'NONE', #348 ) ;
#63 = CARTESIAN_POINT ( 'NONE',  ( -18.30000000000000426, -23.50000000000000000, 0.000000000000000000 ) ) ;
#64 = EDGE_CURVE ( 'NONE', #268, #501, #317, .T. ) ;
#65 = DIRECTION ( 'NONE',  ( 0.000000000000000000, -0.000000000000000000, 1.000000000000000000 ) ) ;
#66 = EDGE_LOOP ( 'NONE', ( #125, #7, #138, #722 ) ) ;
#67 = DIRECTION ( 'NONE',  ( 1.000000000000000000, 0.000000000000000000, 0.000000000000000000 ) ) ;
#68 = AXIS2_PLACEMENT_3D ( 'NONE', #418, #10, #248 ) ;
#69 = LINE ( 'NONE', #579, #561 ) ;
#70 = ORIENTED_EDGE ( 'NONE', *, *, #689, .T. ) ;
#71 = DIRECTION ( 'NONE',  ( 0.000000000000000000, -0.000000000000000000, 1.000000000000000000 ) ) ;
#72 = PLANE ( 'NONE',  #436 ) ;
#73 = VECTOR ( 'NONE', #718, 1000.000000000000000 ) ;
#74 = ORIENTED_EDGE ( 'NONE', *, *, #733, .F. ) ;
#75 = EDGE_CURVE ( 'NONE', #189, #32, #352, .T. ) ;
#76 = CARTESIAN_POINT ( 'NONE',  ( -17.80000000000000426, -24.00000000000000000, 0.000000000000000000 ) ) ;
#77 = VERTEX_POINT ( 'NONE', #403 ) ;
#78 = DIRECTION ( 'NONE',  ( 0.000000000000000000, -0.000000000000000000, 1.000000000000000000 ) ) ;
#79 = ORIENTED_EDGE ( 'NONE', *, *, #200, .T. ) ;
#80 = CARTESIAN_POINT ( 'NONE',  ( -17.80000000000000071, -19.00000000000000000, 0.000000000000000000 ) ) ;
#81 = ORIENTED_EDGE ( 'NONE', *, *, #200, .F. ) ;
#82 = LINE ( 'NONE', #660, #446 ) ;
#83 = ORIENTED_EDGE ( 'NONE', *, *, #233, .T. ) ;
#84 = APPROVAL ( #104, 'Deckungsgleich' ) ;
#85 = CARTESIAN_POINT ( 'NONE',  ( -20.99999999999999645, -26.00000000000000000, 0.4000000000000000222 ) ) ;
#86 = AXIS2_PLACEMENT_3D ( 'NONE', #571, #628, #625 ) ;
#87 = CARTESIAN_POINT ( 'NONE',  ( -18.50000000000000355, -2.111341072734930186E-15, 0.000000000000000000 ) ) ;
#88 = ORIENTED_EDGE ( 'NONE', *, *, #3, .T. ) ;
#89 = PLANE ( 'NONE',  #401 ) ;
#90 = EDGE_CURVE ( 'NONE', #642, #202, #687, .T. ) ;
#91 = AXIS2_PLACEMENT_3D ( 'NONE', #173, #405, #8 ) ;
#92 = ORIENTED_EDGE ( 'NONE', *, *, #283, .T. ) ;
#93 = SECURITY_CLASSIFICATION ( '', '', #452 ) ;
#94 = EDGE_LOOP ( 'NONE', ( #439, #728, #448, #429 ) ) ;
#95 = CARTESIAN_POINT ( 'NONE',  ( -18.30000000000000426, -24.00000000000000000, 0.000000000000000000 ) ) ;
#96 = ORIENTED_EDGE ( 'NONE', *, *, #213, .F. ) ;
#97 = DIRECTION ( 'NONE',  ( 0.000000000000000000, 0.000000000000000000, 1.000000000000000000 ) ) ;
#98 = ORIENTED_EDGE ( 'NONE', *, *, #539, .T. ) ;
#99 = EDGE_CURVE ( 'NONE', #444, #714, #395, .T. ) ;
#100 = APPROVAL_ROLE ( '' ) ;
#101 = VECTOR ( 'NONE', #693, 1000.000000000000000 ) ;
#102 = PLANE ( 'NONE',  #461 ) ;
#103 = DIRECTION ( 'NONE',  ( -1.000000000000000000, 0.000000000000000000, 0.000000000000000000 ) ) ;
#104 = APPROVAL_STATUS ( 'not_yet_approved' ) ;
#105 = LINE ( 'NONE', #172, #700 ) ;
#106 = AXIS2_PLACEMENT_3D ( 'NONE', #2, #680, #103 ) ;
#107 = DIRECTION ( 'NONE',  ( -0.000000000000000000, 0.000000000000000000, -1.000000000000000000 ) ) ;
#108 = DIRECTION ( 'NONE',  ( -6.938893903907227392E-16, -1.000000000000000000, -0.000000000000000000 ) ) ;
#109 = VECTOR ( 'NONE', #643, 1000.000000000000000 ) ;
#110 = EDGE_CURVE ( 'NONE', #591, #668, #231, .T. ) ;
#111 = FACE_OUTER_BOUND ( 'NONE', #30, .T. ) ;
#112 = LOCAL_TIME ( 19, 36, 22.00000000000000000, #320 ) ;
#113 = EDGE_CURVE ( 'NONE', #556, #591, #105, .T. ) ;
#114 = DIRECTION ( 'NONE',  ( 0.000000000000000000, 0.000000000000000000, -1.000000000000000000 ) ) ;
#115 = PRODUCT_RELATED_PRODUCT_CATEGORY ( 'detail', '', ( #719 ) ) ;
#116 = DIRECTION ( 'NONE',  ( 0.000000000000000000, -0.000000000000000000, 1.000000000000000000 ) ) ;
#117 = DIRECTION ( 'NONE',  ( -0.000000000000000000, -0.000000000000000000, 1.000000000000000000 ) ) ;
#118 = LINE ( 'NONE', #453, #365 ) ;
#119 = ADVANCED_FACE ( 'NONE', ( #343 ), #285, .F. ) ;
#120 = CIRCLE ( 'NONE', #86, 1.000000000000000888 ) ;
#121 = CARTESIAN_POINT ( 'NONE',  ( 0.000000000000000000, -0.5000000000000004441, 0.4000000000000000222 ) ) ;
#122 = ORIENTED_EDGE ( 'NONE', *, *, #736, .T. ) ;
#123 = LINE ( 'NONE', #221, #322 ) ;
#124 = DIRECTION ( 'NONE',  ( 1.000000000000000000, 1.445602896647339903E-16, 0.000000000000000000 ) ) ;
#125 = ORIENTED_EDGE ( 'NONE', *, *, #3, .F. ) ;
#126 = CARTESIAN_POINT ( 'NONE',  ( -18.30000000000000071, -19.50000000000000000, 0.4000000000000000222 ) ) ;
#127 = APPLICATION_CONTEXT ( 'configuration controlled 3d designs of mechanical parts and assemblies' ) ;
#128 = ADVANCED_FACE ( 'NONE', ( #59 ), #287, .F. ) ;
#129 = DIRECTION ( 'NONE',  ( 1.000000000000000000, 0.000000000000000000, 0.000000000000000000 ) ) ;
#130 = ORIENTED_EDGE ( 'NONE', *, *, #233, .F. ) ;
#131 = DIRECTION ( 'NONE',  ( 1.000000000000000000, 0.000000000000000000, 0.000000000000000000 ) ) ;
#132 = LINE ( 'NONE', #309, #101 ) ;
#133 = AXIS2_PLACEMENT_3D ( 'NONE', #295, #637, #581 ) ;
#134 = ORIENTED_EDGE ( 'NONE', *, *, #712, .F. ) ;
#135 = VERTEX_POINT ( 'NONE', #516 ) ;
#136 = EDGE_CURVE ( 'NONE', #327, #426, #669, .T. ) ;
#137 = DIRECTION ( 'NONE',  ( 1.000000000000000000, 0.000000000000000000, -0.000000000000000000 ) ) ;
#138 = ORIENTED_EDGE ( 'NONE', *, *, #650, .F. ) ;
#139 = DIRECTION ( 'NONE',  ( 0.000000000000000000, -1.000000000000000000, 0.000000000000000000 ) ) ;
#140 = ORIENTED_EDGE ( 'NONE', *, *, #468, .F. ) ;
#141 = CARTESIAN_POINT ( 'NONE',  ( -7.800000000000001599, -24.00000000000000000, 0.4000000000000000222 ) ) ;
#142 = CIRCLE ( 'NONE', #725, 0.5000000000000004441 ) ;
#143 = VERTEX_POINT ( 'NONE', #459 ) ;
#144 = DIRECTION ( 'NONE',  ( -1.000000000000000000, 0.000000000000000000, 0.000000000000000000 ) ) ;
#145 = EDGE_LOOP ( 'NONE', ( #40, #151, #263, #294 ) ) ;
#146 = EDGE_CURVE ( 'NONE', #77, #327, #691, .T. ) ;
#147 = PLANE ( 'NONE',  #1 ) ;
#148 = VECTOR ( 'NONE', #742, 1000.000000000000000 ) ;
#149 = ORIENTED_EDGE ( 'NONE', *, *, #90, .T. ) ;
#150 = PERSON_AND_ORGANIZATION ( #18446744073709551615, #18446744073709551615 ) ;
#151 = ORIENTED_EDGE ( 'NONE', *, *, #110, .F. ) ;
#152 = CARTESIAN_POINT ( 'NONE',  ( -7.300000000000000711, -24.00000000000000000, 0.4000000000000000222 ) ) ;
#153 = VECTOR ( 'NONE', #291, 1000.000000000000000 ) ;
#154 = VERTEX_POINT ( 'NONE', #576 ) ;
#155 = CC_DESIGN_APPROVAL ( #391, ( #6 ) ) ;
#156 = CALENDAR_DATE ( 2026, 4, 4 ) ;
#157 = CYLINDRICAL_SURFACE ( 'NONE', #333, 0.5000000000000004441 ) ;
#158 = ADVANCED_FACE ( 'NONE', ( #521 ), #569, .T. ) ;
#159 = ORIENTED_EDGE ( 'NONE', *, *, #171, .T. ) ;
#160 = DATE_TIME_ROLE ( 'creation_date' ) ;
#161 = DIRECTION ( 'NONE',  ( -1.000000000000000000, -0.000000000000000000, -0.000000000000000000 ) ) ;
#162 = DIRECTION ( 'NONE',  ( -0.000000000000000000, -0.000000000000000000, 1.000000000000000000 ) ) ;
#163 = DATE_AND_TIME ( #607, #506 ) ;
#164 = DIRECTION ( 'NONE',  ( 0.000000000000000000, 0.000000000000000000, -1.000000000000000000 ) ) ;
#165 = DIRECTION ( 'NONE',  ( 1.000000000000000000, 0.000000000000000000, 0.000000000000000000 ) ) ;
#166 = VECTOR ( 'NONE', #595, 1000.000000000000000 ) ;
#167 = DIRECTION ( 'NONE',  ( 0.000000000000000000, 0.000000000000000000, 1.000000000000000000 ) ) ;
#168 = ADVANCED_FACE ( 'NONE', ( #338 ), #222, .T. ) ;
#169 = LINE ( 'NONE', #276, #246 ) ;
#170 = VECTOR ( 'NONE', #447, 1000.000000000000000 ) ;
#171 = EDGE_CURVE ( 'NONE', #143, #372, #686, .T. ) ;
#172 = CARTESIAN_POINT ( 'NONE',  ( -22.00000000000000000, -26.00000000000000000, 0.000000000000000000 ) ) ;
#173 = CARTESIAN_POINT ( 'NONE',  ( -18.30000000000000071, -19.00000000000000000, 0.4000000000000000222 ) ) ;
#174 = CC_DESIGN_APPROVAL ( #464, ( #93 ) ) ;
#175 = CARTESIAN_POINT ( 'NONE',  ( -18.50000000000000355, -0.5000000000000021094, 0.4000000000000000222 ) ) ;
#176 = PLANE ( 'NONE',  #133 ) ;
#177 = CARTESIAN_POINT ( 'NONE',  ( 0.000000000000000000, 0.000000000000000000, 0.4000000000000000222 ) ) ;
#178 = ORIENTED_EDGE ( 'NONE', *, *, #58, .F. ) ;
#179 = CARTESIAN_POINT ( 'NONE',  ( 0.000000000000000000, -24.99999999999999645, 0.4000000000000000222 ) ) ;
#180 = DIRECTION ( 'NONE',  ( 1.000000000000000000, 0.000000000000000000, 0.000000000000000000 ) ) ;
#181 = ORIENTED_EDGE ( 'NONE', *, *, #750, .F. ) ;
#182 = FACE_OUTER_BOUND ( 'NONE', #382, .T. ) ;
#183 = VECTOR ( 'NONE', #752, 1000.000000000000000 ) ;
#184 = VECTOR ( 'NONE', #13, 1000.000000000000000 ) ;
#185 = PLANE ( 'NONE',  #299 ) ;
#186 = ORIENTED_EDGE ( 'NONE', *, *, #64, .T. ) ;
#187 = CARTESIAN_POINT ( 'NONE',  ( -21.50000000000000000, -3.000000000000002665, 0.000000000000000000 ) ) ;
#188 = FACE_OUTER_BOUND ( 'NONE', #550, .T. ) ;
#189 = VERTEX_POINT ( 'NONE', #746 ) ;
#190 = EDGE_CURVE ( 'NONE', #370, #207, #375, .T. ) ;
#191 = DIRECTION ( 'NONE',  ( 0.000000000000000000, 0.000000000000000000, -1.000000000000000000 ) ) ;
#192 = FACE_OUTER_BOUND ( 'NONE', #720, .T. ) ;
#193 = VECTOR ( 'NONE', #35, 1000.000000000000000 ) ;
#194 = ORIENTED_EDGE ( 'NONE', *, *, #58, .T. ) ;
#195 = CC_DESIGN_PERSON_AND_ORGANIZATION_ASSIGNMENT ( #613, #392, ( #55 ) ) ;
#196 = DIRECTION ( 'NONE',  ( 1.000000000000000000, 4.358492733391727825E-14, 0.000000000000000000 ) ) ;
#197 = ORIENTED_EDGE ( 'NONE', *, *, #559, .T. ) ;
#198 = CARTESIAN_POINT ( 'NONE',  ( -19.00000000000000355, -2.500000000000002220, 0.4000000000000000222 ) ) ;
#199 = EDGE_LOOP ( 'NONE', ( #663, #24, #28, #739 ) ) ;
#200 = EDGE_CURVE ( 'NONE', #541, #312, #629, .T. ) ;
#201 = DIRECTION ( 'NONE',  ( 1.000000000000000000, 0.000000000000000000, 0.000000000000000000 ) ) ;
#202 = VERTEX_POINT ( 'NONE', #304 ) ;
#203 = DIRECTION ( 'NONE',  ( -0.000000000000000000, -0.000000000000000000, 1.000000000000000000 ) ) ;
#204 = CIRCLE ( 'NONE', #267, 0.5000000000000004441 ) ;
#205 = CARTESIAN_POINT ( 'NONE',  ( -22.00000000000000000, -24.99999999999999645, 0.4000000000000000222 ) ) ;
#206 = DIRECTION ( 'NONE',  ( 1.000000000000000000, 0.000000000000000000, 0.000000000000000000 ) ) ;
#207 = VERTEX_POINT ( 'NONE', #236 ) ;
#208 = DIRECTION ( 'NONE',  ( -0.000000000000000000, -0.000000000000000000, 1.000000000000000000 ) ) ;
#209 = APPLICATION_CONTEXT ( 'configuration controlled 3d designs of mechanical parts and assemblies' ) ;
#210 = ORIENTED_EDGE ( 'NONE', *, *, #247, .F. ) ;
#211 = APPROVAL_DATE_TIME ( #740, #84 ) ;
#212 = ORIENTED_EDGE ( 'NONE', *, *, #288, .T. ) ;
#213 = EDGE_CURVE ( 'NONE', #642, #677, #142, .T. ) ;
#214 = CARTESIAN_POINT ( 'NONE',  ( -17.80000000000000426, -24.00000000000000000, 0.4000000000000000222 ) ) ;
#215 = VECTOR ( 'NONE', #486, 1000.000000000000000 ) ;
#216 = ORIENTED_EDGE ( 'NONE', *, *, #113, .F. ) ;
#217 = AXIS2_PLACEMENT_3D ( 'NONE', #533, #78, #17 ) ;
#218 = CARTESIAN_POINT ( 'NONE',  ( -22.00000000000000000, -24.99999999999999645, 0.000000000000000000 ) ) ;
#219 = EDGE_LOOP ( 'NONE', ( #431, #83, #45, #256, #12, #726, #244, #489 ) ) ;
#220 = DATE_TIME_ROLE ( 'classification_date' ) ;
#221 = CARTESIAN_POINT ( 'NONE',  ( -18.30000000000000071, -19.00000000000000000, 0.000000000000000000 ) ) ;
#222 = CYLINDRICAL_SURFACE ( 'NONE', #342, 0.5000000000000004441 ) ;
#223 = AXIS2_PLACEMENT_3D ( 'NONE', #574, #290, #682 ) ;
#224 = ADVANCED_BREP_SHAPE_REPRESENTATION ( 'uSD2PSX Stiffener REF2018', ( #328, #416 ), #675 ) ;
#225 = ADVANCED_FACE ( 'NONE', ( #653 ), #72, .F. ) ;
#226 = DATE_AND_TIME ( #156, #228 ) ;
#227 = CARTESIAN_POINT ( 'NONE',  ( -17.80000000000000071, -19.50000000000000000, 0.000000000000000000 ) ) ;
#228 = LOCAL_TIME ( 19, 36, 22.00000000000000000, #500 ) ;
#229 = ADVANCED_FACE ( 'NONE', ( #188 ), #360, .T. ) ;
#230 = CARTESIAN_POINT ( 'NONE',  ( -1.000000000000000888, -26.00000000000000000, 0.4000000000000000222 ) ) ;
#231 = LINE ( 'NONE', #230, #52 ) ;
#232 = CARTESIAN_POINT ( 'NONE',  ( -7.300000000000000711, -24.00000000000000000, 0.4000000000000000222 ) ) ;
#233 = EDGE_CURVE ( 'NONE', #135, #202, #695, .T. ) ;
#234 = CARTESIAN_POINT ( 'NONE',  ( -0.4999999999999998890, -0.5000000000000001110, 0.4000000000000000222 ) ) ;
#235 = DIRECTION ( 'NONE',  ( 1.476360405086644556E-16, -1.000000000000000000, 0.000000000000000000 ) ) ;
#236 = CARTESIAN_POINT ( 'NONE',  ( -18.30000000000000071, -19.50000000000000000, 0.000000000000000000 ) ) ;
#237 = VERTEX_POINT ( 'NONE', #76 ) ;
#238 = LINE ( 'NONE', #699, #109 ) ;
#239 = CARTESIAN_POINT ( 'NONE',  ( 0.000000000000000000, 0.000000000000000000, 0.4000000000000000222 ) ) ;
#240 = ORIENTED_EDGE ( 'NONE', *, *, #336, .T. ) ;
#241 = ORIENTED_EDGE ( 'NONE', *, *, #305, .T. ) ;
#242 = AXIS2_PLACEMENT_3D ( 'NONE', #48, #632, #751 ) ;
#243 = DIRECTION ( 'NONE',  ( -0.000000000000000000, 0.000000000000000000, -1.000000000000000000 ) ) ;
#244 = ORIENTED_EDGE ( 'NONE', *, *, #441, .F. ) ;
#245 = CARTESIAN_POINT ( 'NONE',  ( -0.4999999999999998890, -0.5000000000000001110, 0.000000000000000000 ) ) ;
#246 = VECTOR ( 'NONE', #235, 1000.000000000000000 ) ;
#247 = EDGE_CURVE ( 'NONE', #501, #419, #5, .T. ) ;
#248 = DIRECTION ( 'NONE',  ( -1.476360405086644556E-16, 1.000000000000000000, 0.000000000000000000 ) ) ;
#249 = ORIENTED_EDGE ( 'NONE', *, *, #41, .T. ) ;
#250 = EDGE_CURVE ( 'NONE', #34, #591, #9, .T. ) ;
#251 = CARTESIAN_POINT ( 'NONE',  ( -19.00000000000000355, -2.500000000000002220, 0.4000000000000000222 ) ) ;
#252 = CC_DESIGN_PERSON_AND_ORGANIZATION_ASSIGNMENT ( #729, #42, ( #6 ) ) ;
#253 = CARTESIAN_POINT ( 'NONE',  ( 0.000000000000000000, -26.00000000000000000, 0.000000000000000000 ) ) ;
#254 = ORIENTED_EDGE ( 'NONE', *, *, #568, .F. ) ;
#255 = DIRECTION ( 'NONE',  ( 0.000000000000000000, 0.000000000000000000, 1.000000000000000000 ) ) ;
#256 = ORIENTED_EDGE ( 'NONE', *, *, #213, .T. ) ;
#257 = FACE_OUTER_BOUND ( 'NONE', #583, .T. ) ;
#258 = EDGE_CURVE ( 'NONE', #734, #237, #204, .T. ) ;
#259 = ORIENTED_EDGE ( 'NONE', *, *, #404, .F. ) ;
#260 = CARTESIAN_POINT ( 'NONE',  ( -17.80000000000000071, -19.00000000000000000, 0.4000000000000000222 ) ) ;
#261 = VERTEX_POINT ( 'NONE', #527 ) ;
#262 = LINE ( 'NONE', #493, #273 ) ;
#263 = ORIENTED_EDGE ( 'NONE', *, *, #250, .F. ) ;
#264 = PERSON_AND_ORGANIZATION ( #18446744073709551615, #18446744073709551615 ) ;
#265 = ORIENTED_EDGE ( 'NONE', *, *, #568, .T. ) ;
#266 = CARTESIAN_POINT ( 'NONE',  ( -7.800000000000001599, -23.50000000000000000, 0.4000000000000000222 ) ) ;
#267 = AXIS2_PLACEMENT_3D ( 'NONE', #480, #65, #129 ) ;
#268 = VERTEX_POINT ( 'NONE', #534 ) ;
#269 = ADVANCED_FACE ( 'NONE', ( #19 ), #185, .F. ) ;
#270 = PERSON_AND_ORGANIZATION ( #18446744073709551615, #18446744073709551615 ) ;
#271 = ORIENTED_EDGE ( 'NONE', *, *, #303, .F. ) ;
#272 = LINE ( 'NONE', #214, #502 ) ;
#273 = VECTOR ( 'NONE', #203, 1000.000000000000000 ) ;
#274 = ORIENTED_EDGE ( 'NONE', *, *, #388, .T. ) ;
#275 = PERSON_AND_ORGANIZATION_ROLE ( 'classification_officer' ) ;
#276 = CARTESIAN_POINT ( 'NONE',  ( -22.00000000000000355, -2.500000000000002665, 0.000000000000000000 ) ) ;
#277 = ADVANCED_FACE ( 'NONE', ( #524 ), #350, .F. ) ;
#278 = ORIENTED_EDGE ( 'NONE', *, *, #659, .T. ) ;
#279 = CARTESIAN_POINT ( 'NONE',  ( 0.000000000000000000, -24.99999999999999645, 0.4000000000000000222 ) ) ;
#280 = DIRECTION ( 'NONE',  ( 1.000000000000000000, 0.000000000000000000, 0.000000000000000000 ) ) ;
#281 = APPROVAL_DATE_TIME ( #226, #391 ) ;
#282 = DIRECTION ( 'NONE',  ( 0.000000000000000000, -0.000000000000000000, 1.000000000000000000 ) ) ;
#283 = EDGE_CURVE ( 'NONE', #501, #143, #648, .T. ) ;
#284 = AXIS2_PLACEMENT_3D ( 'NONE', #458, #107, #511 ) ;
#285 = CYLINDRICAL_SURFACE ( 'NONE', #242, 0.5000000000000004441 ) ;
#286 = CIRCLE ( 'NONE', #217, 1.000000000000000888 ) ;
#287 = CYLINDRICAL_SURFACE ( 'NONE', #27, 0.5000000000000004441 ) ;
#288 = EDGE_CURVE ( 'NONE', #364, #541, #363, .T. ) ;
#289 = CARTESIAN_POINT ( 'NONE',  ( -22.00000000000000355, -2.500000000000002665, 0.4000000000000000222 ) ) ;
#290 = DIRECTION ( 'NONE',  ( 0.000000000000000000, -0.000000000000000000, 1.000000000000000000 ) ) ;
#291 = DIRECTION ( 'NONE',  ( 0.000000000000000000, -1.000000000000000000, 0.000000000000000000 ) ) ;
#292 = AXIS2_PLACEMENT_3D ( 'NONE', #266, #329, #732 ) ;
#293 = DIRECTION ( 'NONE',  ( 0.000000000000000000, -0.000000000000000000, 1.000000000000000000 ) ) ;
#294 = ORIENTED_EDGE ( 'NONE', *, *, #617, .F. ) ;
#295 = CARTESIAN_POINT ( 'NONE',  ( 0.000000000000000000, 0.000000000000000000, 0.000000000000000000 ) ) ;
#296 = CARTESIAN_POINT ( 'NONE',  ( -17.80000000000000426, -23.50000000000000000, 0.4000000000000000222 ) ) ;
#297 = ORIENTED_EDGE ( 'NONE', *, *, #678, .F. ) ;
#298 = DIRECTION ( 'NONE',  ( -0.000000000000000000, 0.000000000000000000, -1.000000000000000000 ) ) ;
#299 = AXIS2_PLACEMENT_3D ( 'NONE', #177, #409, #366 ) ;
#300 = DIRECTION ( 'NONE',  ( -1.000000000000000000, -1.141265444721583757E-16, 0.000000000000000000 ) ) ;
#301 = ORIENTED_EDGE ( 'NONE', *, *, #113, .T. ) ;
#302 = CARTESIAN_POINT ( 'NONE',  ( -22.00000000000000000, -26.00000000000000000, 0.4000000000000000222 ) ) ;
#303 = EDGE_CURVE ( 'NONE', #483, #268, #585, .T. ) ;
#304 = CARTESIAN_POINT ( 'NONE',  ( -18.30000000000000426, -23.50000000000000000, 0.4000000000000000222 ) ) ;
#305 = EDGE_CURVE ( 'NONE', #154, #356, #132, .T. ) ;
#306 = ORIENTED_EDGE ( 'NONE', *, *, #75, .T. ) ;
#307 = CYLINDRICAL_SURFACE ( 'NONE', #415, 0.5000000000000001110 ) ;
#308 = VECTOR ( 'NONE', #526, 1000.000000000000000 ) ;
#309 = CARTESIAN_POINT ( 'NONE',  ( -22.00000000000000355, -3.000000000000002665, 0.4000000000000000222 ) ) ;
#310 = ORIENTED_EDGE ( 'NONE', *, *, #617, .T. ) ;
#311 = CARTESIAN_POINT ( 'NONE',  ( -18.30000000000000426, -24.00000000000000000, 0.4000000000000000222 ) ) ;
#312 = VERTEX_POINT ( 'NONE', #413 ) ;
#313 = CARTESIAN_POINT ( 'NONE',  ( -7.800000000000001599, -19.00000000000000000, 0.4000000000000000222 ) ) ;
#314 = EDGE_LOOP ( 'NONE', ( #96, #474, #656, #472 ) ) ;
#315 =( LENGTH_UNIT ( ) NAMED_UNIT ( * ) SI_UNIT ( .MILLI., .METRE. ) );
#316 = ORIENTED_EDGE ( 'NONE', *, *, #450, .T. ) ;
#317 = CIRCLE ( 'NONE', #14, 0.5000000000000000000 ) ;
#318 = CARTESIAN_POINT ( 'NONE',  ( -19.00000000000000355, -2.500000000000002220, 0.000000000000000000 ) ) ;
#319 = CARTESIAN_POINT ( 'NONE',  ( 0.000000000000000000, -24.99999999999999645, 0.000000000000000000 ) ) ;
#320 = COORDINATED_UNIVERSAL_TIME_OFFSET ( 1, 0, .AHEAD. ) ;
#321 = ORIENTED_EDGE ( 'NONE', *, *, #736, .F. ) ;
#322 = VECTOR ( 'NONE', #161, 1000.000000000000000 ) ;
#323 = APPROVAL_PERSON_ORGANIZATION ( #339, #464, #681 ) ;
#324 = CARTESIAN_POINT ( 'NONE',  ( -18.30000000000000426, -24.00000000000000000, 0.4000000000000000222 ) ) ;
#325 = ORIENTED_EDGE ( 'NONE', *, *, #450, .F. ) ;
#326 = DATE_AND_TIME ( #626, #552 ) ;
#327 = VERTEX_POINT ( 'NONE', #645 ) ;
#328 = MANIFOLD_SOLID_BREP ( 'Basisteil-uSD2PSX_Base-1', #640 ) ;
#329 = DIRECTION ( 'NONE',  ( -0.000000000000000000, 0.000000000000000000, -1.000000000000000000 ) ) ;
#330 = EDGE_LOOP ( 'NONE', ( #265, #374, #707, #241 ) ) ;
#331 = ADVANCED_FACE ( 'NONE', ( #540 ), #23, .T. ) ;
#332 = CARTESIAN_POINT ( 'NONE',  ( -7.800000000000001599, -23.50000000000000000, 0.4000000000000000222 ) ) ;
#333 = AXIS2_PLACEMENT_3D ( 'NONE', #332, #667, #381 ) ;
#334 = ORIENTED_EDGE ( 'NONE', *, *, #652, .T. ) ;
#335 = PERSON_AND_ORGANIZATION_ROLE ( 'creator' ) ;
#336 = EDGE_CURVE ( 'NONE', #419, #32, #69, .T. ) ;
#337 = LINE ( 'NONE', #289, #572 ) ;
#338 = FACE_OUTER_BOUND ( 'NONE', #66, .T. ) ;
#339 = PERSON_AND_ORGANIZATION ( #18446744073709551615, #18446744073709551615 ) ;
#340 = ADVANCED_FACE ( 'NONE', ( #616, #376 ), #147, .T. ) ;
#341 = CARTESIAN_POINT ( 'NONE',  ( -18.50000000000000355, -0.5000000000000021094, 0.4000000000000000222 ) ) ;
#342 = AXIS2_PLACEMENT_3D ( 'NONE', #455, #164, #397 ) ;
#343 = FACE_OUTER_BOUND ( 'NONE', #199, .T. ) ;
#344 = VECTOR ( 'NONE', #56, 1000.000000000000000 ) ;
#345 = CARTESIAN_POINT ( 'NONE',  ( -18.30000000000000426, -24.00000000000000000, 0.4000000000000000222 ) ) ;
#346 = ADVANCED_FACE ( 'NONE', ( #605 ), #157, .F. ) ;
#347 = CARTESIAN_POINT ( 'NONE',  ( -22.00000000000000000, -24.99999999999999645, 0.4000000000000000222 ) ) ;
#348 = CARTESIAN_POINT ( 'NONE',  ( -7.800000000000001599, -19.00000000000000000, 0.4000000000000000222 ) ) ;
#349 = CARTESIAN_POINT ( 'NONE',  ( -20.99999999999999645, -26.00000000000000000, 0.4000000000000000222 ) ) ;
#350 = PLANE ( 'NONE',  #68 ) ;
#351 = ORIENTED_EDGE ( 'NONE', *, *, #171, .F. ) ;
#352 = CIRCLE ( 'NONE', #284, 0.5000000000000004441 ) ;
#353 = CARTESIAN_POINT ( 'NONE',  ( -22.00000000000000000, -26.00000000000000000, 0.4000000000000000222 ) ) ;
#354 = EDGE_CURVE ( 'NONE', #62, #677, #553, .T. ) ;
#355 = CARTESIAN_POINT ( 'NONE',  ( -19.00000000000000355, -2.500000000000002220, 0.4000000000000000222 ) ) ;
#356 = VERTEX_POINT ( 'NONE', #503 ) ;
#357 = DIRECTION ( 'NONE',  ( 0.000000000000000000, -0.000000000000000000, 1.000000000000000000 ) ) ;
#358 = CC_DESIGN_SECURITY_CLASSIFICATION ( #93, ( #55 ) ) ;
#359 = EDGE_CURVE ( 'NONE', #426, #62, #727, .T. ) ;
#360 = CYLINDRICAL_SURFACE ( 'NONE', #567, 1.000000000000000888 ) ;
#361 = ORIENTED_EDGE ( 'NONE', *, *, #650, .T. ) ;
#362 = FACE_OUTER_BOUND ( 'NONE', #37, .T. ) ;
#363 = LINE ( 'NONE', #422, #497 ) ;
#364 = VERTEX_POINT ( 'NONE', #141 ) ;
#365 = VECTOR ( 'NONE', #411, 1000.000000000000000 ) ;
#366 = DIRECTION ( 'NONE',  ( 1.000000000000000000, 1.141265444721583757E-16, 0.000000000000000000 ) ) ;
#367 = ORIENTED_EDGE ( 'NONE', *, *, #468, .T. ) ;
#368 = ADVANCED_FACE ( 'NONE', ( #610 ), #89, .T. ) ;
#369 = CARTESIAN_POINT ( 'NONE',  ( -19.00000000000000355, -0.5000000000000021094, 0.4000000000000000222 ) ) ;
#370 = VERTEX_POINT ( 'NONE', #80 ) ;
#371 = CARTESIAN_POINT ( 'NONE',  ( -7.800000000000001599, -19.00000000000000000, 0.000000000000000000 ) ) ;
#372 = VERTEX_POINT ( 'NONE', #671 ) ;
#373 = LINE ( 'NONE', #420, #634 ) ;
#374 = ORIENTED_EDGE ( 'NONE', *, *, #38, .T. ) ;
#375 = CIRCLE ( 'NONE', #467, 0.5000000000000004441 ) ;
#376 = FACE_BOUND ( 'NONE', #219, .T. ) ;
#377 = CARTESIAN_POINT ( 'NONE',  ( -21.50000000000000000, -3.000000000000002665, 0.4000000000000000222 ) ) ;
#378 = PERSON_AND_ORGANIZATION ( #18446744073709551615, #18446744073709551615 ) ;
#379 = EDGE_LOOP ( 'NONE', ( #438, #654, #240, #390 ) ) ;
#380 = VECTOR ( 'NONE', #606, 1000.000000000000000 ) ;
#381 = DIRECTION ( 'NONE',  ( 1.000000000000000000, 0.000000000000000000, 0.000000000000000000 ) ) ;
#382 = EDGE_LOOP ( 'NONE', ( #702, #658, #21, #212 ) ) ;
#383 = ORIENTED_EDGE ( 'NONE', *, *, #41, .F. ) ;
#384 = AXIS2_PLACEMENT_3D ( 'NONE', #187, #430, #482 ) ;
#385 = DIRECTION ( 'NONE',  ( 0.000000000000000000, 1.000000000000000000, 0.000000000000000000 ) ) ;
#386 = EDGE_LOOP ( 'NONE', ( #423, #271, #134, #210 ) ) ;
#387 = APPROVAL_ROLE ( '' ) ;
#388 = EDGE_CURVE ( 'NONE', #207, #734, #39, .T. ) ;
#389 = PLANE ( 'NONE',  #715 ) ;
#390 = ORIENTED_EDGE ( 'NONE', *, *, #479, .T. ) ;
#391 = APPROVAL ( #744, 'Deckungsgleich' ) ;
#392 = PERSON_AND_ORGANIZATION_ROLE ( 'design_supplier' ) ;
#393 = DIRECTION ( 'NONE',  ( 1.000000000000000000, 0.000000000000000000, 0.000000000000000000 ) ) ;
#394 = VECTOR ( 'NONE', #484, 1000.000000000000000 ) ;
#395 = LINE ( 'NONE', #631, #148 ) ;
#396 = EDGE_CURVE ( 'NONE', #529, #364, #623, .T. ) ;
#397 = DIRECTION ( 'NONE',  ( -1.000000000000000000, 0.000000000000000000, 0.000000000000000000 ) ) ;
#398 = CARTESIAN_POINT ( 'NONE',  ( -7.800000000000001599, -23.50000000000000000, 0.000000000000000000 ) ) ;
#399 = AXIS2_PLACEMENT_3D ( 'NONE', #398, #293, #531 ) ;
#400 = DIRECTION ( 'NONE',  ( 0.000000000000000000, -0.000000000000000000, 1.000000000000000000 ) ) ;
#401 = AXIS2_PLACEMENT_3D ( 'NONE', #324, #600, #543 ) ;
#402 = CARTESIAN_POINT ( 'NONE',  ( -19.00000000000000355, -2.168404344971009657E-15, 0.4000000000000000222 ) ) ;
#403 = CARTESIAN_POINT ( 'NONE',  ( -7.300000000000000711, -19.50000000000000000, 0.4000000000000000222 ) ) ;
#404 = EDGE_CURVE ( 'NONE', #237, #135, #272, .T. ) ;
#405 = DIRECTION ( 'NONE',  ( 0.000000000000000000, -1.000000000000000000, 0.000000000000000000 ) ) ;
#406 = DIRECTION ( 'NONE',  ( 0.000000000000000000, 0.000000000000000000, -1.000000000000000000 ) ) ;
#407 = CC_DESIGN_PERSON_AND_ORGANIZATION_ASSIGNMENT ( #150, #275, ( #93 ) ) ;
#408 = LINE ( 'NONE', #349, #515 ) ;
#409 = DIRECTION ( 'NONE',  ( 1.141265444721583757E-16, -1.000000000000000000, 0.000000000000000000 ) ) ;
#410 = VERTEX_POINT ( 'NONE', #85 ) ;
#411 = DIRECTION ( 'NONE',  ( 0.000000000000000000, 1.000000000000000000, 0.000000000000000000 ) ) ;
#412 = EDGE_CURVE ( 'NONE', #677, #370, #440, .T. ) ;
#413 = CARTESIAN_POINT ( 'NONE',  ( -7.300000000000000711, -23.50000000000000000, 0.000000000000000000 ) ) ;
#414 = ORIENTED_EDGE ( 'NONE', *, *, #336, .F. ) ;
#415 = AXIS2_PLACEMENT_3D ( 'NONE', #473, #703, #144 ) ;
#416 = AXIS2_PLACEMENT_3D ( 'NONE', #593, #255, #206 ) ;
#417 = DIRECTION ( 'NONE',  ( -0.000000000000000000, 1.000000000000000000, 0.000000000000000000 ) ) ;
#418 = CARTESIAN_POINT ( 'NONE',  ( -22.00000000000000355, -2.500000000000002665, 0.4000000000000000222 ) ) ;
#419 = VERTEX_POINT ( 'NONE', #713 ) ;
#420 = CARTESIAN_POINT ( 'NONE',  ( -18.30000000000000426, -24.00000000000000000, 0.000000000000000000 ) ) ;
#421 = ADVANCED_FACE ( 'NONE', ( #257 ), #389, .F. ) ;
#422 = CARTESIAN_POINT ( 'NONE',  ( -7.800000000000001599, -24.00000000000000000, 0.000000000000000000 ) ) ;
#423 = ORIENTED_EDGE ( 'NONE', *, *, #64, .F. ) ;
#424 = DESIGN_CONTEXT ( 'detailed design', #209, 'design' ) ;
#425 = LINE ( 'NONE', #369, #706 ) ;
#426 = VERTEX_POINT ( 'NONE', #371 ) ;
#427 = VECTOR ( 'NONE', #498, 1000.000000000000000 ) ;
#428 = PLANE ( 'NONE',  #730 ) ;
#429 = ORIENTED_EDGE ( 'NONE', *, *, #412, .T. ) ;
#430 = DIRECTION ( 'NONE',  ( -0.000000000000000000, 0.000000000000000000, -1.000000000000000000 ) ) ;
#431 = ORIENTED_EDGE ( 'NONE', *, *, #743, .F. ) ;
#432 = DIRECTION ( 'NONE',  ( -0.000000000000000000, 0.000000000000000000, -1.000000000000000000 ) ) ;
#433 = ORIENTED_EDGE ( 'NONE', *, *, #689, .F. ) ;
#434 = CYLINDRICAL_SURFACE ( 'NONE', #644, 0.5000000000000004441 ) ;
#435 = EDGE_LOOP ( 'NONE', ( #325, #609, #216, #194, #254, #361, #140, #181, #306, #414, #580 ) ) ;
#436 = AXIS2_PLACEMENT_3D ( 'NONE', #355, #463, #124 ) ;
#437 = DIRECTION ( 'NONE',  ( 1.000000000000000000, 0.000000000000000000, -0.000000000000000000 ) ) ;
#438 = ORIENTED_EDGE ( 'NONE', *, *, #283, .F. ) ;
#439 = ORIENTED_EDGE ( 'NONE', *, *, #559, .F. ) ;
#440 = LINE ( 'NONE', #26, #170 ) ;
#441 = EDGE_CURVE ( 'NONE', #529, #77, #676, .T. ) ;
#442 = ORIENTED_EDGE ( 'NONE', *, *, #38, .F. ) ;
#443 = APPROVAL_DATE_TIME ( #163, #464 ) ;
#444 = VERTEX_POINT ( 'NONE', #198 ) ;
#445 = AXIS2_PLACEMENT_3D ( 'NONE', #737, #520, #393 ) ;
#446 = VECTOR ( 'NONE', #139, 1000.000000000000000 ) ;
#447 = DIRECTION ( 'NONE',  ( 0.000000000000000000, 0.000000000000000000, -1.000000000000000000 ) ) ;
#448 = ORIENTED_EDGE ( 'NONE', *, *, #354, .T. ) ;
#449 = DIRECTION ( 'NONE',  ( 1.000000000000000000, 0.000000000000000000, 0.000000000000000000 ) ) ;
#450 = EDGE_CURVE ( 'NONE', #34, #483, #562, .T. ) ;
#451 = ORIENTED_EDGE ( 'NONE', *, *, #99, .T. ) ;
#452 = SECURITY_CLASSIFICATION_LEVEL ( 'unclassified' ) ;
#453 = CARTESIAN_POINT ( 'NONE',  ( -7.300000000000000711, -24.00000000000000000, 0.000000000000000000 ) ) ;
#454 = VECTOR ( 'NONE', #162, 1000.000000000000000 ) ;
#455 = CARTESIAN_POINT ( 'NONE',  ( -21.50000000000000000, -3.000000000000002665, 0.4000000000000000222 ) ) ;
#456 = DATE_AND_TIME ( #512, #615 ) ;
#457 = CARTESIAN_POINT ( 'NONE',  ( -7.300000000000000711, -19.50000000000000000, 0.000000000000000000 ) ) ;
#458 = CARTESIAN_POINT ( 'NONE',  ( -18.50000000000000355, -0.5000000000000021094, 0.000000000000000000 ) ) ;
#459 = CARTESIAN_POINT ( 'NONE',  ( -18.50000000000000355, -2.111341072734930186E-15, 0.4000000000000000222 ) ) ;
#460 = ADVANCED_FACE ( 'NONE', ( #192 ), #428, .F. ) ;
#461 = AXIS2_PLACEMENT_3D ( 'NONE', #353, #694, #116 ) ;
#462 = FACE_OUTER_BOUND ( 'NONE', #16, .T. ) ;
#463 = DIRECTION ( 'NONE',  ( 1.445602896647339903E-16, -1.000000000000000000, 0.000000000000000000 ) ) ;
#464 = APPROVAL ( #735, 'Deckungsgleich' ) ;
#465 = DIRECTION ( 'NONE',  ( 0.000000000000000000, 0.000000000000000000, 1.000000000000000000 ) ) ;
#466 = CARTESIAN_POINT ( 'NONE',  ( -20.99999999999999645, -24.99999999999999645, 0.4000000000000000222 ) ) ;
#467 = AXIS2_PLACEMENT_3D ( 'NONE', #227, #685, #165 ) ;
#468 = EDGE_CURVE ( 'NONE', #714, #485, #662, .T. ) ;
#469 = ORIENTED_EDGE ( 'NONE', *, *, #627, .T. ) ;
#470 = FACE_OUTER_BOUND ( 'NONE', #94, .T. ) ;
#471 = DIRECTION ( 'NONE',  ( 0.000000000000000000, 0.000000000000000000, -1.000000000000000000 ) ) ;
#472 = ORIENTED_EDGE ( 'NONE', *, *, #412, .F. ) ;
#473 = CARTESIAN_POINT ( 'NONE',  ( -0.4999999999999998890, -0.5000000000000001110, 0.4000000000000000222 ) ) ;
#474 = ORIENTED_EDGE ( 'NONE', *, *, #652, .F. ) ;
#475 = DIRECTION ( 'NONE',  ( -0.000000000000000000, 0.000000000000000000, -1.000000000000000000 ) ) ;
#476 = ORIENTED_EDGE ( 'NONE', *, *, #596, .F. ) ;
#477 = VECTOR ( 'NONE', #131, 1000.000000000000000 ) ;
#478 = CARTESIAN_POINT ( 'NONE',  ( -18.30000000000000426, -23.50000000000000000, 0.000000000000000000 ) ) ;
#479 = EDGE_CURVE ( 'NONE', #32, #143, #262, .T. ) ;
#480 = CARTESIAN_POINT ( 'NONE',  ( -17.80000000000000426, -23.50000000000000000, 0.000000000000000000 ) ) ;
#481 = EDGE_LOOP ( 'NONE', ( #149, #597, #603, #334 ) ) ;
#482 = DIRECTION ( 'NONE',  ( 1.000000000000000000, 0.000000000000000000, 0.000000000000000000 ) ) ;
#483 = VERTEX_POINT ( 'NONE', #688 ) ;
#484 = DIRECTION ( 'NONE',  ( 0.000000000000000000, 1.000000000000000000, 0.000000000000000000 ) ) ;
#485 = VERTEX_POINT ( 'NONE', #741 ) ;
#486 = DIRECTION ( 'NONE',  ( -0.000000000000000000, -0.000000000000000000, 1.000000000000000000 ) ) ;
#487 = ORIENTED_EDGE ( 'NONE', *, *, #479, .F. ) ;
#488 = DIRECTION ( 'NONE',  ( -1.000000000000000000, 0.000000000000000000, 0.000000000000000000 ) ) ;
#489 = ORIENTED_EDGE ( 'NONE', *, *, #396, .T. ) ;
#490 = CC_DESIGN_PERSON_AND_ORGANIZATION_ASSIGNMENT ( #505, #560, ( #719 ) ) ;
#491 = DIRECTION ( 'NONE',  ( -1.000000000000000000, -1.445602896647339656E-16, 0.000000000000000000 ) ) ;
#492 = ORIENTED_EDGE ( 'NONE', *, *, #396, .F. ) ;
#493 = CARTESIAN_POINT ( 'NONE',  ( -18.50000000000000355, -2.111341072734930186E-15, 0.4000000000000000222 ) ) ;
#494 = LINE ( 'NONE', #205, #344 ) ;
#495 = ADVANCED_FACE ( 'NONE', ( #111 ), #578, .T. ) ;
#496 = ORIENTED_EDGE ( 'NONE', *, *, #577, .F. ) ;
#497 = VECTOR ( 'NONE', #471, 1000.000000000000000 ) ;
#498 = DIRECTION ( 'NONE',  ( -1.000000000000000000, -0.000000000000000000, -0.000000000000000000 ) ) ;
#499 = ORIENTED_EDGE ( 'NONE', *, *, #596, .T. ) ;
#500 = COORDINATED_UNIVERSAL_TIME_OFFSET ( 1, 0, .AHEAD. ) ;
#501 = VERTEX_POINT ( 'NONE', #564 ) ;
#502 = VECTOR ( 'NONE', #208, 1000.000000000000000 ) ;
#503 = CARTESIAN_POINT ( 'NONE',  ( -22.00000000000000355, -3.000000000000002665, 0.000000000000000000 ) ) ;
#504 = VERTEX_POINT ( 'NONE', #347 ) ;
#505 = PERSON_AND_ORGANIZATION ( #18446744073709551615, #18446744073709551615 ) ;
#506 = LOCAL_TIME ( 19, 36, 22.00000000000000000, #566 ) ;
#507 = DIRECTION ( 'NONE',  ( -0.000000000000000000, 0.000000000000000000, -1.000000000000000000 ) ) ;
#508 = ORIENTED_EDGE ( 'NONE', *, *, #136, .T. ) ;
#509 = APPLICATION_PROTOCOL_DEFINITION ( 'international standard', 'config_control_design', 1994, #209 ) ;
#510 = CARTESIAN_POINT ( 'NONE',  ( -7.800000000000001599, -24.00000000000000000, 0.000000000000000000 ) ) ;
#511 = DIRECTION ( 'NONE',  ( 1.000000000000000000, 0.000000000000000000, 0.000000000000000000 ) ) ;
#512 = CALENDAR_DATE ( 2026, 4, 4 ) ;
#513 = VECTOR ( 'NONE', #114, 1000.000000000000000 ) ;
#514 = DIRECTION ( 'NONE',  ( 1.000000000000000000, 0.000000000000000000, 0.000000000000000000 ) ) ;
#515 = VECTOR ( 'NONE', #507, 1000.000000000000000 ) ;
#516 = CARTESIAN_POINT ( 'NONE',  ( -17.80000000000000426, -24.00000000000000000, 0.4000000000000000222 ) ) ;
#517 = EDGE_CURVE ( 'NONE', #312, #327, #118, .T. ) ;
#518 = CARTESIAN_POINT ( 'NONE',  ( -17.80000000000000071, -19.50000000000000000, 0.4000000000000000222 ) ) ;
#519 = ADVANCED_FACE ( 'NONE', ( #462 ), #102, .F. ) ;
#520 = DIRECTION ( 'NONE',  ( -0.000000000000000000, 0.000000000000000000, -1.000000000000000000 ) ) ;
#521 = FACE_OUTER_BOUND ( 'NONE', #145, .T. ) ;
#522 = FACE_OUTER_BOUND ( 'NONE', #435, .T. ) ;
#523 = ADVANCED_FACE ( 'NONE', ( #522, #47 ), #176, .F. ) ;
#524 = FACE_OUTER_BOUND ( 'NONE', #330, .T. ) ;
#525 = ORIENTED_EDGE ( 'NONE', *, *, #577, .T. ) ;
#526 = DIRECTION ( 'NONE',  ( 0.000000000000000000, 0.000000000000000000, -1.000000000000000000 ) ) ;
#527 = CARTESIAN_POINT ( 'NONE',  ( -21.50000000000000000, -2.500000000000002665, 0.4000000000000000222 ) ) ;
#528 = AXIS2_PLACEMENT_3D ( 'NONE', #296, #475, #696 ) ;
#529 = VERTEX_POINT ( 'NONE', #575 ) ;
#530 = LINE ( 'NONE', #311, #184 ) ;
#531 = DIRECTION ( 'NONE',  ( 1.000000000000000000, 0.000000000000000000, 0.000000000000000000 ) ) ;
#532 = VERTEX_POINT ( 'NONE', #279 ) ;
#533 = CARTESIAN_POINT ( 'NONE',  ( -20.99999999999999645, -24.99999999999999645, 0.4000000000000000222 ) ) ;
#534 = CARTESIAN_POINT ( 'NONE',  ( 0.000000000000000000, -0.5000000000000073275, 0.4000000000000000222 ) ) ;
#535 = EDGE_LOOP ( 'NONE', ( #492, #383, #81, #724 ) ) ;
#536 = AXIS2_PLACEMENT_3D ( 'NONE', #602, #417, #71 ) ;
#537 = CC_DESIGN_APPROVAL ( #84, ( #55 ) ) ;
#538 =( NAMED_UNIT ( * ) PLANE_ANGLE_UNIT ( ) SI_UNIT ( $, .RADIAN. ) );
#539 = EDGE_CURVE ( 'NONE', #668, #532, #747, .T. ) ;
#540 = FACE_OUTER_BOUND ( 'NONE', #710, .T. ) ;
#541 = VERTEX_POINT ( 'NONE', #510 ) ;
#542 = ORIENTED_EDGE ( 'NONE', *, *, #627, .F. ) ;
#543 = DIRECTION ( 'NONE',  ( 6.938893903907227392E-16, 1.000000000000000000, 0.000000000000000000 ) ) ;
#544 = CARTESIAN_POINT ( 'NONE',  ( -21.50000000000000000, -2.500000000000002665, 0.4000000000000000222 ) ) ;
#545 = UNCERTAINTY_MEASURE_WITH_UNIT (LENGTH_MEASURE( 1.000000000000000082E-05 ), #315, 'distance_accuracy_value', 'NONE');
#546 = VECTOR ( 'NONE', #108, 1000.000000000000000 ) ;
#547 = ORIENTED_EDGE ( 'NONE', *, *, #517, .F. ) ;
#548 = DIRECTION ( 'NONE',  ( -1.000000000000000000, -1.445602896647339656E-16, 0.000000000000000000 ) ) ;
#549 = EDGE_CURVE ( 'NONE', #154, #504, #337, .T. ) ;
#550 = EDGE_LOOP ( 'NONE', ( #74, #442, #178, #496 ) ) ;
#551 = ORIENTED_EDGE ( 'NONE', *, *, #146, .T. ) ;
#552 = LOCAL_TIME ( 19, 36, 22.00000000000000000, #619 ) ;
#553 = LINE ( 'NONE', #557, #427 ) ;
#554 = ORIENTED_EDGE ( 'NONE', *, *, #750, .T. ) ;
#555 = SHAPE_DEFINITION_REPRESENTATION ( #589, #224 ) ;
#556 = VERTEX_POINT ( 'NONE', #4 ) ;
#557 = CARTESIAN_POINT ( 'NONE',  ( -18.30000000000000071, -19.00000000000000000, 0.4000000000000000222 ) ) ;
#558 = DIRECTION ( 'NONE',  ( 0.000000000000000000, -0.000000000000000000, 1.000000000000000000 ) ) ;
#559 = EDGE_CURVE ( 'NONE', #426, #370, #123, .T. ) ;
#560 = PERSON_AND_ORGANIZATION_ROLE ( 'design_owner' ) ;
#561 = VECTOR ( 'NONE', #300, 1000.000000000000000 ) ;
#562 = LINE ( 'NONE', #253, #394 ) ;
#563 = DIRECTION ( 'NONE',  ( 1.000000000000000000, 0.000000000000000000, 0.000000000000000000 ) ) ;
#564 = CARTESIAN_POINT ( 'NONE',  ( -0.5000000000000000000, -5.706327223607918787E-17, 0.4000000000000000222 ) ) ;
#565 = DIRECTION ( 'NONE',  ( 1.000000000000000000, 0.000000000000000000, 0.000000000000000000 ) ) ;
#566 = COORDINATED_UNIVERSAL_TIME_OFFSET ( 1, 0, .AHEAD. ) ;
#567 = AXIS2_PLACEMENT_3D ( 'NONE', #466, #243, #582 ) ;
#568 = EDGE_CURVE ( 'NONE', #356, #611, #169, .T. ) ;
#569 = CYLINDRICAL_SURFACE ( 'NONE', #106, 1.000000000000000222 ) ;
#570 = AXIS2_PLACEMENT_3D ( 'NONE', #377, #558, #563 ) ;
#571 = CARTESIAN_POINT ( 'NONE',  ( -20.99999999999999645, -24.99999999999999645, 0.000000000000000000 ) ) ;
#572 = VECTOR ( 'NONE', #44, 1000.000000000000000 ) ;
#573 = APPROVAL_PERSON_ORGANIZATION ( #270, #391, #100 ) ;
#574 = CARTESIAN_POINT ( 'NONE',  ( -7.800000000000001599, -19.50000000000000000, 0.000000000000000000 ) ) ;
#575 = CARTESIAN_POINT ( 'NONE',  ( -7.300000000000000711, -23.50000000000000000, 0.4000000000000000222 ) ) ;
#576 = CARTESIAN_POINT ( 'NONE',  ( -22.00000000000000355, -3.000000000000002665, 0.4000000000000000222 ) ) ;
#577 = EDGE_CURVE ( 'NONE', #410, #556, #408, .T. ) ;
#578 = PLANE ( 'NONE',  #690 ) ;
#579 = CARTESIAN_POINT ( 'NONE',  ( 0.000000000000000000, 0.000000000000000000, 0.000000000000000000 ) ) ;
#580 = ORIENTED_EDGE ( 'NONE', *, *, #712, .T. ) ;
#581 = DIRECTION ( 'NONE',  ( 1.000000000000000000, 0.000000000000000000, -0.000000000000000000 ) ) ;
#582 = DIRECTION ( 'NONE',  ( -1.000000000000000000, 0.000000000000000000, 0.000000000000000000 ) ) ;
#583 = EDGE_LOOP ( 'NONE', ( #542, #310, #316, #598 ) ) ;
#584 = DIRECTION ( 'NONE',  ( 0.000000000000000000, 0.000000000000000000, 1.000000000000000000 ) ) ;
#585 = LINE ( 'NONE', #121, #608 ) ;
#586 = AXIS2_PLACEMENT_3D ( 'NONE', #15, #705, #180 ) ;
#587 = ORIENTED_EDGE ( 'NONE', *, *, #110, .T. ) ;
#588 = LINE ( 'NONE', #302, #477 ) ;
#589 = PRODUCT_DEFINITION_SHAPE ( 'NONE', 'NONE',  #6 ) ;
#590 = CARTESIAN_POINT ( 'NONE',  ( -0.5000000000000000000, -5.706327223607918787E-17, 0.4000000000000000222 ) ) ;
#591 = VERTEX_POINT ( 'NONE', #57 ) ;
#592 = VECTOR ( 'NONE', #548, 1000.000000000000000 ) ;
#593 = CARTESIAN_POINT ( 'NONE',  ( 0.000000000000000000, 0.000000000000000000, 0.000000000000000000 ) ) ;
#594 = EDGE_CURVE ( 'NONE', #62, #77, #612, .T. ) ;
#595 = DIRECTION ( 'NONE',  ( 0.000000000000000000, 0.000000000000000000, -1.000000000000000000 ) ) ;
#596 = EDGE_CURVE ( 'NONE', #372, #444, #60, .T. ) ;
#597 = ORIENTED_EDGE ( 'NONE', *, *, #604, .T. ) ;
#598 = ORIENTED_EDGE ( 'NONE', *, *, #303, .T. ) ;
#599 = CC_DESIGN_DATE_AND_TIME_ASSIGNMENT ( #456, #160, ( #6 ) ) ;
#600 = DIRECTION ( 'NONE',  ( 1.000000000000000000, -6.938893903907227392E-16, 0.000000000000000000 ) ) ;
#601 = LINE ( 'NONE', #544, #380 ) ;
#602 = CARTESIAN_POINT ( 'NONE',  ( -18.30000000000000426, -24.00000000000000000, 0.4000000000000000222 ) ) ;
#603 = ORIENTED_EDGE ( 'NONE', *, *, #388, .F. ) ;
#604 = EDGE_CURVE ( 'NONE', #202, #734, #639, .T. ) ;
#605 = FACE_OUTER_BOUND ( 'NONE', #535, .T. ) ;
#606 = DIRECTION ( 'NONE',  ( -0.000000000000000000, -0.000000000000000000, 1.000000000000000000 ) ) ;
#607 = CALENDAR_DATE ( 2026, 4, 4 ) ;
#608 = VECTOR ( 'NONE', #117, 1000.000000000000000 ) ;
#609 = ORIENTED_EDGE ( 'NONE', *, *, #250, .T. ) ;
#610 = FACE_OUTER_BOUND ( 'NONE', #481, .T. ) ;
#611 = VERTEX_POINT ( 'NONE', #218 ) ;
#612 = CIRCLE ( 'NONE', #445, 0.5000000000000004441 ) ;
#613 = PERSON_AND_ORGANIZATION ( #18446744073709551615, #18446744073709551615 ) ;
#614 = ORIENTED_EDGE ( 'NONE', *, *, #11, .T. ) ;
#615 = LOCAL_TIME ( 19, 36, 22.00000000000000000, #49 ) ;
#616 = FACE_OUTER_BOUND ( 'NONE', #621, .T. ) ;
#617 = EDGE_CURVE ( 'NONE', #532, #34, #633, .T. ) ;
#618 = ORIENTED_EDGE ( 'NONE', *, *, #258, .F. ) ;
#619 = COORDINATED_UNIVERSAL_TIME_OFFSET ( 1, 0, .AHEAD. ) ;
#620 = CARTESIAN_POINT ( 'NONE',  ( 0.000000000000000000, -26.00000000000000000, 0.4000000000000000222 ) ) ;
#621 = EDGE_LOOP ( 'NONE', ( #70, #98, #469, #186, #92, #159, #499, #661, #88, #649, #666 ) ) ;
#622 = ADVANCED_FACE ( 'NONE', ( #470 ), #692, .T. ) ;
#623 = CIRCLE ( 'NONE', #292, 0.5000000000000004441 ) ;
#624 = DIRECTION ( 'NONE',  ( -1.000000000000000000, 0.000000000000000000, 0.000000000000000000 ) ) ;
#625 = DIRECTION ( 'NONE',  ( 1.000000000000000000, 0.000000000000000000, 0.000000000000000000 ) ) ;
#626 = CALENDAR_DATE ( 2026, 4, 4 ) ;
#627 = EDGE_CURVE ( 'NONE', #532, #268, #238, .T. ) ;
#628 = DIRECTION ( 'NONE',  ( -0.000000000000000000, 0.000000000000000000, -1.000000000000000000 ) ) ;
#629 = CIRCLE ( 'NONE', #399, 0.5000000000000004441 ) ;
#630 = ADVANCED_FACE ( 'NONE', ( #665 ), #307, .T. ) ;
#631 = CARTESIAN_POINT ( 'NONE',  ( -19.00000000000000355, -2.500000000000002220, 0.4000000000000000222 ) ) ;
#632 = DIRECTION ( 'NONE',  ( 0.000000000000000000, 0.000000000000000000, 1.000000000000000000 ) ) ;
#633 = LINE ( 'NONE', #179, #183 ) ;
#634 = VECTOR ( 'NONE', #201, 1000.000000000000000 ) ;
#635 = DIRECTION ( 'NONE',  ( 1.000000000000000000, 0.000000000000000000, 0.000000000000000000 ) ) ;
#636 = ADVANCED_FACE ( 'NONE', ( #182 ), #651, .T. ) ;
#637 = DIRECTION ( 'NONE',  ( 0.000000000000000000, -0.000000000000000000, 1.000000000000000000 ) ) ;
#638 = DIRECTION ( 'NONE',  ( -1.000000000000000000, 0.000000000000000000, 0.000000000000000000 ) ) ;
#639 = LINE ( 'NONE', #63, #308 ) ;
#640 = CLOSED_SHELL ( 'NONE', ( #340, #523, #421, #269, #460, #225, #277, #519, #368, #636, #495, #622, #684, #346, #630, #168, #331, #119, #128, #158, #229 ) ) ;
#641 = DIRECTION ( 'NONE',  ( -1.000000000000000000, -1.141265444721583757E-16, 0.000000000000000000 ) ) ;
#642 = VERTEX_POINT ( 'NONE', #126 ) ;
#643 = DIRECTION ( 'NONE',  ( 0.000000000000000000, 1.000000000000000000, 0.000000000000000000 ) ) ;
#644 = AXIS2_PLACEMENT_3D ( 'NONE', #708, #584, #67 ) ;
#645 = CARTESIAN_POINT ( 'NONE',  ( -7.300000000000000711, -19.50000000000000000, 0.000000000000000000 ) ) ;
#646 = ORIENTED_EDGE ( 'NONE', *, *, #258, .T. ) ;
#647 = LINE ( 'NONE', #251, #704 ) ;
#648 = LINE ( 'NONE', #239, #50 ) ;
#649 = ORIENTED_EDGE ( 'NONE', *, *, #549, .T. ) ;
#650 = EDGE_CURVE ( 'NONE', #356, #485, #54, .T. ) ;
#651 = PLANE ( 'NONE',  #536 ) ;
#652 = EDGE_CURVE ( 'NONE', #207, #642, #721, .T. ) ;
#653 = FACE_OUTER_BOUND ( 'NONE', #672, .T. ) ;
#654 = ORIENTED_EDGE ( 'NONE', *, *, #247, .T. ) ;
#655 = VECTOR ( 'NONE', #385, 1000.000000000000000 ) ;
#656 = ORIENTED_EDGE ( 'NONE', *, *, #190, .F. ) ;
#657 = CARTESIAN_POINT ( 'NONE',  ( -19.00000000000000355, -2.168404344971009657E-15, 0.4000000000000000222 ) ) ;
#658 = ORIENTED_EDGE ( 'NONE', *, *, #404, .T. ) ;
#659 = EDGE_CURVE ( 'NONE', #237, #541, #373, .T. ) ;
#660 = CARTESIAN_POINT ( 'NONE',  ( -19.00000000000000355, -2.168404344971009657E-15, 0.000000000000000000 ) ) ;
#661 = ORIENTED_EDGE ( 'NONE', *, *, #678, .T. ) ;
#662 = LINE ( 'NONE', #318, #592 ) ;
#663 = ORIENTED_EDGE ( 'NONE', *, *, #594, .F. ) ;
#664 = AXIS2_PLACEMENT_3D ( 'NONE', #341, #282, #514 ) ;
#665 = FACE_OUTER_BOUND ( 'NONE', #386, .T. ) ;
#666 = ORIENTED_EDGE ( 'NONE', *, *, #733, .T. ) ;
#667 = DIRECTION ( 'NONE',  ( 0.000000000000000000, 0.000000000000000000, 1.000000000000000000 ) ) ;
#668 = VERTEX_POINT ( 'NONE', #711 ) ;
#669 = CIRCLE ( 'NONE', #223, 0.5000000000000004441 ) ;
#670 = ORIENTED_EDGE ( 'NONE', *, *, #441, .T. ) ;
#671 = CARTESIAN_POINT ( 'NONE',  ( -19.00000000000000355, -0.5000000000000021094, 0.4000000000000000222 ) ) ;
#672 = EDGE_LOOP ( 'NONE', ( #367, #614, #297, #451 ) ) ;
#673 = CIRCLE ( 'NONE', #748, 0.5000000000000000000 ) ;
#674 = ORIENTED_EDGE ( 'NONE', *, *, #517, .T. ) ;
#675 =( GEOMETRIC_REPRESENTATION_CONTEXT ( 3 ) GLOBAL_UNCERTAINTY_ASSIGNED_CONTEXT ( ( #545 ) ) GLOBAL_UNIT_ASSIGNED_CONTEXT ( ( #315, #538, #29 ) ) REPRESENTATION_CONTEXT ( 'NONE', 'WORKASPACE' ) );
#676 = LINE ( 'NONE', #152, #655 ) ;
#677 = VERTEX_POINT ( 'NONE', #260 ) ;
#678 = EDGE_CURVE ( 'NONE', #444, #261, #647, .T. ) ;
#679 = CARTESIAN_POINT ( 'NONE',  ( -0.9999999999999997780, -24.99999999999999645, 0.4000000000000000222 ) ) ;
#680 = DIRECTION ( 'NONE',  ( 0.000000000000000000, 0.000000000000000000, -1.000000000000000000 ) ) ;
#681 = APPROVAL_ROLE ( '' ) ;
#682 = DIRECTION ( 'NONE',  ( 1.000000000000000000, 0.000000000000000000, 0.000000000000000000 ) ) ;
#683 = MECHANICAL_CONTEXT ( 'NONE', #127, 'mechanical' ) ;
#684 = ADVANCED_FACE ( 'NONE', ( #362 ), #434, .F. ) ;
#685 = DIRECTION ( 'NONE',  ( 0.000000000000000000, -0.000000000000000000, 1.000000000000000000 ) ) ;
#686 = CIRCLE ( 'NONE', #664, 0.5000000000000004441 ) ;
#687 = LINE ( 'NONE', #345, #546 ) ;
#688 = CARTESIAN_POINT ( 'NONE',  ( 0.000000000000000000, -0.5000000000000073275, 0.000000000000000000 ) ) ;
#689 = EDGE_CURVE ( 'NONE', #410, #668, #588, .T. ) ;
#690 = AXIS2_PLACEMENT_3D ( 'NONE', #232, #624, #465 ) ;
#691 = LINE ( 'NONE', #457, #513 ) ;
#692 = PLANE ( 'NONE',  #91 ) ;
#693 = DIRECTION ( 'NONE',  ( 0.000000000000000000, 0.000000000000000000, -1.000000000000000000 ) ) ;
#694 = DIRECTION ( 'NONE',  ( 0.000000000000000000, 1.000000000000000000, 0.000000000000000000 ) ) ;
#695 = CIRCLE ( 'NONE', #528, 0.5000000000000004441 ) ;
#696 = DIRECTION ( 'NONE',  ( 1.000000000000000000, 0.000000000000000000, 0.000000000000000000 ) ) ;
#697 = EDGE_LOOP ( 'NONE', ( #197, #717, #274, #646, #278, #79, #674, #508 ) ) ;
#698 = CC_DESIGN_PERSON_AND_ORGANIZATION_ASSIGNMENT ( #378, #335, ( #55 ) ) ;
#699 = CARTESIAN_POINT ( 'NONE',  ( 0.000000000000000000, -26.00000000000000000, 0.4000000000000000222 ) ) ;
#700 = VECTOR ( 'NONE', #635, 1000.000000000000000 ) ;
#701 = DIRECTION ( 'NONE',  ( -0.000000000000000000, 0.000000000000000000, -1.000000000000000000 ) ) ;
#702 = ORIENTED_EDGE ( 'NONE', *, *, #659, .F. ) ;
#703 = DIRECTION ( 'NONE',  ( 0.000000000000000000, 0.000000000000000000, -1.000000000000000000 ) ) ;
#704 = VECTOR ( 'NONE', #491, 1000.000000000000000 ) ;
#705 = DIRECTION ( 'NONE',  ( -0.000000000000000000, 0.000000000000000000, -1.000000000000000000 ) ) ;
#706 = VECTOR ( 'NONE', #191, 1000.000000000000000 ) ;
#707 = ORIENTED_EDGE ( 'NONE', *, *, #549, .F. ) ;
#708 = CARTESIAN_POINT ( 'NONE',  ( -17.80000000000000426, -23.50000000000000000, 0.4000000000000000222 ) ) ;
#709 = DIRECTION ( 'NONE',  ( 1.000000000000000000, 0.000000000000000000, 0.000000000000000000 ) ) ;
#710 = EDGE_LOOP ( 'NONE', ( #351, #487, #731, #321 ) ) ;
#711 = CARTESIAN_POINT ( 'NONE',  ( -1.000000000000000888, -26.00000000000000000, 0.4000000000000000222 ) ) ;
#712 = EDGE_CURVE ( 'NONE', #419, #483, #673, .T. ) ;
#713 = CARTESIAN_POINT ( 'NONE',  ( -0.5000000000000000000, -5.706327223607918787E-17, 0.000000000000000000 ) ) ;
#714 = VERTEX_POINT ( 'NONE', #22 ) ;
#715 = AXIS2_PLACEMENT_3D ( 'NONE', #620, #488, #97 ) ;
#716 = CARTESIAN_POINT ( 'NONE',  ( -18.30000000000000071, -19.50000000000000000, 0.4000000000000000222 ) ) ;
#717 = ORIENTED_EDGE ( 'NONE', *, *, #190, .T. ) ;
#718 = DIRECTION ( 'NONE',  ( -0.000000000000000000, -0.000000000000000000, 1.000000000000000000 ) ) ;
#719 = PRODUCT ( 'uSD2PSX Stiffener REF2018', 'uSD2PSX Stiffener REF2018', '', ( #683 ) ) ;
#720 = EDGE_LOOP ( 'NONE', ( #476, #122, #554, #25 ) ) ;
#721 = LINE ( 'NONE', #716, #215 ) ;
#722 = ORIENTED_EDGE ( 'NONE', *, *, #305, .F. ) ;
#723 = CARTESIAN_POINT ( 'NONE',  ( 0.000000000000000000, 0.000000000000000000, 0.4000000000000000222 ) ) ;
#724 = ORIENTED_EDGE ( 'NONE', *, *, #288, .F. ) ;
#725 = AXIS2_PLACEMENT_3D ( 'NONE', #61, #701, #709 ) ;
#726 = ORIENTED_EDGE ( 'NONE', *, *, #594, .T. ) ;
#727 = LINE ( 'NONE', #313, #73 ) ;
#728 = ORIENTED_EDGE ( 'NONE', *, *, #359, .T. ) ;
#729 = PERSON_AND_ORGANIZATION ( #18446744073709551615, #18446744073709551615 ) ;
#730 = AXIS2_PLACEMENT_3D ( 'NONE', #657, #137, #432 ) ;
#731 = ORIENTED_EDGE ( 'NONE', *, *, #75, .F. ) ;
#732 = DIRECTION ( 'NONE',  ( 1.000000000000000000, 0.000000000000000000, 0.000000000000000000 ) ) ;
#733 = EDGE_CURVE ( 'NONE', #504, #410, #286, .T. ) ;
#734 = VERTEX_POINT ( 'NONE', #478 ) ;
#735 = APPROVAL_STATUS ( 'not_yet_approved' ) ;
#736 = EDGE_CURVE ( 'NONE', #372, #189, #425, .T. ) ;
#737 = CARTESIAN_POINT ( 'NONE',  ( -7.800000000000001599, -19.50000000000000000, 0.4000000000000000222 ) ) ;
#738 = CC_DESIGN_DATE_AND_TIME_ASSIGNMENT ( #326, #220, ( #93 ) ) ;
#739 = ORIENTED_EDGE ( 'NONE', *, *, #146, .F. ) ;
#740 = DATE_AND_TIME ( #46, #112 ) ;
#741 = CARTESIAN_POINT ( 'NONE',  ( -21.50000000000000000, -2.500000000000002665, 0.000000000000000000 ) ) ;
#742 = DIRECTION ( 'NONE',  ( -0.000000000000000000, -0.000000000000000000, -1.000000000000000000 ) ) ;
#743 = EDGE_CURVE ( 'NONE', #135, #364, #530, .T. ) ;
#744 = APPROVAL_STATUS ( 'not_yet_approved' ) ;
#745 = CIRCLE ( 'NONE', #570, 0.5000000000000004441 ) ;
#746 = CARTESIAN_POINT ( 'NONE',  ( -19.00000000000000355, -0.5000000000000021094, 0.000000000000000000 ) ) ;
#747 = CIRCLE ( 'NONE', #18, 1.000000000000000000 ) ;
#748 = AXIS2_PLACEMENT_3D ( 'NONE', #245, #298, #196 ) ;
#749 = LINE ( 'NONE', #53, #454 ) ;
#750 = EDGE_CURVE ( 'NONE', #189, #714, #82, .T. ) ;
#751 = DIRECTION ( 'NONE',  ( 1.000000000000000000, 0.000000000000000000, 0.000000000000000000 ) ) ;
#752 = DIRECTION ( 'NONE',  ( 0.000000000000000000, 0.000000000000000000, -1.000000000000000000 ) ) ;
ENDSEC;
END-ISO-10303-21;
