%TF.GenerationSoftware,KiCad,Pcbnew,7.0.10*%
%TF.CreationDate,2025-10-01T21:30:06+02:00*%
%TF.ProjectId,PS2_Debug_Probe,5053325f-4465-4627-9567-5f50726f6265,rev?*%
%TF.SameCoordinates,Original*%
%TF.FileFunction,Soldermask,Top*%
%TF.FilePolarity,Negative*%
%FSLAX46Y46*%
G04 Gerber Fmt 4.6, Leading zero omitted, Abs format (unit mm)*
G04 Created by KiCad (PCBNEW 7.0.10) date 2025-10-01 21:30:06*
%MOMM*%
%LPD*%
G01*
G04 APERTURE LIST*
G04 Aperture macros list*
%AMRoundRect*
0 Rectangle with rounded corners*
0 $1 Rounding radius*
0 $2 $3 $4 $5 $6 $7 $8 $9 X,Y pos of 4 corners*
0 Add a 4 corners polygon primitive as box body*
4,1,4,$2,$3,$4,$5,$6,$7,$8,$9,$2,$3,0*
0 Add four circle primitives for the rounded corners*
1,1,$1+$1,$2,$3*
1,1,$1+$1,$4,$5*
1,1,$1+$1,$6,$7*
1,1,$1+$1,$8,$9*
0 Add four rect primitives between the rounded corners*
20,1,$1+$1,$2,$3,$4,$5,0*
20,1,$1+$1,$4,$5,$6,$7,0*
20,1,$1+$1,$6,$7,$8,$9,0*
20,1,$1+$1,$8,$9,$2,$3,0*%
G04 Aperture macros list end*
%ADD10R,1.700000X1.700000*%
%ADD11O,1.700000X1.700000*%
%ADD12RoundRect,0.102000X-0.775000X-0.300000X0.775000X-0.300000X0.775000X0.300000X-0.775000X0.300000X0*%
%ADD13RoundRect,0.102000X0.900000X-0.600000X0.900000X0.600000X-0.900000X0.600000X-0.900000X-0.600000X0*%
%ADD14RoundRect,0.102000X0.754000X-0.754000X0.754000X0.754000X-0.754000X0.754000X-0.754000X-0.754000X0*%
%ADD15C,1.712000*%
G04 APERTURE END LIST*
D10*
%TO.C,U2*%
X156575000Y-81300000D03*
D11*
X156575000Y-83840000D03*
X154035000Y-81300000D03*
X154035000Y-83840000D03*
X151495000Y-81300000D03*
X151495000Y-83840000D03*
X148955000Y-81300000D03*
X148955000Y-83840000D03*
X146415000Y-81300000D03*
X146415000Y-83840000D03*
X143875000Y-81300000D03*
X143875000Y-83840000D03*
X141335000Y-81300000D03*
X141335000Y-83840000D03*
X138795000Y-81300000D03*
X138795000Y-83840000D03*
X136255000Y-81300000D03*
X136255000Y-83840000D03*
X133715000Y-81300000D03*
X133715000Y-83840000D03*
X131175000Y-81300000D03*
X131175000Y-83840000D03*
X128635000Y-81300000D03*
X128635000Y-83840000D03*
X126095000Y-81300000D03*
X126095000Y-83840000D03*
D10*
X156575000Y-104160000D03*
D11*
X156575000Y-106700000D03*
X154035000Y-104160000D03*
X154035000Y-106700000D03*
X151495000Y-104160000D03*
X151495000Y-106700000D03*
X148955000Y-104160000D03*
X148955000Y-106700000D03*
X146415000Y-104160000D03*
X146415000Y-106700000D03*
X143875000Y-104160000D03*
X143875000Y-106700000D03*
X141335000Y-104160000D03*
X141335000Y-106700000D03*
X138795000Y-104160000D03*
X138795000Y-106700000D03*
X136255000Y-104160000D03*
X136255000Y-106700000D03*
X133715000Y-104160000D03*
X133715000Y-106700000D03*
X131175000Y-104160000D03*
X131175000Y-106700000D03*
X128635000Y-104160000D03*
X128635000Y-106700000D03*
X126095000Y-104160000D03*
X126095000Y-106700000D03*
%TD*%
D12*
%TO.C,J101*%
X129400000Y-93000000D03*
X129400000Y-94000000D03*
X129400000Y-95000000D03*
D13*
X125525000Y-91700000D03*
X125525000Y-96300000D03*
%TD*%
D14*
%TO.C,U1*%
X157960000Y-86380000D03*
D15*
X155420000Y-86380000D03*
X152880000Y-86380000D03*
X150340000Y-86380000D03*
X147800000Y-86380000D03*
X145260000Y-86380000D03*
X142720000Y-86380000D03*
X140180000Y-86380000D03*
X137640000Y-86380000D03*
X137640000Y-88920000D03*
X137640000Y-91460000D03*
X137640000Y-94000000D03*
X137640000Y-96540000D03*
X137640000Y-99080000D03*
X137640000Y-101620000D03*
X140180000Y-101620000D03*
X142720000Y-101620000D03*
X145260000Y-101620000D03*
X147800000Y-101620000D03*
X150340000Y-101620000D03*
X152880000Y-101620000D03*
X155420000Y-101620000D03*
X157960000Y-101620000D03*
%TD*%
M02*
