%TF.GenerationSoftware,KiCad,Pcbnew,7.0.10*%
%TF.CreationDate,2025-10-01T21:30:06+02:00*%
%TF.ProjectId,PS2_Debug_Probe,5053325f-4465-4627-9567-5f50726f6265,rev?*%
%TF.SameCoordinates,Original*%
%TF.FileFunction,Copper,L1,Top*%
%TF.FilePolarity,Positive*%
%FSLAX46Y46*%
G04 Gerber Fmt 4.6, Leading zero omitted, Abs format (unit mm)*
G04 Created by KiCad (PCBNEW 7.0.10) date 2025-10-01 21:30:06*
%MOMM*%
%LPD*%
G01*
G04 APERTURE LIST*
%TA.AperFunction,ComponentPad*%
%ADD10R,1.700000X1.700000*%
%TD*%
%TA.AperFunction,ComponentPad*%
%ADD11O,1.700000X1.700000*%
%TD*%
%TA.AperFunction,SMDPad,CuDef*%
%ADD12R,1.550000X0.600000*%
%TD*%
%TA.AperFunction,SMDPad,CuDef*%
%ADD13R,1.800000X1.200000*%
%TD*%
%TA.AperFunction,ComponentPad*%
%ADD14R,1.508000X1.508000*%
%TD*%
%TA.AperFunction,ComponentPad*%
%ADD15C,1.508000*%
%TD*%
%TA.AperFunction,ViaPad*%
%ADD16C,0.600000*%
%TD*%
%TA.AperFunction,Conductor*%
%ADD17C,0.300000*%
%TD*%
%TA.AperFunction,Conductor*%
%ADD18C,1.000000*%
%TD*%
%TA.AperFunction,Conductor*%
%ADD19C,0.200000*%
%TD*%
G04 APERTURE END LIST*
D10*
%TO.P,U2,1,3V3*%
%TO.N,+3V3*%
X156575000Y-81300000D03*
D11*
%TO.P,U2,2,GND*%
%TO.N,GND*%
X156575000Y-83840000D03*
%TO.P,U2,3,3V3*%
%TO.N,+3V3*%
X154035000Y-81300000D03*
%TO.P,U2,4,GND*%
%TO.N,GND*%
X154035000Y-83840000D03*
%TO.P,U2,5,3V3*%
%TO.N,+3V3*%
X151495000Y-81300000D03*
%TO.P,U2,6,GND*%
%TO.N,GND*%
X151495000Y-83840000D03*
%TO.P,U2,7,AD0*%
%TO.N,unconnected-(U2A-AD0-Pad7)*%
X148955000Y-81300000D03*
%TO.P,U2,8,~{RESET}*%
%TO.N,unconnected-(U2A-~{RESET}-Pad8)*%
X148955000Y-83840000D03*
%TO.P,U2,9,AD2*%
%TO.N,unconnected-(U2A-AD2-Pad9)*%
X146415000Y-81300000D03*
%TO.P,U2,10,AD1*%
%TO.N,unconnected-(U2A-AD1-Pad10)*%
X146415000Y-83840000D03*
%TO.P,U2,11,VIO*%
%TO.N,+3V3*%
X143875000Y-81300000D03*
%TO.P,U2,12,AD3*%
%TO.N,/SPI_SS*%
X143875000Y-83840000D03*
%TO.P,U2,13,AD5*%
%TO.N,unconnected-(U2A-AD5-Pad13)*%
X141335000Y-81300000D03*
%TO.P,U2,14,AD4*%
%TO.N,/CRESET_N*%
X141335000Y-83840000D03*
%TO.P,U2,15,AD7*%
%TO.N,unconnected-(U2A-AD7-Pad15)*%
X138795000Y-81300000D03*
%TO.P,U2,16,AD6*%
%TO.N,unconnected-(U2A-AD6-Pad16)*%
X138795000Y-83840000D03*
%TO.P,U2,17,AC1*%
%TO.N,unconnected-(U2A-AC1-Pad17)*%
X136255000Y-81300000D03*
%TO.P,U2,18,AC0*%
%TO.N,unconnected-(U2A-AC0-Pad18)*%
X136255000Y-83840000D03*
%TO.P,U2,19,AC3*%
%TO.N,unconnected-(U2A-AC3-Pad19)*%
X133715000Y-81300000D03*
%TO.P,U2,20,AC2*%
%TO.N,unconnected-(U2A-AC2-Pad20)*%
X133715000Y-83840000D03*
%TO.P,U2,21,VIO*%
%TO.N,+3V3*%
X131175000Y-81300000D03*
%TO.P,U2,22,AC4*%
%TO.N,unconnected-(U2A-AC4-Pad22)*%
X131175000Y-83840000D03*
%TO.P,U2,23,AC6*%
%TO.N,unconnected-(U2A-AC6-Pad23)*%
X128635000Y-81300000D03*
%TO.P,U2,24,AC5*%
%TO.N,unconnected-(U2A-AC5-Pad24)*%
X128635000Y-83840000D03*
%TO.P,U2,25,~{SUSPEND}*%
%TO.N,unconnected-(U2A-~{SUSPEND}-Pad25)*%
X126095000Y-81300000D03*
%TO.P,U2,26,AC7*%
%TO.N,unconnected-(U2A-AC7-Pad26)*%
X126095000Y-83840000D03*
D10*
%TO.P,U2,27,VBUS*%
%TO.N,+5V*%
X156575000Y-104160000D03*
D11*
%TO.P,U2,28,GND*%
%TO.N,GND*%
X156575000Y-106700000D03*
%TO.P,U2,29,5Vin*%
%TO.N,+5V*%
X154035000Y-104160000D03*
%TO.P,U2,30,GND*%
%TO.N,GND*%
X154035000Y-106700000D03*
%TO.P,U2,31,CS*%
%TO.N,unconnected-(U2B-CS-Pad31)*%
X151495000Y-104160000D03*
%TO.P,U2,32,CLK*%
%TO.N,unconnected-(U2B-CLK-Pad32)*%
X151495000Y-106700000D03*
%TO.P,U2,33,DATA*%
%TO.N,unconnected-(U2B-DATA-Pad33)*%
X148955000Y-104160000D03*
%TO.P,U2,34,~{PWREN}*%
%TO.N,unconnected-(U2B-~{PWREN}-Pad34)*%
X148955000Y-106700000D03*
%TO.P,U2,35,BC7*%
%TO.N,unconnected-(U2B-BC7-Pad35)*%
X146415000Y-104160000D03*
%TO.P,U2,36,BC6*%
%TO.N,unconnected-(U2B-BC6-Pad36)*%
X146415000Y-106700000D03*
%TO.P,U2,37,BC5*%
%TO.N,unconnected-(U2B-BC5-Pad37)*%
X143875000Y-104160000D03*
%TO.P,U2,38,VIO*%
%TO.N,+3V3*%
X143875000Y-106700000D03*
%TO.P,U2,39,BC4*%
%TO.N,unconnected-(U2B-BC4-Pad39)*%
X141335000Y-104160000D03*
%TO.P,U2,40,BC3*%
%TO.N,unconnected-(U2B-BC3-Pad40)*%
X141335000Y-106700000D03*
%TO.P,U2,41,BC2*%
%TO.N,unconnected-(U2B-BC2-Pad41)*%
X138795000Y-104160000D03*
%TO.P,U2,42,BC1*%
%TO.N,unconnected-(U2B-BC1-Pad42)*%
X138795000Y-106700000D03*
%TO.P,U2,43,BC0*%
%TO.N,unconnected-(U2B-BC0-Pad43)*%
X136255000Y-104160000D03*
%TO.P,U2,44,BD7*%
%TO.N,unconnected-(U2B-BD7-Pad44)*%
X136255000Y-106700000D03*
%TO.P,U2,45,BD6*%
%TO.N,unconnected-(U2B-BD6-Pad45)*%
X133715000Y-104160000D03*
%TO.P,U2,46,BD5*%
%TO.N,unconnected-(U2B-BD5-Pad46)*%
X133715000Y-106700000D03*
%TO.P,U2,47,BD4*%
%TO.N,unconnected-(U2B-BD4-Pad47)*%
X131175000Y-104160000D03*
%TO.P,U2,48,VIO*%
%TO.N,+3V3*%
X131175000Y-106700000D03*
%TO.P,U2,49,BD3*%
%TO.N,/TMS*%
X128635000Y-104160000D03*
%TO.P,U2,50,BD2*%
%TO.N,/TDO*%
X128635000Y-106700000D03*
%TO.P,U2,51,BD1*%
%TO.N,/TDI*%
X126095000Y-104160000D03*
%TO.P,U2,52,BD0*%
%TO.N,/TCK*%
X126095000Y-106700000D03*
%TD*%
D12*
%TO.P,J101,1,Pin_1*%
%TO.N,/SYS_SWCLK*%
X129400000Y-93000000D03*
%TO.P,J101,2,Pin_2*%
%TO.N,GND*%
X129400000Y-94000000D03*
%TO.P,J101,3,Pin_3*%
%TO.N,/SYS_SWDIO*%
X129400000Y-95000000D03*
D13*
%TO.P,J101,S1*%
%TO.N,N/C*%
X125525000Y-91700000D03*
%TO.P,J101,S2*%
X125525000Y-96300000D03*
%TD*%
D14*
%TO.P,U1,1,GP0*%
%TO.N,unconnected-(U1-GP0-Pad1)*%
X157960000Y-86380000D03*
D15*
%TO.P,U1,2,GP1*%
%TO.N,unconnected-(U1-GP1-Pad2)*%
X155420000Y-86380000D03*
%TO.P,U1,3,GP2*%
%TO.N,unconnected-(U1-GP2-Pad3)*%
X152880000Y-86380000D03*
%TO.P,U1,4,GP3*%
%TO.N,unconnected-(U1-GP3-Pad4)*%
X150340000Y-86380000D03*
%TO.P,U1,5,GP4*%
%TO.N,unconnected-(U1-GP4-Pad5)*%
X147800000Y-86380000D03*
%TO.P,U1,6,GP5*%
%TO.N,unconnected-(U1-GP5-Pad6)*%
X145260000Y-86380000D03*
%TO.P,U1,7,GP6*%
%TO.N,unconnected-(U1-GP6-Pad7)*%
X142720000Y-86380000D03*
%TO.P,U1,8,GP7*%
%TO.N,unconnected-(U1-GP7-Pad8)*%
X140180000Y-86380000D03*
%TO.P,U1,9,GP8*%
%TO.N,/SYS_UART_RX*%
X137640000Y-86380000D03*
%TO.P,U1,10,GP9*%
%TO.N,/SYS_UART_TX*%
X137640000Y-88920000D03*
%TO.P,U1,11,GP10*%
%TO.N,/SYS_SWCLK*%
X137640000Y-91460000D03*
%TO.P,U1,12,GP11*%
%TO.N,/SYS_SWDIO*%
X137640000Y-94000000D03*
%TO.P,U1,13,GP12*%
%TO.N,GND*%
X137640000Y-96540000D03*
%TO.P,U1,14,GP13*%
%TO.N,unconnected-(U1-GP13-Pad14)*%
X137640000Y-99080000D03*
%TO.P,U1,15,GP14*%
%TO.N,unconnected-(U1-GP14-Pad15)*%
X137640000Y-101620000D03*
%TO.P,U1,16,GP15*%
%TO.N,unconnected-(U1-GP15-Pad16)*%
X140180000Y-101620000D03*
%TO.P,U1,17,GP26*%
%TO.N,unconnected-(U1-GP26-Pad17)*%
X142720000Y-101620000D03*
%TO.P,U1,18,GP27*%
%TO.N,unconnected-(U1-GP27-Pad18)*%
X145260000Y-101620000D03*
%TO.P,U1,19,GP28*%
%TO.N,unconnected-(U1-GP28-Pad19)*%
X147800000Y-101620000D03*
%TO.P,U1,20,GP29*%
%TO.N,unconnected-(U1-GP29-Pad20)*%
X150340000Y-101620000D03*
%TO.P,U1,21,3V3*%
%TO.N,unconnected-(U1-3V3-Pad21)*%
X152880000Y-101620000D03*
%TO.P,U1,22,GND*%
%TO.N,GND*%
X155420000Y-101620000D03*
%TO.P,U1,23,5V*%
%TO.N,unconnected-(U1-5V-Pad23)*%
X157960000Y-101620000D03*
%TD*%
D16*
%TO.N,/TMS*%
X128635000Y-99900000D03*
%TO.N,GND*%
X128700000Y-89000000D03*
X145000000Y-98000000D03*
X141000000Y-90000000D03*
X141000000Y-98000000D03*
X149000000Y-90000000D03*
X153000000Y-94000000D03*
X145000000Y-90000000D03*
X130700000Y-98000000D03*
X135000000Y-102000000D03*
X145000000Y-94000000D03*
X126000000Y-98900000D03*
X130800000Y-102500000D03*
X134100000Y-89000000D03*
X141000000Y-94000000D03*
X153000000Y-98000000D03*
X157000000Y-98000000D03*
X126000000Y-101800000D03*
X157000000Y-90000000D03*
X131500000Y-89000000D03*
X153000000Y-90000000D03*
X130700000Y-94100000D03*
X157000000Y-94000000D03*
X149000000Y-94000000D03*
X134500000Y-93000000D03*
X136100000Y-90600000D03*
X149000000Y-98000000D03*
X126000000Y-86000000D03*
%TO.N,/TCK*%
X127300000Y-100500000D03*
%TO.N,/TDO*%
X129900000Y-101100000D03*
%TO.N,/SYS_SWCLK*%
X130700000Y-91500000D03*
%TO.N,/SYS_SWDIO*%
X130700000Y-90200000D03*
%TD*%
D17*
%TO.N,GND*%
X137640000Y-96577500D02*
X134600000Y-96577500D01*
D18*
%TO.N,+5V*%
X154035000Y-104160000D02*
X156575000Y-104160000D01*
D19*
%TO.N,/TMS*%
X128635000Y-99900000D02*
X128635000Y-104160000D01*
%TO.N,/TCK*%
X127300000Y-100500000D02*
X127300000Y-105495000D01*
X127300000Y-105495000D02*
X126095000Y-106700000D01*
%TO.N,/TDO*%
X129900000Y-101100000D02*
X129900000Y-105435000D01*
X129900000Y-105435000D02*
X128635000Y-106700000D01*
%TO.N,/SPI_SS*%
X143800000Y-83915000D02*
X143875000Y-83840000D01*
%TO.N,/SYS_SWCLK*%
X129900000Y-91500000D02*
X130700000Y-91500000D01*
X129400000Y-93000000D02*
X129400000Y-92000000D01*
X129400000Y-92000000D02*
X129900000Y-91500000D01*
%TO.N,/SYS_SWDIO*%
X129500000Y-90200000D02*
X130700000Y-90200000D01*
X128400000Y-95000000D02*
X127800000Y-94400000D01*
X127800000Y-94400000D02*
X127800000Y-91900000D01*
X129400000Y-95000000D02*
X128400000Y-95000000D01*
X127800000Y-91900000D02*
X129500000Y-90200000D01*
%TD*%
%TA.AperFunction,Conductor*%
%TO.N,GND*%
G36*
X152658691Y-78219407D02*
G01*
X152694655Y-78268907D01*
X152699500Y-78299500D01*
X152699500Y-78502355D01*
X152731521Y-78704529D01*
X152794780Y-78899219D01*
X152887712Y-79081609D01*
X152887714Y-79081613D01*
X153008029Y-79247213D01*
X153008031Y-79247215D01*
X153008034Y-79247219D01*
X153152781Y-79391966D01*
X153152784Y-79391968D01*
X153152786Y-79391970D01*
X153318386Y-79512285D01*
X153318390Y-79512287D01*
X153500781Y-79605220D01*
X153695466Y-79668477D01*
X153695467Y-79668477D01*
X153695470Y-79668478D01*
X153897645Y-79700500D01*
X153897648Y-79700500D01*
X154102355Y-79700500D01*
X154304529Y-79668478D01*
X154304530Y-79668477D01*
X154304534Y-79668477D01*
X154499219Y-79605220D01*
X154681610Y-79512287D01*
X154847219Y-79391966D01*
X154991966Y-79247219D01*
X155112287Y-79081610D01*
X155205220Y-78899219D01*
X155268477Y-78704534D01*
X155300500Y-78502352D01*
X155300500Y-78400000D01*
X155300500Y-78352405D01*
X155300500Y-78299500D01*
X155319407Y-78241309D01*
X155368907Y-78205345D01*
X155399500Y-78200500D01*
X159277405Y-78200500D01*
X159317210Y-78200500D01*
X159332696Y-78201719D01*
X159347753Y-78204103D01*
X159371162Y-78207811D01*
X159400614Y-78217379D01*
X159428294Y-78231483D01*
X159453347Y-78249685D01*
X159475314Y-78271652D01*
X159493517Y-78296707D01*
X159507618Y-78324381D01*
X159517188Y-78353835D01*
X159523281Y-78392302D01*
X159524500Y-78407790D01*
X159524500Y-109592209D01*
X159523281Y-109607697D01*
X159517188Y-109646164D01*
X159507617Y-109675621D01*
X159493520Y-109703288D01*
X159475314Y-109728347D01*
X159453347Y-109750314D01*
X159428289Y-109768518D01*
X159400621Y-109782617D01*
X159371164Y-109792188D01*
X159343848Y-109796514D01*
X159332695Y-109798281D01*
X159317210Y-109799500D01*
X124707790Y-109799500D01*
X124692304Y-109798281D01*
X124678090Y-109796029D01*
X124653835Y-109792188D01*
X124624381Y-109782618D01*
X124596707Y-109768517D01*
X124571652Y-109750314D01*
X124549685Y-109728347D01*
X124531483Y-109703294D01*
X124517379Y-109675614D01*
X124507811Y-109646162D01*
X124501719Y-109607695D01*
X124500500Y-109592209D01*
X124500500Y-106700003D01*
X125039417Y-106700003D01*
X125059698Y-106905929D01*
X125059699Y-106905934D01*
X125119768Y-107103954D01*
X125217316Y-107286452D01*
X125348585Y-107446404D01*
X125348590Y-107446410D01*
X125348595Y-107446414D01*
X125508547Y-107577683D01*
X125508548Y-107577683D01*
X125508550Y-107577685D01*
X125691046Y-107675232D01*
X125828997Y-107717078D01*
X125889065Y-107735300D01*
X125889070Y-107735301D01*
X126094997Y-107755583D01*
X126095000Y-107755583D01*
X126095003Y-107755583D01*
X126300929Y-107735301D01*
X126300934Y-107735300D01*
X126498954Y-107675232D01*
X126681450Y-107577685D01*
X126841410Y-107446410D01*
X126972685Y-107286450D01*
X127070232Y-107103954D01*
X127130300Y-106905934D01*
X127130301Y-106905929D01*
X127150583Y-106700003D01*
X127150583Y-106699996D01*
X127130301Y-106494070D01*
X127130300Y-106494065D01*
X127112078Y-106433997D01*
X127070232Y-106296046D01*
X127070229Y-106296040D01*
X127053881Y-106265454D01*
X127043125Y-106205221D01*
X127069827Y-106150170D01*
X127071138Y-106148831D01*
X127466405Y-105753564D01*
X127477664Y-105745493D01*
X127476905Y-105744487D01*
X127484221Y-105738961D01*
X127484228Y-105738958D01*
X127515877Y-105704239D01*
X127518995Y-105700974D01*
X127532174Y-105687797D01*
X127532238Y-105687702D01*
X127540753Y-105676953D01*
X127559916Y-105655933D01*
X127563465Y-105646770D01*
X127574106Y-105626582D01*
X127579656Y-105618481D01*
X127586169Y-105590785D01*
X127590220Y-105577706D01*
X127600500Y-105551173D01*
X127600500Y-105541348D01*
X127603129Y-105518683D01*
X127605379Y-105509119D01*
X127601449Y-105480944D01*
X127600500Y-105467268D01*
X127600500Y-104832057D01*
X127619407Y-104773866D01*
X127668907Y-104737902D01*
X127730093Y-104737902D01*
X127776028Y-104769252D01*
X127888590Y-104906410D01*
X127888595Y-104906414D01*
X128048547Y-105037683D01*
X128048548Y-105037683D01*
X128048550Y-105037685D01*
X128231046Y-105135232D01*
X128368997Y-105177078D01*
X128429065Y-105195300D01*
X128429070Y-105195301D01*
X128634997Y-105215583D01*
X128635000Y-105215583D01*
X128635003Y-105215583D01*
X128840929Y-105195301D01*
X128840934Y-105195300D01*
X129038954Y-105135232D01*
X129221450Y-105037685D01*
X129381410Y-104906410D01*
X129423972Y-104854546D01*
X129475503Y-104821560D01*
X129536582Y-104825161D01*
X129583879Y-104863977D01*
X129599500Y-104917352D01*
X129599500Y-105269521D01*
X129580593Y-105327712D01*
X129570503Y-105339525D01*
X129186215Y-105723812D01*
X129131699Y-105751589D01*
X129071267Y-105742018D01*
X129069544Y-105741118D01*
X129038959Y-105724770D01*
X129038954Y-105724768D01*
X128840934Y-105664699D01*
X128840929Y-105664698D01*
X128635003Y-105644417D01*
X128634997Y-105644417D01*
X128429070Y-105664698D01*
X128429065Y-105664699D01*
X128231045Y-105724768D01*
X128048547Y-105822316D01*
X127888595Y-105953585D01*
X127888585Y-105953595D01*
X127757316Y-106113547D01*
X127659768Y-106296045D01*
X127599699Y-106494065D01*
X127599698Y-106494070D01*
X127579417Y-106699996D01*
X127579417Y-106700003D01*
X127599698Y-106905929D01*
X127599699Y-106905934D01*
X127659768Y-107103954D01*
X127757316Y-107286452D01*
X127888585Y-107446404D01*
X127888590Y-107446410D01*
X127888595Y-107446414D01*
X128048547Y-107577683D01*
X128048548Y-107577683D01*
X128048550Y-107577685D01*
X128231046Y-107675232D01*
X128368997Y-107717078D01*
X128429065Y-107735300D01*
X128429070Y-107735301D01*
X128634997Y-107755583D01*
X128635000Y-107755583D01*
X128635003Y-107755583D01*
X128840929Y-107735301D01*
X128840934Y-107735300D01*
X129038954Y-107675232D01*
X129221450Y-107577685D01*
X129381410Y-107446410D01*
X129512685Y-107286450D01*
X129610232Y-107103954D01*
X129670300Y-106905934D01*
X129670301Y-106905929D01*
X129690583Y-106700003D01*
X130119417Y-106700003D01*
X130139698Y-106905929D01*
X130139699Y-106905934D01*
X130199768Y-107103954D01*
X130297316Y-107286452D01*
X130428585Y-107446404D01*
X130428590Y-107446410D01*
X130428595Y-107446414D01*
X130588547Y-107577683D01*
X130588548Y-107577683D01*
X130588550Y-107577685D01*
X130771046Y-107675232D01*
X130908997Y-107717078D01*
X130969065Y-107735300D01*
X130969070Y-107735301D01*
X131174997Y-107755583D01*
X131175000Y-107755583D01*
X131175003Y-107755583D01*
X131380929Y-107735301D01*
X131380934Y-107735300D01*
X131578954Y-107675232D01*
X131761450Y-107577685D01*
X131921410Y-107446410D01*
X132052685Y-107286450D01*
X132150232Y-107103954D01*
X132210300Y-106905934D01*
X132210301Y-106905929D01*
X132230583Y-106700003D01*
X132659417Y-106700003D01*
X132679698Y-106905929D01*
X132679699Y-106905934D01*
X132739768Y-107103954D01*
X132837316Y-107286452D01*
X132968585Y-107446404D01*
X132968590Y-107446410D01*
X132968595Y-107446414D01*
X133128547Y-107577683D01*
X133128548Y-107577683D01*
X133128550Y-107577685D01*
X133311046Y-107675232D01*
X133448997Y-107717078D01*
X133509065Y-107735300D01*
X133509070Y-107735301D01*
X133714997Y-107755583D01*
X133715000Y-107755583D01*
X133715003Y-107755583D01*
X133920929Y-107735301D01*
X133920934Y-107735300D01*
X134118954Y-107675232D01*
X134301450Y-107577685D01*
X134461410Y-107446410D01*
X134592685Y-107286450D01*
X134690232Y-107103954D01*
X134750300Y-106905934D01*
X134750301Y-106905929D01*
X134770583Y-106700003D01*
X135199417Y-106700003D01*
X135219698Y-106905929D01*
X135219699Y-106905934D01*
X135279768Y-107103954D01*
X135377316Y-107286452D01*
X135508585Y-107446404D01*
X135508590Y-107446410D01*
X135508595Y-107446414D01*
X135668547Y-107577683D01*
X135668548Y-107577683D01*
X135668550Y-107577685D01*
X135851046Y-107675232D01*
X135988997Y-107717078D01*
X136049065Y-107735300D01*
X136049070Y-107735301D01*
X136254997Y-107755583D01*
X136255000Y-107755583D01*
X136255003Y-107755583D01*
X136460929Y-107735301D01*
X136460934Y-107735300D01*
X136658954Y-107675232D01*
X136841450Y-107577685D01*
X137001410Y-107446410D01*
X137132685Y-107286450D01*
X137230232Y-107103954D01*
X137290300Y-106905934D01*
X137290301Y-106905929D01*
X137310583Y-106700003D01*
X137739417Y-106700003D01*
X137759698Y-106905929D01*
X137759699Y-106905934D01*
X137819768Y-107103954D01*
X137917316Y-107286452D01*
X138048585Y-107446404D01*
X138048590Y-107446410D01*
X138048595Y-107446414D01*
X138208547Y-107577683D01*
X138208548Y-107577683D01*
X138208550Y-107577685D01*
X138391046Y-107675232D01*
X138528997Y-107717078D01*
X138589065Y-107735300D01*
X138589070Y-107735301D01*
X138794997Y-107755583D01*
X138795000Y-107755583D01*
X138795003Y-107755583D01*
X139000929Y-107735301D01*
X139000934Y-107735300D01*
X139198954Y-107675232D01*
X139381450Y-107577685D01*
X139541410Y-107446410D01*
X139672685Y-107286450D01*
X139770232Y-107103954D01*
X139830300Y-106905934D01*
X139830301Y-106905929D01*
X139850583Y-106700003D01*
X140279417Y-106700003D01*
X140299698Y-106905929D01*
X140299699Y-106905934D01*
X140359768Y-107103954D01*
X140457316Y-107286452D01*
X140588585Y-107446404D01*
X140588590Y-107446410D01*
X140588595Y-107446414D01*
X140748547Y-107577683D01*
X140748548Y-107577683D01*
X140748550Y-107577685D01*
X140931046Y-107675232D01*
X141068997Y-107717078D01*
X141129065Y-107735300D01*
X141129070Y-107735301D01*
X141334997Y-107755583D01*
X141335000Y-107755583D01*
X141335003Y-107755583D01*
X141540929Y-107735301D01*
X141540934Y-107735300D01*
X141738954Y-107675232D01*
X141921450Y-107577685D01*
X142081410Y-107446410D01*
X142212685Y-107286450D01*
X142310232Y-107103954D01*
X142370300Y-106905934D01*
X142370301Y-106905929D01*
X142390583Y-106700003D01*
X142819417Y-106700003D01*
X142839698Y-106905929D01*
X142839699Y-106905934D01*
X142899768Y-107103954D01*
X142997316Y-107286452D01*
X143128585Y-107446404D01*
X143128590Y-107446410D01*
X143128595Y-107446414D01*
X143288547Y-107577683D01*
X143288548Y-107577683D01*
X143288550Y-107577685D01*
X143471046Y-107675232D01*
X143608997Y-107717078D01*
X143669065Y-107735300D01*
X143669070Y-107735301D01*
X143874997Y-107755583D01*
X143875000Y-107755583D01*
X143875003Y-107755583D01*
X144080929Y-107735301D01*
X144080934Y-107735300D01*
X144278954Y-107675232D01*
X144461450Y-107577685D01*
X144621410Y-107446410D01*
X144752685Y-107286450D01*
X144850232Y-107103954D01*
X144910300Y-106905934D01*
X144910301Y-106905929D01*
X144930583Y-106700003D01*
X145359417Y-106700003D01*
X145379698Y-106905929D01*
X145379699Y-106905934D01*
X145439768Y-107103954D01*
X145537316Y-107286452D01*
X145668585Y-107446404D01*
X145668590Y-107446410D01*
X145668595Y-107446414D01*
X145828547Y-107577683D01*
X145828548Y-107577683D01*
X145828550Y-107577685D01*
X146011046Y-107675232D01*
X146148997Y-107717078D01*
X146209065Y-107735300D01*
X146209070Y-107735301D01*
X146414997Y-107755583D01*
X146415000Y-107755583D01*
X146415003Y-107755583D01*
X146620929Y-107735301D01*
X146620934Y-107735300D01*
X146818954Y-107675232D01*
X147001450Y-107577685D01*
X147161410Y-107446410D01*
X147292685Y-107286450D01*
X147390232Y-107103954D01*
X147450300Y-106905934D01*
X147450301Y-106905929D01*
X147470583Y-106700003D01*
X147899417Y-106700003D01*
X147919698Y-106905929D01*
X147919699Y-106905934D01*
X147979768Y-107103954D01*
X148077316Y-107286452D01*
X148208585Y-107446404D01*
X148208590Y-107446410D01*
X148208595Y-107446414D01*
X148368547Y-107577683D01*
X148368548Y-107577683D01*
X148368550Y-107577685D01*
X148551046Y-107675232D01*
X148688997Y-107717078D01*
X148749065Y-107735300D01*
X148749070Y-107735301D01*
X148954997Y-107755583D01*
X148955000Y-107755583D01*
X148955003Y-107755583D01*
X149160929Y-107735301D01*
X149160934Y-107735300D01*
X149358954Y-107675232D01*
X149541450Y-107577685D01*
X149701410Y-107446410D01*
X149832685Y-107286450D01*
X149930232Y-107103954D01*
X149990300Y-106905934D01*
X149990301Y-106905929D01*
X150010583Y-106700003D01*
X150439417Y-106700003D01*
X150459698Y-106905929D01*
X150459699Y-106905934D01*
X150519768Y-107103954D01*
X150617316Y-107286452D01*
X150748585Y-107446404D01*
X150748590Y-107446410D01*
X150748595Y-107446414D01*
X150908547Y-107577683D01*
X150908548Y-107577683D01*
X150908550Y-107577685D01*
X151091046Y-107675232D01*
X151228997Y-107717078D01*
X151289065Y-107735300D01*
X151289070Y-107735301D01*
X151494997Y-107755583D01*
X151495000Y-107755583D01*
X151495003Y-107755583D01*
X151700929Y-107735301D01*
X151700934Y-107735300D01*
X151898954Y-107675232D01*
X152081450Y-107577685D01*
X152241410Y-107446410D01*
X152372685Y-107286450D01*
X152470232Y-107103954D01*
X152530300Y-106905934D01*
X152530301Y-106905929D01*
X152550583Y-106700003D01*
X152550583Y-106699996D01*
X152530301Y-106494070D01*
X152530300Y-106494065D01*
X152512078Y-106433997D01*
X152470232Y-106296046D01*
X152372685Y-106113550D01*
X152241410Y-105953590D01*
X152241404Y-105953585D01*
X152081452Y-105822316D01*
X151898954Y-105724768D01*
X151700934Y-105664699D01*
X151700929Y-105664698D01*
X151495003Y-105644417D01*
X151494997Y-105644417D01*
X151289070Y-105664698D01*
X151289065Y-105664699D01*
X151091045Y-105724768D01*
X150908547Y-105822316D01*
X150748595Y-105953585D01*
X150748585Y-105953595D01*
X150617316Y-106113547D01*
X150519768Y-106296045D01*
X150459699Y-106494065D01*
X150459698Y-106494070D01*
X150439417Y-106699996D01*
X150439417Y-106700003D01*
X150010583Y-106700003D01*
X150010583Y-106699996D01*
X149990301Y-106494070D01*
X149990300Y-106494065D01*
X149972078Y-106433997D01*
X149930232Y-106296046D01*
X149832685Y-106113550D01*
X149701410Y-105953590D01*
X149701404Y-105953585D01*
X149541452Y-105822316D01*
X149358954Y-105724768D01*
X149160934Y-105664699D01*
X149160929Y-105664698D01*
X148955003Y-105644417D01*
X148954997Y-105644417D01*
X148749070Y-105664698D01*
X148749065Y-105664699D01*
X148551045Y-105724768D01*
X148368547Y-105822316D01*
X148208595Y-105953585D01*
X148208585Y-105953595D01*
X148077316Y-106113547D01*
X147979768Y-106296045D01*
X147919699Y-106494065D01*
X147919698Y-106494070D01*
X147899417Y-106699996D01*
X147899417Y-106700003D01*
X147470583Y-106700003D01*
X147470583Y-106699996D01*
X147450301Y-106494070D01*
X147450300Y-106494065D01*
X147432078Y-106433997D01*
X147390232Y-106296046D01*
X147292685Y-106113550D01*
X147161410Y-105953590D01*
X147161404Y-105953585D01*
X147001452Y-105822316D01*
X146818954Y-105724768D01*
X146620934Y-105664699D01*
X146620929Y-105664698D01*
X146415003Y-105644417D01*
X146414997Y-105644417D01*
X146209070Y-105664698D01*
X146209065Y-105664699D01*
X146011045Y-105724768D01*
X145828547Y-105822316D01*
X145668595Y-105953585D01*
X145668585Y-105953595D01*
X145537316Y-106113547D01*
X145439768Y-106296045D01*
X145379699Y-106494065D01*
X145379698Y-106494070D01*
X145359417Y-106699996D01*
X145359417Y-106700003D01*
X144930583Y-106700003D01*
X144930583Y-106699996D01*
X144910301Y-106494070D01*
X144910300Y-106494065D01*
X144892078Y-106433997D01*
X144850232Y-106296046D01*
X144752685Y-106113550D01*
X144621410Y-105953590D01*
X144621404Y-105953585D01*
X144461452Y-105822316D01*
X144278954Y-105724768D01*
X144080934Y-105664699D01*
X144080929Y-105664698D01*
X143875003Y-105644417D01*
X143874997Y-105644417D01*
X143669070Y-105664698D01*
X143669065Y-105664699D01*
X143471045Y-105724768D01*
X143288547Y-105822316D01*
X143128595Y-105953585D01*
X143128585Y-105953595D01*
X142997316Y-106113547D01*
X142899768Y-106296045D01*
X142839699Y-106494065D01*
X142839698Y-106494070D01*
X142819417Y-106699996D01*
X142819417Y-106700003D01*
X142390583Y-106700003D01*
X142390583Y-106699996D01*
X142370301Y-106494070D01*
X142370300Y-106494065D01*
X142352078Y-106433997D01*
X142310232Y-106296046D01*
X142212685Y-106113550D01*
X142081410Y-105953590D01*
X142081404Y-105953585D01*
X141921452Y-105822316D01*
X141738954Y-105724768D01*
X141540934Y-105664699D01*
X141540929Y-105664698D01*
X141335003Y-105644417D01*
X141334997Y-105644417D01*
X141129070Y-105664698D01*
X141129065Y-105664699D01*
X140931045Y-105724768D01*
X140748547Y-105822316D01*
X140588595Y-105953585D01*
X140588585Y-105953595D01*
X140457316Y-106113547D01*
X140359768Y-106296045D01*
X140299699Y-106494065D01*
X140299698Y-106494070D01*
X140279417Y-106699996D01*
X140279417Y-106700003D01*
X139850583Y-106700003D01*
X139850583Y-106699996D01*
X139830301Y-106494070D01*
X139830300Y-106494065D01*
X139812078Y-106433997D01*
X139770232Y-106296046D01*
X139672685Y-106113550D01*
X139541410Y-105953590D01*
X139541404Y-105953585D01*
X139381452Y-105822316D01*
X139198954Y-105724768D01*
X139000934Y-105664699D01*
X139000929Y-105664698D01*
X138795003Y-105644417D01*
X138794997Y-105644417D01*
X138589070Y-105664698D01*
X138589065Y-105664699D01*
X138391045Y-105724768D01*
X138208547Y-105822316D01*
X138048595Y-105953585D01*
X138048585Y-105953595D01*
X137917316Y-106113547D01*
X137819768Y-106296045D01*
X137759699Y-106494065D01*
X137759698Y-106494070D01*
X137739417Y-106699996D01*
X137739417Y-106700003D01*
X137310583Y-106700003D01*
X137310583Y-106699996D01*
X137290301Y-106494070D01*
X137290300Y-106494065D01*
X137272078Y-106433997D01*
X137230232Y-106296046D01*
X137132685Y-106113550D01*
X137001410Y-105953590D01*
X137001404Y-105953585D01*
X136841452Y-105822316D01*
X136658954Y-105724768D01*
X136460934Y-105664699D01*
X136460929Y-105664698D01*
X136255003Y-105644417D01*
X136254997Y-105644417D01*
X136049070Y-105664698D01*
X136049065Y-105664699D01*
X135851045Y-105724768D01*
X135668547Y-105822316D01*
X135508595Y-105953585D01*
X135508585Y-105953595D01*
X135377316Y-106113547D01*
X135279768Y-106296045D01*
X135219699Y-106494065D01*
X135219698Y-106494070D01*
X135199417Y-106699996D01*
X135199417Y-106700003D01*
X134770583Y-106700003D01*
X134770583Y-106699996D01*
X134750301Y-106494070D01*
X134750300Y-106494065D01*
X134732078Y-106433997D01*
X134690232Y-106296046D01*
X134592685Y-106113550D01*
X134461410Y-105953590D01*
X134461404Y-105953585D01*
X134301452Y-105822316D01*
X134118954Y-105724768D01*
X133920934Y-105664699D01*
X133920929Y-105664698D01*
X133715003Y-105644417D01*
X133714997Y-105644417D01*
X133509070Y-105664698D01*
X133509065Y-105664699D01*
X133311045Y-105724768D01*
X133128547Y-105822316D01*
X132968595Y-105953585D01*
X132968585Y-105953595D01*
X132837316Y-106113547D01*
X132739768Y-106296045D01*
X132679699Y-106494065D01*
X132679698Y-106494070D01*
X132659417Y-106699996D01*
X132659417Y-106700003D01*
X132230583Y-106700003D01*
X132230583Y-106699996D01*
X132210301Y-106494070D01*
X132210300Y-106494065D01*
X132192078Y-106433997D01*
X132150232Y-106296046D01*
X132052685Y-106113550D01*
X131921410Y-105953590D01*
X131921404Y-105953585D01*
X131761452Y-105822316D01*
X131578954Y-105724768D01*
X131380934Y-105664699D01*
X131380929Y-105664698D01*
X131175003Y-105644417D01*
X131174997Y-105644417D01*
X130969070Y-105664698D01*
X130969065Y-105664699D01*
X130771045Y-105724768D01*
X130588547Y-105822316D01*
X130428595Y-105953585D01*
X130428585Y-105953595D01*
X130297316Y-106113547D01*
X130199768Y-106296045D01*
X130139699Y-106494065D01*
X130139698Y-106494070D01*
X130119417Y-106699996D01*
X130119417Y-106700003D01*
X129690583Y-106700003D01*
X129690583Y-106699996D01*
X129670301Y-106494070D01*
X129670300Y-106494065D01*
X129652078Y-106433997D01*
X129610232Y-106296046D01*
X129610229Y-106296040D01*
X129593881Y-106265454D01*
X129583125Y-106205221D01*
X129609827Y-106150170D01*
X129611138Y-106148831D01*
X130066405Y-105693564D01*
X130077664Y-105685493D01*
X130076905Y-105684487D01*
X130084221Y-105678961D01*
X130084228Y-105678958D01*
X130115877Y-105644239D01*
X130118995Y-105640974D01*
X130132174Y-105627797D01*
X130132238Y-105627702D01*
X130140753Y-105616953D01*
X130159916Y-105595933D01*
X130163465Y-105586770D01*
X130174106Y-105566582D01*
X130179656Y-105558481D01*
X130186169Y-105530785D01*
X130190220Y-105517706D01*
X130200500Y-105491173D01*
X130200500Y-105481348D01*
X130203129Y-105458683D01*
X130205379Y-105449119D01*
X130201449Y-105420944D01*
X130200500Y-105407268D01*
X130200500Y-104905167D01*
X130219407Y-104846976D01*
X130268907Y-104811012D01*
X130330093Y-104811012D01*
X130376028Y-104842363D01*
X130428581Y-104906400D01*
X130428585Y-104906404D01*
X130428590Y-104906410D01*
X130428595Y-104906414D01*
X130588547Y-105037683D01*
X130588548Y-105037683D01*
X130588550Y-105037685D01*
X130771046Y-105135232D01*
X130908997Y-105177078D01*
X130969065Y-105195300D01*
X130969070Y-105195301D01*
X131174997Y-105215583D01*
X131175000Y-105215583D01*
X131175003Y-105215583D01*
X131380929Y-105195301D01*
X131380934Y-105195300D01*
X131578954Y-105135232D01*
X131761450Y-105037685D01*
X131921410Y-104906410D01*
X132052685Y-104746450D01*
X132150232Y-104563954D01*
X132210300Y-104365934D01*
X132210301Y-104365929D01*
X132230583Y-104160003D01*
X132659417Y-104160003D01*
X132679698Y-104365929D01*
X132679699Y-104365934D01*
X132739768Y-104563954D01*
X132837316Y-104746452D01*
X132901911Y-104825161D01*
X132968590Y-104906410D01*
X132968595Y-104906414D01*
X133128547Y-105037683D01*
X133128548Y-105037683D01*
X133128550Y-105037685D01*
X133311046Y-105135232D01*
X133448997Y-105177078D01*
X133509065Y-105195300D01*
X133509070Y-105195301D01*
X133714997Y-105215583D01*
X133715000Y-105215583D01*
X133715003Y-105215583D01*
X133920929Y-105195301D01*
X133920934Y-105195300D01*
X134118954Y-105135232D01*
X134301450Y-105037685D01*
X134461410Y-104906410D01*
X134592685Y-104746450D01*
X134690232Y-104563954D01*
X134750300Y-104365934D01*
X134750301Y-104365929D01*
X134770583Y-104160003D01*
X135199417Y-104160003D01*
X135219698Y-104365929D01*
X135219699Y-104365934D01*
X135279768Y-104563954D01*
X135377316Y-104746452D01*
X135441911Y-104825161D01*
X135508590Y-104906410D01*
X135508595Y-104906414D01*
X135668547Y-105037683D01*
X135668548Y-105037683D01*
X135668550Y-105037685D01*
X135851046Y-105135232D01*
X135988997Y-105177078D01*
X136049065Y-105195300D01*
X136049070Y-105195301D01*
X136254997Y-105215583D01*
X136255000Y-105215583D01*
X136255003Y-105215583D01*
X136460929Y-105195301D01*
X136460934Y-105195300D01*
X136658954Y-105135232D01*
X136841450Y-105037685D01*
X137001410Y-104906410D01*
X137132685Y-104746450D01*
X137230232Y-104563954D01*
X137290300Y-104365934D01*
X137290301Y-104365929D01*
X137310583Y-104160003D01*
X137739417Y-104160003D01*
X137759698Y-104365929D01*
X137759699Y-104365934D01*
X137819768Y-104563954D01*
X137917316Y-104746452D01*
X137981911Y-104825161D01*
X138048590Y-104906410D01*
X138048595Y-104906414D01*
X138208547Y-105037683D01*
X138208548Y-105037683D01*
X138208550Y-105037685D01*
X138391046Y-105135232D01*
X138528997Y-105177078D01*
X138589065Y-105195300D01*
X138589070Y-105195301D01*
X138794997Y-105215583D01*
X138795000Y-105215583D01*
X138795003Y-105215583D01*
X139000929Y-105195301D01*
X139000934Y-105195300D01*
X139198954Y-105135232D01*
X139381450Y-105037685D01*
X139541410Y-104906410D01*
X139672685Y-104746450D01*
X139770232Y-104563954D01*
X139830300Y-104365934D01*
X139830301Y-104365929D01*
X139850583Y-104160003D01*
X140279417Y-104160003D01*
X140299698Y-104365929D01*
X140299699Y-104365934D01*
X140359768Y-104563954D01*
X140457316Y-104746452D01*
X140521911Y-104825161D01*
X140588590Y-104906410D01*
X140588595Y-104906414D01*
X140748547Y-105037683D01*
X140748548Y-105037683D01*
X140748550Y-105037685D01*
X140931046Y-105135232D01*
X141068997Y-105177078D01*
X141129065Y-105195300D01*
X141129070Y-105195301D01*
X141334997Y-105215583D01*
X141335000Y-105215583D01*
X141335003Y-105215583D01*
X141540929Y-105195301D01*
X141540934Y-105195300D01*
X141738954Y-105135232D01*
X141921450Y-105037685D01*
X142081410Y-104906410D01*
X142212685Y-104746450D01*
X142310232Y-104563954D01*
X142370300Y-104365934D01*
X142370301Y-104365929D01*
X142390583Y-104160003D01*
X142819417Y-104160003D01*
X142839698Y-104365929D01*
X142839699Y-104365934D01*
X142899768Y-104563954D01*
X142997316Y-104746452D01*
X143061911Y-104825161D01*
X143128590Y-104906410D01*
X143128595Y-104906414D01*
X143288547Y-105037683D01*
X143288548Y-105037683D01*
X143288550Y-105037685D01*
X143471046Y-105135232D01*
X143608997Y-105177078D01*
X143669065Y-105195300D01*
X143669070Y-105195301D01*
X143874997Y-105215583D01*
X143875000Y-105215583D01*
X143875003Y-105215583D01*
X144080929Y-105195301D01*
X144080934Y-105195300D01*
X144278954Y-105135232D01*
X144461450Y-105037685D01*
X144621410Y-104906410D01*
X144752685Y-104746450D01*
X144850232Y-104563954D01*
X144910300Y-104365934D01*
X144910301Y-104365929D01*
X144930583Y-104160003D01*
X145359417Y-104160003D01*
X145379698Y-104365929D01*
X145379699Y-104365934D01*
X145439768Y-104563954D01*
X145537316Y-104746452D01*
X145601911Y-104825161D01*
X145668590Y-104906410D01*
X145668595Y-104906414D01*
X145828547Y-105037683D01*
X145828548Y-105037683D01*
X145828550Y-105037685D01*
X146011046Y-105135232D01*
X146148997Y-105177078D01*
X146209065Y-105195300D01*
X146209070Y-105195301D01*
X146414997Y-105215583D01*
X146415000Y-105215583D01*
X146415003Y-105215583D01*
X146620929Y-105195301D01*
X146620934Y-105195300D01*
X146818954Y-105135232D01*
X147001450Y-105037685D01*
X147161410Y-104906410D01*
X147292685Y-104746450D01*
X147390232Y-104563954D01*
X147450300Y-104365934D01*
X147450301Y-104365929D01*
X147470583Y-104160003D01*
X147899417Y-104160003D01*
X147919698Y-104365929D01*
X147919699Y-104365934D01*
X147979768Y-104563954D01*
X148077316Y-104746452D01*
X148141911Y-104825161D01*
X148208590Y-104906410D01*
X148208595Y-104906414D01*
X148368547Y-105037683D01*
X148368548Y-105037683D01*
X148368550Y-105037685D01*
X148551046Y-105135232D01*
X148688997Y-105177078D01*
X148749065Y-105195300D01*
X148749070Y-105195301D01*
X148954997Y-105215583D01*
X148955000Y-105215583D01*
X148955003Y-105215583D01*
X149160929Y-105195301D01*
X149160934Y-105195300D01*
X149358954Y-105135232D01*
X149541450Y-105037685D01*
X149701410Y-104906410D01*
X149832685Y-104746450D01*
X149930232Y-104563954D01*
X149990300Y-104365934D01*
X149990301Y-104365929D01*
X150010583Y-104160003D01*
X150439417Y-104160003D01*
X150459698Y-104365929D01*
X150459699Y-104365934D01*
X150519768Y-104563954D01*
X150617316Y-104746452D01*
X150681911Y-104825161D01*
X150748590Y-104906410D01*
X150748595Y-104906414D01*
X150908547Y-105037683D01*
X150908548Y-105037683D01*
X150908550Y-105037685D01*
X151091046Y-105135232D01*
X151228997Y-105177078D01*
X151289065Y-105195300D01*
X151289070Y-105195301D01*
X151494997Y-105215583D01*
X151495000Y-105215583D01*
X151495003Y-105215583D01*
X151700929Y-105195301D01*
X151700934Y-105195300D01*
X151898954Y-105135232D01*
X152081450Y-105037685D01*
X152241410Y-104906410D01*
X152372685Y-104746450D01*
X152470232Y-104563954D01*
X152530300Y-104365934D01*
X152530301Y-104365929D01*
X152550583Y-104160003D01*
X152979417Y-104160003D01*
X152999698Y-104365929D01*
X152999699Y-104365934D01*
X153059768Y-104563954D01*
X153157316Y-104746452D01*
X153221911Y-104825161D01*
X153288590Y-104906410D01*
X153288595Y-104906414D01*
X153448547Y-105037683D01*
X153448548Y-105037683D01*
X153448550Y-105037685D01*
X153631046Y-105135232D01*
X153768997Y-105177078D01*
X153829065Y-105195300D01*
X153829070Y-105195301D01*
X154034997Y-105215583D01*
X154035000Y-105215583D01*
X154035003Y-105215583D01*
X154240929Y-105195301D01*
X154240934Y-105195300D01*
X154438954Y-105135232D01*
X154621450Y-105037685D01*
X154781410Y-104906410D01*
X154789384Y-104896693D01*
X154840915Y-104863707D01*
X154865911Y-104860500D01*
X155425500Y-104860500D01*
X155483691Y-104879407D01*
X155519655Y-104928907D01*
X155524500Y-104959500D01*
X155524500Y-105029746D01*
X155524501Y-105029758D01*
X155536132Y-105088227D01*
X155536134Y-105088233D01*
X155580445Y-105154548D01*
X155580448Y-105154552D01*
X155646769Y-105198867D01*
X155691231Y-105207711D01*
X155705241Y-105210498D01*
X155705246Y-105210498D01*
X155705252Y-105210500D01*
X155705253Y-105210500D01*
X157444747Y-105210500D01*
X157444748Y-105210500D01*
X157503231Y-105198867D01*
X157569552Y-105154552D01*
X157613867Y-105088231D01*
X157625500Y-105029748D01*
X157625500Y-103290252D01*
X157623921Y-103282316D01*
X157622711Y-103276231D01*
X157613867Y-103231769D01*
X157569552Y-103165448D01*
X157551499Y-103153385D01*
X157503233Y-103121134D01*
X157503231Y-103121133D01*
X157503228Y-103121132D01*
X157503227Y-103121132D01*
X157444758Y-103109501D01*
X157444748Y-103109500D01*
X155705252Y-103109500D01*
X155705251Y-103109500D01*
X155705241Y-103109501D01*
X155646772Y-103121132D01*
X155646766Y-103121134D01*
X155580451Y-103165445D01*
X155580445Y-103165451D01*
X155536134Y-103231766D01*
X155536132Y-103231772D01*
X155524501Y-103290241D01*
X155524500Y-103290253D01*
X155524500Y-103360500D01*
X155505593Y-103418691D01*
X155456093Y-103454655D01*
X155425500Y-103459500D01*
X154865911Y-103459500D01*
X154807720Y-103440593D01*
X154789385Y-103423308D01*
X154781410Y-103413590D01*
X154755351Y-103392204D01*
X154621452Y-103282316D01*
X154438954Y-103184768D01*
X154240934Y-103124699D01*
X154240929Y-103124698D01*
X154035003Y-103104417D01*
X154034997Y-103104417D01*
X153829070Y-103124698D01*
X153829065Y-103124699D01*
X153631045Y-103184768D01*
X153448547Y-103282316D01*
X153288595Y-103413585D01*
X153288585Y-103413595D01*
X153157316Y-103573547D01*
X153059768Y-103756045D01*
X152999699Y-103954065D01*
X152999698Y-103954070D01*
X152979417Y-104159996D01*
X152979417Y-104160003D01*
X152550583Y-104160003D01*
X152550583Y-104159996D01*
X152530301Y-103954070D01*
X152530300Y-103954065D01*
X152512078Y-103893997D01*
X152470232Y-103756046D01*
X152372685Y-103573550D01*
X152353971Y-103550747D01*
X152241414Y-103413595D01*
X152241410Y-103413590D01*
X152215351Y-103392204D01*
X152081452Y-103282316D01*
X151898954Y-103184768D01*
X151700934Y-103124699D01*
X151700929Y-103124698D01*
X151495003Y-103104417D01*
X151494997Y-103104417D01*
X151289070Y-103124698D01*
X151289065Y-103124699D01*
X151091045Y-103184768D01*
X150908547Y-103282316D01*
X150748595Y-103413585D01*
X150748585Y-103413595D01*
X150617316Y-103573547D01*
X150519768Y-103756045D01*
X150459699Y-103954065D01*
X150459698Y-103954070D01*
X150439417Y-104159996D01*
X150439417Y-104160003D01*
X150010583Y-104160003D01*
X150010583Y-104159996D01*
X149990301Y-103954070D01*
X149990300Y-103954065D01*
X149972078Y-103893997D01*
X149930232Y-103756046D01*
X149832685Y-103573550D01*
X149813971Y-103550747D01*
X149701414Y-103413595D01*
X149701410Y-103413590D01*
X149675351Y-103392204D01*
X149541452Y-103282316D01*
X149358954Y-103184768D01*
X149160934Y-103124699D01*
X149160929Y-103124698D01*
X148955003Y-103104417D01*
X148954997Y-103104417D01*
X148749070Y-103124698D01*
X148749065Y-103124699D01*
X148551045Y-103184768D01*
X148368547Y-103282316D01*
X148208595Y-103413585D01*
X148208585Y-103413595D01*
X148077316Y-103573547D01*
X147979768Y-103756045D01*
X147919699Y-103954065D01*
X147919698Y-103954070D01*
X147899417Y-104159996D01*
X147899417Y-104160003D01*
X147470583Y-104160003D01*
X147470583Y-104159996D01*
X147450301Y-103954070D01*
X147450300Y-103954065D01*
X147432078Y-103893997D01*
X147390232Y-103756046D01*
X147292685Y-103573550D01*
X147273971Y-103550747D01*
X147161414Y-103413595D01*
X147161410Y-103413590D01*
X147135351Y-103392204D01*
X147001452Y-103282316D01*
X146818954Y-103184768D01*
X146620934Y-103124699D01*
X146620929Y-103124698D01*
X146415003Y-103104417D01*
X146414997Y-103104417D01*
X146209070Y-103124698D01*
X146209065Y-103124699D01*
X146011045Y-103184768D01*
X145828547Y-103282316D01*
X145668595Y-103413585D01*
X145668585Y-103413595D01*
X145537316Y-103573547D01*
X145439768Y-103756045D01*
X145379699Y-103954065D01*
X145379698Y-103954070D01*
X145359417Y-104159996D01*
X145359417Y-104160003D01*
X144930583Y-104160003D01*
X144930583Y-104159996D01*
X144910301Y-103954070D01*
X144910300Y-103954065D01*
X144892078Y-103893997D01*
X144850232Y-103756046D01*
X144752685Y-103573550D01*
X144733971Y-103550747D01*
X144621414Y-103413595D01*
X144621410Y-103413590D01*
X144595351Y-103392204D01*
X144461452Y-103282316D01*
X144278954Y-103184768D01*
X144080934Y-103124699D01*
X144080929Y-103124698D01*
X143875003Y-103104417D01*
X143874997Y-103104417D01*
X143669070Y-103124698D01*
X143669065Y-103124699D01*
X143471045Y-103184768D01*
X143288547Y-103282316D01*
X143128595Y-103413585D01*
X143128585Y-103413595D01*
X142997316Y-103573547D01*
X142899768Y-103756045D01*
X142839699Y-103954065D01*
X142839698Y-103954070D01*
X142819417Y-104159996D01*
X142819417Y-104160003D01*
X142390583Y-104160003D01*
X142390583Y-104159996D01*
X142370301Y-103954070D01*
X142370300Y-103954065D01*
X142352078Y-103893997D01*
X142310232Y-103756046D01*
X142212685Y-103573550D01*
X142193971Y-103550747D01*
X142081414Y-103413595D01*
X142081410Y-103413590D01*
X142055351Y-103392204D01*
X141921452Y-103282316D01*
X141738954Y-103184768D01*
X141540934Y-103124699D01*
X141540929Y-103124698D01*
X141335003Y-103104417D01*
X141334997Y-103104417D01*
X141129070Y-103124698D01*
X141129065Y-103124699D01*
X140931045Y-103184768D01*
X140748547Y-103282316D01*
X140588595Y-103413585D01*
X140588585Y-103413595D01*
X140457316Y-103573547D01*
X140359768Y-103756045D01*
X140299699Y-103954065D01*
X140299698Y-103954070D01*
X140279417Y-104159996D01*
X140279417Y-104160003D01*
X139850583Y-104160003D01*
X139850583Y-104159996D01*
X139830301Y-103954070D01*
X139830300Y-103954065D01*
X139812078Y-103893997D01*
X139770232Y-103756046D01*
X139672685Y-103573550D01*
X139653971Y-103550747D01*
X139541414Y-103413595D01*
X139541410Y-103413590D01*
X139515351Y-103392204D01*
X139381452Y-103282316D01*
X139198954Y-103184768D01*
X139000934Y-103124699D01*
X139000929Y-103124698D01*
X138795003Y-103104417D01*
X138794997Y-103104417D01*
X138589070Y-103124698D01*
X138589065Y-103124699D01*
X138391045Y-103184768D01*
X138208547Y-103282316D01*
X138048595Y-103413585D01*
X138048585Y-103413595D01*
X137917316Y-103573547D01*
X137819768Y-103756045D01*
X137759699Y-103954065D01*
X137759698Y-103954070D01*
X137739417Y-104159996D01*
X137739417Y-104160003D01*
X137310583Y-104160003D01*
X137310583Y-104159996D01*
X137290301Y-103954070D01*
X137290300Y-103954065D01*
X137272078Y-103893997D01*
X137230232Y-103756046D01*
X137132685Y-103573550D01*
X137113971Y-103550747D01*
X137001414Y-103413595D01*
X137001410Y-103413590D01*
X136975351Y-103392204D01*
X136841452Y-103282316D01*
X136658954Y-103184768D01*
X136460934Y-103124699D01*
X136460929Y-103124698D01*
X136255003Y-103104417D01*
X136254997Y-103104417D01*
X136049070Y-103124698D01*
X136049065Y-103124699D01*
X135851045Y-103184768D01*
X135668547Y-103282316D01*
X135508595Y-103413585D01*
X135508585Y-103413595D01*
X135377316Y-103573547D01*
X135279768Y-103756045D01*
X135219699Y-103954065D01*
X135219698Y-103954070D01*
X135199417Y-104159996D01*
X135199417Y-104160003D01*
X134770583Y-104160003D01*
X134770583Y-104159996D01*
X134750301Y-103954070D01*
X134750300Y-103954065D01*
X134732078Y-103893997D01*
X134690232Y-103756046D01*
X134592685Y-103573550D01*
X134573971Y-103550747D01*
X134461414Y-103413595D01*
X134461410Y-103413590D01*
X134435351Y-103392204D01*
X134301452Y-103282316D01*
X134118954Y-103184768D01*
X133920934Y-103124699D01*
X133920929Y-103124698D01*
X133715003Y-103104417D01*
X133714997Y-103104417D01*
X133509070Y-103124698D01*
X133509065Y-103124699D01*
X133311045Y-103184768D01*
X133128547Y-103282316D01*
X132968595Y-103413585D01*
X132968585Y-103413595D01*
X132837316Y-103573547D01*
X132739768Y-103756045D01*
X132679699Y-103954065D01*
X132679698Y-103954070D01*
X132659417Y-104159996D01*
X132659417Y-104160003D01*
X132230583Y-104160003D01*
X132230583Y-104159996D01*
X132210301Y-103954070D01*
X132210300Y-103954065D01*
X132192078Y-103893997D01*
X132150232Y-103756046D01*
X132052685Y-103573550D01*
X132033971Y-103550747D01*
X131921414Y-103413595D01*
X131921410Y-103413590D01*
X131895351Y-103392204D01*
X131761452Y-103282316D01*
X131578954Y-103184768D01*
X131380934Y-103124699D01*
X131380929Y-103124698D01*
X131175003Y-103104417D01*
X131174997Y-103104417D01*
X130969070Y-103124698D01*
X130969065Y-103124699D01*
X130771045Y-103184768D01*
X130588547Y-103282316D01*
X130428595Y-103413585D01*
X130428585Y-103413595D01*
X130376028Y-103477637D01*
X130324497Y-103510624D01*
X130263417Y-103507022D01*
X130216120Y-103468207D01*
X130200500Y-103414832D01*
X130200500Y-101620004D01*
X136680882Y-101620004D01*
X136699309Y-101807109D01*
X136699310Y-101807112D01*
X136699311Y-101807115D01*
X136753891Y-101987039D01*
X136753894Y-101987044D01*
X136753895Y-101987047D01*
X136842520Y-102152854D01*
X136961796Y-102298193D01*
X136961801Y-102298199D01*
X136961806Y-102298203D01*
X137107145Y-102417479D01*
X137244925Y-102491123D01*
X137272961Y-102506109D01*
X137452885Y-102560689D01*
X137452887Y-102560689D01*
X137452890Y-102560690D01*
X137639996Y-102579118D01*
X137640000Y-102579118D01*
X137640004Y-102579118D01*
X137827109Y-102560690D01*
X137827110Y-102560689D01*
X137827115Y-102560689D01*
X138007039Y-102506109D01*
X138114179Y-102448840D01*
X138172854Y-102417479D01*
X138172855Y-102417477D01*
X138172857Y-102417477D01*
X138318199Y-102298199D01*
X138437477Y-102152857D01*
X138526109Y-101987039D01*
X138580689Y-101807115D01*
X138599118Y-101620004D01*
X139220882Y-101620004D01*
X139239309Y-101807109D01*
X139239310Y-101807112D01*
X139239311Y-101807115D01*
X139293891Y-101987039D01*
X139293894Y-101987044D01*
X139293895Y-101987047D01*
X139382520Y-102152854D01*
X139501796Y-102298193D01*
X139501801Y-102298199D01*
X139501806Y-102298203D01*
X139647145Y-102417479D01*
X139784925Y-102491123D01*
X139812961Y-102506109D01*
X139992885Y-102560689D01*
X139992887Y-102560689D01*
X139992890Y-102560690D01*
X140179996Y-102579118D01*
X140180000Y-102579118D01*
X140180004Y-102579118D01*
X140367109Y-102560690D01*
X140367110Y-102560689D01*
X140367115Y-102560689D01*
X140547039Y-102506109D01*
X140654179Y-102448840D01*
X140712854Y-102417479D01*
X140712855Y-102417477D01*
X140712857Y-102417477D01*
X140858199Y-102298199D01*
X140977477Y-102152857D01*
X141066109Y-101987039D01*
X141120689Y-101807115D01*
X141139118Y-101620004D01*
X141760882Y-101620004D01*
X141779309Y-101807109D01*
X141779310Y-101807112D01*
X141779311Y-101807115D01*
X141833891Y-101987039D01*
X141833894Y-101987044D01*
X141833895Y-101987047D01*
X141922520Y-102152854D01*
X142041796Y-102298193D01*
X142041801Y-102298199D01*
X142041806Y-102298203D01*
X142187145Y-102417479D01*
X142324925Y-102491123D01*
X142352961Y-102506109D01*
X142532885Y-102560689D01*
X142532887Y-102560689D01*
X142532890Y-102560690D01*
X142719996Y-102579118D01*
X142720000Y-102579118D01*
X142720004Y-102579118D01*
X142907109Y-102560690D01*
X142907110Y-102560689D01*
X142907115Y-102560689D01*
X143087039Y-102506109D01*
X143194179Y-102448840D01*
X143252854Y-102417479D01*
X143252855Y-102417477D01*
X143252857Y-102417477D01*
X143398199Y-102298199D01*
X143517477Y-102152857D01*
X143606109Y-101987039D01*
X143660689Y-101807115D01*
X143679118Y-101620004D01*
X144300882Y-101620004D01*
X144319309Y-101807109D01*
X144319310Y-101807112D01*
X144319311Y-101807115D01*
X144373891Y-101987039D01*
X144373894Y-101987044D01*
X144373895Y-101987047D01*
X144462520Y-102152854D01*
X144581796Y-102298193D01*
X144581801Y-102298199D01*
X144581806Y-102298203D01*
X144727145Y-102417479D01*
X144864925Y-102491123D01*
X144892961Y-102506109D01*
X145072885Y-102560689D01*
X145072887Y-102560689D01*
X145072890Y-102560690D01*
X145259996Y-102579118D01*
X145260000Y-102579118D01*
X145260004Y-102579118D01*
X145447109Y-102560690D01*
X145447110Y-102560689D01*
X145447115Y-102560689D01*
X145627039Y-102506109D01*
X145734179Y-102448840D01*
X145792854Y-102417479D01*
X145792855Y-102417477D01*
X145792857Y-102417477D01*
X145938199Y-102298199D01*
X146057477Y-102152857D01*
X146146109Y-101987039D01*
X146200689Y-101807115D01*
X146219118Y-101620004D01*
X146840882Y-101620004D01*
X146859309Y-101807109D01*
X146859310Y-101807112D01*
X146859311Y-101807115D01*
X146913891Y-101987039D01*
X146913894Y-101987044D01*
X146913895Y-101987047D01*
X147002520Y-102152854D01*
X147121796Y-102298193D01*
X147121801Y-102298199D01*
X147121806Y-102298203D01*
X147267145Y-102417479D01*
X147404925Y-102491123D01*
X147432961Y-102506109D01*
X147612885Y-102560689D01*
X147612887Y-102560689D01*
X147612890Y-102560690D01*
X147799996Y-102579118D01*
X147800000Y-102579118D01*
X147800004Y-102579118D01*
X147987109Y-102560690D01*
X147987110Y-102560689D01*
X147987115Y-102560689D01*
X148167039Y-102506109D01*
X148274179Y-102448840D01*
X148332854Y-102417479D01*
X148332855Y-102417477D01*
X148332857Y-102417477D01*
X148478199Y-102298199D01*
X148597477Y-102152857D01*
X148686109Y-101987039D01*
X148740689Y-101807115D01*
X148759118Y-101620004D01*
X149380882Y-101620004D01*
X149399309Y-101807109D01*
X149399310Y-101807112D01*
X149399311Y-101807115D01*
X149453891Y-101987039D01*
X149453894Y-101987044D01*
X149453895Y-101987047D01*
X149542520Y-102152854D01*
X149661796Y-102298193D01*
X149661801Y-102298199D01*
X149661806Y-102298203D01*
X149807145Y-102417479D01*
X149944925Y-102491123D01*
X149972961Y-102506109D01*
X150152885Y-102560689D01*
X150152887Y-102560689D01*
X150152890Y-102560690D01*
X150339996Y-102579118D01*
X150340000Y-102579118D01*
X150340004Y-102579118D01*
X150527109Y-102560690D01*
X150527110Y-102560689D01*
X150527115Y-102560689D01*
X150707039Y-102506109D01*
X150814179Y-102448840D01*
X150872854Y-102417479D01*
X150872855Y-102417477D01*
X150872857Y-102417477D01*
X151018199Y-102298199D01*
X151137477Y-102152857D01*
X151226109Y-101987039D01*
X151280689Y-101807115D01*
X151299118Y-101620004D01*
X151920882Y-101620004D01*
X151939309Y-101807109D01*
X151939310Y-101807112D01*
X151939311Y-101807115D01*
X151993891Y-101987039D01*
X151993894Y-101987044D01*
X151993895Y-101987047D01*
X152082520Y-102152854D01*
X152201796Y-102298193D01*
X152201801Y-102298199D01*
X152201806Y-102298203D01*
X152347145Y-102417479D01*
X152484925Y-102491123D01*
X152512961Y-102506109D01*
X152692885Y-102560689D01*
X152692887Y-102560689D01*
X152692890Y-102560690D01*
X152879996Y-102579118D01*
X152880000Y-102579118D01*
X152880004Y-102579118D01*
X153067109Y-102560690D01*
X153067110Y-102560689D01*
X153067115Y-102560689D01*
X153247039Y-102506109D01*
X153354179Y-102448840D01*
X153412854Y-102417479D01*
X153412855Y-102417477D01*
X153412857Y-102417477D01*
X153558199Y-102298199D01*
X153677477Y-102152857D01*
X153766109Y-101987039D01*
X153820689Y-101807115D01*
X153839118Y-101620004D01*
X157000882Y-101620004D01*
X157019309Y-101807109D01*
X157019310Y-101807112D01*
X157019311Y-101807115D01*
X157073891Y-101987039D01*
X157073894Y-101987044D01*
X157073895Y-101987047D01*
X157162520Y-102152854D01*
X157281796Y-102298193D01*
X157281801Y-102298199D01*
X157281806Y-102298203D01*
X157427145Y-102417479D01*
X157564925Y-102491123D01*
X157592961Y-102506109D01*
X157772885Y-102560689D01*
X157772887Y-102560689D01*
X157772890Y-102560690D01*
X157959996Y-102579118D01*
X157960000Y-102579118D01*
X157960004Y-102579118D01*
X158147109Y-102560690D01*
X158147110Y-102560689D01*
X158147115Y-102560689D01*
X158327039Y-102506109D01*
X158434179Y-102448840D01*
X158492854Y-102417479D01*
X158492855Y-102417477D01*
X158492857Y-102417477D01*
X158638199Y-102298199D01*
X158757477Y-102152857D01*
X158846109Y-101987039D01*
X158900689Y-101807115D01*
X158919118Y-101620000D01*
X158919118Y-101619995D01*
X158900690Y-101432890D01*
X158900689Y-101432887D01*
X158900689Y-101432885D01*
X158846109Y-101252961D01*
X158831123Y-101224925D01*
X158757479Y-101087145D01*
X158651118Y-100957543D01*
X158638199Y-100941801D01*
X158565505Y-100882143D01*
X158492854Y-100822520D01*
X158327047Y-100733895D01*
X158327044Y-100733894D01*
X158327039Y-100733891D01*
X158147115Y-100679311D01*
X158147112Y-100679310D01*
X158147109Y-100679309D01*
X157960004Y-100660882D01*
X157959996Y-100660882D01*
X157772890Y-100679309D01*
X157772887Y-100679310D01*
X157645817Y-100717857D01*
X157592961Y-100733891D01*
X157592958Y-100733892D01*
X157592952Y-100733895D01*
X157427145Y-100822520D01*
X157281806Y-100941796D01*
X157281796Y-100941806D01*
X157162520Y-101087145D01*
X157073895Y-101252952D01*
X157073890Y-101252964D01*
X157019310Y-101432887D01*
X157019309Y-101432890D01*
X157000882Y-101619995D01*
X157000882Y-101620004D01*
X153839118Y-101620004D01*
X153839118Y-101620000D01*
X153839118Y-101619995D01*
X153820690Y-101432890D01*
X153820689Y-101432887D01*
X153820689Y-101432885D01*
X153766109Y-101252961D01*
X153751123Y-101224925D01*
X153677479Y-101087145D01*
X153571118Y-100957543D01*
X153558199Y-100941801D01*
X153485505Y-100882143D01*
X153412854Y-100822520D01*
X153247047Y-100733895D01*
X153247044Y-100733894D01*
X153247039Y-100733891D01*
X153067115Y-100679311D01*
X153067112Y-100679310D01*
X153067109Y-100679309D01*
X152880004Y-100660882D01*
X152879996Y-100660882D01*
X152692890Y-100679309D01*
X152692887Y-100679310D01*
X152565817Y-100717857D01*
X152512961Y-100733891D01*
X152512958Y-100733892D01*
X152512952Y-100733895D01*
X152347145Y-100822520D01*
X152201806Y-100941796D01*
X152201796Y-100941806D01*
X152082520Y-101087145D01*
X151993895Y-101252952D01*
X151993890Y-101252964D01*
X151939310Y-101432887D01*
X151939309Y-101432890D01*
X151920882Y-101619995D01*
X151920882Y-101620004D01*
X151299118Y-101620004D01*
X151299118Y-101620000D01*
X151299118Y-101619995D01*
X151280690Y-101432890D01*
X151280689Y-101432887D01*
X151280689Y-101432885D01*
X151226109Y-101252961D01*
X151211123Y-101224925D01*
X151137479Y-101087145D01*
X151031118Y-100957543D01*
X151018199Y-100941801D01*
X150945505Y-100882143D01*
X150872854Y-100822520D01*
X150707047Y-100733895D01*
X150707044Y-100733894D01*
X150707039Y-100733891D01*
X150527115Y-100679311D01*
X150527112Y-100679310D01*
X150527109Y-100679309D01*
X150340004Y-100660882D01*
X150339996Y-100660882D01*
X150152890Y-100679309D01*
X150152887Y-100679310D01*
X150025817Y-100717857D01*
X149972961Y-100733891D01*
X149972958Y-100733892D01*
X149972952Y-100733895D01*
X149807145Y-100822520D01*
X149661806Y-100941796D01*
X149661796Y-100941806D01*
X149542520Y-101087145D01*
X149453895Y-101252952D01*
X149453890Y-101252964D01*
X149399310Y-101432887D01*
X149399309Y-101432890D01*
X149380882Y-101619995D01*
X149380882Y-101620004D01*
X148759118Y-101620004D01*
X148759118Y-101620000D01*
X148759118Y-101619995D01*
X148740690Y-101432890D01*
X148740689Y-101432887D01*
X148740689Y-101432885D01*
X148686109Y-101252961D01*
X148671123Y-101224925D01*
X148597479Y-101087145D01*
X148491118Y-100957543D01*
X148478199Y-100941801D01*
X148405505Y-100882143D01*
X148332854Y-100822520D01*
X148167047Y-100733895D01*
X148167044Y-100733894D01*
X148167039Y-100733891D01*
X147987115Y-100679311D01*
X147987112Y-100679310D01*
X147987109Y-100679309D01*
X147800004Y-100660882D01*
X147799996Y-100660882D01*
X147612890Y-100679309D01*
X147612887Y-100679310D01*
X147485817Y-100717857D01*
X147432961Y-100733891D01*
X147432958Y-100733892D01*
X147432952Y-100733895D01*
X147267145Y-100822520D01*
X147121806Y-100941796D01*
X147121796Y-100941806D01*
X147002520Y-101087145D01*
X146913895Y-101252952D01*
X146913890Y-101252964D01*
X146859310Y-101432887D01*
X146859309Y-101432890D01*
X146840882Y-101619995D01*
X146840882Y-101620004D01*
X146219118Y-101620004D01*
X146219118Y-101620000D01*
X146219118Y-101619995D01*
X146200690Y-101432890D01*
X146200689Y-101432887D01*
X146200689Y-101432885D01*
X146146109Y-101252961D01*
X146131123Y-101224925D01*
X146057479Y-101087145D01*
X145951118Y-100957543D01*
X145938199Y-100941801D01*
X145865505Y-100882143D01*
X145792854Y-100822520D01*
X145627047Y-100733895D01*
X145627044Y-100733894D01*
X145627039Y-100733891D01*
X145447115Y-100679311D01*
X145447112Y-100679310D01*
X145447109Y-100679309D01*
X145260004Y-100660882D01*
X145259996Y-100660882D01*
X145072890Y-100679309D01*
X145072887Y-100679310D01*
X144945817Y-100717857D01*
X144892961Y-100733891D01*
X144892958Y-100733892D01*
X144892952Y-100733895D01*
X144727145Y-100822520D01*
X144581806Y-100941796D01*
X144581796Y-100941806D01*
X144462520Y-101087145D01*
X144373895Y-101252952D01*
X144373890Y-101252964D01*
X144319310Y-101432887D01*
X144319309Y-101432890D01*
X144300882Y-101619995D01*
X144300882Y-101620004D01*
X143679118Y-101620004D01*
X143679118Y-101620000D01*
X143679118Y-101619995D01*
X143660690Y-101432890D01*
X143660689Y-101432887D01*
X143660689Y-101432885D01*
X143606109Y-101252961D01*
X143591123Y-101224925D01*
X143517479Y-101087145D01*
X143411118Y-100957543D01*
X143398199Y-100941801D01*
X143325505Y-100882143D01*
X143252854Y-100822520D01*
X143087047Y-100733895D01*
X143087044Y-100733894D01*
X143087039Y-100733891D01*
X142907115Y-100679311D01*
X142907112Y-100679310D01*
X142907109Y-100679309D01*
X142720004Y-100660882D01*
X142719996Y-100660882D01*
X142532890Y-100679309D01*
X142532887Y-100679310D01*
X142405817Y-100717857D01*
X142352961Y-100733891D01*
X142352958Y-100733892D01*
X142352952Y-100733895D01*
X142187145Y-100822520D01*
X142041806Y-100941796D01*
X142041796Y-100941806D01*
X141922520Y-101087145D01*
X141833895Y-101252952D01*
X141833890Y-101252964D01*
X141779310Y-101432887D01*
X141779309Y-101432890D01*
X141760882Y-101619995D01*
X141760882Y-101620004D01*
X141139118Y-101620004D01*
X141139118Y-101620000D01*
X141139118Y-101619995D01*
X141120690Y-101432890D01*
X141120689Y-101432887D01*
X141120689Y-101432885D01*
X141066109Y-101252961D01*
X141051123Y-101224925D01*
X140977479Y-101087145D01*
X140871118Y-100957543D01*
X140858199Y-100941801D01*
X140785505Y-100882143D01*
X140712854Y-100822520D01*
X140547047Y-100733895D01*
X140547044Y-100733894D01*
X140547039Y-100733891D01*
X140367115Y-100679311D01*
X140367112Y-100679310D01*
X140367109Y-100679309D01*
X140180004Y-100660882D01*
X140179996Y-100660882D01*
X139992890Y-100679309D01*
X139992887Y-100679310D01*
X139865817Y-100717857D01*
X139812961Y-100733891D01*
X139812958Y-100733892D01*
X139812952Y-100733895D01*
X139647145Y-100822520D01*
X139501806Y-100941796D01*
X139501796Y-100941806D01*
X139382520Y-101087145D01*
X139293895Y-101252952D01*
X139293890Y-101252964D01*
X139239310Y-101432887D01*
X139239309Y-101432890D01*
X139220882Y-101619995D01*
X139220882Y-101620004D01*
X138599118Y-101620004D01*
X138599118Y-101620000D01*
X138599118Y-101619995D01*
X138580690Y-101432890D01*
X138580689Y-101432887D01*
X138580689Y-101432885D01*
X138526109Y-101252961D01*
X138511123Y-101224925D01*
X138437479Y-101087145D01*
X138331118Y-100957543D01*
X138318199Y-100941801D01*
X138245505Y-100882143D01*
X138172854Y-100822520D01*
X138007047Y-100733895D01*
X138007044Y-100733894D01*
X138007039Y-100733891D01*
X137827115Y-100679311D01*
X137827112Y-100679310D01*
X137827109Y-100679309D01*
X137640004Y-100660882D01*
X137639996Y-100660882D01*
X137452890Y-100679309D01*
X137452887Y-100679310D01*
X137325817Y-100717857D01*
X137272961Y-100733891D01*
X137272958Y-100733892D01*
X137272952Y-100733895D01*
X137107145Y-100822520D01*
X136961806Y-100941796D01*
X136961796Y-100941806D01*
X136842520Y-101087145D01*
X136753895Y-101252952D01*
X136753890Y-101252964D01*
X136699310Y-101432887D01*
X136699309Y-101432890D01*
X136680882Y-101619995D01*
X136680882Y-101620004D01*
X130200500Y-101620004D01*
X130200500Y-101553893D01*
X130219407Y-101495702D01*
X130226741Y-101487711D01*
X130226491Y-101487494D01*
X130231128Y-101482143D01*
X130325377Y-101373373D01*
X130385165Y-101242457D01*
X130405647Y-101100000D01*
X130403798Y-101087143D01*
X130385165Y-100957543D01*
X130377976Y-100941801D01*
X130325377Y-100826627D01*
X130231128Y-100717857D01*
X130231127Y-100717856D01*
X130231126Y-100717855D01*
X130110057Y-100640049D01*
X130110054Y-100640047D01*
X130110053Y-100640047D01*
X130110050Y-100640046D01*
X129971964Y-100599500D01*
X129971961Y-100599500D01*
X129828039Y-100599500D01*
X129828035Y-100599500D01*
X129689949Y-100640046D01*
X129689942Y-100640049D01*
X129568873Y-100717855D01*
X129474622Y-100826628D01*
X129414834Y-100957543D01*
X129394353Y-101099997D01*
X129394353Y-101100002D01*
X129414834Y-101242456D01*
X129419632Y-101252961D01*
X129474623Y-101373373D01*
X129526194Y-101432890D01*
X129573509Y-101487494D01*
X129571471Y-101489259D01*
X129596925Y-101531458D01*
X129599500Y-101553893D01*
X129599500Y-103402647D01*
X129580593Y-103460838D01*
X129531093Y-103496802D01*
X129469907Y-103496802D01*
X129423972Y-103465452D01*
X129381414Y-103413595D01*
X129381410Y-103413590D01*
X129355351Y-103392204D01*
X129221452Y-103282316D01*
X129038958Y-103184770D01*
X129038957Y-103184769D01*
X129038954Y-103184768D01*
X129038948Y-103184766D01*
X129038945Y-103184765D01*
X129005759Y-103174697D01*
X128955563Y-103139711D01*
X128935519Y-103081902D01*
X128935500Y-103079961D01*
X128935500Y-100353893D01*
X128954407Y-100295702D01*
X128961741Y-100287711D01*
X128961491Y-100287494D01*
X128966128Y-100282143D01*
X129060377Y-100173373D01*
X129120165Y-100042457D01*
X129140647Y-99900000D01*
X129120165Y-99757543D01*
X129060377Y-99626627D01*
X128966128Y-99517857D01*
X128966127Y-99517856D01*
X128966126Y-99517855D01*
X128845057Y-99440049D01*
X128845054Y-99440047D01*
X128845053Y-99440047D01*
X128845050Y-99440046D01*
X128706964Y-99399500D01*
X128706961Y-99399500D01*
X128563039Y-99399500D01*
X128563035Y-99399500D01*
X128424949Y-99440046D01*
X128424942Y-99440049D01*
X128303873Y-99517855D01*
X128209622Y-99626628D01*
X128149834Y-99757543D01*
X128129353Y-99899997D01*
X128129353Y-99900002D01*
X128149834Y-100042456D01*
X128184268Y-100117855D01*
X128209623Y-100173373D01*
X128255768Y-100226628D01*
X128308509Y-100287494D01*
X128306471Y-100289259D01*
X128331925Y-100331458D01*
X128334500Y-100353893D01*
X128334500Y-103079961D01*
X128315593Y-103138152D01*
X128266093Y-103174116D01*
X128264241Y-103174697D01*
X128231054Y-103184765D01*
X128231041Y-103184770D01*
X128048547Y-103282316D01*
X127888595Y-103413585D01*
X127888585Y-103413595D01*
X127776028Y-103550747D01*
X127724497Y-103583734D01*
X127663417Y-103580132D01*
X127616120Y-103541317D01*
X127600500Y-103487942D01*
X127600500Y-100953893D01*
X127619407Y-100895702D01*
X127626741Y-100887711D01*
X127626491Y-100887494D01*
X127631128Y-100882143D01*
X127725377Y-100773373D01*
X127785165Y-100642457D01*
X127805647Y-100500000D01*
X127785165Y-100357543D01*
X127725377Y-100226627D01*
X127631128Y-100117857D01*
X127631127Y-100117856D01*
X127631126Y-100117855D01*
X127510057Y-100040049D01*
X127510054Y-100040047D01*
X127510053Y-100040047D01*
X127510050Y-100040046D01*
X127371964Y-99999500D01*
X127371961Y-99999500D01*
X127228039Y-99999500D01*
X127228035Y-99999500D01*
X127089949Y-100040046D01*
X127089942Y-100040049D01*
X126968873Y-100117855D01*
X126874622Y-100226628D01*
X126814834Y-100357543D01*
X126794353Y-100499997D01*
X126794353Y-100500002D01*
X126814834Y-100642456D01*
X126856592Y-100733891D01*
X126874623Y-100773373D01*
X126920768Y-100826628D01*
X126973509Y-100887494D01*
X126971471Y-100889259D01*
X126996925Y-100931458D01*
X126999500Y-100953893D01*
X126999500Y-103334013D01*
X126980593Y-103392204D01*
X126931093Y-103428168D01*
X126869907Y-103428168D01*
X126837695Y-103410541D01*
X126776719Y-103360500D01*
X126681452Y-103282316D01*
X126498954Y-103184768D01*
X126300934Y-103124699D01*
X126300929Y-103124698D01*
X126095003Y-103104417D01*
X126094997Y-103104417D01*
X125889070Y-103124698D01*
X125889065Y-103124699D01*
X125691045Y-103184768D01*
X125508547Y-103282316D01*
X125348595Y-103413585D01*
X125348585Y-103413595D01*
X125217316Y-103573547D01*
X125119768Y-103756045D01*
X125059699Y-103954065D01*
X125059698Y-103954070D01*
X125039417Y-104159996D01*
X125039417Y-104160003D01*
X125059698Y-104365929D01*
X125059699Y-104365934D01*
X125119768Y-104563954D01*
X125217316Y-104746452D01*
X125281911Y-104825161D01*
X125348590Y-104906410D01*
X125348595Y-104906414D01*
X125508547Y-105037683D01*
X125508548Y-105037683D01*
X125508550Y-105037685D01*
X125691046Y-105135232D01*
X125828997Y-105177078D01*
X125889065Y-105195300D01*
X125889070Y-105195301D01*
X126094997Y-105215583D01*
X126095000Y-105215583D01*
X126095003Y-105215583D01*
X126300929Y-105195301D01*
X126300934Y-105195300D01*
X126498954Y-105135232D01*
X126681450Y-105037685D01*
X126837696Y-104909457D01*
X126894672Y-104887158D01*
X126953875Y-104902606D01*
X126992690Y-104949903D01*
X126999500Y-104985986D01*
X126999500Y-105329520D01*
X126980593Y-105387711D01*
X126970503Y-105399524D01*
X126646214Y-105723812D01*
X126591698Y-105751589D01*
X126531266Y-105742018D01*
X126529569Y-105741132D01*
X126498954Y-105724768D01*
X126300934Y-105664699D01*
X126300929Y-105664698D01*
X126095003Y-105644417D01*
X126094997Y-105644417D01*
X125889070Y-105664698D01*
X125889065Y-105664699D01*
X125691045Y-105724768D01*
X125508547Y-105822316D01*
X125348595Y-105953585D01*
X125348585Y-105953595D01*
X125217316Y-106113547D01*
X125119768Y-106296045D01*
X125059699Y-106494065D01*
X125059698Y-106494070D01*
X125039417Y-106699996D01*
X125039417Y-106700003D01*
X124500500Y-106700003D01*
X124500500Y-99080004D01*
X136680882Y-99080004D01*
X136699309Y-99267109D01*
X136699310Y-99267112D01*
X136699311Y-99267115D01*
X136753891Y-99447039D01*
X136753894Y-99447044D01*
X136753895Y-99447047D01*
X136842520Y-99612854D01*
X136853824Y-99626628D01*
X136961801Y-99758199D01*
X136961806Y-99758203D01*
X137107145Y-99877479D01*
X137244925Y-99951123D01*
X137272961Y-99966109D01*
X137452885Y-100020689D01*
X137452887Y-100020689D01*
X137452890Y-100020690D01*
X137639996Y-100039118D01*
X137640000Y-100039118D01*
X137640004Y-100039118D01*
X137827109Y-100020690D01*
X137827110Y-100020689D01*
X137827115Y-100020689D01*
X138007039Y-99966109D01*
X138130725Y-99899997D01*
X138172854Y-99877479D01*
X138172855Y-99877477D01*
X138172857Y-99877477D01*
X138318199Y-99758199D01*
X138437477Y-99612857D01*
X138526109Y-99447039D01*
X138580689Y-99267115D01*
X138599118Y-99080000D01*
X138599118Y-99079995D01*
X138580690Y-98892890D01*
X138580689Y-98892887D01*
X138580689Y-98892885D01*
X138526109Y-98712961D01*
X138511123Y-98684925D01*
X138437479Y-98547145D01*
X138318203Y-98401806D01*
X138318199Y-98401801D01*
X138318193Y-98401796D01*
X138172854Y-98282520D01*
X138007047Y-98193895D01*
X138007044Y-98193894D01*
X138007039Y-98193891D01*
X137827115Y-98139311D01*
X137827112Y-98139310D01*
X137827109Y-98139309D01*
X137640004Y-98120882D01*
X137639996Y-98120882D01*
X137452890Y-98139309D01*
X137452887Y-98139310D01*
X137272964Y-98193890D01*
X137272961Y-98193891D01*
X137272958Y-98193892D01*
X137272952Y-98193895D01*
X137107145Y-98282520D01*
X136961806Y-98401796D01*
X136961796Y-98401806D01*
X136842520Y-98547145D01*
X136753895Y-98712952D01*
X136753890Y-98712964D01*
X136699310Y-98892887D01*
X136699309Y-98892890D01*
X136680882Y-99079995D01*
X136680882Y-99080004D01*
X124500500Y-99080004D01*
X124500500Y-97199412D01*
X124519407Y-97141221D01*
X124568907Y-97105257D01*
X124600388Y-97101854D01*
X124600388Y-97100500D01*
X126444747Y-97100500D01*
X126444748Y-97100500D01*
X126503231Y-97088867D01*
X126569552Y-97044552D01*
X126613867Y-96978231D01*
X126625500Y-96919748D01*
X126625500Y-95680252D01*
X126613867Y-95621769D01*
X126569552Y-95555448D01*
X126569548Y-95555445D01*
X126503233Y-95511134D01*
X126503231Y-95511133D01*
X126503228Y-95511132D01*
X126503227Y-95511132D01*
X126444758Y-95499501D01*
X126444748Y-95499500D01*
X124605252Y-95499500D01*
X124600388Y-95499500D01*
X124600388Y-95497187D01*
X124549396Y-95485972D01*
X124508777Y-95440215D01*
X124500500Y-95400587D01*
X124500500Y-92599412D01*
X124519407Y-92541221D01*
X124568907Y-92505257D01*
X124600388Y-92501854D01*
X124600388Y-92500500D01*
X126444747Y-92500500D01*
X126444748Y-92500500D01*
X126503231Y-92488867D01*
X126569552Y-92444552D01*
X126613867Y-92378231D01*
X126625500Y-92319748D01*
X126625500Y-91885879D01*
X127494621Y-91885879D01*
X127498551Y-91914053D01*
X127499500Y-91927730D01*
X127499500Y-94334835D01*
X127497280Y-94348513D01*
X127498494Y-94348683D01*
X127497226Y-94357766D01*
X127499394Y-94404641D01*
X127499500Y-94409213D01*
X127499500Y-94427844D01*
X127499522Y-94427966D01*
X127501101Y-94441577D01*
X127502414Y-94469987D01*
X127502415Y-94469994D01*
X127506384Y-94478982D01*
X127513132Y-94500772D01*
X127514939Y-94510433D01*
X127523809Y-94524760D01*
X127529912Y-94534617D01*
X127536301Y-94546738D01*
X127547794Y-94572765D01*
X127554745Y-94579716D01*
X127568907Y-94597596D01*
X127574081Y-94605952D01*
X127596781Y-94623094D01*
X127607117Y-94632088D01*
X128141436Y-95166407D01*
X128149537Y-95177647D01*
X128150516Y-95176909D01*
X128156044Y-95184230D01*
X128190724Y-95215845D01*
X128194032Y-95219003D01*
X128207203Y-95232174D01*
X128207295Y-95232237D01*
X128218042Y-95240750D01*
X128239064Y-95259914D01*
X128239065Y-95259914D01*
X128239067Y-95259916D01*
X128248230Y-95263466D01*
X128268416Y-95274105D01*
X128276519Y-95279656D01*
X128304215Y-95286170D01*
X128317293Y-95290220D01*
X128343827Y-95300500D01*
X128343832Y-95300500D01*
X128352847Y-95302186D01*
X128352375Y-95304707D01*
X128397616Y-95319407D01*
X128433580Y-95368907D01*
X128435807Y-95377442D01*
X128436132Y-95378227D01*
X128436133Y-95378231D01*
X128480448Y-95444552D01*
X128546769Y-95488867D01*
X128591231Y-95497711D01*
X128605241Y-95500498D01*
X128605246Y-95500498D01*
X128605252Y-95500500D01*
X128605253Y-95500500D01*
X130194747Y-95500500D01*
X130194748Y-95500500D01*
X130197262Y-95500000D01*
X134900000Y-95500000D01*
X134900000Y-97700000D01*
X134900001Y-97700000D01*
X138699999Y-97700000D01*
X138700000Y-97700000D01*
X138700000Y-95500000D01*
X134900000Y-95500000D01*
X130197262Y-95500000D01*
X130253231Y-95488867D01*
X130319552Y-95444552D01*
X130363867Y-95378231D01*
X130375500Y-95319748D01*
X130375500Y-94680252D01*
X130375092Y-94678203D01*
X130372711Y-94666231D01*
X130363867Y-94621769D01*
X130319552Y-94555448D01*
X130306517Y-94546738D01*
X130253233Y-94511134D01*
X130253231Y-94511133D01*
X130253228Y-94511132D01*
X130253227Y-94511132D01*
X130194758Y-94499501D01*
X130194748Y-94499500D01*
X128605252Y-94499500D01*
X128605251Y-94499500D01*
X128605241Y-94499501D01*
X128546772Y-94511132D01*
X128546767Y-94511134D01*
X128488039Y-94550375D01*
X128429151Y-94566983D01*
X128371747Y-94545805D01*
X128363034Y-94538063D01*
X128129496Y-94304525D01*
X128101719Y-94250008D01*
X128100500Y-94234521D01*
X128100500Y-94000004D01*
X136680882Y-94000004D01*
X136699309Y-94187109D01*
X136699310Y-94187112D01*
X136699311Y-94187115D01*
X136753891Y-94367039D01*
X136753894Y-94367044D01*
X136753895Y-94367047D01*
X136842520Y-94532854D01*
X136923959Y-94632088D01*
X136961801Y-94678199D01*
X136961806Y-94678203D01*
X137107145Y-94797479D01*
X137244925Y-94871123D01*
X137272961Y-94886109D01*
X137452885Y-94940689D01*
X137452887Y-94940689D01*
X137452890Y-94940690D01*
X137639996Y-94959118D01*
X137640000Y-94959118D01*
X137640004Y-94959118D01*
X137827109Y-94940690D01*
X137827110Y-94940689D01*
X137827115Y-94940689D01*
X138007039Y-94886109D01*
X138114179Y-94828840D01*
X138172854Y-94797479D01*
X138172855Y-94797477D01*
X138172857Y-94797477D01*
X138318199Y-94678199D01*
X138437477Y-94532857D01*
X138449090Y-94511132D01*
X138503566Y-94409213D01*
X138526109Y-94367039D01*
X138580689Y-94187115D01*
X138599118Y-94000000D01*
X138599118Y-93999995D01*
X138580690Y-93812890D01*
X138580689Y-93812887D01*
X138580689Y-93812885D01*
X138526109Y-93632961D01*
X138455306Y-93500498D01*
X138437479Y-93467145D01*
X138318203Y-93321806D01*
X138318199Y-93321801D01*
X138315695Y-93319746D01*
X138172854Y-93202520D01*
X138007047Y-93113895D01*
X138007044Y-93113894D01*
X138007039Y-93113891D01*
X137827115Y-93059311D01*
X137827112Y-93059310D01*
X137827109Y-93059309D01*
X137640004Y-93040882D01*
X137639996Y-93040882D01*
X137452890Y-93059309D01*
X137452887Y-93059310D01*
X137272964Y-93113890D01*
X137272961Y-93113891D01*
X137272958Y-93113892D01*
X137272952Y-93113895D01*
X137107145Y-93202520D01*
X136961806Y-93321796D01*
X136961796Y-93321806D01*
X136842520Y-93467145D01*
X136753895Y-93632952D01*
X136753890Y-93632964D01*
X136699310Y-93812887D01*
X136699309Y-93812890D01*
X136680882Y-93999995D01*
X136680882Y-94000004D01*
X128100500Y-94000004D01*
X128100500Y-93319746D01*
X128424500Y-93319746D01*
X128424501Y-93319758D01*
X128436132Y-93378227D01*
X128436133Y-93378231D01*
X128480448Y-93444552D01*
X128546769Y-93488867D01*
X128591231Y-93497711D01*
X128605241Y-93500498D01*
X128605246Y-93500498D01*
X128605252Y-93500500D01*
X128605253Y-93500500D01*
X130194747Y-93500500D01*
X130194748Y-93500500D01*
X130253231Y-93488867D01*
X130319552Y-93444552D01*
X130363867Y-93378231D01*
X130375500Y-93319748D01*
X130375500Y-92680252D01*
X130363867Y-92621769D01*
X130319552Y-92555448D01*
X130319548Y-92555445D01*
X130253233Y-92511134D01*
X130253231Y-92511133D01*
X130253228Y-92511132D01*
X130253227Y-92511132D01*
X130194758Y-92499501D01*
X130194748Y-92499500D01*
X130194747Y-92499500D01*
X129799500Y-92499500D01*
X129741309Y-92480593D01*
X129705345Y-92431093D01*
X129700500Y-92400500D01*
X129700500Y-92165479D01*
X129719407Y-92107288D01*
X129729496Y-92095475D01*
X129995475Y-91829496D01*
X130049992Y-91801719D01*
X130065479Y-91800500D01*
X130252917Y-91800500D01*
X130311108Y-91819407D01*
X130327733Y-91834667D01*
X130368872Y-91882143D01*
X130429111Y-91920856D01*
X130464857Y-91943829D01*
X130489947Y-91959953D01*
X130578244Y-91985879D01*
X130628035Y-92000499D01*
X130628036Y-92000499D01*
X130628039Y-92000500D01*
X130628041Y-92000500D01*
X130771959Y-92000500D01*
X130771961Y-92000500D01*
X130910053Y-91959953D01*
X131031128Y-91882143D01*
X131125377Y-91773373D01*
X131185165Y-91642457D01*
X131205647Y-91500000D01*
X131199896Y-91460004D01*
X136680882Y-91460004D01*
X136699309Y-91647109D01*
X136699310Y-91647112D01*
X136699311Y-91647115D01*
X136753891Y-91827039D01*
X136753894Y-91827044D01*
X136753895Y-91827047D01*
X136842520Y-91992854D01*
X136936433Y-92107288D01*
X136961801Y-92138199D01*
X136961806Y-92138203D01*
X137107145Y-92257479D01*
X137223643Y-92319748D01*
X137272961Y-92346109D01*
X137452885Y-92400689D01*
X137452887Y-92400689D01*
X137452890Y-92400690D01*
X137639996Y-92419118D01*
X137640000Y-92419118D01*
X137640004Y-92419118D01*
X137827109Y-92400690D01*
X137827110Y-92400689D01*
X137827115Y-92400689D01*
X138007039Y-92346109D01*
X138114179Y-92288840D01*
X138172854Y-92257479D01*
X138172855Y-92257477D01*
X138172857Y-92257477D01*
X138318199Y-92138199D01*
X138437477Y-91992857D01*
X138446318Y-91976318D01*
X138472288Y-91927730D01*
X138526109Y-91827039D01*
X138580689Y-91647115D01*
X138581249Y-91641437D01*
X138599118Y-91460004D01*
X138599118Y-91459995D01*
X138580690Y-91272890D01*
X138580689Y-91272887D01*
X138580689Y-91272885D01*
X138526109Y-91092961D01*
X138488056Y-91021769D01*
X138437479Y-90927145D01*
X138318203Y-90781806D01*
X138318199Y-90781801D01*
X138219133Y-90700500D01*
X138172854Y-90662520D01*
X138007047Y-90573895D01*
X138007044Y-90573894D01*
X138007039Y-90573891D01*
X137860690Y-90529496D01*
X137827112Y-90519310D01*
X137827109Y-90519309D01*
X137640004Y-90500882D01*
X137639996Y-90500882D01*
X137452890Y-90519309D01*
X137452887Y-90519310D01*
X137272964Y-90573890D01*
X137272961Y-90573891D01*
X137272958Y-90573892D01*
X137272952Y-90573895D01*
X137107145Y-90662520D01*
X136961806Y-90781796D01*
X136961796Y-90781806D01*
X136842520Y-90927145D01*
X136753895Y-91092952D01*
X136753890Y-91092964D01*
X136699310Y-91272887D01*
X136699309Y-91272890D01*
X136680882Y-91459995D01*
X136680882Y-91460004D01*
X131199896Y-91460004D01*
X131199895Y-91459995D01*
X131185165Y-91357543D01*
X131157414Y-91296778D01*
X131125377Y-91226627D01*
X131031128Y-91117857D01*
X131031127Y-91117856D01*
X131031126Y-91117855D01*
X130910057Y-91040049D01*
X130910054Y-91040047D01*
X130910053Y-91040047D01*
X130910050Y-91040046D01*
X130771964Y-90999500D01*
X130771961Y-90999500D01*
X130628039Y-90999500D01*
X130628035Y-90999500D01*
X130489949Y-91040046D01*
X130489942Y-91040049D01*
X130368876Y-91117854D01*
X130368871Y-91117858D01*
X130327736Y-91165331D01*
X130275340Y-91196927D01*
X130252917Y-91199500D01*
X129965165Y-91199500D01*
X129951489Y-91197267D01*
X129951318Y-91198494D01*
X129942234Y-91197226D01*
X129895359Y-91199394D01*
X129890787Y-91199500D01*
X129872152Y-91199500D01*
X129872029Y-91199523D01*
X129858419Y-91201101D01*
X129830011Y-91202414D01*
X129830007Y-91202415D01*
X129821013Y-91206386D01*
X129799228Y-91213132D01*
X129789571Y-91214937D01*
X129789565Y-91214939D01*
X129765381Y-91229913D01*
X129753259Y-91236302D01*
X129727238Y-91247792D01*
X129727231Y-91247796D01*
X129720286Y-91254742D01*
X129702406Y-91268905D01*
X129694048Y-91274080D01*
X129676907Y-91296778D01*
X129667909Y-91307118D01*
X129233590Y-91741437D01*
X129222361Y-91749550D01*
X129223090Y-91750515D01*
X129215771Y-91756041D01*
X129184141Y-91790737D01*
X129180989Y-91794038D01*
X129167830Y-91807198D01*
X129167818Y-91807212D01*
X129167749Y-91807314D01*
X129159255Y-91818035D01*
X129140083Y-91839066D01*
X129140083Y-91839067D01*
X129136529Y-91848240D01*
X129125896Y-91868412D01*
X129120346Y-91876515D01*
X129120341Y-91876524D01*
X129113830Y-91904206D01*
X129109777Y-91917296D01*
X129099501Y-91943823D01*
X129099500Y-91943829D01*
X129099500Y-91953651D01*
X129096870Y-91976318D01*
X129094621Y-91985881D01*
X129096660Y-92000499D01*
X129098551Y-92014053D01*
X129099500Y-92027730D01*
X129099500Y-92400500D01*
X129080593Y-92458691D01*
X129031093Y-92494655D01*
X129000500Y-92499500D01*
X128605252Y-92499500D01*
X128605251Y-92499500D01*
X128605241Y-92499501D01*
X128546772Y-92511132D01*
X128546766Y-92511134D01*
X128480451Y-92555445D01*
X128480445Y-92555451D01*
X128436134Y-92621766D01*
X128436132Y-92621772D01*
X128424501Y-92680241D01*
X128424500Y-92680253D01*
X128424500Y-93319746D01*
X128100500Y-93319746D01*
X128100500Y-92065479D01*
X128119407Y-92007288D01*
X128129496Y-91995475D01*
X129595475Y-90529496D01*
X129649992Y-90501719D01*
X129665479Y-90500500D01*
X130252917Y-90500500D01*
X130311108Y-90519407D01*
X130327733Y-90534667D01*
X130368872Y-90582143D01*
X130489947Y-90659953D01*
X130596403Y-90691211D01*
X130628035Y-90700499D01*
X130628036Y-90700499D01*
X130628039Y-90700500D01*
X130628041Y-90700500D01*
X130771959Y-90700500D01*
X130771961Y-90700500D01*
X130910053Y-90659953D01*
X131031128Y-90582143D01*
X131125377Y-90473373D01*
X131185165Y-90342457D01*
X131205647Y-90200000D01*
X131185165Y-90057543D01*
X131125377Y-89926627D01*
X131031128Y-89817857D01*
X131031127Y-89817856D01*
X131031126Y-89817855D01*
X130910057Y-89740049D01*
X130910054Y-89740047D01*
X130910053Y-89740047D01*
X130910050Y-89740046D01*
X130771964Y-89699500D01*
X130771961Y-89699500D01*
X130628039Y-89699500D01*
X130628035Y-89699500D01*
X130489949Y-89740046D01*
X130489942Y-89740049D01*
X130368876Y-89817854D01*
X130368871Y-89817858D01*
X130327736Y-89865331D01*
X130275340Y-89896927D01*
X130252917Y-89899500D01*
X129565164Y-89899500D01*
X129551488Y-89897267D01*
X129551317Y-89898494D01*
X129542233Y-89897226D01*
X129495358Y-89899394D01*
X129490786Y-89899500D01*
X129472152Y-89899500D01*
X129472029Y-89899523D01*
X129458419Y-89901101D01*
X129430010Y-89902414D01*
X129430006Y-89902415D01*
X129421015Y-89906385D01*
X129399227Y-89913132D01*
X129389570Y-89914937D01*
X129389564Y-89914940D01*
X129365381Y-89929912D01*
X129353262Y-89936300D01*
X129327237Y-89947792D01*
X129327233Y-89947795D01*
X129320284Y-89954744D01*
X129302409Y-89968903D01*
X129294048Y-89974080D01*
X129276907Y-89996778D01*
X129267909Y-90007118D01*
X127633590Y-91641437D01*
X127622361Y-91649550D01*
X127623090Y-91650515D01*
X127615771Y-91656041D01*
X127584141Y-91690737D01*
X127580989Y-91694038D01*
X127567830Y-91707198D01*
X127567818Y-91707212D01*
X127567749Y-91707314D01*
X127559255Y-91718035D01*
X127540083Y-91739066D01*
X127540083Y-91739067D01*
X127536529Y-91748240D01*
X127525896Y-91768412D01*
X127520346Y-91776515D01*
X127520341Y-91776524D01*
X127513830Y-91804206D01*
X127509777Y-91817296D01*
X127499501Y-91843823D01*
X127499500Y-91843829D01*
X127499500Y-91853651D01*
X127496870Y-91876318D01*
X127494621Y-91885879D01*
X126625500Y-91885879D01*
X126625500Y-91080252D01*
X126613867Y-91021769D01*
X126569552Y-90955448D01*
X126569548Y-90955445D01*
X126503233Y-90911134D01*
X126503231Y-90911133D01*
X126503228Y-90911132D01*
X126503227Y-90911132D01*
X126444758Y-90899501D01*
X126444748Y-90899500D01*
X124605252Y-90899500D01*
X124600388Y-90899500D01*
X124600388Y-90897187D01*
X124549396Y-90885972D01*
X124508777Y-90840215D01*
X124500500Y-90800587D01*
X124500500Y-88920004D01*
X136680882Y-88920004D01*
X136699309Y-89107109D01*
X136699310Y-89107112D01*
X136699311Y-89107115D01*
X136753891Y-89287039D01*
X136753894Y-89287044D01*
X136753895Y-89287047D01*
X136842520Y-89452854D01*
X136961796Y-89598193D01*
X136961801Y-89598199D01*
X136961806Y-89598203D01*
X137107145Y-89717479D01*
X137244925Y-89791123D01*
X137272961Y-89806109D01*
X137452885Y-89860689D01*
X137452887Y-89860689D01*
X137452890Y-89860690D01*
X137639996Y-89879118D01*
X137640000Y-89879118D01*
X137640004Y-89879118D01*
X137827109Y-89860690D01*
X137827110Y-89860689D01*
X137827115Y-89860689D01*
X138007039Y-89806109D01*
X138130634Y-89740046D01*
X138172854Y-89717479D01*
X138172855Y-89717477D01*
X138172857Y-89717477D01*
X138318199Y-89598199D01*
X138437477Y-89452857D01*
X138526109Y-89287039D01*
X138580689Y-89107115D01*
X138599118Y-88920000D01*
X138599118Y-88919995D01*
X138580690Y-88732890D01*
X138580689Y-88732887D01*
X138580689Y-88732885D01*
X138526109Y-88552961D01*
X138511123Y-88524925D01*
X138437479Y-88387145D01*
X138318203Y-88241806D01*
X138318199Y-88241801D01*
X138318193Y-88241796D01*
X138172854Y-88122520D01*
X138007047Y-88033895D01*
X138007044Y-88033894D01*
X138007039Y-88033891D01*
X137827115Y-87979311D01*
X137827112Y-87979310D01*
X137827109Y-87979309D01*
X137640004Y-87960882D01*
X137639996Y-87960882D01*
X137452890Y-87979309D01*
X137452887Y-87979310D01*
X137272964Y-88033890D01*
X137272961Y-88033891D01*
X137272958Y-88033892D01*
X137272952Y-88033895D01*
X137107145Y-88122520D01*
X136961806Y-88241796D01*
X136961796Y-88241806D01*
X136842520Y-88387145D01*
X136753895Y-88552952D01*
X136753890Y-88552964D01*
X136699310Y-88732887D01*
X136699309Y-88732890D01*
X136680882Y-88919995D01*
X136680882Y-88920004D01*
X124500500Y-88920004D01*
X124500500Y-86380004D01*
X136680882Y-86380004D01*
X136699309Y-86567109D01*
X136699310Y-86567112D01*
X136699311Y-86567115D01*
X136753891Y-86747039D01*
X136753894Y-86747044D01*
X136753895Y-86747047D01*
X136842520Y-86912854D01*
X136961796Y-87058193D01*
X136961801Y-87058199D01*
X136961806Y-87058203D01*
X137107145Y-87177479D01*
X137244925Y-87251123D01*
X137272961Y-87266109D01*
X137452885Y-87320689D01*
X137452887Y-87320689D01*
X137452890Y-87320690D01*
X137639996Y-87339118D01*
X137640000Y-87339118D01*
X137640004Y-87339118D01*
X137827109Y-87320690D01*
X137827110Y-87320689D01*
X137827115Y-87320689D01*
X138007039Y-87266109D01*
X138114179Y-87208840D01*
X138172854Y-87177479D01*
X138172855Y-87177477D01*
X138172857Y-87177477D01*
X138318199Y-87058199D01*
X138437477Y-86912857D01*
X138526109Y-86747039D01*
X138580689Y-86567115D01*
X138599118Y-86380004D01*
X139220882Y-86380004D01*
X139239309Y-86567109D01*
X139239310Y-86567112D01*
X139239311Y-86567115D01*
X139293891Y-86747039D01*
X139293894Y-86747044D01*
X139293895Y-86747047D01*
X139382520Y-86912854D01*
X139501796Y-87058193D01*
X139501801Y-87058199D01*
X139501806Y-87058203D01*
X139647145Y-87177479D01*
X139784925Y-87251123D01*
X139812961Y-87266109D01*
X139992885Y-87320689D01*
X139992887Y-87320689D01*
X139992890Y-87320690D01*
X140179996Y-87339118D01*
X140180000Y-87339118D01*
X140180004Y-87339118D01*
X140367109Y-87320690D01*
X140367110Y-87320689D01*
X140367115Y-87320689D01*
X140547039Y-87266109D01*
X140654179Y-87208840D01*
X140712854Y-87177479D01*
X140712855Y-87177477D01*
X140712857Y-87177477D01*
X140858199Y-87058199D01*
X140977477Y-86912857D01*
X141066109Y-86747039D01*
X141120689Y-86567115D01*
X141139118Y-86380004D01*
X141760882Y-86380004D01*
X141779309Y-86567109D01*
X141779310Y-86567112D01*
X141779311Y-86567115D01*
X141833891Y-86747039D01*
X141833894Y-86747044D01*
X141833895Y-86747047D01*
X141922520Y-86912854D01*
X142041796Y-87058193D01*
X142041801Y-87058199D01*
X142041806Y-87058203D01*
X142187145Y-87177479D01*
X142324925Y-87251123D01*
X142352961Y-87266109D01*
X142532885Y-87320689D01*
X142532887Y-87320689D01*
X142532890Y-87320690D01*
X142719996Y-87339118D01*
X142720000Y-87339118D01*
X142720004Y-87339118D01*
X142907109Y-87320690D01*
X142907110Y-87320689D01*
X142907115Y-87320689D01*
X143087039Y-87266109D01*
X143194179Y-87208840D01*
X143252854Y-87177479D01*
X143252855Y-87177477D01*
X143252857Y-87177477D01*
X143398199Y-87058199D01*
X143517477Y-86912857D01*
X143606109Y-86747039D01*
X143660689Y-86567115D01*
X143679118Y-86380004D01*
X144300882Y-86380004D01*
X144319309Y-86567109D01*
X144319310Y-86567112D01*
X144319311Y-86567115D01*
X144373891Y-86747039D01*
X144373894Y-86747044D01*
X144373895Y-86747047D01*
X144462520Y-86912854D01*
X144581796Y-87058193D01*
X144581801Y-87058199D01*
X144581806Y-87058203D01*
X144727145Y-87177479D01*
X144864925Y-87251123D01*
X144892961Y-87266109D01*
X145072885Y-87320689D01*
X145072887Y-87320689D01*
X145072890Y-87320690D01*
X145259996Y-87339118D01*
X145260000Y-87339118D01*
X145260004Y-87339118D01*
X145447109Y-87320690D01*
X145447110Y-87320689D01*
X145447115Y-87320689D01*
X145627039Y-87266109D01*
X145734179Y-87208840D01*
X145792854Y-87177479D01*
X145792855Y-87177477D01*
X145792857Y-87177477D01*
X145938199Y-87058199D01*
X146057477Y-86912857D01*
X146146109Y-86747039D01*
X146200689Y-86567115D01*
X146219118Y-86380004D01*
X146840882Y-86380004D01*
X146859309Y-86567109D01*
X146859310Y-86567112D01*
X146859311Y-86567115D01*
X146913891Y-86747039D01*
X146913894Y-86747044D01*
X146913895Y-86747047D01*
X147002520Y-86912854D01*
X147121796Y-87058193D01*
X147121801Y-87058199D01*
X147121806Y-87058203D01*
X147267145Y-87177479D01*
X147404925Y-87251123D01*
X147432961Y-87266109D01*
X147612885Y-87320689D01*
X147612887Y-87320689D01*
X147612890Y-87320690D01*
X147799996Y-87339118D01*
X147800000Y-87339118D01*
X147800004Y-87339118D01*
X147987109Y-87320690D01*
X147987110Y-87320689D01*
X147987115Y-87320689D01*
X148167039Y-87266109D01*
X148274179Y-87208840D01*
X148332854Y-87177479D01*
X148332855Y-87177477D01*
X148332857Y-87177477D01*
X148478199Y-87058199D01*
X148597477Y-86912857D01*
X148686109Y-86747039D01*
X148740689Y-86567115D01*
X148759118Y-86380004D01*
X149380882Y-86380004D01*
X149399309Y-86567109D01*
X149399310Y-86567112D01*
X149399311Y-86567115D01*
X149453891Y-86747039D01*
X149453894Y-86747044D01*
X149453895Y-86747047D01*
X149542520Y-86912854D01*
X149661796Y-87058193D01*
X149661801Y-87058199D01*
X149661806Y-87058203D01*
X149807145Y-87177479D01*
X149944925Y-87251123D01*
X149972961Y-87266109D01*
X150152885Y-87320689D01*
X150152887Y-87320689D01*
X150152890Y-87320690D01*
X150339996Y-87339118D01*
X150340000Y-87339118D01*
X150340004Y-87339118D01*
X150527109Y-87320690D01*
X150527110Y-87320689D01*
X150527115Y-87320689D01*
X150707039Y-87266109D01*
X150814179Y-87208840D01*
X150872854Y-87177479D01*
X150872855Y-87177477D01*
X150872857Y-87177477D01*
X151018199Y-87058199D01*
X151137477Y-86912857D01*
X151226109Y-86747039D01*
X151280689Y-86567115D01*
X151299118Y-86380004D01*
X151920882Y-86380004D01*
X151939309Y-86567109D01*
X151939310Y-86567112D01*
X151939311Y-86567115D01*
X151993891Y-86747039D01*
X151993894Y-86747044D01*
X151993895Y-86747047D01*
X152082520Y-86912854D01*
X152201796Y-87058193D01*
X152201801Y-87058199D01*
X152201806Y-87058203D01*
X152347145Y-87177479D01*
X152484925Y-87251123D01*
X152512961Y-87266109D01*
X152692885Y-87320689D01*
X152692887Y-87320689D01*
X152692890Y-87320690D01*
X152879996Y-87339118D01*
X152880000Y-87339118D01*
X152880004Y-87339118D01*
X153067109Y-87320690D01*
X153067110Y-87320689D01*
X153067115Y-87320689D01*
X153247039Y-87266109D01*
X153354179Y-87208840D01*
X153412854Y-87177479D01*
X153412855Y-87177477D01*
X153412857Y-87177477D01*
X153558199Y-87058199D01*
X153677477Y-86912857D01*
X153766109Y-86747039D01*
X153820689Y-86567115D01*
X153839118Y-86380004D01*
X154460882Y-86380004D01*
X154479309Y-86567109D01*
X154479310Y-86567112D01*
X154479311Y-86567115D01*
X154533891Y-86747039D01*
X154533894Y-86747044D01*
X154533895Y-86747047D01*
X154622520Y-86912854D01*
X154741796Y-87058193D01*
X154741801Y-87058199D01*
X154741806Y-87058203D01*
X154887145Y-87177479D01*
X155024925Y-87251123D01*
X155052961Y-87266109D01*
X155232885Y-87320689D01*
X155232887Y-87320689D01*
X155232890Y-87320690D01*
X155419996Y-87339118D01*
X155420000Y-87339118D01*
X155420004Y-87339118D01*
X155607109Y-87320690D01*
X155607110Y-87320689D01*
X155607115Y-87320689D01*
X155787039Y-87266109D01*
X155894179Y-87208840D01*
X155952854Y-87177479D01*
X155952855Y-87177477D01*
X155952857Y-87177477D01*
X155981774Y-87153746D01*
X157005500Y-87153746D01*
X157005501Y-87153758D01*
X157017132Y-87212227D01*
X157017134Y-87212233D01*
X157061445Y-87278548D01*
X157061448Y-87278552D01*
X157127769Y-87322867D01*
X157172231Y-87331711D01*
X157186241Y-87334498D01*
X157186246Y-87334498D01*
X157186252Y-87334500D01*
X157186253Y-87334500D01*
X158733747Y-87334500D01*
X158733748Y-87334500D01*
X158792231Y-87322867D01*
X158858552Y-87278552D01*
X158902867Y-87212231D01*
X158914500Y-87153748D01*
X158914500Y-85606252D01*
X158902867Y-85547769D01*
X158858552Y-85481448D01*
X158795491Y-85439311D01*
X158792233Y-85437134D01*
X158792231Y-85437133D01*
X158792228Y-85437132D01*
X158792227Y-85437132D01*
X158733758Y-85425501D01*
X158733748Y-85425500D01*
X157186252Y-85425500D01*
X157186251Y-85425500D01*
X157186241Y-85425501D01*
X157127772Y-85437132D01*
X157127766Y-85437134D01*
X157061451Y-85481445D01*
X157061445Y-85481451D01*
X157017134Y-85547766D01*
X157017132Y-85547772D01*
X157005501Y-85606241D01*
X157005500Y-85606253D01*
X157005500Y-87153746D01*
X155981774Y-87153746D01*
X156098199Y-87058199D01*
X156217477Y-86912857D01*
X156306109Y-86747039D01*
X156360689Y-86567115D01*
X156379118Y-86380000D01*
X156379118Y-86379995D01*
X156360690Y-86192890D01*
X156360689Y-86192887D01*
X156360689Y-86192885D01*
X156306109Y-86012961D01*
X156291123Y-85984925D01*
X156217479Y-85847145D01*
X156098203Y-85701806D01*
X156098199Y-85701801D01*
X156098193Y-85701796D01*
X155952854Y-85582520D01*
X155787047Y-85493895D01*
X155787044Y-85493894D01*
X155787039Y-85493891D01*
X155607115Y-85439311D01*
X155607112Y-85439310D01*
X155607109Y-85439309D01*
X155420004Y-85420882D01*
X155419996Y-85420882D01*
X155232890Y-85439309D01*
X155232887Y-85439310D01*
X155052964Y-85493890D01*
X155052961Y-85493891D01*
X155052958Y-85493892D01*
X155052952Y-85493895D01*
X154887145Y-85582520D01*
X154741806Y-85701796D01*
X154741796Y-85701806D01*
X154622520Y-85847145D01*
X154533895Y-86012952D01*
X154533890Y-86012964D01*
X154479310Y-86192887D01*
X154479309Y-86192890D01*
X154460882Y-86379995D01*
X154460882Y-86380004D01*
X153839118Y-86380004D01*
X153839118Y-86380000D01*
X153839118Y-86379995D01*
X153820690Y-86192890D01*
X153820689Y-86192887D01*
X153820689Y-86192885D01*
X153766109Y-86012961D01*
X153751123Y-85984925D01*
X153677479Y-85847145D01*
X153558203Y-85701806D01*
X153558199Y-85701801D01*
X153558193Y-85701796D01*
X153412854Y-85582520D01*
X153247047Y-85493895D01*
X153247044Y-85493894D01*
X153247039Y-85493891D01*
X153067115Y-85439311D01*
X153067112Y-85439310D01*
X153067109Y-85439309D01*
X152880004Y-85420882D01*
X152879996Y-85420882D01*
X152692890Y-85439309D01*
X152692887Y-85439310D01*
X152512964Y-85493890D01*
X152512961Y-85493891D01*
X152512958Y-85493892D01*
X152512952Y-85493895D01*
X152347145Y-85582520D01*
X152201806Y-85701796D01*
X152201796Y-85701806D01*
X152082520Y-85847145D01*
X151993895Y-86012952D01*
X151993890Y-86012964D01*
X151939310Y-86192887D01*
X151939309Y-86192890D01*
X151920882Y-86379995D01*
X151920882Y-86380004D01*
X151299118Y-86380004D01*
X151299118Y-86380000D01*
X151299118Y-86379995D01*
X151280690Y-86192890D01*
X151280689Y-86192887D01*
X151280689Y-86192885D01*
X151226109Y-86012961D01*
X151211123Y-85984925D01*
X151137479Y-85847145D01*
X151018203Y-85701806D01*
X151018199Y-85701801D01*
X151018193Y-85701796D01*
X150872854Y-85582520D01*
X150707047Y-85493895D01*
X150707044Y-85493894D01*
X150707039Y-85493891D01*
X150527115Y-85439311D01*
X150527112Y-85439310D01*
X150527109Y-85439309D01*
X150340004Y-85420882D01*
X150339996Y-85420882D01*
X150152890Y-85439309D01*
X150152887Y-85439310D01*
X149972964Y-85493890D01*
X149972961Y-85493891D01*
X149972958Y-85493892D01*
X149972952Y-85493895D01*
X149807145Y-85582520D01*
X149661806Y-85701796D01*
X149661796Y-85701806D01*
X149542520Y-85847145D01*
X149453895Y-86012952D01*
X149453890Y-86012964D01*
X149399310Y-86192887D01*
X149399309Y-86192890D01*
X149380882Y-86379995D01*
X149380882Y-86380004D01*
X148759118Y-86380004D01*
X148759118Y-86380000D01*
X148759118Y-86379995D01*
X148740690Y-86192890D01*
X148740689Y-86192887D01*
X148740689Y-86192885D01*
X148686109Y-86012961D01*
X148671123Y-85984925D01*
X148597479Y-85847145D01*
X148478203Y-85701806D01*
X148478199Y-85701801D01*
X148478193Y-85701796D01*
X148332854Y-85582520D01*
X148167047Y-85493895D01*
X148167044Y-85493894D01*
X148167039Y-85493891D01*
X147987115Y-85439311D01*
X147987112Y-85439310D01*
X147987109Y-85439309D01*
X147800004Y-85420882D01*
X147799996Y-85420882D01*
X147612890Y-85439309D01*
X147612887Y-85439310D01*
X147432964Y-85493890D01*
X147432961Y-85493891D01*
X147432958Y-85493892D01*
X147432952Y-85493895D01*
X147267145Y-85582520D01*
X147121806Y-85701796D01*
X147121796Y-85701806D01*
X147002520Y-85847145D01*
X146913895Y-86012952D01*
X146913890Y-86012964D01*
X146859310Y-86192887D01*
X146859309Y-86192890D01*
X146840882Y-86379995D01*
X146840882Y-86380004D01*
X146219118Y-86380004D01*
X146219118Y-86380000D01*
X146219118Y-86379995D01*
X146200690Y-86192890D01*
X146200689Y-86192887D01*
X146200689Y-86192885D01*
X146146109Y-86012961D01*
X146131123Y-85984925D01*
X146057479Y-85847145D01*
X145938203Y-85701806D01*
X145938199Y-85701801D01*
X145938193Y-85701796D01*
X145792854Y-85582520D01*
X145627047Y-85493895D01*
X145627044Y-85493894D01*
X145627039Y-85493891D01*
X145447115Y-85439311D01*
X145447112Y-85439310D01*
X145447109Y-85439309D01*
X145260004Y-85420882D01*
X145259996Y-85420882D01*
X145072890Y-85439309D01*
X145072887Y-85439310D01*
X144892964Y-85493890D01*
X144892961Y-85493891D01*
X144892958Y-85493892D01*
X144892952Y-85493895D01*
X144727145Y-85582520D01*
X144581806Y-85701796D01*
X144581796Y-85701806D01*
X144462520Y-85847145D01*
X144373895Y-86012952D01*
X144373890Y-86012964D01*
X144319310Y-86192887D01*
X144319309Y-86192890D01*
X144300882Y-86379995D01*
X144300882Y-86380004D01*
X143679118Y-86380004D01*
X143679118Y-86380000D01*
X143679118Y-86379995D01*
X143660690Y-86192890D01*
X143660689Y-86192887D01*
X143660689Y-86192885D01*
X143606109Y-86012961D01*
X143591123Y-85984925D01*
X143517479Y-85847145D01*
X143398203Y-85701806D01*
X143398199Y-85701801D01*
X143398193Y-85701796D01*
X143252854Y-85582520D01*
X143087047Y-85493895D01*
X143087044Y-85493894D01*
X143087039Y-85493891D01*
X142907115Y-85439311D01*
X142907112Y-85439310D01*
X142907109Y-85439309D01*
X142720004Y-85420882D01*
X142719996Y-85420882D01*
X142532890Y-85439309D01*
X142532887Y-85439310D01*
X142352964Y-85493890D01*
X142352961Y-85493891D01*
X142352958Y-85493892D01*
X142352952Y-85493895D01*
X142187145Y-85582520D01*
X142041806Y-85701796D01*
X142041796Y-85701806D01*
X141922520Y-85847145D01*
X141833895Y-86012952D01*
X141833890Y-86012964D01*
X141779310Y-86192887D01*
X141779309Y-86192890D01*
X141760882Y-86379995D01*
X141760882Y-86380004D01*
X141139118Y-86380004D01*
X141139118Y-86380000D01*
X141139118Y-86379995D01*
X141120690Y-86192890D01*
X141120689Y-86192887D01*
X141120689Y-86192885D01*
X141066109Y-86012961D01*
X141051123Y-85984925D01*
X140977479Y-85847145D01*
X140858203Y-85701806D01*
X140858199Y-85701801D01*
X140858193Y-85701796D01*
X140712854Y-85582520D01*
X140547047Y-85493895D01*
X140547044Y-85493894D01*
X140547039Y-85493891D01*
X140367115Y-85439311D01*
X140367112Y-85439310D01*
X140367109Y-85439309D01*
X140180004Y-85420882D01*
X140179996Y-85420882D01*
X139992890Y-85439309D01*
X139992887Y-85439310D01*
X139812964Y-85493890D01*
X139812961Y-85493891D01*
X139812958Y-85493892D01*
X139812952Y-85493895D01*
X139647145Y-85582520D01*
X139501806Y-85701796D01*
X139501796Y-85701806D01*
X139382520Y-85847145D01*
X139293895Y-86012952D01*
X139293890Y-86012964D01*
X139239310Y-86192887D01*
X139239309Y-86192890D01*
X139220882Y-86379995D01*
X139220882Y-86380004D01*
X138599118Y-86380004D01*
X138599118Y-86380000D01*
X138599118Y-86379995D01*
X138580690Y-86192890D01*
X138580689Y-86192887D01*
X138580689Y-86192885D01*
X138526109Y-86012961D01*
X138511123Y-85984925D01*
X138437479Y-85847145D01*
X138318203Y-85701806D01*
X138318199Y-85701801D01*
X138318193Y-85701796D01*
X138172854Y-85582520D01*
X138007047Y-85493895D01*
X138007044Y-85493894D01*
X138007039Y-85493891D01*
X137827115Y-85439311D01*
X137827112Y-85439310D01*
X137827109Y-85439309D01*
X137640004Y-85420882D01*
X137639996Y-85420882D01*
X137452890Y-85439309D01*
X137452887Y-85439310D01*
X137272964Y-85493890D01*
X137272961Y-85493891D01*
X137272958Y-85493892D01*
X137272952Y-85493895D01*
X137107145Y-85582520D01*
X136961806Y-85701796D01*
X136961796Y-85701806D01*
X136842520Y-85847145D01*
X136753895Y-86012952D01*
X136753890Y-86012964D01*
X136699310Y-86192887D01*
X136699309Y-86192890D01*
X136680882Y-86379995D01*
X136680882Y-86380004D01*
X124500500Y-86380004D01*
X124500500Y-83840003D01*
X125039417Y-83840003D01*
X125059698Y-84045929D01*
X125059699Y-84045934D01*
X125119768Y-84243954D01*
X125217316Y-84426452D01*
X125348585Y-84586404D01*
X125348590Y-84586410D01*
X125348595Y-84586414D01*
X125508547Y-84717683D01*
X125508548Y-84717683D01*
X125508550Y-84717685D01*
X125691046Y-84815232D01*
X125828997Y-84857078D01*
X125889065Y-84875300D01*
X125889070Y-84875301D01*
X126094997Y-84895583D01*
X126095000Y-84895583D01*
X126095003Y-84895583D01*
X126300929Y-84875301D01*
X126300934Y-84875300D01*
X126498954Y-84815232D01*
X126681450Y-84717685D01*
X126841410Y-84586410D01*
X126972685Y-84426450D01*
X127070232Y-84243954D01*
X127130300Y-84045934D01*
X127130301Y-84045929D01*
X127150583Y-83840003D01*
X127579417Y-83840003D01*
X127599698Y-84045929D01*
X127599699Y-84045934D01*
X127659768Y-84243954D01*
X127757316Y-84426452D01*
X127888585Y-84586404D01*
X127888590Y-84586410D01*
X127888595Y-84586414D01*
X128048547Y-84717683D01*
X128048548Y-84717683D01*
X128048550Y-84717685D01*
X128231046Y-84815232D01*
X128368997Y-84857078D01*
X128429065Y-84875300D01*
X128429070Y-84875301D01*
X128634997Y-84895583D01*
X128635000Y-84895583D01*
X128635003Y-84895583D01*
X128840929Y-84875301D01*
X128840934Y-84875300D01*
X129038954Y-84815232D01*
X129221450Y-84717685D01*
X129381410Y-84586410D01*
X129512685Y-84426450D01*
X129610232Y-84243954D01*
X129670300Y-84045934D01*
X129670301Y-84045929D01*
X129690583Y-83840003D01*
X130119417Y-83840003D01*
X130139698Y-84045929D01*
X130139699Y-84045934D01*
X130199768Y-84243954D01*
X130297316Y-84426452D01*
X130428585Y-84586404D01*
X130428590Y-84586410D01*
X130428595Y-84586414D01*
X130588547Y-84717683D01*
X130588548Y-84717683D01*
X130588550Y-84717685D01*
X130771046Y-84815232D01*
X130908997Y-84857078D01*
X130969065Y-84875300D01*
X130969070Y-84875301D01*
X131174997Y-84895583D01*
X131175000Y-84895583D01*
X131175003Y-84895583D01*
X131380929Y-84875301D01*
X131380934Y-84875300D01*
X131578954Y-84815232D01*
X131761450Y-84717685D01*
X131921410Y-84586410D01*
X132052685Y-84426450D01*
X132150232Y-84243954D01*
X132210300Y-84045934D01*
X132210301Y-84045929D01*
X132230583Y-83840003D01*
X132659417Y-83840003D01*
X132679698Y-84045929D01*
X132679699Y-84045934D01*
X132739768Y-84243954D01*
X132837316Y-84426452D01*
X132968585Y-84586404D01*
X132968590Y-84586410D01*
X132968595Y-84586414D01*
X133128547Y-84717683D01*
X133128548Y-84717683D01*
X133128550Y-84717685D01*
X133311046Y-84815232D01*
X133448997Y-84857078D01*
X133509065Y-84875300D01*
X133509070Y-84875301D01*
X133714997Y-84895583D01*
X133715000Y-84895583D01*
X133715003Y-84895583D01*
X133920929Y-84875301D01*
X133920934Y-84875300D01*
X134118954Y-84815232D01*
X134301450Y-84717685D01*
X134461410Y-84586410D01*
X134592685Y-84426450D01*
X134690232Y-84243954D01*
X134750300Y-84045934D01*
X134750301Y-84045929D01*
X134770583Y-83840003D01*
X135199417Y-83840003D01*
X135219698Y-84045929D01*
X135219699Y-84045934D01*
X135279768Y-84243954D01*
X135377316Y-84426452D01*
X135508585Y-84586404D01*
X135508590Y-84586410D01*
X135508595Y-84586414D01*
X135668547Y-84717683D01*
X135668548Y-84717683D01*
X135668550Y-84717685D01*
X135851046Y-84815232D01*
X135988997Y-84857078D01*
X136049065Y-84875300D01*
X136049070Y-84875301D01*
X136254997Y-84895583D01*
X136255000Y-84895583D01*
X136255003Y-84895583D01*
X136460929Y-84875301D01*
X136460934Y-84875300D01*
X136658954Y-84815232D01*
X136841450Y-84717685D01*
X137001410Y-84586410D01*
X137132685Y-84426450D01*
X137230232Y-84243954D01*
X137290300Y-84045934D01*
X137290301Y-84045929D01*
X137310583Y-83840003D01*
X137739417Y-83840003D01*
X137759698Y-84045929D01*
X137759699Y-84045934D01*
X137819768Y-84243954D01*
X137917316Y-84426452D01*
X138048585Y-84586404D01*
X138048590Y-84586410D01*
X138048595Y-84586414D01*
X138208547Y-84717683D01*
X138208548Y-84717683D01*
X138208550Y-84717685D01*
X138391046Y-84815232D01*
X138528997Y-84857078D01*
X138589065Y-84875300D01*
X138589070Y-84875301D01*
X138794997Y-84895583D01*
X138795000Y-84895583D01*
X138795003Y-84895583D01*
X139000929Y-84875301D01*
X139000934Y-84875300D01*
X139198954Y-84815232D01*
X139381450Y-84717685D01*
X139541410Y-84586410D01*
X139672685Y-84426450D01*
X139770232Y-84243954D01*
X139830300Y-84045934D01*
X139830301Y-84045929D01*
X139850583Y-83840003D01*
X140279417Y-83840003D01*
X140299698Y-84045929D01*
X140299699Y-84045934D01*
X140359768Y-84243954D01*
X140457316Y-84426452D01*
X140588585Y-84586404D01*
X140588590Y-84586410D01*
X140588595Y-84586414D01*
X140748547Y-84717683D01*
X140748548Y-84717683D01*
X140748550Y-84717685D01*
X140931046Y-84815232D01*
X141068997Y-84857078D01*
X141129065Y-84875300D01*
X141129070Y-84875301D01*
X141334997Y-84895583D01*
X141335000Y-84895583D01*
X141335003Y-84895583D01*
X141540929Y-84875301D01*
X141540934Y-84875300D01*
X141738954Y-84815232D01*
X141921450Y-84717685D01*
X142081410Y-84586410D01*
X142212685Y-84426450D01*
X142310232Y-84243954D01*
X142370300Y-84045934D01*
X142370301Y-84045929D01*
X142390583Y-83840003D01*
X142819417Y-83840003D01*
X142839698Y-84045929D01*
X142839699Y-84045934D01*
X142899768Y-84243954D01*
X142997316Y-84426452D01*
X143128585Y-84586404D01*
X143128590Y-84586410D01*
X143128595Y-84586414D01*
X143288547Y-84717683D01*
X143288548Y-84717683D01*
X143288550Y-84717685D01*
X143471046Y-84815232D01*
X143608997Y-84857078D01*
X143669065Y-84875300D01*
X143669070Y-84875301D01*
X143874997Y-84895583D01*
X143875000Y-84895583D01*
X143875003Y-84895583D01*
X144080929Y-84875301D01*
X144080934Y-84875300D01*
X144278954Y-84815232D01*
X144461450Y-84717685D01*
X144621410Y-84586410D01*
X144752685Y-84426450D01*
X144850232Y-84243954D01*
X144910300Y-84045934D01*
X144910301Y-84045929D01*
X144930583Y-83840003D01*
X145359417Y-83840003D01*
X145379698Y-84045929D01*
X145379699Y-84045934D01*
X145439768Y-84243954D01*
X145537316Y-84426452D01*
X145668585Y-84586404D01*
X145668590Y-84586410D01*
X145668595Y-84586414D01*
X145828547Y-84717683D01*
X145828548Y-84717683D01*
X145828550Y-84717685D01*
X146011046Y-84815232D01*
X146148997Y-84857078D01*
X146209065Y-84875300D01*
X146209070Y-84875301D01*
X146414997Y-84895583D01*
X146415000Y-84895583D01*
X146415003Y-84895583D01*
X146620929Y-84875301D01*
X146620934Y-84875300D01*
X146818954Y-84815232D01*
X147001450Y-84717685D01*
X147161410Y-84586410D01*
X147292685Y-84426450D01*
X147390232Y-84243954D01*
X147450300Y-84045934D01*
X147450301Y-84045929D01*
X147470583Y-83840003D01*
X147899417Y-83840003D01*
X147919698Y-84045929D01*
X147919699Y-84045934D01*
X147979768Y-84243954D01*
X148077316Y-84426452D01*
X148208585Y-84586404D01*
X148208590Y-84586410D01*
X148208595Y-84586414D01*
X148368547Y-84717683D01*
X148368548Y-84717683D01*
X148368550Y-84717685D01*
X148551046Y-84815232D01*
X148688997Y-84857078D01*
X148749065Y-84875300D01*
X148749070Y-84875301D01*
X148954997Y-84895583D01*
X148955000Y-84895583D01*
X148955003Y-84895583D01*
X149160929Y-84875301D01*
X149160934Y-84875300D01*
X149358954Y-84815232D01*
X149541450Y-84717685D01*
X149701410Y-84586410D01*
X149832685Y-84426450D01*
X149930232Y-84243954D01*
X149990300Y-84045934D01*
X149990301Y-84045929D01*
X150010583Y-83840003D01*
X150010583Y-83839996D01*
X149990301Y-83634070D01*
X149990300Y-83634065D01*
X149972078Y-83573997D01*
X149930232Y-83436046D01*
X149832685Y-83253550D01*
X149701410Y-83093590D01*
X149701404Y-83093585D01*
X149541452Y-82962316D01*
X149358954Y-82864768D01*
X149160934Y-82804699D01*
X149160929Y-82804698D01*
X148955003Y-82784417D01*
X148954997Y-82784417D01*
X148749070Y-82804698D01*
X148749065Y-82804699D01*
X148551045Y-82864768D01*
X148368547Y-82962316D01*
X148208595Y-83093585D01*
X148208585Y-83093595D01*
X148077316Y-83253547D01*
X147979768Y-83436045D01*
X147919699Y-83634065D01*
X147919698Y-83634070D01*
X147899417Y-83839996D01*
X147899417Y-83840003D01*
X147470583Y-83840003D01*
X147470583Y-83839996D01*
X147450301Y-83634070D01*
X147450300Y-83634065D01*
X147432078Y-83573997D01*
X147390232Y-83436046D01*
X147292685Y-83253550D01*
X147161410Y-83093590D01*
X147161404Y-83093585D01*
X147001452Y-82962316D01*
X146818954Y-82864768D01*
X146620934Y-82804699D01*
X146620929Y-82804698D01*
X146415003Y-82784417D01*
X146414997Y-82784417D01*
X146209070Y-82804698D01*
X146209065Y-82804699D01*
X146011045Y-82864768D01*
X145828547Y-82962316D01*
X145668595Y-83093585D01*
X145668585Y-83093595D01*
X145537316Y-83253547D01*
X145439768Y-83436045D01*
X145379699Y-83634065D01*
X145379698Y-83634070D01*
X145359417Y-83839996D01*
X145359417Y-83840003D01*
X144930583Y-83840003D01*
X144930583Y-83839996D01*
X144910301Y-83634070D01*
X144910300Y-83634065D01*
X144892078Y-83573997D01*
X144850232Y-83436046D01*
X144752685Y-83253550D01*
X144621410Y-83093590D01*
X144621404Y-83093585D01*
X144461452Y-82962316D01*
X144278954Y-82864768D01*
X144080934Y-82804699D01*
X144080929Y-82804698D01*
X143875003Y-82784417D01*
X143874997Y-82784417D01*
X143669070Y-82804698D01*
X143669065Y-82804699D01*
X143471045Y-82864768D01*
X143288547Y-82962316D01*
X143128595Y-83093585D01*
X143128585Y-83093595D01*
X142997316Y-83253547D01*
X142899768Y-83436045D01*
X142839699Y-83634065D01*
X142839698Y-83634070D01*
X142819417Y-83839996D01*
X142819417Y-83840003D01*
X142390583Y-83840003D01*
X142390583Y-83839996D01*
X142370301Y-83634070D01*
X142370300Y-83634065D01*
X142352078Y-83573997D01*
X142310232Y-83436046D01*
X142212685Y-83253550D01*
X142081410Y-83093590D01*
X142081404Y-83093585D01*
X141921452Y-82962316D01*
X141738954Y-82864768D01*
X141540934Y-82804699D01*
X141540929Y-82804698D01*
X141335003Y-82784417D01*
X141334997Y-82784417D01*
X141129070Y-82804698D01*
X141129065Y-82804699D01*
X140931045Y-82864768D01*
X140748547Y-82962316D01*
X140588595Y-83093585D01*
X140588585Y-83093595D01*
X140457316Y-83253547D01*
X140359768Y-83436045D01*
X140299699Y-83634065D01*
X140299698Y-83634070D01*
X140279417Y-83839996D01*
X140279417Y-83840003D01*
X139850583Y-83840003D01*
X139850583Y-83839996D01*
X139830301Y-83634070D01*
X139830300Y-83634065D01*
X139812078Y-83573997D01*
X139770232Y-83436046D01*
X139672685Y-83253550D01*
X139541410Y-83093590D01*
X139541404Y-83093585D01*
X139381452Y-82962316D01*
X139198954Y-82864768D01*
X139000934Y-82804699D01*
X139000929Y-82804698D01*
X138795003Y-82784417D01*
X138794997Y-82784417D01*
X138589070Y-82804698D01*
X138589065Y-82804699D01*
X138391045Y-82864768D01*
X138208547Y-82962316D01*
X138048595Y-83093585D01*
X138048585Y-83093595D01*
X137917316Y-83253547D01*
X137819768Y-83436045D01*
X137759699Y-83634065D01*
X137759698Y-83634070D01*
X137739417Y-83839996D01*
X137739417Y-83840003D01*
X137310583Y-83840003D01*
X137310583Y-83839996D01*
X137290301Y-83634070D01*
X137290300Y-83634065D01*
X137272078Y-83573997D01*
X137230232Y-83436046D01*
X137132685Y-83253550D01*
X137001410Y-83093590D01*
X137001404Y-83093585D01*
X136841452Y-82962316D01*
X136658954Y-82864768D01*
X136460934Y-82804699D01*
X136460929Y-82804698D01*
X136255003Y-82784417D01*
X136254997Y-82784417D01*
X136049070Y-82804698D01*
X136049065Y-82804699D01*
X135851045Y-82864768D01*
X135668547Y-82962316D01*
X135508595Y-83093585D01*
X135508585Y-83093595D01*
X135377316Y-83253547D01*
X135279768Y-83436045D01*
X135219699Y-83634065D01*
X135219698Y-83634070D01*
X135199417Y-83839996D01*
X135199417Y-83840003D01*
X134770583Y-83840003D01*
X134770583Y-83839996D01*
X134750301Y-83634070D01*
X134750300Y-83634065D01*
X134732078Y-83573997D01*
X134690232Y-83436046D01*
X134592685Y-83253550D01*
X134461410Y-83093590D01*
X134461404Y-83093585D01*
X134301452Y-82962316D01*
X134118954Y-82864768D01*
X133920934Y-82804699D01*
X133920929Y-82804698D01*
X133715003Y-82784417D01*
X133714997Y-82784417D01*
X133509070Y-82804698D01*
X133509065Y-82804699D01*
X133311045Y-82864768D01*
X133128547Y-82962316D01*
X132968595Y-83093585D01*
X132968585Y-83093595D01*
X132837316Y-83253547D01*
X132739768Y-83436045D01*
X132679699Y-83634065D01*
X132679698Y-83634070D01*
X132659417Y-83839996D01*
X132659417Y-83840003D01*
X132230583Y-83840003D01*
X132230583Y-83839996D01*
X132210301Y-83634070D01*
X132210300Y-83634065D01*
X132192078Y-83573997D01*
X132150232Y-83436046D01*
X132052685Y-83253550D01*
X131921410Y-83093590D01*
X131921404Y-83093585D01*
X131761452Y-82962316D01*
X131578954Y-82864768D01*
X131380934Y-82804699D01*
X131380929Y-82804698D01*
X131175003Y-82784417D01*
X131174997Y-82784417D01*
X130969070Y-82804698D01*
X130969065Y-82804699D01*
X130771045Y-82864768D01*
X130588547Y-82962316D01*
X130428595Y-83093585D01*
X130428585Y-83093595D01*
X130297316Y-83253547D01*
X130199768Y-83436045D01*
X130139699Y-83634065D01*
X130139698Y-83634070D01*
X130119417Y-83839996D01*
X130119417Y-83840003D01*
X129690583Y-83840003D01*
X129690583Y-83839996D01*
X129670301Y-83634070D01*
X129670300Y-83634065D01*
X129652078Y-83573997D01*
X129610232Y-83436046D01*
X129512685Y-83253550D01*
X129381410Y-83093590D01*
X129381404Y-83093585D01*
X129221452Y-82962316D01*
X129038954Y-82864768D01*
X128840934Y-82804699D01*
X128840929Y-82804698D01*
X128635003Y-82784417D01*
X128634997Y-82784417D01*
X128429070Y-82804698D01*
X128429065Y-82804699D01*
X128231045Y-82864768D01*
X128048547Y-82962316D01*
X127888595Y-83093585D01*
X127888585Y-83093595D01*
X127757316Y-83253547D01*
X127659768Y-83436045D01*
X127599699Y-83634065D01*
X127599698Y-83634070D01*
X127579417Y-83839996D01*
X127579417Y-83840003D01*
X127150583Y-83840003D01*
X127150583Y-83839996D01*
X127130301Y-83634070D01*
X127130300Y-83634065D01*
X127112078Y-83573997D01*
X127070232Y-83436046D01*
X126972685Y-83253550D01*
X126841410Y-83093590D01*
X126841404Y-83093585D01*
X126681452Y-82962316D01*
X126498954Y-82864768D01*
X126300934Y-82804699D01*
X126300929Y-82804698D01*
X126095003Y-82784417D01*
X126094997Y-82784417D01*
X125889070Y-82804698D01*
X125889065Y-82804699D01*
X125691045Y-82864768D01*
X125508547Y-82962316D01*
X125348595Y-83093585D01*
X125348585Y-83093595D01*
X125217316Y-83253547D01*
X125119768Y-83436045D01*
X125059699Y-83634065D01*
X125059698Y-83634070D01*
X125039417Y-83839996D01*
X125039417Y-83840003D01*
X124500500Y-83840003D01*
X124500500Y-81300003D01*
X125039417Y-81300003D01*
X125059698Y-81505929D01*
X125059699Y-81505934D01*
X125119768Y-81703954D01*
X125217316Y-81886452D01*
X125348585Y-82046404D01*
X125348590Y-82046410D01*
X125348595Y-82046414D01*
X125508547Y-82177683D01*
X125508548Y-82177683D01*
X125508550Y-82177685D01*
X125691046Y-82275232D01*
X125828997Y-82317078D01*
X125889065Y-82335300D01*
X125889070Y-82335301D01*
X126094997Y-82355583D01*
X126095000Y-82355583D01*
X126095003Y-82355583D01*
X126300929Y-82335301D01*
X126300934Y-82335300D01*
X126498954Y-82275232D01*
X126681450Y-82177685D01*
X126841410Y-82046410D01*
X126972685Y-81886450D01*
X127070232Y-81703954D01*
X127130300Y-81505934D01*
X127130301Y-81505929D01*
X127150583Y-81300003D01*
X127579417Y-81300003D01*
X127599698Y-81505929D01*
X127599699Y-81505934D01*
X127659768Y-81703954D01*
X127757316Y-81886452D01*
X127888585Y-82046404D01*
X127888590Y-82046410D01*
X127888595Y-82046414D01*
X128048547Y-82177683D01*
X128048548Y-82177683D01*
X128048550Y-82177685D01*
X128231046Y-82275232D01*
X128368997Y-82317078D01*
X128429065Y-82335300D01*
X128429070Y-82335301D01*
X128634997Y-82355583D01*
X128635000Y-82355583D01*
X128635003Y-82355583D01*
X128840929Y-82335301D01*
X128840934Y-82335300D01*
X129038954Y-82275232D01*
X129221450Y-82177685D01*
X129381410Y-82046410D01*
X129512685Y-81886450D01*
X129610232Y-81703954D01*
X129670300Y-81505934D01*
X129670301Y-81505929D01*
X129690583Y-81300003D01*
X130119417Y-81300003D01*
X130139698Y-81505929D01*
X130139699Y-81505934D01*
X130199768Y-81703954D01*
X130297316Y-81886452D01*
X130428585Y-82046404D01*
X130428590Y-82046410D01*
X130428595Y-82046414D01*
X130588547Y-82177683D01*
X130588548Y-82177683D01*
X130588550Y-82177685D01*
X130771046Y-82275232D01*
X130908997Y-82317078D01*
X130969065Y-82335300D01*
X130969070Y-82335301D01*
X131174997Y-82355583D01*
X131175000Y-82355583D01*
X131175003Y-82355583D01*
X131380929Y-82335301D01*
X131380934Y-82335300D01*
X131578954Y-82275232D01*
X131761450Y-82177685D01*
X131921410Y-82046410D01*
X132052685Y-81886450D01*
X132150232Y-81703954D01*
X132210300Y-81505934D01*
X132210301Y-81505929D01*
X132230583Y-81300003D01*
X132659417Y-81300003D01*
X132679698Y-81505929D01*
X132679699Y-81505934D01*
X132739768Y-81703954D01*
X132837316Y-81886452D01*
X132968585Y-82046404D01*
X132968590Y-82046410D01*
X132968595Y-82046414D01*
X133128547Y-82177683D01*
X133128548Y-82177683D01*
X133128550Y-82177685D01*
X133311046Y-82275232D01*
X133448997Y-82317078D01*
X133509065Y-82335300D01*
X133509070Y-82335301D01*
X133714997Y-82355583D01*
X133715000Y-82355583D01*
X133715003Y-82355583D01*
X133920929Y-82335301D01*
X133920934Y-82335300D01*
X134118954Y-82275232D01*
X134301450Y-82177685D01*
X134461410Y-82046410D01*
X134592685Y-81886450D01*
X134690232Y-81703954D01*
X134750300Y-81505934D01*
X134750301Y-81505929D01*
X134770583Y-81300003D01*
X135199417Y-81300003D01*
X135219698Y-81505929D01*
X135219699Y-81505934D01*
X135279768Y-81703954D01*
X135377316Y-81886452D01*
X135508585Y-82046404D01*
X135508590Y-82046410D01*
X135508595Y-82046414D01*
X135668547Y-82177683D01*
X135668548Y-82177683D01*
X135668550Y-82177685D01*
X135851046Y-82275232D01*
X135988997Y-82317078D01*
X136049065Y-82335300D01*
X136049070Y-82335301D01*
X136254997Y-82355583D01*
X136255000Y-82355583D01*
X136255003Y-82355583D01*
X136460929Y-82335301D01*
X136460934Y-82335300D01*
X136658954Y-82275232D01*
X136841450Y-82177685D01*
X137001410Y-82046410D01*
X137132685Y-81886450D01*
X137230232Y-81703954D01*
X137290300Y-81505934D01*
X137290301Y-81505929D01*
X137310583Y-81300003D01*
X137739417Y-81300003D01*
X137759698Y-81505929D01*
X137759699Y-81505934D01*
X137819768Y-81703954D01*
X137917316Y-81886452D01*
X138048585Y-82046404D01*
X138048590Y-82046410D01*
X138048595Y-82046414D01*
X138208547Y-82177683D01*
X138208548Y-82177683D01*
X138208550Y-82177685D01*
X138391046Y-82275232D01*
X138528997Y-82317078D01*
X138589065Y-82335300D01*
X138589070Y-82335301D01*
X138794997Y-82355583D01*
X138795000Y-82355583D01*
X138795003Y-82355583D01*
X139000929Y-82335301D01*
X139000934Y-82335300D01*
X139198954Y-82275232D01*
X139381450Y-82177685D01*
X139541410Y-82046410D01*
X139672685Y-81886450D01*
X139770232Y-81703954D01*
X139830300Y-81505934D01*
X139830301Y-81505929D01*
X139850583Y-81300003D01*
X140279417Y-81300003D01*
X140299698Y-81505929D01*
X140299699Y-81505934D01*
X140359768Y-81703954D01*
X140457316Y-81886452D01*
X140588585Y-82046404D01*
X140588590Y-82046410D01*
X140588595Y-82046414D01*
X140748547Y-82177683D01*
X140748548Y-82177683D01*
X140748550Y-82177685D01*
X140931046Y-82275232D01*
X141068997Y-82317078D01*
X141129065Y-82335300D01*
X141129070Y-82335301D01*
X141334997Y-82355583D01*
X141335000Y-82355583D01*
X141335003Y-82355583D01*
X141540929Y-82335301D01*
X141540934Y-82335300D01*
X141738954Y-82275232D01*
X141921450Y-82177685D01*
X142081410Y-82046410D01*
X142212685Y-81886450D01*
X142310232Y-81703954D01*
X142370300Y-81505934D01*
X142370301Y-81505929D01*
X142390583Y-81300003D01*
X142819417Y-81300003D01*
X142839698Y-81505929D01*
X142839699Y-81505934D01*
X142899768Y-81703954D01*
X142997316Y-81886452D01*
X143128585Y-82046404D01*
X143128590Y-82046410D01*
X143128595Y-82046414D01*
X143288547Y-82177683D01*
X143288548Y-82177683D01*
X143288550Y-82177685D01*
X143471046Y-82275232D01*
X143608997Y-82317078D01*
X143669065Y-82335300D01*
X143669070Y-82335301D01*
X143874997Y-82355583D01*
X143875000Y-82355583D01*
X143875003Y-82355583D01*
X144080929Y-82335301D01*
X144080934Y-82335300D01*
X144278954Y-82275232D01*
X144461450Y-82177685D01*
X144621410Y-82046410D01*
X144752685Y-81886450D01*
X144850232Y-81703954D01*
X144910300Y-81505934D01*
X144910301Y-81505929D01*
X144930583Y-81300003D01*
X145359417Y-81300003D01*
X145379698Y-81505929D01*
X145379699Y-81505934D01*
X145439768Y-81703954D01*
X145537316Y-81886452D01*
X145668585Y-82046404D01*
X145668590Y-82046410D01*
X145668595Y-82046414D01*
X145828547Y-82177683D01*
X145828548Y-82177683D01*
X145828550Y-82177685D01*
X146011046Y-82275232D01*
X146148997Y-82317078D01*
X146209065Y-82335300D01*
X146209070Y-82335301D01*
X146414997Y-82355583D01*
X146415000Y-82355583D01*
X146415003Y-82355583D01*
X146620929Y-82335301D01*
X146620934Y-82335300D01*
X146818954Y-82275232D01*
X147001450Y-82177685D01*
X147161410Y-82046410D01*
X147292685Y-81886450D01*
X147390232Y-81703954D01*
X147450300Y-81505934D01*
X147450301Y-81505929D01*
X147470583Y-81300003D01*
X147899417Y-81300003D01*
X147919698Y-81505929D01*
X147919699Y-81505934D01*
X147979768Y-81703954D01*
X148077316Y-81886452D01*
X148208585Y-82046404D01*
X148208590Y-82046410D01*
X148208595Y-82046414D01*
X148368547Y-82177683D01*
X148368548Y-82177683D01*
X148368550Y-82177685D01*
X148551046Y-82275232D01*
X148688997Y-82317078D01*
X148749065Y-82335300D01*
X148749070Y-82335301D01*
X148954997Y-82355583D01*
X148955000Y-82355583D01*
X148955003Y-82355583D01*
X149160929Y-82335301D01*
X149160934Y-82335300D01*
X149358954Y-82275232D01*
X149541450Y-82177685D01*
X149701410Y-82046410D01*
X149832685Y-81886450D01*
X149930232Y-81703954D01*
X149990300Y-81505934D01*
X149990301Y-81505929D01*
X150010583Y-81300003D01*
X150439417Y-81300003D01*
X150459698Y-81505929D01*
X150459699Y-81505934D01*
X150519768Y-81703954D01*
X150617316Y-81886452D01*
X150748585Y-82046404D01*
X150748590Y-82046410D01*
X150748595Y-82046414D01*
X150908547Y-82177683D01*
X150908548Y-82177683D01*
X150908550Y-82177685D01*
X151091046Y-82275232D01*
X151228997Y-82317078D01*
X151289065Y-82335300D01*
X151289070Y-82335301D01*
X151494997Y-82355583D01*
X151495000Y-82355583D01*
X151495003Y-82355583D01*
X151700929Y-82335301D01*
X151700934Y-82335300D01*
X151898954Y-82275232D01*
X152081450Y-82177685D01*
X152241410Y-82046410D01*
X152372685Y-81886450D01*
X152470232Y-81703954D01*
X152530300Y-81505934D01*
X152530301Y-81505929D01*
X152550583Y-81300003D01*
X152979417Y-81300003D01*
X152999698Y-81505929D01*
X152999699Y-81505934D01*
X153059768Y-81703954D01*
X153157316Y-81886452D01*
X153288585Y-82046404D01*
X153288590Y-82046410D01*
X153288595Y-82046414D01*
X153448547Y-82177683D01*
X153448548Y-82177683D01*
X153448550Y-82177685D01*
X153631046Y-82275232D01*
X153768997Y-82317078D01*
X153829065Y-82335300D01*
X153829070Y-82335301D01*
X154034997Y-82355583D01*
X154035000Y-82355583D01*
X154035003Y-82355583D01*
X154240929Y-82335301D01*
X154240934Y-82335300D01*
X154438954Y-82275232D01*
X154621450Y-82177685D01*
X154631124Y-82169746D01*
X155524500Y-82169746D01*
X155524501Y-82169758D01*
X155536132Y-82228227D01*
X155536134Y-82228233D01*
X155580445Y-82294548D01*
X155580448Y-82294552D01*
X155646769Y-82338867D01*
X155691231Y-82347711D01*
X155705241Y-82350498D01*
X155705246Y-82350498D01*
X155705252Y-82350500D01*
X155705253Y-82350500D01*
X157444747Y-82350500D01*
X157444748Y-82350500D01*
X157503231Y-82338867D01*
X157569552Y-82294552D01*
X157613867Y-82228231D01*
X157625500Y-82169748D01*
X157625500Y-80430252D01*
X157623921Y-80422316D01*
X157622711Y-80416231D01*
X157613867Y-80371769D01*
X157569552Y-80305448D01*
X157569548Y-80305445D01*
X157503233Y-80261134D01*
X157503231Y-80261133D01*
X157503228Y-80261132D01*
X157503227Y-80261132D01*
X157444758Y-80249501D01*
X157444748Y-80249500D01*
X155705252Y-80249500D01*
X155705251Y-80249500D01*
X155705241Y-80249501D01*
X155646772Y-80261132D01*
X155646766Y-80261134D01*
X155580451Y-80305445D01*
X155580445Y-80305451D01*
X155536134Y-80371766D01*
X155536132Y-80371772D01*
X155524501Y-80430241D01*
X155524500Y-80430253D01*
X155524500Y-82169746D01*
X154631124Y-82169746D01*
X154781410Y-82046410D01*
X154912685Y-81886450D01*
X155010232Y-81703954D01*
X155070300Y-81505934D01*
X155070301Y-81505929D01*
X155090583Y-81300003D01*
X155090583Y-81299996D01*
X155070301Y-81094070D01*
X155070300Y-81094065D01*
X155052078Y-81033997D01*
X155010232Y-80896046D01*
X154912685Y-80713550D01*
X154781410Y-80553590D01*
X154631123Y-80430253D01*
X154621452Y-80422316D01*
X154438954Y-80324768D01*
X154240934Y-80264699D01*
X154240929Y-80264698D01*
X154035003Y-80244417D01*
X154034997Y-80244417D01*
X153829070Y-80264698D01*
X153829065Y-80264699D01*
X153631045Y-80324768D01*
X153448547Y-80422316D01*
X153288595Y-80553585D01*
X153288585Y-80553595D01*
X153157316Y-80713547D01*
X153059768Y-80896045D01*
X152999699Y-81094065D01*
X152999698Y-81094070D01*
X152979417Y-81299996D01*
X152979417Y-81300003D01*
X152550583Y-81300003D01*
X152550583Y-81299996D01*
X152530301Y-81094070D01*
X152530300Y-81094065D01*
X152512078Y-81033997D01*
X152470232Y-80896046D01*
X152372685Y-80713550D01*
X152241410Y-80553590D01*
X152091123Y-80430253D01*
X152081452Y-80422316D01*
X151898954Y-80324768D01*
X151700934Y-80264699D01*
X151700929Y-80264698D01*
X151495003Y-80244417D01*
X151494997Y-80244417D01*
X151289070Y-80264698D01*
X151289065Y-80264699D01*
X151091045Y-80324768D01*
X150908547Y-80422316D01*
X150748595Y-80553585D01*
X150748585Y-80553595D01*
X150617316Y-80713547D01*
X150519768Y-80896045D01*
X150459699Y-81094065D01*
X150459698Y-81094070D01*
X150439417Y-81299996D01*
X150439417Y-81300003D01*
X150010583Y-81300003D01*
X150010583Y-81299996D01*
X149990301Y-81094070D01*
X149990300Y-81094065D01*
X149972078Y-81033997D01*
X149930232Y-80896046D01*
X149832685Y-80713550D01*
X149701410Y-80553590D01*
X149551123Y-80430253D01*
X149541452Y-80422316D01*
X149358954Y-80324768D01*
X149160934Y-80264699D01*
X149160929Y-80264698D01*
X148955003Y-80244417D01*
X148954997Y-80244417D01*
X148749070Y-80264698D01*
X148749065Y-80264699D01*
X148551045Y-80324768D01*
X148368547Y-80422316D01*
X148208595Y-80553585D01*
X148208585Y-80553595D01*
X148077316Y-80713547D01*
X147979768Y-80896045D01*
X147919699Y-81094065D01*
X147919698Y-81094070D01*
X147899417Y-81299996D01*
X147899417Y-81300003D01*
X147470583Y-81300003D01*
X147470583Y-81299996D01*
X147450301Y-81094070D01*
X147450300Y-81094065D01*
X147432078Y-81033997D01*
X147390232Y-80896046D01*
X147292685Y-80713550D01*
X147161410Y-80553590D01*
X147011123Y-80430253D01*
X147001452Y-80422316D01*
X146818954Y-80324768D01*
X146620934Y-80264699D01*
X146620929Y-80264698D01*
X146415003Y-80244417D01*
X146414997Y-80244417D01*
X146209070Y-80264698D01*
X146209065Y-80264699D01*
X146011045Y-80324768D01*
X145828547Y-80422316D01*
X145668595Y-80553585D01*
X145668585Y-80553595D01*
X145537316Y-80713547D01*
X145439768Y-80896045D01*
X145379699Y-81094065D01*
X145379698Y-81094070D01*
X145359417Y-81299996D01*
X145359417Y-81300003D01*
X144930583Y-81300003D01*
X144930583Y-81299996D01*
X144910301Y-81094070D01*
X144910300Y-81094065D01*
X144892078Y-81033997D01*
X144850232Y-80896046D01*
X144752685Y-80713550D01*
X144621410Y-80553590D01*
X144471123Y-80430253D01*
X144461452Y-80422316D01*
X144278954Y-80324768D01*
X144080934Y-80264699D01*
X144080929Y-80264698D01*
X143875003Y-80244417D01*
X143874997Y-80244417D01*
X143669070Y-80264698D01*
X143669065Y-80264699D01*
X143471045Y-80324768D01*
X143288547Y-80422316D01*
X143128595Y-80553585D01*
X143128585Y-80553595D01*
X142997316Y-80713547D01*
X142899768Y-80896045D01*
X142839699Y-81094065D01*
X142839698Y-81094070D01*
X142819417Y-81299996D01*
X142819417Y-81300003D01*
X142390583Y-81300003D01*
X142390583Y-81299996D01*
X142370301Y-81094070D01*
X142370300Y-81094065D01*
X142352078Y-81033997D01*
X142310232Y-80896046D01*
X142212685Y-80713550D01*
X142081410Y-80553590D01*
X141931123Y-80430253D01*
X141921452Y-80422316D01*
X141738954Y-80324768D01*
X141540934Y-80264699D01*
X141540929Y-80264698D01*
X141335003Y-80244417D01*
X141334997Y-80244417D01*
X141129070Y-80264698D01*
X141129065Y-80264699D01*
X140931045Y-80324768D01*
X140748547Y-80422316D01*
X140588595Y-80553585D01*
X140588585Y-80553595D01*
X140457316Y-80713547D01*
X140359768Y-80896045D01*
X140299699Y-81094065D01*
X140299698Y-81094070D01*
X140279417Y-81299996D01*
X140279417Y-81300003D01*
X139850583Y-81300003D01*
X139850583Y-81299996D01*
X139830301Y-81094070D01*
X139830300Y-81094065D01*
X139812078Y-81033997D01*
X139770232Y-80896046D01*
X139672685Y-80713550D01*
X139541410Y-80553590D01*
X139391123Y-80430253D01*
X139381452Y-80422316D01*
X139198954Y-80324768D01*
X139000934Y-80264699D01*
X139000929Y-80264698D01*
X138795003Y-80244417D01*
X138794997Y-80244417D01*
X138589070Y-80264698D01*
X138589065Y-80264699D01*
X138391045Y-80324768D01*
X138208547Y-80422316D01*
X138048595Y-80553585D01*
X138048585Y-80553595D01*
X137917316Y-80713547D01*
X137819768Y-80896045D01*
X137759699Y-81094065D01*
X137759698Y-81094070D01*
X137739417Y-81299996D01*
X137739417Y-81300003D01*
X137310583Y-81300003D01*
X137310583Y-81299996D01*
X137290301Y-81094070D01*
X137290300Y-81094065D01*
X137272078Y-81033997D01*
X137230232Y-80896046D01*
X137132685Y-80713550D01*
X137001410Y-80553590D01*
X136851123Y-80430253D01*
X136841452Y-80422316D01*
X136658954Y-80324768D01*
X136460934Y-80264699D01*
X136460929Y-80264698D01*
X136255003Y-80244417D01*
X136254997Y-80244417D01*
X136049070Y-80264698D01*
X136049065Y-80264699D01*
X135851045Y-80324768D01*
X135668547Y-80422316D01*
X135508595Y-80553585D01*
X135508585Y-80553595D01*
X135377316Y-80713547D01*
X135279768Y-80896045D01*
X135219699Y-81094065D01*
X135219698Y-81094070D01*
X135199417Y-81299996D01*
X135199417Y-81300003D01*
X134770583Y-81300003D01*
X134770583Y-81299996D01*
X134750301Y-81094070D01*
X134750300Y-81094065D01*
X134732078Y-81033997D01*
X134690232Y-80896046D01*
X134592685Y-80713550D01*
X134461410Y-80553590D01*
X134311123Y-80430253D01*
X134301452Y-80422316D01*
X134118954Y-80324768D01*
X133920934Y-80264699D01*
X133920929Y-80264698D01*
X133715003Y-80244417D01*
X133714997Y-80244417D01*
X133509070Y-80264698D01*
X133509065Y-80264699D01*
X133311045Y-80324768D01*
X133128547Y-80422316D01*
X132968595Y-80553585D01*
X132968585Y-80553595D01*
X132837316Y-80713547D01*
X132739768Y-80896045D01*
X132679699Y-81094065D01*
X132679698Y-81094070D01*
X132659417Y-81299996D01*
X132659417Y-81300003D01*
X132230583Y-81300003D01*
X132230583Y-81299996D01*
X132210301Y-81094070D01*
X132210300Y-81094065D01*
X132192078Y-81033997D01*
X132150232Y-80896046D01*
X132052685Y-80713550D01*
X131921410Y-80553590D01*
X131771123Y-80430253D01*
X131761452Y-80422316D01*
X131578954Y-80324768D01*
X131380934Y-80264699D01*
X131380929Y-80264698D01*
X131175003Y-80244417D01*
X131174997Y-80244417D01*
X130969070Y-80264698D01*
X130969065Y-80264699D01*
X130771045Y-80324768D01*
X130588547Y-80422316D01*
X130428595Y-80553585D01*
X130428585Y-80553595D01*
X130297316Y-80713547D01*
X130199768Y-80896045D01*
X130139699Y-81094065D01*
X130139698Y-81094070D01*
X130119417Y-81299996D01*
X130119417Y-81300003D01*
X129690583Y-81300003D01*
X129690583Y-81299996D01*
X129670301Y-81094070D01*
X129670300Y-81094065D01*
X129652078Y-81033997D01*
X129610232Y-80896046D01*
X129512685Y-80713550D01*
X129381410Y-80553590D01*
X129231123Y-80430253D01*
X129221452Y-80422316D01*
X129038954Y-80324768D01*
X128840934Y-80264699D01*
X128840929Y-80264698D01*
X128635003Y-80244417D01*
X128634997Y-80244417D01*
X128429070Y-80264698D01*
X128429065Y-80264699D01*
X128231045Y-80324768D01*
X128048547Y-80422316D01*
X127888595Y-80553585D01*
X127888585Y-80553595D01*
X127757316Y-80713547D01*
X127659768Y-80896045D01*
X127599699Y-81094065D01*
X127599698Y-81094070D01*
X127579417Y-81299996D01*
X127579417Y-81300003D01*
X127150583Y-81300003D01*
X127150583Y-81299996D01*
X127130301Y-81094070D01*
X127130300Y-81094065D01*
X127112078Y-81033997D01*
X127070232Y-80896046D01*
X126972685Y-80713550D01*
X126841410Y-80553590D01*
X126691123Y-80430253D01*
X126681452Y-80422316D01*
X126498954Y-80324768D01*
X126300934Y-80264699D01*
X126300929Y-80264698D01*
X126095003Y-80244417D01*
X126094997Y-80244417D01*
X125889070Y-80264698D01*
X125889065Y-80264699D01*
X125691045Y-80324768D01*
X125508547Y-80422316D01*
X125348595Y-80553585D01*
X125348585Y-80553595D01*
X125217316Y-80713547D01*
X125119768Y-80896045D01*
X125059699Y-81094065D01*
X125059698Y-81094070D01*
X125039417Y-81299996D01*
X125039417Y-81300003D01*
X124500500Y-81300003D01*
X124500500Y-78407790D01*
X124501719Y-78392304D01*
X124507811Y-78353837D01*
X124517379Y-78324387D01*
X124531485Y-78296702D01*
X124549682Y-78271655D01*
X124571655Y-78249682D01*
X124596702Y-78231485D01*
X124624387Y-78217379D01*
X124653835Y-78207811D01*
X124682883Y-78203210D01*
X124692304Y-78201719D01*
X124707790Y-78200500D01*
X124747595Y-78200500D01*
X152600500Y-78200500D01*
X152658691Y-78219407D01*
G37*
%TD.AperFunction*%
%TD*%
M02*
