%TF.GenerationSoftware,KiCad,Pcbnew,7.0.10*%
%TF.CreationDate,2025-10-01T21:30:06+02:00*%
%TF.ProjectId,PS2_Debug_Probe,5053325f-4465-4627-9567-5f50726f6265,rev?*%
%TF.SameCoordinates,Original*%
%TF.FileFunction,Copper,L2,Bot*%
%TF.FilePolarity,Positive*%
%FSLAX46Y46*%
G04 Gerber Fmt 4.6, Leading zero omitted, Abs format (unit mm)*
G04 Created by KiCad (PCBNEW 7.0.10) date 2025-10-01 21:30:06*
%MOMM*%
%LPD*%
G01*
G04 APERTURE LIST*
%TA.AperFunction,ComponentPad*%
%ADD10R,1.700000X1.700000*%
%TD*%
%TA.AperFunction,ComponentPad*%
%ADD11O,1.700000X1.700000*%
%TD*%
%TA.AperFunction,ComponentPad*%
%ADD12R,1.508000X1.508000*%
%TD*%
%TA.AperFunction,ComponentPad*%
%ADD13C,1.508000*%
%TD*%
%TA.AperFunction,SMDPad,CuDef*%
%ADD14R,2.400000X0.740000*%
%TD*%
%TA.AperFunction,ViaPad*%
%ADD15C,0.600000*%
%TD*%
%TA.AperFunction,Conductor*%
%ADD16C,0.200000*%
%TD*%
%TA.AperFunction,Conductor*%
%ADD17C,0.300000*%
%TD*%
%TA.AperFunction,Conductor*%
%ADD18C,1.000000*%
%TD*%
G04 APERTURE END LIST*
D10*
%TO.P,U2,1,3V3*%
%TO.N,+3V3*%
X156575000Y-81300000D03*
D11*
%TO.P,U2,2,GND*%
%TO.N,GND*%
X156575000Y-83840000D03*
%TO.P,U2,3,3V3*%
%TO.N,+3V3*%
X154035000Y-81300000D03*
%TO.P,U2,4,GND*%
%TO.N,GND*%
X154035000Y-83840000D03*
%TO.P,U2,5,3V3*%
%TO.N,+3V3*%
X151495000Y-81300000D03*
%TO.P,U2,6,GND*%
%TO.N,GND*%
X151495000Y-83840000D03*
%TO.P,U2,7,AD0*%
%TO.N,unconnected-(U2A-AD0-Pad7)*%
X148955000Y-81300000D03*
%TO.P,U2,8,~{RESET}*%
%TO.N,unconnected-(U2A-~{RESET}-Pad8)*%
X148955000Y-83840000D03*
%TO.P,U2,9,AD2*%
%TO.N,unconnected-(U2A-AD2-Pad9)*%
X146415000Y-81300000D03*
%TO.P,U2,10,AD1*%
%TO.N,unconnected-(U2A-AD1-Pad10)*%
X146415000Y-83840000D03*
%TO.P,U2,11,VIO*%
%TO.N,+3V3*%
X143875000Y-81300000D03*
%TO.P,U2,12,AD3*%
%TO.N,/SPI_SS*%
X143875000Y-83840000D03*
%TO.P,U2,13,AD5*%
%TO.N,unconnected-(U2A-AD5-Pad13)*%
X141335000Y-81300000D03*
%TO.P,U2,14,AD4*%
%TO.N,/CRESET_N*%
X141335000Y-83840000D03*
%TO.P,U2,15,AD7*%
%TO.N,unconnected-(U2A-AD7-Pad15)*%
X138795000Y-81300000D03*
%TO.P,U2,16,AD6*%
%TO.N,unconnected-(U2A-AD6-Pad16)*%
X138795000Y-83840000D03*
%TO.P,U2,17,AC1*%
%TO.N,unconnected-(U2A-AC1-Pad17)*%
X136255000Y-81300000D03*
%TO.P,U2,18,AC0*%
%TO.N,unconnected-(U2A-AC0-Pad18)*%
X136255000Y-83840000D03*
%TO.P,U2,19,AC3*%
%TO.N,unconnected-(U2A-AC3-Pad19)*%
X133715000Y-81300000D03*
%TO.P,U2,20,AC2*%
%TO.N,unconnected-(U2A-AC2-Pad20)*%
X133715000Y-83840000D03*
%TO.P,U2,21,VIO*%
%TO.N,+3V3*%
X131175000Y-81300000D03*
%TO.P,U2,22,AC4*%
%TO.N,unconnected-(U2A-AC4-Pad22)*%
X131175000Y-83840000D03*
%TO.P,U2,23,AC6*%
%TO.N,unconnected-(U2A-AC6-Pad23)*%
X128635000Y-81300000D03*
%TO.P,U2,24,AC5*%
%TO.N,unconnected-(U2A-AC5-Pad24)*%
X128635000Y-83840000D03*
%TO.P,U2,25,~{SUSPEND}*%
%TO.N,unconnected-(U2A-~{SUSPEND}-Pad25)*%
X126095000Y-81300000D03*
%TO.P,U2,26,AC7*%
%TO.N,unconnected-(U2A-AC7-Pad26)*%
X126095000Y-83840000D03*
D10*
%TO.P,U2,27,VBUS*%
%TO.N,+5V*%
X156575000Y-104160000D03*
D11*
%TO.P,U2,28,GND*%
%TO.N,GND*%
X156575000Y-106700000D03*
%TO.P,U2,29,5Vin*%
%TO.N,+5V*%
X154035000Y-104160000D03*
%TO.P,U2,30,GND*%
%TO.N,GND*%
X154035000Y-106700000D03*
%TO.P,U2,31,CS*%
%TO.N,unconnected-(U2B-CS-Pad31)*%
X151495000Y-104160000D03*
%TO.P,U2,32,CLK*%
%TO.N,unconnected-(U2B-CLK-Pad32)*%
X151495000Y-106700000D03*
%TO.P,U2,33,DATA*%
%TO.N,unconnected-(U2B-DATA-Pad33)*%
X148955000Y-104160000D03*
%TO.P,U2,34,~{PWREN}*%
%TO.N,unconnected-(U2B-~{PWREN}-Pad34)*%
X148955000Y-106700000D03*
%TO.P,U2,35,BC7*%
%TO.N,unconnected-(U2B-BC7-Pad35)*%
X146415000Y-104160000D03*
%TO.P,U2,36,BC6*%
%TO.N,unconnected-(U2B-BC6-Pad36)*%
X146415000Y-106700000D03*
%TO.P,U2,37,BC5*%
%TO.N,unconnected-(U2B-BC5-Pad37)*%
X143875000Y-104160000D03*
%TO.P,U2,38,VIO*%
%TO.N,+3V3*%
X143875000Y-106700000D03*
%TO.P,U2,39,BC4*%
%TO.N,unconnected-(U2B-BC4-Pad39)*%
X141335000Y-104160000D03*
%TO.P,U2,40,BC3*%
%TO.N,unconnected-(U2B-BC3-Pad40)*%
X141335000Y-106700000D03*
%TO.P,U2,41,BC2*%
%TO.N,unconnected-(U2B-BC2-Pad41)*%
X138795000Y-104160000D03*
%TO.P,U2,42,BC1*%
%TO.N,unconnected-(U2B-BC1-Pad42)*%
X138795000Y-106700000D03*
%TO.P,U2,43,BC0*%
%TO.N,unconnected-(U2B-BC0-Pad43)*%
X136255000Y-104160000D03*
%TO.P,U2,44,BD7*%
%TO.N,unconnected-(U2B-BD7-Pad44)*%
X136255000Y-106700000D03*
%TO.P,U2,45,BD6*%
%TO.N,unconnected-(U2B-BD6-Pad45)*%
X133715000Y-104160000D03*
%TO.P,U2,46,BD5*%
%TO.N,unconnected-(U2B-BD5-Pad46)*%
X133715000Y-106700000D03*
%TO.P,U2,47,BD4*%
%TO.N,unconnected-(U2B-BD4-Pad47)*%
X131175000Y-104160000D03*
%TO.P,U2,48,VIO*%
%TO.N,+3V3*%
X131175000Y-106700000D03*
%TO.P,U2,49,BD3*%
%TO.N,/TMS*%
X128635000Y-104160000D03*
%TO.P,U2,50,BD2*%
%TO.N,/TDO*%
X128635000Y-106700000D03*
%TO.P,U2,51,BD1*%
%TO.N,/TDI*%
X126095000Y-104160000D03*
%TO.P,U2,52,BD0*%
%TO.N,/TCK*%
X126095000Y-106700000D03*
%TD*%
D12*
%TO.P,U1,1,GP0*%
%TO.N,unconnected-(U1-GP0-Pad1)*%
X157960000Y-86380000D03*
D13*
%TO.P,U1,2,GP1*%
%TO.N,unconnected-(U1-GP1-Pad2)*%
X155420000Y-86380000D03*
%TO.P,U1,3,GP2*%
%TO.N,unconnected-(U1-GP2-Pad3)*%
X152880000Y-86380000D03*
%TO.P,U1,4,GP3*%
%TO.N,unconnected-(U1-GP3-Pad4)*%
X150340000Y-86380000D03*
%TO.P,U1,5,GP4*%
%TO.N,unconnected-(U1-GP4-Pad5)*%
X147800000Y-86380000D03*
%TO.P,U1,6,GP5*%
%TO.N,unconnected-(U1-GP5-Pad6)*%
X145260000Y-86380000D03*
%TO.P,U1,7,GP6*%
%TO.N,unconnected-(U1-GP6-Pad7)*%
X142720000Y-86380000D03*
%TO.P,U1,8,GP7*%
%TO.N,unconnected-(U1-GP7-Pad8)*%
X140180000Y-86380000D03*
%TO.P,U1,9,GP8*%
%TO.N,/SYS_UART_RX*%
X137640000Y-86380000D03*
%TO.P,U1,10,GP9*%
%TO.N,/SYS_UART_TX*%
X137640000Y-88920000D03*
%TO.P,U1,11,GP10*%
%TO.N,/SYS_SWCLK*%
X137640000Y-91460000D03*
%TO.P,U1,12,GP11*%
%TO.N,/SYS_SWDIO*%
X137640000Y-94000000D03*
%TO.P,U1,13,GP12*%
%TO.N,GND*%
X137640000Y-96540000D03*
%TO.P,U1,14,GP13*%
%TO.N,unconnected-(U1-GP13-Pad14)*%
X137640000Y-99080000D03*
%TO.P,U1,15,GP14*%
%TO.N,unconnected-(U1-GP14-Pad15)*%
X137640000Y-101620000D03*
%TO.P,U1,16,GP15*%
%TO.N,unconnected-(U1-GP15-Pad16)*%
X140180000Y-101620000D03*
%TO.P,U1,17,GP26*%
%TO.N,unconnected-(U1-GP26-Pad17)*%
X142720000Y-101620000D03*
%TO.P,U1,18,GP27*%
%TO.N,unconnected-(U1-GP27-Pad18)*%
X145260000Y-101620000D03*
%TO.P,U1,19,GP28*%
%TO.N,unconnected-(U1-GP28-Pad19)*%
X147800000Y-101620000D03*
%TO.P,U1,20,GP29*%
%TO.N,unconnected-(U1-GP29-Pad20)*%
X150340000Y-101620000D03*
%TO.P,U1,21,3V3*%
%TO.N,unconnected-(U1-3V3-Pad21)*%
X152880000Y-101620000D03*
%TO.P,U1,22,GND*%
%TO.N,GND*%
X155420000Y-101620000D03*
%TO.P,U1,23,5V*%
%TO.N,unconnected-(U1-5V-Pad23)*%
X157960000Y-101620000D03*
%TD*%
D14*
%TO.P,J1,1,Pin_1*%
%TO.N,GND*%
X128750000Y-97810000D03*
%TO.P,J1,2,Pin_2*%
%TO.N,/TMS*%
X132650000Y-97810000D03*
%TO.P,J1,3,Pin_3*%
%TO.N,/CRESET_N*%
X128750000Y-96540000D03*
%TO.P,J1,4,Pin_4*%
%TO.N,/TCK*%
X132650000Y-96540000D03*
%TO.P,J1,5,Pin_5*%
%TO.N,/SPI_SS*%
X128750000Y-95270000D03*
%TO.P,J1,6,Pin_6*%
%TO.N,/TDO*%
X132650000Y-95270000D03*
%TO.P,J1,7,Pin_7*%
%TO.N,GND*%
X128750000Y-94000000D03*
%TO.P,J1,8,Pin_8*%
%TO.N,/TDI*%
X132650000Y-94000000D03*
%TO.P,J1,9,Pin_9*%
%TO.N,/SYS_UART_RX*%
X128750000Y-92730000D03*
%TO.P,J1,10,Pin_10*%
%TO.N,GND*%
X132650000Y-92730000D03*
%TO.P,J1,11,Pin_11*%
%TO.N,/SYS_UART_TX*%
X128750000Y-91460000D03*
%TO.P,J1,12,Pin_12*%
%TO.N,/SYS_SWCLK*%
X132650000Y-91460000D03*
%TO.P,J1,13,Pin_13*%
%TO.N,GND*%
X128750000Y-90190000D03*
%TO.P,J1,14,Pin_14*%
%TO.N,/SYS_SWDIO*%
X132650000Y-90190000D03*
%TD*%
D15*
%TO.N,/TMS*%
X128635000Y-99900000D03*
%TO.N,GND*%
X128700000Y-89000000D03*
X145000000Y-98000000D03*
X141000000Y-90000000D03*
X141000000Y-98000000D03*
X149000000Y-90000000D03*
X153000000Y-94000000D03*
X145000000Y-90000000D03*
X130700000Y-98000000D03*
X135000000Y-102000000D03*
X145000000Y-94000000D03*
X126000000Y-98900000D03*
X130800000Y-102500000D03*
X134100000Y-89000000D03*
X141000000Y-94000000D03*
X153000000Y-98000000D03*
X157000000Y-98000000D03*
X126000000Y-101800000D03*
X157000000Y-90000000D03*
X131500000Y-89000000D03*
X153000000Y-90000000D03*
X130700000Y-94100000D03*
X157000000Y-94000000D03*
X149000000Y-94000000D03*
X134500000Y-93000000D03*
X136100000Y-90600000D03*
X149000000Y-98000000D03*
X126000000Y-86000000D03*
%TO.N,/TCK*%
X127300000Y-100500000D03*
%TO.N,/TDO*%
X129900000Y-101100000D03*
%TO.N,/SYS_SWCLK*%
X130700000Y-91500000D03*
%TO.N,/SYS_SWDIO*%
X130700000Y-90200000D03*
%TD*%
D16*
%TO.N,/TMS*%
X132650000Y-99450000D02*
X132650000Y-97810000D01*
X132200000Y-99900000D02*
X132650000Y-99450000D01*
X128635000Y-99900000D02*
X132200000Y-99900000D01*
%TO.N,/TCK*%
X134400000Y-96900000D02*
X134040000Y-96540000D01*
X132800000Y-100500000D02*
X134400000Y-98900000D01*
X134040000Y-96540000D02*
X132650000Y-96540000D01*
X134400000Y-98900000D02*
X134400000Y-96900000D01*
X127300000Y-100500000D02*
X132800000Y-100500000D01*
%TO.N,/TDO*%
X135000000Y-96300000D02*
X133970000Y-95270000D01*
X133970000Y-95270000D02*
X132650000Y-95270000D01*
X135000000Y-99400000D02*
X135000000Y-96300000D01*
X129900000Y-101100000D02*
X133300000Y-101100000D01*
X133300000Y-101100000D02*
X135000000Y-99400000D01*
%TO.N,/SPI_SS*%
X125800000Y-94400000D02*
X125800000Y-88700000D01*
X134950000Y-86500000D02*
X136250000Y-85200000D01*
X136250000Y-85200000D02*
X142515000Y-85200000D01*
X142515000Y-85200000D02*
X143875000Y-83840000D01*
X128750000Y-95270000D02*
X126670000Y-95270000D01*
X126670000Y-95270000D02*
X125800000Y-94400000D01*
X128000000Y-86500000D02*
X134950000Y-86500000D01*
X125800000Y-88700000D02*
X128000000Y-86500000D01*
%TO.N,/TDI*%
X128555000Y-101700000D02*
X133800000Y-101700000D01*
X135600000Y-95600000D02*
X134000000Y-94000000D01*
X133800000Y-101700000D02*
X135600000Y-99900000D01*
X126095000Y-104160000D02*
X128555000Y-101700000D01*
X134000000Y-94000000D02*
X132650000Y-94000000D01*
X135600000Y-99900000D02*
X135600000Y-95600000D01*
D17*
%TO.N,+3V3*%
X158600000Y-84200000D02*
X159300000Y-84900000D01*
D18*
X132100000Y-108900000D02*
X143875000Y-108900000D01*
D17*
X159300000Y-84900000D02*
X159300000Y-86000000D01*
D18*
X131175000Y-107975000D02*
X132100000Y-108900000D01*
X158700000Y-107900000D02*
X158700000Y-103800000D01*
X131175000Y-106700000D02*
X131175000Y-107975000D01*
X151495000Y-81300000D02*
X151495000Y-80095000D01*
D17*
X159300000Y-86000000D02*
X159300000Y-87700000D01*
D18*
X143875000Y-106700000D02*
X143875000Y-108900000D01*
X156575000Y-81300000D02*
X151495000Y-81300000D01*
X158600000Y-84200000D02*
X158600000Y-81900000D01*
X143875000Y-108900000D02*
X157700000Y-108900000D01*
X158600000Y-88400000D02*
X158600000Y-99400000D01*
X143875000Y-79300000D02*
X132000000Y-79300000D01*
D17*
X159300000Y-103200000D02*
X159300000Y-100100000D01*
X158700000Y-103800000D02*
X159300000Y-103200000D01*
D18*
X158000000Y-81300000D02*
X156575000Y-81300000D01*
X158600000Y-81900000D02*
X158000000Y-81300000D01*
X143875000Y-81300000D02*
X143875000Y-79300000D01*
X151495000Y-80095000D02*
X150700000Y-79300000D01*
X150700000Y-79300000D02*
X143875000Y-79300000D01*
X157700000Y-108900000D02*
X158700000Y-107900000D01*
D17*
X159300000Y-100100000D02*
X158600000Y-99400000D01*
D18*
X132000000Y-79300000D02*
X131175000Y-80125000D01*
X131175000Y-80125000D02*
X131175000Y-81300000D01*
D17*
X159300000Y-87700000D02*
X158600000Y-88400000D01*
D16*
%TO.N,/CRESET_N*%
X125200000Y-95100000D02*
X125200000Y-88400000D01*
X128750000Y-96540000D02*
X126640000Y-96540000D01*
X135000000Y-83100000D02*
X135500000Y-82600000D01*
X133900000Y-85800000D02*
X135000000Y-84700000D01*
X126640000Y-96540000D02*
X125200000Y-95100000D01*
X127800000Y-85800000D02*
X133900000Y-85800000D01*
X135000000Y-84700000D02*
X135000000Y-83100000D01*
X125200000Y-88400000D02*
X127800000Y-85800000D01*
X140095000Y-82600000D02*
X141335000Y-83840000D01*
X135500000Y-82600000D02*
X140095000Y-82600000D01*
X141300000Y-83875000D02*
X141335000Y-83840000D01*
%TO.N,/SYS_UART_RX*%
X136020000Y-86380000D02*
X137640000Y-86380000D01*
X126400000Y-89000000D02*
X128200000Y-87200000D01*
X126400000Y-92000000D02*
X126400000Y-89000000D01*
X128750000Y-92730000D02*
X127130000Y-92730000D01*
X127130000Y-92730000D02*
X126400000Y-92000000D01*
X135200000Y-87200000D02*
X136020000Y-86380000D01*
X128200000Y-87200000D02*
X135200000Y-87200000D01*
%TO.N,/SYS_UART_TX*%
X127000000Y-91200000D02*
X127000000Y-89300000D01*
X128400000Y-87900000D02*
X136620000Y-87900000D01*
X128750000Y-91460000D02*
X127260000Y-91460000D01*
X127000000Y-89300000D02*
X128400000Y-87900000D01*
X136620000Y-87900000D02*
X137640000Y-88920000D01*
X127260000Y-91460000D02*
X127000000Y-91200000D01*
%TO.N,/SYS_SWCLK*%
X136900000Y-95200000D02*
X135400000Y-93700000D01*
X138600000Y-95200000D02*
X136900000Y-95200000D01*
X135400000Y-92500000D02*
X134360000Y-91460000D01*
X130740000Y-91460000D02*
X130700000Y-91500000D01*
X135400000Y-93700000D02*
X135400000Y-92500000D01*
X139200000Y-94600000D02*
X138600000Y-95200000D01*
X132650000Y-91460000D02*
X130740000Y-91460000D01*
X137640000Y-91460000D02*
X139200000Y-93020000D01*
X134360000Y-91460000D02*
X132650000Y-91460000D01*
X139200000Y-93020000D02*
X139200000Y-94600000D01*
%TO.N,/SYS_SWDIO*%
X132650000Y-90190000D02*
X134490000Y-90190000D01*
X134490000Y-90190000D02*
X136000000Y-91700000D01*
X136000000Y-93400000D02*
X136600000Y-94000000D01*
X136600000Y-94000000D02*
X137640000Y-94000000D01*
X136000000Y-91700000D02*
X136000000Y-93400000D01*
X132650000Y-90190000D02*
X130710000Y-90190000D01*
X130710000Y-90190000D02*
X130700000Y-90200000D01*
%TD*%
%TA.AperFunction,Conductor*%
%TO.N,GND*%
G36*
X152658691Y-78219407D02*
G01*
X152694655Y-78268907D01*
X152699500Y-78299500D01*
X152699500Y-78502355D01*
X152731521Y-78704529D01*
X152794780Y-78899219D01*
X152887712Y-79081609D01*
X152887714Y-79081613D01*
X153008029Y-79247213D01*
X153008031Y-79247215D01*
X153008034Y-79247219D01*
X153152781Y-79391966D01*
X153152784Y-79391968D01*
X153152786Y-79391970D01*
X153318386Y-79512285D01*
X153318390Y-79512287D01*
X153500781Y-79605220D01*
X153695466Y-79668477D01*
X153695467Y-79668477D01*
X153695470Y-79668478D01*
X153897645Y-79700500D01*
X153897648Y-79700500D01*
X154102355Y-79700500D01*
X154304529Y-79668478D01*
X154304530Y-79668477D01*
X154304534Y-79668477D01*
X154499219Y-79605220D01*
X154681610Y-79512287D01*
X154847219Y-79391966D01*
X154991966Y-79247219D01*
X155112287Y-79081610D01*
X155205220Y-78899219D01*
X155268477Y-78704534D01*
X155268478Y-78704529D01*
X155300500Y-78502355D01*
X155300500Y-78299500D01*
X155319407Y-78241309D01*
X155368907Y-78205345D01*
X155399500Y-78200500D01*
X159277405Y-78200500D01*
X159317210Y-78200500D01*
X159332696Y-78201719D01*
X159347753Y-78204103D01*
X159371162Y-78207811D01*
X159400614Y-78217379D01*
X159428294Y-78231483D01*
X159453347Y-78249685D01*
X159475314Y-78271652D01*
X159493517Y-78296707D01*
X159507618Y-78324381D01*
X159517188Y-78353835D01*
X159523281Y-78392302D01*
X159524500Y-78407790D01*
X159524500Y-84389810D01*
X159505593Y-84448001D01*
X159456093Y-84483965D01*
X159394907Y-84483965D01*
X159355496Y-84459814D01*
X159316995Y-84421313D01*
X159289218Y-84366796D01*
X159288721Y-84339379D01*
X159300500Y-84242372D01*
X159300500Y-81924143D01*
X159300681Y-81918165D01*
X159304357Y-81857394D01*
X159293374Y-81797466D01*
X159292483Y-81791605D01*
X159285140Y-81731128D01*
X159280740Y-81719528D01*
X159275930Y-81702275D01*
X159273694Y-81690068D01*
X159248701Y-81634536D01*
X159246412Y-81629011D01*
X159224818Y-81572070D01*
X159217769Y-81561857D01*
X159208968Y-81546251D01*
X159203881Y-81534948D01*
X159203879Y-81534945D01*
X159203878Y-81534943D01*
X159166312Y-81486994D01*
X159162779Y-81482192D01*
X159128183Y-81432071D01*
X159128178Y-81432066D01*
X159128176Y-81432064D01*
X159082609Y-81391695D01*
X159078254Y-81387597D01*
X158512401Y-80821744D01*
X158508302Y-80817389D01*
X158467930Y-80771818D01*
X158467925Y-80771814D01*
X158417806Y-80737218D01*
X158412992Y-80733676D01*
X158365055Y-80696120D01*
X158353743Y-80691029D01*
X158338141Y-80682229D01*
X158327933Y-80675183D01*
X158319909Y-80672140D01*
X158270974Y-80653581D01*
X158265481Y-80651305D01*
X158242858Y-80641123D01*
X158209933Y-80626305D01*
X158209926Y-80626303D01*
X158197723Y-80624067D01*
X158180461Y-80619255D01*
X158168875Y-80614861D01*
X158168873Y-80614860D01*
X158108437Y-80607521D01*
X158102529Y-80606622D01*
X158042602Y-80595641D01*
X157984549Y-80599154D01*
X157981822Y-80599319D01*
X157975845Y-80599500D01*
X157724500Y-80599500D01*
X157666309Y-80580593D01*
X157630345Y-80531093D01*
X157625500Y-80500500D01*
X157625500Y-80430253D01*
X157625498Y-80430241D01*
X157621606Y-80410678D01*
X157613867Y-80371769D01*
X157569552Y-80305448D01*
X157569548Y-80305445D01*
X157503233Y-80261134D01*
X157503231Y-80261133D01*
X157503228Y-80261132D01*
X157503227Y-80261132D01*
X157444758Y-80249501D01*
X157444748Y-80249500D01*
X155705252Y-80249500D01*
X155705251Y-80249500D01*
X155705241Y-80249501D01*
X155646772Y-80261132D01*
X155646766Y-80261134D01*
X155580451Y-80305445D01*
X155580445Y-80305451D01*
X155536134Y-80371766D01*
X155536132Y-80371772D01*
X155524501Y-80430241D01*
X155524500Y-80430253D01*
X155524500Y-80500500D01*
X155505593Y-80558691D01*
X155456093Y-80594655D01*
X155425500Y-80599500D01*
X154865911Y-80599500D01*
X154807720Y-80580593D01*
X154789385Y-80563308D01*
X154781410Y-80553590D01*
X154735499Y-80515912D01*
X154621452Y-80422316D01*
X154438954Y-80324768D01*
X154240934Y-80264699D01*
X154240929Y-80264698D01*
X154035003Y-80244417D01*
X154034997Y-80244417D01*
X153829070Y-80264698D01*
X153829065Y-80264699D01*
X153631045Y-80324768D01*
X153448547Y-80422316D01*
X153288595Y-80553585D01*
X153288590Y-80553590D01*
X153280615Y-80563306D01*
X153229085Y-80596293D01*
X153204089Y-80599500D01*
X152325911Y-80599500D01*
X152267720Y-80580593D01*
X152249385Y-80563308D01*
X152241410Y-80553590D01*
X152241404Y-80553585D01*
X152231690Y-80545612D01*
X152198706Y-80494079D01*
X152195500Y-80469088D01*
X152195500Y-80119154D01*
X152195681Y-80113175D01*
X152199358Y-80052394D01*
X152188375Y-79992465D01*
X152187478Y-79986567D01*
X152181353Y-79936123D01*
X152180140Y-79926128D01*
X152175741Y-79914529D01*
X152170931Y-79897274D01*
X152168695Y-79885069D01*
X152143690Y-79829512D01*
X152141415Y-79824018D01*
X152119818Y-79767070D01*
X152114899Y-79759944D01*
X152112768Y-79756856D01*
X152103965Y-79741247D01*
X152103606Y-79740449D01*
X152098878Y-79729944D01*
X152098876Y-79729942D01*
X152098876Y-79729940D01*
X152061324Y-79682009D01*
X152057780Y-79677193D01*
X152023183Y-79627071D01*
X152023179Y-79627067D01*
X152023176Y-79627064D01*
X151977609Y-79586695D01*
X151973254Y-79582597D01*
X151212401Y-78821744D01*
X151208302Y-78817389D01*
X151167930Y-78771818D01*
X151167925Y-78771814D01*
X151117806Y-78737218D01*
X151112992Y-78733676D01*
X151065055Y-78696120D01*
X151053743Y-78691029D01*
X151038141Y-78682229D01*
X151027933Y-78675183D01*
X151019909Y-78672140D01*
X150970974Y-78653581D01*
X150965481Y-78651305D01*
X150942858Y-78641123D01*
X150909933Y-78626305D01*
X150909926Y-78626303D01*
X150897723Y-78624067D01*
X150880461Y-78619255D01*
X150868875Y-78614861D01*
X150868873Y-78614860D01*
X150808437Y-78607521D01*
X150802529Y-78606622D01*
X150742602Y-78595641D01*
X150684549Y-78599154D01*
X150681822Y-78599319D01*
X150675845Y-78599500D01*
X132024144Y-78599500D01*
X132018167Y-78599319D01*
X132015841Y-78599178D01*
X131957394Y-78595642D01*
X131897484Y-78606620D01*
X131891577Y-78607519D01*
X131831124Y-78614860D01*
X131819522Y-78619260D01*
X131802271Y-78624069D01*
X131790070Y-78626305D01*
X131790063Y-78626307D01*
X131734533Y-78651299D01*
X131729009Y-78653587D01*
X131672070Y-78675181D01*
X131672067Y-78675182D01*
X131661852Y-78682233D01*
X131646260Y-78691027D01*
X131634947Y-78696119D01*
X131634942Y-78696122D01*
X131587000Y-78733681D01*
X131582187Y-78737222D01*
X131532073Y-78771814D01*
X131532071Y-78771816D01*
X131491695Y-78817390D01*
X131487598Y-78821743D01*
X130696743Y-79612598D01*
X130692390Y-79616695D01*
X130646816Y-79657071D01*
X130612224Y-79707186D01*
X130608690Y-79711988D01*
X130594625Y-79729943D01*
X130571121Y-79759944D01*
X130571120Y-79759944D01*
X130566028Y-79771259D01*
X130557230Y-79786858D01*
X130550181Y-79797070D01*
X130550180Y-79797071D01*
X130528593Y-79853993D01*
X130526306Y-79859515D01*
X130501305Y-79915066D01*
X130501302Y-79915074D01*
X130499065Y-79927282D01*
X130494258Y-79944527D01*
X130489860Y-79956125D01*
X130482521Y-80016561D01*
X130481622Y-80022469D01*
X130470641Y-80082395D01*
X130474319Y-80143175D01*
X130474500Y-80149154D01*
X130474500Y-80469088D01*
X130455593Y-80527279D01*
X130438310Y-80545612D01*
X130428595Y-80553585D01*
X130428585Y-80553595D01*
X130297316Y-80713547D01*
X130199768Y-80896045D01*
X130139699Y-81094065D01*
X130139698Y-81094070D01*
X130119417Y-81299996D01*
X130119417Y-81300003D01*
X130139698Y-81505929D01*
X130139699Y-81505934D01*
X130199768Y-81703954D01*
X130297316Y-81886452D01*
X130390913Y-82000500D01*
X130428590Y-82046410D01*
X130428595Y-82046414D01*
X130588547Y-82177683D01*
X130588548Y-82177683D01*
X130588550Y-82177685D01*
X130771046Y-82275232D01*
X130901944Y-82314939D01*
X130969065Y-82335300D01*
X130969070Y-82335301D01*
X131174997Y-82355583D01*
X131175000Y-82355583D01*
X131175003Y-82355583D01*
X131380929Y-82335301D01*
X131380934Y-82335300D01*
X131578954Y-82275232D01*
X131761450Y-82177685D01*
X131921410Y-82046410D01*
X132052685Y-81886450D01*
X132150232Y-81703954D01*
X132210300Y-81505934D01*
X132210301Y-81505929D01*
X132230583Y-81300003D01*
X132659417Y-81300003D01*
X132679698Y-81505929D01*
X132679699Y-81505934D01*
X132739768Y-81703954D01*
X132837316Y-81886452D01*
X132930913Y-82000500D01*
X132968590Y-82046410D01*
X132968595Y-82046414D01*
X133128547Y-82177683D01*
X133128548Y-82177683D01*
X133128550Y-82177685D01*
X133311046Y-82275232D01*
X133441944Y-82314939D01*
X133509065Y-82335300D01*
X133509070Y-82335301D01*
X133714997Y-82355583D01*
X133715000Y-82355583D01*
X133715003Y-82355583D01*
X133920929Y-82335301D01*
X133920934Y-82335300D01*
X134118954Y-82275232D01*
X134301450Y-82177685D01*
X134461410Y-82046410D01*
X134592685Y-81886450D01*
X134690232Y-81703954D01*
X134750300Y-81505934D01*
X134750301Y-81505929D01*
X134770583Y-81300003D01*
X134770583Y-81299996D01*
X134750301Y-81094070D01*
X134750300Y-81094065D01*
X134732078Y-81033997D01*
X134690232Y-80896046D01*
X134592685Y-80713550D01*
X134578382Y-80696122D01*
X134461414Y-80553595D01*
X134461410Y-80553590D01*
X134415499Y-80515912D01*
X134301452Y-80422316D01*
X134118954Y-80324768D01*
X133920934Y-80264699D01*
X133920929Y-80264698D01*
X133715003Y-80244417D01*
X133714997Y-80244417D01*
X133509070Y-80264698D01*
X133509065Y-80264699D01*
X133311045Y-80324768D01*
X133128547Y-80422316D01*
X132968595Y-80553585D01*
X132968585Y-80553595D01*
X132837316Y-80713547D01*
X132739768Y-80896045D01*
X132679699Y-81094065D01*
X132679698Y-81094070D01*
X132659417Y-81299996D01*
X132659417Y-81300003D01*
X132230583Y-81300003D01*
X132230583Y-81299996D01*
X132210301Y-81094070D01*
X132210300Y-81094065D01*
X132192078Y-81033997D01*
X132150232Y-80896046D01*
X132052685Y-80713550D01*
X132038382Y-80696122D01*
X131921414Y-80553595D01*
X131921410Y-80553590D01*
X131921404Y-80553585D01*
X131911690Y-80545612D01*
X131878706Y-80494079D01*
X131875500Y-80469088D01*
X131875500Y-80456165D01*
X131894407Y-80397974D01*
X131904496Y-80386161D01*
X132261161Y-80029496D01*
X132315678Y-80001719D01*
X132331165Y-80000500D01*
X143075500Y-80000500D01*
X143133691Y-80019407D01*
X143169655Y-80068907D01*
X143174500Y-80099500D01*
X143174500Y-80469088D01*
X143155593Y-80527279D01*
X143138310Y-80545612D01*
X143128595Y-80553585D01*
X143128585Y-80553595D01*
X142997316Y-80713547D01*
X142899768Y-80896045D01*
X142839699Y-81094065D01*
X142839698Y-81094070D01*
X142819417Y-81299996D01*
X142819417Y-81300003D01*
X142839698Y-81505929D01*
X142839699Y-81505934D01*
X142899768Y-81703954D01*
X142997316Y-81886452D01*
X143090913Y-82000500D01*
X143128590Y-82046410D01*
X143128595Y-82046414D01*
X143288547Y-82177683D01*
X143288548Y-82177683D01*
X143288550Y-82177685D01*
X143471046Y-82275232D01*
X143601944Y-82314939D01*
X143669065Y-82335300D01*
X143669070Y-82335301D01*
X143874997Y-82355583D01*
X143875000Y-82355583D01*
X143875003Y-82355583D01*
X144080929Y-82335301D01*
X144080934Y-82335300D01*
X144278954Y-82275232D01*
X144461450Y-82177685D01*
X144621410Y-82046410D01*
X144752685Y-81886450D01*
X144850232Y-81703954D01*
X144910300Y-81505934D01*
X144910301Y-81505929D01*
X144930583Y-81300003D01*
X145359417Y-81300003D01*
X145379698Y-81505929D01*
X145379699Y-81505934D01*
X145439768Y-81703954D01*
X145537316Y-81886452D01*
X145630913Y-82000500D01*
X145668590Y-82046410D01*
X145668595Y-82046414D01*
X145828547Y-82177683D01*
X145828548Y-82177683D01*
X145828550Y-82177685D01*
X146011046Y-82275232D01*
X146141944Y-82314939D01*
X146209065Y-82335300D01*
X146209070Y-82335301D01*
X146414997Y-82355583D01*
X146415000Y-82355583D01*
X146415003Y-82355583D01*
X146620929Y-82335301D01*
X146620934Y-82335300D01*
X146818954Y-82275232D01*
X147001450Y-82177685D01*
X147161410Y-82046410D01*
X147292685Y-81886450D01*
X147390232Y-81703954D01*
X147450300Y-81505934D01*
X147450301Y-81505929D01*
X147470583Y-81300003D01*
X147899417Y-81300003D01*
X147919698Y-81505929D01*
X147919699Y-81505934D01*
X147979768Y-81703954D01*
X148077316Y-81886452D01*
X148170913Y-82000500D01*
X148208590Y-82046410D01*
X148208595Y-82046414D01*
X148368547Y-82177683D01*
X148368548Y-82177683D01*
X148368550Y-82177685D01*
X148551046Y-82275232D01*
X148681944Y-82314939D01*
X148749065Y-82335300D01*
X148749070Y-82335301D01*
X148954997Y-82355583D01*
X148955000Y-82355583D01*
X148955003Y-82355583D01*
X149160929Y-82335301D01*
X149160934Y-82335300D01*
X149358954Y-82275232D01*
X149541450Y-82177685D01*
X149701410Y-82046410D01*
X149832685Y-81886450D01*
X149930232Y-81703954D01*
X149990300Y-81505934D01*
X149990301Y-81505929D01*
X150010583Y-81300003D01*
X150010583Y-81299996D01*
X149990301Y-81094070D01*
X149990300Y-81094065D01*
X149972078Y-81033997D01*
X149930232Y-80896046D01*
X149832685Y-80713550D01*
X149818382Y-80696122D01*
X149701414Y-80553595D01*
X149701410Y-80553590D01*
X149655499Y-80515912D01*
X149541452Y-80422316D01*
X149358954Y-80324768D01*
X149160934Y-80264699D01*
X149160929Y-80264698D01*
X148955003Y-80244417D01*
X148954997Y-80244417D01*
X148749070Y-80264698D01*
X148749065Y-80264699D01*
X148551045Y-80324768D01*
X148368547Y-80422316D01*
X148208595Y-80553585D01*
X148208585Y-80553595D01*
X148077316Y-80713547D01*
X147979768Y-80896045D01*
X147919699Y-81094065D01*
X147919698Y-81094070D01*
X147899417Y-81299996D01*
X147899417Y-81300003D01*
X147470583Y-81300003D01*
X147470583Y-81299996D01*
X147450301Y-81094070D01*
X147450300Y-81094065D01*
X147432078Y-81033997D01*
X147390232Y-80896046D01*
X147292685Y-80713550D01*
X147278382Y-80696122D01*
X147161414Y-80553595D01*
X147161410Y-80553590D01*
X147115499Y-80515912D01*
X147001452Y-80422316D01*
X146818954Y-80324768D01*
X146620934Y-80264699D01*
X146620929Y-80264698D01*
X146415003Y-80244417D01*
X146414997Y-80244417D01*
X146209070Y-80264698D01*
X146209065Y-80264699D01*
X146011045Y-80324768D01*
X145828547Y-80422316D01*
X145668595Y-80553585D01*
X145668585Y-80553595D01*
X145537316Y-80713547D01*
X145439768Y-80896045D01*
X145379699Y-81094065D01*
X145379698Y-81094070D01*
X145359417Y-81299996D01*
X145359417Y-81300003D01*
X144930583Y-81300003D01*
X144930583Y-81299996D01*
X144910301Y-81094070D01*
X144910300Y-81094065D01*
X144892078Y-81033997D01*
X144850232Y-80896046D01*
X144752685Y-80713550D01*
X144738382Y-80696122D01*
X144621414Y-80553595D01*
X144621410Y-80553590D01*
X144621404Y-80553585D01*
X144611690Y-80545612D01*
X144578706Y-80494079D01*
X144575500Y-80469088D01*
X144575500Y-80099500D01*
X144594407Y-80041309D01*
X144643907Y-80005345D01*
X144674500Y-80000500D01*
X150368835Y-80000500D01*
X150427026Y-80019407D01*
X150438839Y-80029496D01*
X150765504Y-80356161D01*
X150793281Y-80410678D01*
X150794500Y-80426165D01*
X150794500Y-80469088D01*
X150775593Y-80527279D01*
X150758310Y-80545612D01*
X150748595Y-80553585D01*
X150748585Y-80553595D01*
X150617316Y-80713547D01*
X150519768Y-80896045D01*
X150459699Y-81094065D01*
X150459698Y-81094070D01*
X150439417Y-81299996D01*
X150439417Y-81300003D01*
X150459698Y-81505929D01*
X150459699Y-81505934D01*
X150519768Y-81703954D01*
X150617316Y-81886452D01*
X150710913Y-82000500D01*
X150748590Y-82046410D01*
X150748595Y-82046414D01*
X150908547Y-82177683D01*
X150908548Y-82177683D01*
X150908550Y-82177685D01*
X151091046Y-82275232D01*
X151221944Y-82314939D01*
X151289065Y-82335300D01*
X151289070Y-82335301D01*
X151494997Y-82355583D01*
X151495000Y-82355583D01*
X151495003Y-82355583D01*
X151700929Y-82335301D01*
X151700934Y-82335300D01*
X151898954Y-82275232D01*
X152081450Y-82177685D01*
X152241410Y-82046410D01*
X152249384Y-82036693D01*
X152300915Y-82003707D01*
X152325911Y-82000500D01*
X153204089Y-82000500D01*
X153262280Y-82019407D01*
X153280614Y-82036691D01*
X153288590Y-82046410D01*
X153288595Y-82046414D01*
X153448547Y-82177683D01*
X153448548Y-82177683D01*
X153448550Y-82177685D01*
X153631046Y-82275232D01*
X153761944Y-82314939D01*
X153829065Y-82335300D01*
X153829070Y-82335301D01*
X154034997Y-82355583D01*
X154035000Y-82355583D01*
X154035003Y-82355583D01*
X154240929Y-82335301D01*
X154240934Y-82335300D01*
X154438954Y-82275232D01*
X154621450Y-82177685D01*
X154781410Y-82046410D01*
X154789384Y-82036693D01*
X154840915Y-82003707D01*
X154865911Y-82000500D01*
X155425500Y-82000500D01*
X155483691Y-82019407D01*
X155519655Y-82068907D01*
X155524500Y-82099500D01*
X155524500Y-82169746D01*
X155524501Y-82169758D01*
X155536132Y-82228227D01*
X155536134Y-82228233D01*
X155571869Y-82281713D01*
X155580448Y-82294552D01*
X155646769Y-82338867D01*
X155691231Y-82347711D01*
X155705241Y-82350498D01*
X155705246Y-82350498D01*
X155705252Y-82350500D01*
X155705253Y-82350500D01*
X157444747Y-82350500D01*
X157444748Y-82350500D01*
X157503231Y-82338867D01*
X157569552Y-82294552D01*
X157613867Y-82228231D01*
X157625500Y-82169748D01*
X157625500Y-82155165D01*
X157644407Y-82096974D01*
X157693907Y-82061010D01*
X157755093Y-82061010D01*
X157794504Y-82085161D01*
X157870504Y-82161161D01*
X157898281Y-82215678D01*
X157899500Y-82231165D01*
X157899500Y-84242381D01*
X157910720Y-84334775D01*
X157914860Y-84368872D01*
X157975182Y-84527930D01*
X158071817Y-84667929D01*
X158199148Y-84780734D01*
X158349775Y-84859790D01*
X158514944Y-84900500D01*
X158514947Y-84900500D01*
X158685053Y-84900500D01*
X158685056Y-84900500D01*
X158726923Y-84890180D01*
X158787943Y-84894611D01*
X158820617Y-84916299D01*
X158920504Y-85016186D01*
X158948281Y-85070703D01*
X158949500Y-85086190D01*
X158949500Y-85357000D01*
X158930593Y-85415191D01*
X158881093Y-85451155D01*
X158819907Y-85451155D01*
X158795503Y-85439318D01*
X158792237Y-85437136D01*
X158792233Y-85437134D01*
X158792231Y-85437133D01*
X158792228Y-85437132D01*
X158792227Y-85437132D01*
X158733758Y-85425501D01*
X158733748Y-85425500D01*
X157186252Y-85425500D01*
X157186251Y-85425500D01*
X157186241Y-85425501D01*
X157127772Y-85437132D01*
X157127766Y-85437134D01*
X157061451Y-85481445D01*
X157061445Y-85481451D01*
X157017134Y-85547766D01*
X157017132Y-85547772D01*
X157005501Y-85606241D01*
X157005500Y-85606253D01*
X157005500Y-87153746D01*
X157005501Y-87153758D01*
X157017132Y-87212227D01*
X157017134Y-87212233D01*
X157061445Y-87278548D01*
X157061448Y-87278552D01*
X157127769Y-87322867D01*
X157172231Y-87331711D01*
X157186241Y-87334498D01*
X157186246Y-87334498D01*
X157186252Y-87334500D01*
X157186253Y-87334500D01*
X158733747Y-87334500D01*
X158733748Y-87334500D01*
X158792231Y-87322867D01*
X158795498Y-87320683D01*
X158854386Y-87304075D01*
X158911790Y-87325252D01*
X158945783Y-87376126D01*
X158949500Y-87402999D01*
X158949500Y-87513810D01*
X158930593Y-87572001D01*
X158920503Y-87583814D01*
X158820617Y-87683699D01*
X158766101Y-87711476D01*
X158726924Y-87709819D01*
X158696262Y-87702262D01*
X158685056Y-87699500D01*
X158514944Y-87699500D01*
X158514941Y-87699500D01*
X158349776Y-87740209D01*
X158199146Y-87819267D01*
X158071818Y-87932069D01*
X158071816Y-87932072D01*
X157975182Y-88072070D01*
X157914860Y-88231128D01*
X157899500Y-88357618D01*
X157899500Y-99442381D01*
X157909348Y-99523481D01*
X157914860Y-99568872D01*
X157975182Y-99727930D01*
X158071816Y-99867927D01*
X158071818Y-99867930D01*
X158082597Y-99877479D01*
X158199148Y-99980734D01*
X158349775Y-100059790D01*
X158514944Y-100100500D01*
X158514947Y-100100500D01*
X158685053Y-100100500D01*
X158685056Y-100100500D01*
X158726923Y-100090180D01*
X158787943Y-100094611D01*
X158820617Y-100116299D01*
X158920504Y-100216186D01*
X158948281Y-100270703D01*
X158949500Y-100286190D01*
X158949500Y-101051161D01*
X158930593Y-101109352D01*
X158881093Y-101145316D01*
X158819907Y-101145316D01*
X158770407Y-101109352D01*
X158763190Y-101097830D01*
X158757478Y-101087144D01*
X158638203Y-100941806D01*
X158638199Y-100941801D01*
X158638193Y-100941796D01*
X158492854Y-100822520D01*
X158327047Y-100733895D01*
X158327044Y-100733894D01*
X158327039Y-100733891D01*
X158147115Y-100679311D01*
X158147112Y-100679310D01*
X158147109Y-100679309D01*
X157960004Y-100660882D01*
X157959996Y-100660882D01*
X157772890Y-100679309D01*
X157772887Y-100679310D01*
X157592964Y-100733890D01*
X157592961Y-100733891D01*
X157592958Y-100733892D01*
X157592952Y-100733895D01*
X157427145Y-100822520D01*
X157281806Y-100941796D01*
X157281796Y-100941806D01*
X157162520Y-101087145D01*
X157073895Y-101252952D01*
X157073890Y-101252964D01*
X157019310Y-101432887D01*
X157019309Y-101432890D01*
X157000882Y-101619995D01*
X157000882Y-101620004D01*
X157019309Y-101807109D01*
X157019310Y-101807112D01*
X157019311Y-101807115D01*
X157073891Y-101987039D01*
X157073894Y-101987044D01*
X157073895Y-101987047D01*
X157162520Y-102152854D01*
X157281796Y-102298193D01*
X157281801Y-102298199D01*
X157281806Y-102298203D01*
X157427145Y-102417479D01*
X157564925Y-102491123D01*
X157592961Y-102506109D01*
X157772885Y-102560689D01*
X157772887Y-102560689D01*
X157772890Y-102560690D01*
X157959996Y-102579118D01*
X157960000Y-102579118D01*
X157960004Y-102579118D01*
X158147109Y-102560690D01*
X158147110Y-102560689D01*
X158147115Y-102560689D01*
X158327039Y-102506109D01*
X158434179Y-102448840D01*
X158492854Y-102417479D01*
X158492855Y-102417477D01*
X158492857Y-102417477D01*
X158638199Y-102298199D01*
X158757477Y-102152857D01*
X158763189Y-102142171D01*
X158807294Y-102099764D01*
X158867902Y-102091379D01*
X158921863Y-102120221D01*
X158948566Y-102175272D01*
X158949500Y-102188838D01*
X158949500Y-103013667D01*
X158930593Y-103071858D01*
X158881093Y-103107822D01*
X158826810Y-103109791D01*
X158809245Y-103105462D01*
X158785056Y-103099500D01*
X158614944Y-103099500D01*
X158614941Y-103099500D01*
X158449776Y-103140209D01*
X158299146Y-103219267D01*
X158171818Y-103332069D01*
X158171816Y-103332072D01*
X158075182Y-103472070D01*
X158014860Y-103631128D01*
X157999500Y-103757618D01*
X157999500Y-107568835D01*
X157980593Y-107627026D01*
X157970504Y-107638839D01*
X157438839Y-108170504D01*
X157384322Y-108198281D01*
X157368835Y-108199500D01*
X144674500Y-108199500D01*
X144616309Y-108180593D01*
X144580345Y-108131093D01*
X144575500Y-108100500D01*
X144575500Y-107530910D01*
X144594407Y-107472719D01*
X144611698Y-107454380D01*
X144621410Y-107446410D01*
X144752685Y-107286450D01*
X144850232Y-107103954D01*
X144910300Y-106905934D01*
X144910301Y-106905929D01*
X144930583Y-106700003D01*
X145359417Y-106700003D01*
X145379698Y-106905929D01*
X145379699Y-106905934D01*
X145439768Y-107103954D01*
X145537316Y-107286452D01*
X145668585Y-107446404D01*
X145668590Y-107446410D01*
X145668595Y-107446414D01*
X145828547Y-107577683D01*
X145828548Y-107577683D01*
X145828550Y-107577685D01*
X146011046Y-107675232D01*
X146148997Y-107717078D01*
X146209065Y-107735300D01*
X146209070Y-107735301D01*
X146414997Y-107755583D01*
X146415000Y-107755583D01*
X146415003Y-107755583D01*
X146620929Y-107735301D01*
X146620934Y-107735300D01*
X146818954Y-107675232D01*
X147001450Y-107577685D01*
X147161410Y-107446410D01*
X147292685Y-107286450D01*
X147390232Y-107103954D01*
X147450300Y-106905934D01*
X147450301Y-106905929D01*
X147470583Y-106700003D01*
X147899417Y-106700003D01*
X147919698Y-106905929D01*
X147919699Y-106905934D01*
X147979768Y-107103954D01*
X148077316Y-107286452D01*
X148208585Y-107446404D01*
X148208590Y-107446410D01*
X148208595Y-107446414D01*
X148368547Y-107577683D01*
X148368548Y-107577683D01*
X148368550Y-107577685D01*
X148551046Y-107675232D01*
X148688997Y-107717078D01*
X148749065Y-107735300D01*
X148749070Y-107735301D01*
X148954997Y-107755583D01*
X148955000Y-107755583D01*
X148955003Y-107755583D01*
X149160929Y-107735301D01*
X149160934Y-107735300D01*
X149358954Y-107675232D01*
X149541450Y-107577685D01*
X149701410Y-107446410D01*
X149832685Y-107286450D01*
X149930232Y-107103954D01*
X149990300Y-106905934D01*
X149990301Y-106905929D01*
X150010583Y-106700003D01*
X150439417Y-106700003D01*
X150459698Y-106905929D01*
X150459699Y-106905934D01*
X150519768Y-107103954D01*
X150617316Y-107286452D01*
X150748585Y-107446404D01*
X150748590Y-107446410D01*
X150748595Y-107446414D01*
X150908547Y-107577683D01*
X150908548Y-107577683D01*
X150908550Y-107577685D01*
X151091046Y-107675232D01*
X151228997Y-107717078D01*
X151289065Y-107735300D01*
X151289070Y-107735301D01*
X151494997Y-107755583D01*
X151495000Y-107755583D01*
X151495003Y-107755583D01*
X151700929Y-107735301D01*
X151700934Y-107735300D01*
X151898954Y-107675232D01*
X152081450Y-107577685D01*
X152241410Y-107446410D01*
X152372685Y-107286450D01*
X152470232Y-107103954D01*
X152530300Y-106905934D01*
X152530301Y-106905929D01*
X152550583Y-106700003D01*
X152550583Y-106699996D01*
X152530301Y-106494070D01*
X152530300Y-106494065D01*
X152512078Y-106433997D01*
X152470232Y-106296046D01*
X152372685Y-106113550D01*
X152241410Y-105953590D01*
X152241404Y-105953585D01*
X152081452Y-105822316D01*
X151898954Y-105724768D01*
X151700934Y-105664699D01*
X151700929Y-105664698D01*
X151495003Y-105644417D01*
X151494997Y-105644417D01*
X151289070Y-105664698D01*
X151289065Y-105664699D01*
X151091045Y-105724768D01*
X150908547Y-105822316D01*
X150748595Y-105953585D01*
X150748585Y-105953595D01*
X150617316Y-106113547D01*
X150519768Y-106296045D01*
X150459699Y-106494065D01*
X150459698Y-106494070D01*
X150439417Y-106699996D01*
X150439417Y-106700003D01*
X150010583Y-106700003D01*
X150010583Y-106699996D01*
X149990301Y-106494070D01*
X149990300Y-106494065D01*
X149972078Y-106433997D01*
X149930232Y-106296046D01*
X149832685Y-106113550D01*
X149701410Y-105953590D01*
X149701404Y-105953585D01*
X149541452Y-105822316D01*
X149358954Y-105724768D01*
X149160934Y-105664699D01*
X149160929Y-105664698D01*
X148955003Y-105644417D01*
X148954997Y-105644417D01*
X148749070Y-105664698D01*
X148749065Y-105664699D01*
X148551045Y-105724768D01*
X148368547Y-105822316D01*
X148208595Y-105953585D01*
X148208585Y-105953595D01*
X148077316Y-106113547D01*
X147979768Y-106296045D01*
X147919699Y-106494065D01*
X147919698Y-106494070D01*
X147899417Y-106699996D01*
X147899417Y-106700003D01*
X147470583Y-106700003D01*
X147470583Y-106699996D01*
X147450301Y-106494070D01*
X147450300Y-106494065D01*
X147432078Y-106433997D01*
X147390232Y-106296046D01*
X147292685Y-106113550D01*
X147161410Y-105953590D01*
X147161404Y-105953585D01*
X147001452Y-105822316D01*
X146818954Y-105724768D01*
X146620934Y-105664699D01*
X146620929Y-105664698D01*
X146415003Y-105644417D01*
X146414997Y-105644417D01*
X146209070Y-105664698D01*
X146209065Y-105664699D01*
X146011045Y-105724768D01*
X145828547Y-105822316D01*
X145668595Y-105953585D01*
X145668585Y-105953595D01*
X145537316Y-106113547D01*
X145439768Y-106296045D01*
X145379699Y-106494065D01*
X145379698Y-106494070D01*
X145359417Y-106699996D01*
X145359417Y-106700003D01*
X144930583Y-106700003D01*
X144930583Y-106699996D01*
X144910301Y-106494070D01*
X144910300Y-106494065D01*
X144892078Y-106433997D01*
X144850232Y-106296046D01*
X144752685Y-106113550D01*
X144621410Y-105953590D01*
X144621404Y-105953585D01*
X144461452Y-105822316D01*
X144278954Y-105724768D01*
X144080934Y-105664699D01*
X144080929Y-105664698D01*
X143875003Y-105644417D01*
X143874997Y-105644417D01*
X143669070Y-105664698D01*
X143669065Y-105664699D01*
X143471045Y-105724768D01*
X143288547Y-105822316D01*
X143128595Y-105953585D01*
X143128585Y-105953595D01*
X142997316Y-106113547D01*
X142899768Y-106296045D01*
X142839699Y-106494065D01*
X142839698Y-106494070D01*
X142819417Y-106699996D01*
X142819417Y-106700003D01*
X142839698Y-106905929D01*
X142839699Y-106905934D01*
X142899768Y-107103954D01*
X142997316Y-107286452D01*
X143128585Y-107446404D01*
X143128590Y-107446410D01*
X143128595Y-107446414D01*
X143128596Y-107446415D01*
X143138302Y-107454380D01*
X143171291Y-107505910D01*
X143174500Y-107530910D01*
X143174500Y-108100500D01*
X143155593Y-108158691D01*
X143106093Y-108194655D01*
X143075500Y-108199500D01*
X132431164Y-108199500D01*
X132372973Y-108180593D01*
X132361160Y-108170503D01*
X131904496Y-107713838D01*
X131876719Y-107659322D01*
X131875500Y-107643835D01*
X131875500Y-107530910D01*
X131894407Y-107472719D01*
X131911698Y-107454380D01*
X131921410Y-107446410D01*
X132052685Y-107286450D01*
X132150232Y-107103954D01*
X132210300Y-106905934D01*
X132210301Y-106905929D01*
X132230583Y-106700003D01*
X132659417Y-106700003D01*
X132679698Y-106905929D01*
X132679699Y-106905934D01*
X132739768Y-107103954D01*
X132837316Y-107286452D01*
X132968585Y-107446404D01*
X132968590Y-107446410D01*
X132968595Y-107446414D01*
X133128547Y-107577683D01*
X133128548Y-107577683D01*
X133128550Y-107577685D01*
X133311046Y-107675232D01*
X133448997Y-107717078D01*
X133509065Y-107735300D01*
X133509070Y-107735301D01*
X133714997Y-107755583D01*
X133715000Y-107755583D01*
X133715003Y-107755583D01*
X133920929Y-107735301D01*
X133920934Y-107735300D01*
X134118954Y-107675232D01*
X134301450Y-107577685D01*
X134461410Y-107446410D01*
X134592685Y-107286450D01*
X134690232Y-107103954D01*
X134750300Y-106905934D01*
X134750301Y-106905929D01*
X134770583Y-106700003D01*
X135199417Y-106700003D01*
X135219698Y-106905929D01*
X135219699Y-106905934D01*
X135279768Y-107103954D01*
X135377316Y-107286452D01*
X135508585Y-107446404D01*
X135508590Y-107446410D01*
X135508595Y-107446414D01*
X135668547Y-107577683D01*
X135668548Y-107577683D01*
X135668550Y-107577685D01*
X135851046Y-107675232D01*
X135988997Y-107717078D01*
X136049065Y-107735300D01*
X136049070Y-107735301D01*
X136254997Y-107755583D01*
X136255000Y-107755583D01*
X136255003Y-107755583D01*
X136460929Y-107735301D01*
X136460934Y-107735300D01*
X136658954Y-107675232D01*
X136841450Y-107577685D01*
X137001410Y-107446410D01*
X137132685Y-107286450D01*
X137230232Y-107103954D01*
X137290300Y-106905934D01*
X137290301Y-106905929D01*
X137310583Y-106700003D01*
X137739417Y-106700003D01*
X137759698Y-106905929D01*
X137759699Y-106905934D01*
X137819768Y-107103954D01*
X137917316Y-107286452D01*
X138048585Y-107446404D01*
X138048590Y-107446410D01*
X138048595Y-107446414D01*
X138208547Y-107577683D01*
X138208548Y-107577683D01*
X138208550Y-107577685D01*
X138391046Y-107675232D01*
X138528997Y-107717078D01*
X138589065Y-107735300D01*
X138589070Y-107735301D01*
X138794997Y-107755583D01*
X138795000Y-107755583D01*
X138795003Y-107755583D01*
X139000929Y-107735301D01*
X139000934Y-107735300D01*
X139198954Y-107675232D01*
X139381450Y-107577685D01*
X139541410Y-107446410D01*
X139672685Y-107286450D01*
X139770232Y-107103954D01*
X139830300Y-106905934D01*
X139830301Y-106905929D01*
X139850583Y-106700003D01*
X140279417Y-106700003D01*
X140299698Y-106905929D01*
X140299699Y-106905934D01*
X140359768Y-107103954D01*
X140457316Y-107286452D01*
X140588585Y-107446404D01*
X140588590Y-107446410D01*
X140588595Y-107446414D01*
X140748547Y-107577683D01*
X140748548Y-107577683D01*
X140748550Y-107577685D01*
X140931046Y-107675232D01*
X141068997Y-107717078D01*
X141129065Y-107735300D01*
X141129070Y-107735301D01*
X141334997Y-107755583D01*
X141335000Y-107755583D01*
X141335003Y-107755583D01*
X141540929Y-107735301D01*
X141540934Y-107735300D01*
X141738954Y-107675232D01*
X141921450Y-107577685D01*
X142081410Y-107446410D01*
X142212685Y-107286450D01*
X142310232Y-107103954D01*
X142370300Y-106905934D01*
X142370301Y-106905929D01*
X142390583Y-106700003D01*
X142390583Y-106699996D01*
X142370301Y-106494070D01*
X142370300Y-106494065D01*
X142352078Y-106433997D01*
X142310232Y-106296046D01*
X142212685Y-106113550D01*
X142081410Y-105953590D01*
X142081404Y-105953585D01*
X141921452Y-105822316D01*
X141738954Y-105724768D01*
X141540934Y-105664699D01*
X141540929Y-105664698D01*
X141335003Y-105644417D01*
X141334997Y-105644417D01*
X141129070Y-105664698D01*
X141129065Y-105664699D01*
X140931045Y-105724768D01*
X140748547Y-105822316D01*
X140588595Y-105953585D01*
X140588585Y-105953595D01*
X140457316Y-106113547D01*
X140359768Y-106296045D01*
X140299699Y-106494065D01*
X140299698Y-106494070D01*
X140279417Y-106699996D01*
X140279417Y-106700003D01*
X139850583Y-106700003D01*
X139850583Y-106699996D01*
X139830301Y-106494070D01*
X139830300Y-106494065D01*
X139812078Y-106433997D01*
X139770232Y-106296046D01*
X139672685Y-106113550D01*
X139541410Y-105953590D01*
X139541404Y-105953585D01*
X139381452Y-105822316D01*
X139198954Y-105724768D01*
X139000934Y-105664699D01*
X139000929Y-105664698D01*
X138795003Y-105644417D01*
X138794997Y-105644417D01*
X138589070Y-105664698D01*
X138589065Y-105664699D01*
X138391045Y-105724768D01*
X138208547Y-105822316D01*
X138048595Y-105953585D01*
X138048585Y-105953595D01*
X137917316Y-106113547D01*
X137819768Y-106296045D01*
X137759699Y-106494065D01*
X137759698Y-106494070D01*
X137739417Y-106699996D01*
X137739417Y-106700003D01*
X137310583Y-106700003D01*
X137310583Y-106699996D01*
X137290301Y-106494070D01*
X137290300Y-106494065D01*
X137272078Y-106433997D01*
X137230232Y-106296046D01*
X137132685Y-106113550D01*
X137001410Y-105953590D01*
X137001404Y-105953585D01*
X136841452Y-105822316D01*
X136658954Y-105724768D01*
X136460934Y-105664699D01*
X136460929Y-105664698D01*
X136255003Y-105644417D01*
X136254997Y-105644417D01*
X136049070Y-105664698D01*
X136049065Y-105664699D01*
X135851045Y-105724768D01*
X135668547Y-105822316D01*
X135508595Y-105953585D01*
X135508585Y-105953595D01*
X135377316Y-106113547D01*
X135279768Y-106296045D01*
X135219699Y-106494065D01*
X135219698Y-106494070D01*
X135199417Y-106699996D01*
X135199417Y-106700003D01*
X134770583Y-106700003D01*
X134770583Y-106699996D01*
X134750301Y-106494070D01*
X134750300Y-106494065D01*
X134732078Y-106433997D01*
X134690232Y-106296046D01*
X134592685Y-106113550D01*
X134461410Y-105953590D01*
X134461404Y-105953585D01*
X134301452Y-105822316D01*
X134118954Y-105724768D01*
X133920934Y-105664699D01*
X133920929Y-105664698D01*
X133715003Y-105644417D01*
X133714997Y-105644417D01*
X133509070Y-105664698D01*
X133509065Y-105664699D01*
X133311045Y-105724768D01*
X133128547Y-105822316D01*
X132968595Y-105953585D01*
X132968585Y-105953595D01*
X132837316Y-106113547D01*
X132739768Y-106296045D01*
X132679699Y-106494065D01*
X132679698Y-106494070D01*
X132659417Y-106699996D01*
X132659417Y-106700003D01*
X132230583Y-106700003D01*
X132230583Y-106699996D01*
X132210301Y-106494070D01*
X132210300Y-106494065D01*
X132192078Y-106433997D01*
X132150232Y-106296046D01*
X132052685Y-106113550D01*
X131921410Y-105953590D01*
X131921404Y-105953585D01*
X131761452Y-105822316D01*
X131578954Y-105724768D01*
X131380934Y-105664699D01*
X131380929Y-105664698D01*
X131175003Y-105644417D01*
X131174997Y-105644417D01*
X130969070Y-105664698D01*
X130969065Y-105664699D01*
X130771045Y-105724768D01*
X130588547Y-105822316D01*
X130428595Y-105953585D01*
X130428585Y-105953595D01*
X130297316Y-106113547D01*
X130199768Y-106296045D01*
X130139699Y-106494065D01*
X130139698Y-106494070D01*
X130119417Y-106699996D01*
X130119417Y-106700003D01*
X130139698Y-106905929D01*
X130139699Y-106905934D01*
X130199768Y-107103954D01*
X130297316Y-107286452D01*
X130428585Y-107446404D01*
X130428590Y-107446410D01*
X130428595Y-107446414D01*
X130428596Y-107446415D01*
X130438302Y-107454380D01*
X130471291Y-107505910D01*
X130474500Y-107530910D01*
X130474500Y-107950844D01*
X130474319Y-107956823D01*
X130470641Y-108017604D01*
X130481622Y-108077529D01*
X130482521Y-108083437D01*
X130489860Y-108143873D01*
X130489861Y-108143875D01*
X130494255Y-108155461D01*
X130499067Y-108172723D01*
X130501303Y-108184926D01*
X130501305Y-108184933D01*
X130526302Y-108240473D01*
X130528581Y-108245974D01*
X130547140Y-108294909D01*
X130550183Y-108302933D01*
X130550183Y-108302934D01*
X130557229Y-108313141D01*
X130566029Y-108328743D01*
X130571120Y-108340055D01*
X130608676Y-108387992D01*
X130612218Y-108392806D01*
X130646814Y-108442925D01*
X130646818Y-108442930D01*
X130692389Y-108483302D01*
X130696744Y-108487401D01*
X131587590Y-109378246D01*
X131591688Y-109382601D01*
X131632068Y-109428181D01*
X131632070Y-109428182D01*
X131632071Y-109428183D01*
X131682194Y-109462780D01*
X131687011Y-109466325D01*
X131706175Y-109481338D01*
X131734944Y-109503878D01*
X131746247Y-109508965D01*
X131761856Y-109517768D01*
X131761865Y-109517774D01*
X131772070Y-109524818D01*
X131829018Y-109546415D01*
X131834512Y-109548690D01*
X131890069Y-109573695D01*
X131902279Y-109575932D01*
X131919529Y-109580741D01*
X131931128Y-109585140D01*
X131991575Y-109592479D01*
X131997465Y-109593375D01*
X132033614Y-109600000D01*
X132050649Y-109603122D01*
X132069391Y-109613249D01*
X132101647Y-109601681D01*
X132108128Y-109601288D01*
X132118177Y-109600680D01*
X132124155Y-109600500D01*
X143789944Y-109600500D01*
X143832628Y-109600500D01*
X157675845Y-109600500D01*
X157681822Y-109600680D01*
X157691871Y-109601288D01*
X157698353Y-109601681D01*
X157726701Y-109612826D01*
X157749351Y-109603122D01*
X157762670Y-109600681D01*
X157802539Y-109593374D01*
X157808419Y-109592479D01*
X157868872Y-109585140D01*
X157880462Y-109580744D01*
X157897725Y-109575931D01*
X157909932Y-109573695D01*
X157965487Y-109548690D01*
X157971003Y-109546407D01*
X157972896Y-109545689D01*
X158027930Y-109524818D01*
X158038142Y-109517768D01*
X158053750Y-109508965D01*
X158065057Y-109503878D01*
X158065057Y-109503877D01*
X158065059Y-109503877D01*
X158112995Y-109466321D01*
X158117813Y-109462775D01*
X158167929Y-109428183D01*
X158208312Y-109382598D01*
X158212378Y-109378277D01*
X159178269Y-108412385D01*
X159182590Y-108408319D01*
X159228183Y-108367929D01*
X159262806Y-108317767D01*
X159266309Y-108313007D01*
X159303878Y-108265056D01*
X159308966Y-108253748D01*
X159317769Y-108238140D01*
X159324818Y-108227930D01*
X159332933Y-108206530D01*
X159371246Y-108158826D01*
X159430282Y-108142752D01*
X159487491Y-108164447D01*
X159521022Y-108215627D01*
X159524500Y-108241636D01*
X159524500Y-109592209D01*
X159523281Y-109607697D01*
X159517188Y-109646164D01*
X159507617Y-109675621D01*
X159493520Y-109703288D01*
X159475314Y-109728347D01*
X159453347Y-109750314D01*
X159428289Y-109768518D01*
X159400621Y-109782617D01*
X159371164Y-109792188D01*
X159343848Y-109796514D01*
X159332695Y-109798281D01*
X159317210Y-109799500D01*
X157767198Y-109799500D01*
X157731793Y-109787996D01*
X157692374Y-109799500D01*
X132107626Y-109799500D01*
X132076130Y-109789266D01*
X132075601Y-109789771D01*
X132032802Y-109799500D01*
X124707790Y-109799500D01*
X124692304Y-109798281D01*
X124678090Y-109796029D01*
X124653835Y-109792188D01*
X124624381Y-109782618D01*
X124596707Y-109768517D01*
X124571652Y-109750314D01*
X124549685Y-109728347D01*
X124531483Y-109703294D01*
X124517379Y-109675614D01*
X124507811Y-109646162D01*
X124501719Y-109607695D01*
X124500500Y-109592209D01*
X124500500Y-106700003D01*
X125039417Y-106700003D01*
X125059698Y-106905929D01*
X125059699Y-106905934D01*
X125119768Y-107103954D01*
X125217316Y-107286452D01*
X125348585Y-107446404D01*
X125348590Y-107446410D01*
X125348595Y-107446414D01*
X125508547Y-107577683D01*
X125508548Y-107577683D01*
X125508550Y-107577685D01*
X125691046Y-107675232D01*
X125828997Y-107717078D01*
X125889065Y-107735300D01*
X125889070Y-107735301D01*
X126094997Y-107755583D01*
X126095000Y-107755583D01*
X126095003Y-107755583D01*
X126300929Y-107735301D01*
X126300934Y-107735300D01*
X126498954Y-107675232D01*
X126681450Y-107577685D01*
X126841410Y-107446410D01*
X126972685Y-107286450D01*
X127070232Y-107103954D01*
X127130300Y-106905934D01*
X127130301Y-106905929D01*
X127150583Y-106700003D01*
X127579417Y-106700003D01*
X127599698Y-106905929D01*
X127599699Y-106905934D01*
X127659768Y-107103954D01*
X127757316Y-107286452D01*
X127888585Y-107446404D01*
X127888590Y-107446410D01*
X127888595Y-107446414D01*
X128048547Y-107577683D01*
X128048548Y-107577683D01*
X128048550Y-107577685D01*
X128231046Y-107675232D01*
X128368997Y-107717078D01*
X128429065Y-107735300D01*
X128429070Y-107735301D01*
X128634997Y-107755583D01*
X128635000Y-107755583D01*
X128635003Y-107755583D01*
X128840929Y-107735301D01*
X128840934Y-107735300D01*
X129038954Y-107675232D01*
X129221450Y-107577685D01*
X129381410Y-107446410D01*
X129512685Y-107286450D01*
X129610232Y-107103954D01*
X129670300Y-106905934D01*
X129670301Y-106905929D01*
X129690583Y-106700003D01*
X129690583Y-106699996D01*
X129670301Y-106494070D01*
X129670300Y-106494065D01*
X129652078Y-106433997D01*
X129610232Y-106296046D01*
X129512685Y-106113550D01*
X129381410Y-105953590D01*
X129381404Y-105953585D01*
X129221452Y-105822316D01*
X129038954Y-105724768D01*
X128840934Y-105664699D01*
X128840929Y-105664698D01*
X128635003Y-105644417D01*
X128634997Y-105644417D01*
X128429070Y-105664698D01*
X128429065Y-105664699D01*
X128231045Y-105724768D01*
X128048547Y-105822316D01*
X127888595Y-105953585D01*
X127888585Y-105953595D01*
X127757316Y-106113547D01*
X127659768Y-106296045D01*
X127599699Y-106494065D01*
X127599698Y-106494070D01*
X127579417Y-106699996D01*
X127579417Y-106700003D01*
X127150583Y-106700003D01*
X127150583Y-106699996D01*
X127130301Y-106494070D01*
X127130300Y-106494065D01*
X127112078Y-106433997D01*
X127070232Y-106296046D01*
X126972685Y-106113550D01*
X126841410Y-105953590D01*
X126841404Y-105953585D01*
X126681452Y-105822316D01*
X126498954Y-105724768D01*
X126300934Y-105664699D01*
X126300929Y-105664698D01*
X126095003Y-105644417D01*
X126094997Y-105644417D01*
X125889070Y-105664698D01*
X125889065Y-105664699D01*
X125691045Y-105724768D01*
X125508547Y-105822316D01*
X125348595Y-105953585D01*
X125348585Y-105953595D01*
X125217316Y-106113547D01*
X125119768Y-106296045D01*
X125059699Y-106494065D01*
X125059698Y-106494070D01*
X125039417Y-106699996D01*
X125039417Y-106700003D01*
X124500500Y-106700003D01*
X124500500Y-88385881D01*
X124894621Y-88385881D01*
X124898551Y-88414053D01*
X124899500Y-88427730D01*
X124899500Y-95034835D01*
X124897280Y-95048513D01*
X124898494Y-95048683D01*
X124897226Y-95057766D01*
X124899394Y-95104641D01*
X124899500Y-95109213D01*
X124899500Y-95127844D01*
X124899522Y-95127966D01*
X124901101Y-95141577D01*
X124902414Y-95169987D01*
X124902415Y-95169994D01*
X124906384Y-95178982D01*
X124913132Y-95200772D01*
X124914939Y-95210433D01*
X124923809Y-95224760D01*
X124929912Y-95234617D01*
X124936301Y-95246738D01*
X124947794Y-95272765D01*
X124954745Y-95279716D01*
X124968907Y-95297596D01*
X124974081Y-95305952D01*
X124996781Y-95323094D01*
X125007117Y-95332088D01*
X126381437Y-96706409D01*
X126389537Y-96717648D01*
X126390516Y-96716909D01*
X126396044Y-96724230D01*
X126430714Y-96755836D01*
X126434019Y-96758992D01*
X126447200Y-96772172D01*
X126447203Y-96772175D01*
X126447300Y-96772241D01*
X126458049Y-96780756D01*
X126467715Y-96789567D01*
X126479067Y-96799916D01*
X126479070Y-96799917D01*
X126488226Y-96803464D01*
X126508416Y-96814105D01*
X126516520Y-96819657D01*
X126544212Y-96826169D01*
X126557299Y-96830222D01*
X126583827Y-96840500D01*
X126593653Y-96840500D01*
X126616317Y-96843129D01*
X126625882Y-96845379D01*
X126654056Y-96841448D01*
X126667732Y-96840500D01*
X127250981Y-96840500D01*
X127309172Y-96859407D01*
X127345136Y-96908907D01*
X127348498Y-96924987D01*
X127348550Y-96924977D01*
X127361132Y-96988227D01*
X127361133Y-96988231D01*
X127405448Y-97054552D01*
X127471769Y-97098867D01*
X127516231Y-97107711D01*
X127530241Y-97110498D01*
X127530246Y-97110498D01*
X127530252Y-97110500D01*
X127530253Y-97110500D01*
X129969747Y-97110500D01*
X129969748Y-97110500D01*
X130028231Y-97098867D01*
X130094552Y-97054552D01*
X130138867Y-96988231D01*
X130150500Y-96929748D01*
X130150500Y-96150252D01*
X130138867Y-96091769D01*
X130094552Y-96025448D01*
X130037481Y-95987313D01*
X129999603Y-95939265D01*
X129997201Y-95878127D01*
X130031194Y-95827254D01*
X130037472Y-95822692D01*
X130094552Y-95784552D01*
X130138867Y-95718231D01*
X130150500Y-95659748D01*
X130150500Y-94880252D01*
X130138867Y-94821769D01*
X130094552Y-94755448D01*
X130094548Y-94755445D01*
X130028233Y-94711134D01*
X130028231Y-94711133D01*
X130028228Y-94711132D01*
X130028227Y-94711132D01*
X129969758Y-94699501D01*
X129969748Y-94699500D01*
X127530252Y-94699500D01*
X127530251Y-94699500D01*
X127530241Y-94699501D01*
X127471772Y-94711132D01*
X127471766Y-94711134D01*
X127405451Y-94755445D01*
X127405445Y-94755451D01*
X127361134Y-94821766D01*
X127361132Y-94821772D01*
X127348550Y-94885023D01*
X127347488Y-94884811D01*
X127324984Y-94936261D01*
X127272197Y-94967200D01*
X127250981Y-94969500D01*
X126835479Y-94969500D01*
X126777288Y-94950593D01*
X126765475Y-94940504D01*
X126129496Y-94304525D01*
X126101719Y-94250008D01*
X126100500Y-94234521D01*
X126100500Y-92364479D01*
X126119407Y-92306288D01*
X126168907Y-92270324D01*
X126230093Y-92270324D01*
X126269504Y-92294475D01*
X126871436Y-92896407D01*
X126879537Y-92907647D01*
X126880516Y-92906909D01*
X126886044Y-92914230D01*
X126920724Y-92945845D01*
X126924032Y-92949003D01*
X126937203Y-92962174D01*
X126937295Y-92962237D01*
X126948042Y-92970750D01*
X126969064Y-92989914D01*
X126969065Y-92989914D01*
X126969067Y-92989916D01*
X126978225Y-92993463D01*
X126998412Y-93004103D01*
X127006519Y-93009657D01*
X127034210Y-93016169D01*
X127047295Y-93020221D01*
X127073827Y-93030500D01*
X127083652Y-93030500D01*
X127106316Y-93033129D01*
X127115881Y-93035379D01*
X127140958Y-93031880D01*
X127144054Y-93031449D01*
X127157731Y-93030500D01*
X127250981Y-93030500D01*
X127309172Y-93049407D01*
X127345136Y-93098907D01*
X127348498Y-93114987D01*
X127348550Y-93114977D01*
X127361132Y-93178227D01*
X127361134Y-93178233D01*
X127398745Y-93234521D01*
X127405448Y-93244552D01*
X127471769Y-93288867D01*
X127516231Y-93297711D01*
X127530241Y-93300498D01*
X127530246Y-93300498D01*
X127530252Y-93300500D01*
X127530253Y-93300500D01*
X129969747Y-93300500D01*
X129969748Y-93300500D01*
X130028231Y-93288867D01*
X130094552Y-93244552D01*
X130138867Y-93178231D01*
X130150500Y-93119748D01*
X130150500Y-92340252D01*
X130138867Y-92281769D01*
X130094552Y-92215448D01*
X130037481Y-92177313D01*
X129999603Y-92129265D01*
X129997201Y-92068127D01*
X130031194Y-92017254D01*
X130037472Y-92012692D01*
X130094552Y-91974552D01*
X130138867Y-91908231D01*
X130146569Y-91869508D01*
X130176465Y-91816127D01*
X130232030Y-91790511D01*
X130292039Y-91802448D01*
X130318485Y-91823994D01*
X130368870Y-91882141D01*
X130368872Y-91882143D01*
X130409459Y-91908227D01*
X130489947Y-91959953D01*
X130596403Y-91991211D01*
X130628035Y-92000499D01*
X130628036Y-92000499D01*
X130628039Y-92000500D01*
X130628041Y-92000500D01*
X130771959Y-92000500D01*
X130771961Y-92000500D01*
X130910053Y-91959953D01*
X131031128Y-91882143D01*
X131081513Y-91823994D01*
X131133909Y-91792398D01*
X131194870Y-91797633D01*
X131241111Y-91837701D01*
X131253430Y-91869509D01*
X131256663Y-91885761D01*
X131261133Y-91908231D01*
X131305448Y-91974552D01*
X131371769Y-92018867D01*
X131416231Y-92027711D01*
X131430241Y-92030498D01*
X131430246Y-92030498D01*
X131430252Y-92030500D01*
X131430253Y-92030500D01*
X133869747Y-92030500D01*
X133869748Y-92030500D01*
X133928231Y-92018867D01*
X133994552Y-91974552D01*
X134038867Y-91908231D01*
X134046569Y-91869511D01*
X134051450Y-91844977D01*
X134052511Y-91845188D01*
X134075016Y-91793739D01*
X134127803Y-91762800D01*
X134149019Y-91760500D01*
X134194521Y-91760500D01*
X134252712Y-91779407D01*
X134264525Y-91789496D01*
X135070504Y-92595475D01*
X135098281Y-92649992D01*
X135099500Y-92665479D01*
X135099500Y-93634835D01*
X135097280Y-93648513D01*
X135098494Y-93648683D01*
X135097226Y-93657766D01*
X135099394Y-93704641D01*
X135099500Y-93709213D01*
X135099500Y-93727844D01*
X135099522Y-93727966D01*
X135101101Y-93741577D01*
X135102414Y-93769987D01*
X135102415Y-93769994D01*
X135106384Y-93778982D01*
X135113132Y-93800772D01*
X135114939Y-93810433D01*
X135118245Y-93815772D01*
X135129912Y-93834617D01*
X135136301Y-93846738D01*
X135147794Y-93872765D01*
X135154745Y-93879716D01*
X135168907Y-93897596D01*
X135174081Y-93905952D01*
X135196781Y-93923094D01*
X135207117Y-93932088D01*
X136606025Y-95330996D01*
X136633802Y-95385513D01*
X136624231Y-95445945D01*
X136580966Y-95489210D01*
X136536021Y-95500000D01*
X135948843Y-95500000D01*
X135890652Y-95481093D01*
X135858277Y-95440985D01*
X135852206Y-95427235D01*
X135845257Y-95420286D01*
X135831088Y-95402396D01*
X135825920Y-95394049D01*
X135825919Y-95394048D01*
X135803221Y-95376907D01*
X135792879Y-95367908D01*
X134258565Y-93833594D01*
X134250479Y-93822344D01*
X134249487Y-93823094D01*
X134243958Y-93815772D01*
X134209272Y-93784151D01*
X134205968Y-93780996D01*
X134192800Y-93767828D01*
X134192796Y-93767825D01*
X134192693Y-93767755D01*
X134181962Y-93759255D01*
X134160933Y-93740084D01*
X134151762Y-93736531D01*
X134131586Y-93725895D01*
X134123484Y-93720345D01*
X134115090Y-93716639D01*
X134116005Y-93714565D01*
X134074517Y-93689404D01*
X134050842Y-93632984D01*
X134050500Y-93624762D01*
X134050500Y-93610253D01*
X134050498Y-93610241D01*
X134047711Y-93596231D01*
X134038867Y-93551769D01*
X133994552Y-93485448D01*
X133971421Y-93469992D01*
X133928233Y-93441134D01*
X133928231Y-93441133D01*
X133928228Y-93441132D01*
X133928227Y-93441132D01*
X133869758Y-93429501D01*
X133869748Y-93429500D01*
X131430252Y-93429500D01*
X131430251Y-93429500D01*
X131430241Y-93429501D01*
X131371772Y-93441132D01*
X131371766Y-93441134D01*
X131305451Y-93485445D01*
X131305445Y-93485451D01*
X131261134Y-93551766D01*
X131261132Y-93551772D01*
X131249501Y-93610241D01*
X131249500Y-93610253D01*
X131249500Y-94389746D01*
X131249501Y-94389758D01*
X131261132Y-94448227D01*
X131261134Y-94448233D01*
X131305445Y-94514548D01*
X131305448Y-94514552D01*
X131305451Y-94514554D01*
X131362517Y-94552685D01*
X131400396Y-94600735D01*
X131402798Y-94661873D01*
X131368805Y-94712747D01*
X131362517Y-94717315D01*
X131305451Y-94755445D01*
X131305445Y-94755451D01*
X131261134Y-94821766D01*
X131261132Y-94821772D01*
X131249501Y-94880241D01*
X131249500Y-94880253D01*
X131249500Y-95659746D01*
X131249501Y-95659758D01*
X131261132Y-95718227D01*
X131261134Y-95718233D01*
X131299085Y-95775029D01*
X131305448Y-95784552D01*
X131305451Y-95784554D01*
X131362517Y-95822685D01*
X131400396Y-95870735D01*
X131402798Y-95931873D01*
X131368805Y-95982747D01*
X131362517Y-95987315D01*
X131305451Y-96025445D01*
X131305445Y-96025451D01*
X131261134Y-96091766D01*
X131261132Y-96091772D01*
X131249501Y-96150241D01*
X131249500Y-96150253D01*
X131249500Y-96929746D01*
X131249501Y-96929758D01*
X131261132Y-96988227D01*
X131261133Y-96988231D01*
X131305448Y-97054552D01*
X131305451Y-97054554D01*
X131362517Y-97092685D01*
X131400396Y-97140735D01*
X131402798Y-97201873D01*
X131368805Y-97252747D01*
X131362517Y-97257315D01*
X131305451Y-97295445D01*
X131305445Y-97295451D01*
X131261134Y-97361766D01*
X131261132Y-97361772D01*
X131249501Y-97420241D01*
X131249500Y-97420253D01*
X131249500Y-98199746D01*
X131249501Y-98199758D01*
X131261132Y-98258227D01*
X131261134Y-98258233D01*
X131305445Y-98324548D01*
X131305448Y-98324552D01*
X131371769Y-98368867D01*
X131416231Y-98377711D01*
X131430241Y-98380498D01*
X131430246Y-98380498D01*
X131430252Y-98380500D01*
X132250500Y-98380500D01*
X132308691Y-98399407D01*
X132344655Y-98448907D01*
X132349500Y-98479500D01*
X132349500Y-99284521D01*
X132330593Y-99342712D01*
X132320504Y-99354525D01*
X132104525Y-99570504D01*
X132050008Y-99598281D01*
X132034521Y-99599500D01*
X129082083Y-99599500D01*
X129023892Y-99580593D01*
X129007264Y-99565331D01*
X128966128Y-99517857D01*
X128882510Y-99464119D01*
X128845057Y-99440049D01*
X128845054Y-99440047D01*
X128845053Y-99440047D01*
X128845050Y-99440046D01*
X128706964Y-99399500D01*
X128706961Y-99399500D01*
X128563039Y-99399500D01*
X128563035Y-99399500D01*
X128424949Y-99440046D01*
X128424942Y-99440049D01*
X128303873Y-99517855D01*
X128209622Y-99626628D01*
X128149834Y-99757543D01*
X128129353Y-99899997D01*
X128129353Y-99900002D01*
X128149834Y-100042456D01*
X128157560Y-100059373D01*
X128164535Y-100120160D01*
X128134449Y-100173437D01*
X128078793Y-100198855D01*
X128067507Y-100199500D01*
X127747083Y-100199500D01*
X127688892Y-100180593D01*
X127672264Y-100165331D01*
X127666403Y-100158567D01*
X127631128Y-100117857D01*
X127567270Y-100076818D01*
X127510057Y-100040049D01*
X127510054Y-100040047D01*
X127510053Y-100040047D01*
X127510050Y-100040046D01*
X127371964Y-99999500D01*
X127371961Y-99999500D01*
X127228039Y-99999500D01*
X127228035Y-99999500D01*
X127089949Y-100040046D01*
X127089942Y-100040049D01*
X126968873Y-100117855D01*
X126874622Y-100226628D01*
X126814834Y-100357543D01*
X126794353Y-100499997D01*
X126794353Y-100500002D01*
X126814834Y-100642456D01*
X126856592Y-100733891D01*
X126874623Y-100773373D01*
X126927736Y-100834669D01*
X126968873Y-100882144D01*
X127086197Y-100957543D01*
X127089947Y-100959953D01*
X127196403Y-100991211D01*
X127228035Y-101000499D01*
X127228036Y-101000499D01*
X127228039Y-101000500D01*
X127228041Y-101000500D01*
X127371959Y-101000500D01*
X127371961Y-101000500D01*
X127510053Y-100959953D01*
X127631128Y-100882143D01*
X127672264Y-100834668D01*
X127724660Y-100803073D01*
X127747083Y-100800500D01*
X129332507Y-100800500D01*
X129390698Y-100819407D01*
X129426662Y-100868907D01*
X129426662Y-100930093D01*
X129422560Y-100940627D01*
X129414834Y-100957543D01*
X129394353Y-101099997D01*
X129394353Y-101100002D01*
X129414834Y-101242456D01*
X129422560Y-101259373D01*
X129429535Y-101320160D01*
X129399449Y-101373437D01*
X129343793Y-101398855D01*
X129332507Y-101399500D01*
X128620164Y-101399500D01*
X128606488Y-101397267D01*
X128606317Y-101398494D01*
X128597233Y-101397226D01*
X128550358Y-101399394D01*
X128545786Y-101399500D01*
X128527152Y-101399500D01*
X128527029Y-101399523D01*
X128513419Y-101401101D01*
X128485009Y-101402414D01*
X128476005Y-101406389D01*
X128454226Y-101413132D01*
X128444568Y-101414937D01*
X128444566Y-101414938D01*
X128420386Y-101429909D01*
X128408266Y-101436298D01*
X128382235Y-101447793D01*
X128382234Y-101447793D01*
X128375280Y-101454747D01*
X128357403Y-101468907D01*
X128349046Y-101474081D01*
X128331909Y-101496774D01*
X128322912Y-101507114D01*
X126646215Y-103183811D01*
X126591698Y-103211588D01*
X126531266Y-103202017D01*
X126529544Y-103201118D01*
X126498955Y-103184768D01*
X126300934Y-103124699D01*
X126300929Y-103124698D01*
X126095003Y-103104417D01*
X126094997Y-103104417D01*
X125889070Y-103124698D01*
X125889065Y-103124699D01*
X125691045Y-103184768D01*
X125508547Y-103282316D01*
X125348595Y-103413585D01*
X125348585Y-103413595D01*
X125217316Y-103573547D01*
X125119768Y-103756045D01*
X125059699Y-103954065D01*
X125059698Y-103954070D01*
X125039417Y-104159996D01*
X125039417Y-104160003D01*
X125059698Y-104365929D01*
X125059699Y-104365934D01*
X125119768Y-104563954D01*
X125217316Y-104746452D01*
X125348585Y-104906404D01*
X125348590Y-104906410D01*
X125348595Y-104906414D01*
X125508547Y-105037683D01*
X125508548Y-105037683D01*
X125508550Y-105037685D01*
X125691046Y-105135232D01*
X125828997Y-105177078D01*
X125889065Y-105195300D01*
X125889070Y-105195301D01*
X126094997Y-105215583D01*
X126095000Y-105215583D01*
X126095003Y-105215583D01*
X126300929Y-105195301D01*
X126300934Y-105195300D01*
X126498954Y-105135232D01*
X126681450Y-105037685D01*
X126841410Y-104906410D01*
X126972685Y-104746450D01*
X127070232Y-104563954D01*
X127130300Y-104365934D01*
X127130301Y-104365929D01*
X127150583Y-104160003D01*
X127579417Y-104160003D01*
X127599698Y-104365929D01*
X127599699Y-104365934D01*
X127659768Y-104563954D01*
X127757316Y-104746452D01*
X127888585Y-104906404D01*
X127888590Y-104906410D01*
X127888595Y-104906414D01*
X128048547Y-105037683D01*
X128048548Y-105037683D01*
X128048550Y-105037685D01*
X128231046Y-105135232D01*
X128368997Y-105177078D01*
X128429065Y-105195300D01*
X128429070Y-105195301D01*
X128634997Y-105215583D01*
X128635000Y-105215583D01*
X128635003Y-105215583D01*
X128840929Y-105195301D01*
X128840934Y-105195300D01*
X129038954Y-105135232D01*
X129221450Y-105037685D01*
X129381410Y-104906410D01*
X129512685Y-104746450D01*
X129610232Y-104563954D01*
X129670300Y-104365934D01*
X129670301Y-104365929D01*
X129690583Y-104160003D01*
X130119417Y-104160003D01*
X130139698Y-104365929D01*
X130139699Y-104365934D01*
X130199768Y-104563954D01*
X130297316Y-104746452D01*
X130428585Y-104906404D01*
X130428590Y-104906410D01*
X130428595Y-104906414D01*
X130588547Y-105037683D01*
X130588548Y-105037683D01*
X130588550Y-105037685D01*
X130771046Y-105135232D01*
X130908997Y-105177078D01*
X130969065Y-105195300D01*
X130969070Y-105195301D01*
X131174997Y-105215583D01*
X131175000Y-105215583D01*
X131175003Y-105215583D01*
X131380929Y-105195301D01*
X131380934Y-105195300D01*
X131578954Y-105135232D01*
X131761450Y-105037685D01*
X131921410Y-104906410D01*
X132052685Y-104746450D01*
X132150232Y-104563954D01*
X132210300Y-104365934D01*
X132210301Y-104365929D01*
X132230583Y-104160003D01*
X132659417Y-104160003D01*
X132679698Y-104365929D01*
X132679699Y-104365934D01*
X132739768Y-104563954D01*
X132837316Y-104746452D01*
X132968585Y-104906404D01*
X132968590Y-104906410D01*
X132968595Y-104906414D01*
X133128547Y-105037683D01*
X133128548Y-105037683D01*
X133128550Y-105037685D01*
X133311046Y-105135232D01*
X133448997Y-105177078D01*
X133509065Y-105195300D01*
X133509070Y-105195301D01*
X133714997Y-105215583D01*
X133715000Y-105215583D01*
X133715003Y-105215583D01*
X133920929Y-105195301D01*
X133920934Y-105195300D01*
X134118954Y-105135232D01*
X134301450Y-105037685D01*
X134461410Y-104906410D01*
X134592685Y-104746450D01*
X134690232Y-104563954D01*
X134750300Y-104365934D01*
X134750301Y-104365929D01*
X134770583Y-104160003D01*
X135199417Y-104160003D01*
X135219698Y-104365929D01*
X135219699Y-104365934D01*
X135279768Y-104563954D01*
X135377316Y-104746452D01*
X135508585Y-104906404D01*
X135508590Y-104906410D01*
X135508595Y-104906414D01*
X135668547Y-105037683D01*
X135668548Y-105037683D01*
X135668550Y-105037685D01*
X135851046Y-105135232D01*
X135988997Y-105177078D01*
X136049065Y-105195300D01*
X136049070Y-105195301D01*
X136254997Y-105215583D01*
X136255000Y-105215583D01*
X136255003Y-105215583D01*
X136460929Y-105195301D01*
X136460934Y-105195300D01*
X136658954Y-105135232D01*
X136841450Y-105037685D01*
X137001410Y-104906410D01*
X137132685Y-104746450D01*
X137230232Y-104563954D01*
X137290300Y-104365934D01*
X137290301Y-104365929D01*
X137310583Y-104160003D01*
X137739417Y-104160003D01*
X137759698Y-104365929D01*
X137759699Y-104365934D01*
X137819768Y-104563954D01*
X137917316Y-104746452D01*
X138048585Y-104906404D01*
X138048590Y-104906410D01*
X138048595Y-104906414D01*
X138208547Y-105037683D01*
X138208548Y-105037683D01*
X138208550Y-105037685D01*
X138391046Y-105135232D01*
X138528997Y-105177078D01*
X138589065Y-105195300D01*
X138589070Y-105195301D01*
X138794997Y-105215583D01*
X138795000Y-105215583D01*
X138795003Y-105215583D01*
X139000929Y-105195301D01*
X139000934Y-105195300D01*
X139198954Y-105135232D01*
X139381450Y-105037685D01*
X139541410Y-104906410D01*
X139672685Y-104746450D01*
X139770232Y-104563954D01*
X139830300Y-104365934D01*
X139830301Y-104365929D01*
X139850583Y-104160003D01*
X140279417Y-104160003D01*
X140299698Y-104365929D01*
X140299699Y-104365934D01*
X140359768Y-104563954D01*
X140457316Y-104746452D01*
X140588585Y-104906404D01*
X140588590Y-104906410D01*
X140588595Y-104906414D01*
X140748547Y-105037683D01*
X140748548Y-105037683D01*
X140748550Y-105037685D01*
X140931046Y-105135232D01*
X141068997Y-105177078D01*
X141129065Y-105195300D01*
X141129070Y-105195301D01*
X141334997Y-105215583D01*
X141335000Y-105215583D01*
X141335003Y-105215583D01*
X141540929Y-105195301D01*
X141540934Y-105195300D01*
X141738954Y-105135232D01*
X141921450Y-105037685D01*
X142081410Y-104906410D01*
X142212685Y-104746450D01*
X142310232Y-104563954D01*
X142370300Y-104365934D01*
X142370301Y-104365929D01*
X142390583Y-104160003D01*
X142819417Y-104160003D01*
X142839698Y-104365929D01*
X142839699Y-104365934D01*
X142899768Y-104563954D01*
X142997316Y-104746452D01*
X143128585Y-104906404D01*
X143128590Y-104906410D01*
X143128595Y-104906414D01*
X143288547Y-105037683D01*
X143288548Y-105037683D01*
X143288550Y-105037685D01*
X143471046Y-105135232D01*
X143608997Y-105177078D01*
X143669065Y-105195300D01*
X143669070Y-105195301D01*
X143874997Y-105215583D01*
X143875000Y-105215583D01*
X143875003Y-105215583D01*
X144080929Y-105195301D01*
X144080934Y-105195300D01*
X144278954Y-105135232D01*
X144461450Y-105037685D01*
X144621410Y-104906410D01*
X144752685Y-104746450D01*
X144850232Y-104563954D01*
X144910300Y-104365934D01*
X144910301Y-104365929D01*
X144930583Y-104160003D01*
X145359417Y-104160003D01*
X145379698Y-104365929D01*
X145379699Y-104365934D01*
X145439768Y-104563954D01*
X145537316Y-104746452D01*
X145668585Y-104906404D01*
X145668590Y-104906410D01*
X145668595Y-104906414D01*
X145828547Y-105037683D01*
X145828548Y-105037683D01*
X145828550Y-105037685D01*
X146011046Y-105135232D01*
X146148997Y-105177078D01*
X146209065Y-105195300D01*
X146209070Y-105195301D01*
X146414997Y-105215583D01*
X146415000Y-105215583D01*
X146415003Y-105215583D01*
X146620929Y-105195301D01*
X146620934Y-105195300D01*
X146818954Y-105135232D01*
X147001450Y-105037685D01*
X147161410Y-104906410D01*
X147292685Y-104746450D01*
X147390232Y-104563954D01*
X147450300Y-104365934D01*
X147450301Y-104365929D01*
X147470583Y-104160003D01*
X147899417Y-104160003D01*
X147919698Y-104365929D01*
X147919699Y-104365934D01*
X147979768Y-104563954D01*
X148077316Y-104746452D01*
X148208585Y-104906404D01*
X148208590Y-104906410D01*
X148208595Y-104906414D01*
X148368547Y-105037683D01*
X148368548Y-105037683D01*
X148368550Y-105037685D01*
X148551046Y-105135232D01*
X148688997Y-105177078D01*
X148749065Y-105195300D01*
X148749070Y-105195301D01*
X148954997Y-105215583D01*
X148955000Y-105215583D01*
X148955003Y-105215583D01*
X149160929Y-105195301D01*
X149160934Y-105195300D01*
X149358954Y-105135232D01*
X149541450Y-105037685D01*
X149701410Y-104906410D01*
X149832685Y-104746450D01*
X149930232Y-104563954D01*
X149990300Y-104365934D01*
X149990301Y-104365929D01*
X150010583Y-104160003D01*
X150439417Y-104160003D01*
X150459698Y-104365929D01*
X150459699Y-104365934D01*
X150519768Y-104563954D01*
X150617316Y-104746452D01*
X150748585Y-104906404D01*
X150748590Y-104906410D01*
X150748595Y-104906414D01*
X150908547Y-105037683D01*
X150908548Y-105037683D01*
X150908550Y-105037685D01*
X151091046Y-105135232D01*
X151228997Y-105177078D01*
X151289065Y-105195300D01*
X151289070Y-105195301D01*
X151494997Y-105215583D01*
X151495000Y-105215583D01*
X151495003Y-105215583D01*
X151700929Y-105195301D01*
X151700934Y-105195300D01*
X151898954Y-105135232D01*
X152081450Y-105037685D01*
X152241410Y-104906410D01*
X152372685Y-104746450D01*
X152470232Y-104563954D01*
X152530300Y-104365934D01*
X152530301Y-104365929D01*
X152550583Y-104160003D01*
X152979417Y-104160003D01*
X152999698Y-104365929D01*
X152999699Y-104365934D01*
X153059768Y-104563954D01*
X153157316Y-104746452D01*
X153288585Y-104906404D01*
X153288590Y-104906410D01*
X153288595Y-104906414D01*
X153448547Y-105037683D01*
X153448548Y-105037683D01*
X153448550Y-105037685D01*
X153631046Y-105135232D01*
X153768997Y-105177078D01*
X153829065Y-105195300D01*
X153829070Y-105195301D01*
X154034997Y-105215583D01*
X154035000Y-105215583D01*
X154035003Y-105215583D01*
X154240929Y-105195301D01*
X154240934Y-105195300D01*
X154438954Y-105135232D01*
X154621450Y-105037685D01*
X154631124Y-105029746D01*
X155524500Y-105029746D01*
X155524501Y-105029758D01*
X155536132Y-105088227D01*
X155536134Y-105088233D01*
X155580445Y-105154548D01*
X155580448Y-105154552D01*
X155646769Y-105198867D01*
X155691231Y-105207711D01*
X155705241Y-105210498D01*
X155705246Y-105210498D01*
X155705252Y-105210500D01*
X155705253Y-105210500D01*
X157444747Y-105210500D01*
X157444748Y-105210500D01*
X157503231Y-105198867D01*
X157569552Y-105154552D01*
X157613867Y-105088231D01*
X157625500Y-105029748D01*
X157625500Y-103290252D01*
X157623921Y-103282316D01*
X157622711Y-103276231D01*
X157613867Y-103231769D01*
X157569552Y-103165448D01*
X157569548Y-103165445D01*
X157503233Y-103121134D01*
X157503231Y-103121133D01*
X157503228Y-103121132D01*
X157503227Y-103121132D01*
X157444758Y-103109501D01*
X157444748Y-103109500D01*
X155705252Y-103109500D01*
X155705251Y-103109500D01*
X155705241Y-103109501D01*
X155646772Y-103121132D01*
X155646766Y-103121134D01*
X155580451Y-103165445D01*
X155580445Y-103165451D01*
X155536134Y-103231766D01*
X155536132Y-103231772D01*
X155524501Y-103290241D01*
X155524500Y-103290253D01*
X155524500Y-105029746D01*
X154631124Y-105029746D01*
X154781410Y-104906410D01*
X154912685Y-104746450D01*
X155010232Y-104563954D01*
X155070300Y-104365934D01*
X155070301Y-104365929D01*
X155090583Y-104160003D01*
X155090583Y-104159996D01*
X155070301Y-103954070D01*
X155070300Y-103954065D01*
X155052078Y-103893997D01*
X155010232Y-103756046D01*
X154912685Y-103573550D01*
X154781410Y-103413590D01*
X154781404Y-103413585D01*
X154621452Y-103282316D01*
X154438954Y-103184768D01*
X154240934Y-103124699D01*
X154240929Y-103124698D01*
X154035003Y-103104417D01*
X154034997Y-103104417D01*
X153829070Y-103124698D01*
X153829065Y-103124699D01*
X153631045Y-103184768D01*
X153448547Y-103282316D01*
X153288595Y-103413585D01*
X153288585Y-103413595D01*
X153157316Y-103573547D01*
X153059768Y-103756045D01*
X152999699Y-103954065D01*
X152999698Y-103954070D01*
X152979417Y-104159996D01*
X152979417Y-104160003D01*
X152550583Y-104160003D01*
X152550583Y-104159996D01*
X152530301Y-103954070D01*
X152530300Y-103954065D01*
X152512078Y-103893997D01*
X152470232Y-103756046D01*
X152372685Y-103573550D01*
X152241410Y-103413590D01*
X152241404Y-103413585D01*
X152081452Y-103282316D01*
X151898954Y-103184768D01*
X151700934Y-103124699D01*
X151700929Y-103124698D01*
X151495003Y-103104417D01*
X151494997Y-103104417D01*
X151289070Y-103124698D01*
X151289065Y-103124699D01*
X151091045Y-103184768D01*
X150908547Y-103282316D01*
X150748595Y-103413585D01*
X150748585Y-103413595D01*
X150617316Y-103573547D01*
X150519768Y-103756045D01*
X150459699Y-103954065D01*
X150459698Y-103954070D01*
X150439417Y-104159996D01*
X150439417Y-104160003D01*
X150010583Y-104160003D01*
X150010583Y-104159996D01*
X149990301Y-103954070D01*
X149990300Y-103954065D01*
X149972078Y-103893997D01*
X149930232Y-103756046D01*
X149832685Y-103573550D01*
X149701410Y-103413590D01*
X149701404Y-103413585D01*
X149541452Y-103282316D01*
X149358954Y-103184768D01*
X149160934Y-103124699D01*
X149160929Y-103124698D01*
X148955003Y-103104417D01*
X148954997Y-103104417D01*
X148749070Y-103124698D01*
X148749065Y-103124699D01*
X148551045Y-103184768D01*
X148368547Y-103282316D01*
X148208595Y-103413585D01*
X148208585Y-103413595D01*
X148077316Y-103573547D01*
X147979768Y-103756045D01*
X147919699Y-103954065D01*
X147919698Y-103954070D01*
X147899417Y-104159996D01*
X147899417Y-104160003D01*
X147470583Y-104160003D01*
X147470583Y-104159996D01*
X147450301Y-103954070D01*
X147450300Y-103954065D01*
X147432078Y-103893997D01*
X147390232Y-103756046D01*
X147292685Y-103573550D01*
X147161410Y-103413590D01*
X147161404Y-103413585D01*
X147001452Y-103282316D01*
X146818954Y-103184768D01*
X146620934Y-103124699D01*
X146620929Y-103124698D01*
X146415003Y-103104417D01*
X146414997Y-103104417D01*
X146209070Y-103124698D01*
X146209065Y-103124699D01*
X146011045Y-103184768D01*
X145828547Y-103282316D01*
X145668595Y-103413585D01*
X145668585Y-103413595D01*
X145537316Y-103573547D01*
X145439768Y-103756045D01*
X145379699Y-103954065D01*
X145379698Y-103954070D01*
X145359417Y-104159996D01*
X145359417Y-104160003D01*
X144930583Y-104160003D01*
X144930583Y-104159996D01*
X144910301Y-103954070D01*
X144910300Y-103954065D01*
X144892078Y-103893997D01*
X144850232Y-103756046D01*
X144752685Y-103573550D01*
X144621410Y-103413590D01*
X144621404Y-103413585D01*
X144461452Y-103282316D01*
X144278954Y-103184768D01*
X144080934Y-103124699D01*
X144080929Y-103124698D01*
X143875003Y-103104417D01*
X143874997Y-103104417D01*
X143669070Y-103124698D01*
X143669065Y-103124699D01*
X143471045Y-103184768D01*
X143288547Y-103282316D01*
X143128595Y-103413585D01*
X143128585Y-103413595D01*
X142997316Y-103573547D01*
X142899768Y-103756045D01*
X142839699Y-103954065D01*
X142839698Y-103954070D01*
X142819417Y-104159996D01*
X142819417Y-104160003D01*
X142390583Y-104160003D01*
X142390583Y-104159996D01*
X142370301Y-103954070D01*
X142370300Y-103954065D01*
X142352078Y-103893997D01*
X142310232Y-103756046D01*
X142212685Y-103573550D01*
X142081410Y-103413590D01*
X142081404Y-103413585D01*
X141921452Y-103282316D01*
X141738954Y-103184768D01*
X141540934Y-103124699D01*
X141540929Y-103124698D01*
X141335003Y-103104417D01*
X141334997Y-103104417D01*
X141129070Y-103124698D01*
X141129065Y-103124699D01*
X140931045Y-103184768D01*
X140748547Y-103282316D01*
X140588595Y-103413585D01*
X140588585Y-103413595D01*
X140457316Y-103573547D01*
X140359768Y-103756045D01*
X140299699Y-103954065D01*
X140299698Y-103954070D01*
X140279417Y-104159996D01*
X140279417Y-104160003D01*
X139850583Y-104160003D01*
X139850583Y-104159996D01*
X139830301Y-103954070D01*
X139830300Y-103954065D01*
X139812078Y-103893997D01*
X139770232Y-103756046D01*
X139672685Y-103573550D01*
X139541410Y-103413590D01*
X139541404Y-103413585D01*
X139381452Y-103282316D01*
X139198954Y-103184768D01*
X139000934Y-103124699D01*
X139000929Y-103124698D01*
X138795003Y-103104417D01*
X138794997Y-103104417D01*
X138589070Y-103124698D01*
X138589065Y-103124699D01*
X138391045Y-103184768D01*
X138208547Y-103282316D01*
X138048595Y-103413585D01*
X138048585Y-103413595D01*
X137917316Y-103573547D01*
X137819768Y-103756045D01*
X137759699Y-103954065D01*
X137759698Y-103954070D01*
X137739417Y-104159996D01*
X137739417Y-104160003D01*
X137310583Y-104160003D01*
X137310583Y-104159996D01*
X137290301Y-103954070D01*
X137290300Y-103954065D01*
X137272078Y-103893997D01*
X137230232Y-103756046D01*
X137132685Y-103573550D01*
X137001410Y-103413590D01*
X137001404Y-103413585D01*
X136841452Y-103282316D01*
X136658954Y-103184768D01*
X136460934Y-103124699D01*
X136460929Y-103124698D01*
X136255003Y-103104417D01*
X136254997Y-103104417D01*
X136049070Y-103124698D01*
X136049065Y-103124699D01*
X135851045Y-103184768D01*
X135668547Y-103282316D01*
X135508595Y-103413585D01*
X135508585Y-103413595D01*
X135377316Y-103573547D01*
X135279768Y-103756045D01*
X135219699Y-103954065D01*
X135219698Y-103954070D01*
X135199417Y-104159996D01*
X135199417Y-104160003D01*
X134770583Y-104160003D01*
X134770583Y-104159996D01*
X134750301Y-103954070D01*
X134750300Y-103954065D01*
X134732078Y-103893997D01*
X134690232Y-103756046D01*
X134592685Y-103573550D01*
X134461410Y-103413590D01*
X134461404Y-103413585D01*
X134301452Y-103282316D01*
X134118954Y-103184768D01*
X133920934Y-103124699D01*
X133920929Y-103124698D01*
X133715003Y-103104417D01*
X133714997Y-103104417D01*
X133509070Y-103124698D01*
X133509065Y-103124699D01*
X133311045Y-103184768D01*
X133128547Y-103282316D01*
X132968595Y-103413585D01*
X132968585Y-103413595D01*
X132837316Y-103573547D01*
X132739768Y-103756045D01*
X132679699Y-103954065D01*
X132679698Y-103954070D01*
X132659417Y-104159996D01*
X132659417Y-104160003D01*
X132230583Y-104160003D01*
X132230583Y-104159996D01*
X132210301Y-103954070D01*
X132210300Y-103954065D01*
X132192078Y-103893997D01*
X132150232Y-103756046D01*
X132052685Y-103573550D01*
X131921410Y-103413590D01*
X131921404Y-103413585D01*
X131761452Y-103282316D01*
X131578954Y-103184768D01*
X131380934Y-103124699D01*
X131380929Y-103124698D01*
X131175003Y-103104417D01*
X131174997Y-103104417D01*
X130969070Y-103124698D01*
X130969065Y-103124699D01*
X130771045Y-103184768D01*
X130588547Y-103282316D01*
X130428595Y-103413585D01*
X130428585Y-103413595D01*
X130297316Y-103573547D01*
X130199768Y-103756045D01*
X130139699Y-103954065D01*
X130139698Y-103954070D01*
X130119417Y-104159996D01*
X130119417Y-104160003D01*
X129690583Y-104160003D01*
X129690583Y-104159996D01*
X129670301Y-103954070D01*
X129670300Y-103954065D01*
X129652078Y-103893997D01*
X129610232Y-103756046D01*
X129512685Y-103573550D01*
X129381410Y-103413590D01*
X129381404Y-103413585D01*
X129221452Y-103282316D01*
X129038954Y-103184768D01*
X128840934Y-103124699D01*
X128840929Y-103124698D01*
X128635003Y-103104417D01*
X128634997Y-103104417D01*
X128429070Y-103124698D01*
X128429065Y-103124699D01*
X128231045Y-103184768D01*
X128048547Y-103282316D01*
X127888595Y-103413585D01*
X127888585Y-103413595D01*
X127757316Y-103573547D01*
X127659768Y-103756045D01*
X127599699Y-103954065D01*
X127599698Y-103954070D01*
X127579417Y-104159996D01*
X127579417Y-104160003D01*
X127150583Y-104160003D01*
X127150583Y-104159996D01*
X127130301Y-103954070D01*
X127130300Y-103954065D01*
X127112078Y-103893997D01*
X127070232Y-103756046D01*
X127070229Y-103756040D01*
X127053881Y-103725454D01*
X127043125Y-103665221D01*
X127069827Y-103610170D01*
X127071136Y-103608833D01*
X128650475Y-102029496D01*
X128704992Y-102001719D01*
X128720479Y-102000500D01*
X133734836Y-102000500D01*
X133748511Y-102002732D01*
X133748683Y-102001506D01*
X133757764Y-102002772D01*
X133757765Y-102002773D01*
X133757765Y-102002772D01*
X133757766Y-102002773D01*
X133804642Y-102000606D01*
X133809214Y-102000500D01*
X133827842Y-102000500D01*
X133827844Y-102000500D01*
X133827948Y-102000480D01*
X133841571Y-101998898D01*
X133869992Y-101997585D01*
X133878976Y-101993617D01*
X133900777Y-101986865D01*
X133910433Y-101985061D01*
X133934618Y-101970086D01*
X133946728Y-101963701D01*
X133972765Y-101952206D01*
X133979709Y-101945260D01*
X133997601Y-101931089D01*
X134005952Y-101925919D01*
X134023089Y-101903223D01*
X134032082Y-101892887D01*
X134304965Y-101620004D01*
X136680882Y-101620004D01*
X136699309Y-101807109D01*
X136699310Y-101807112D01*
X136699311Y-101807115D01*
X136753891Y-101987039D01*
X136753894Y-101987044D01*
X136753895Y-101987047D01*
X136842520Y-102152854D01*
X136961796Y-102298193D01*
X136961801Y-102298199D01*
X136961806Y-102298203D01*
X137107145Y-102417479D01*
X137244925Y-102491123D01*
X137272961Y-102506109D01*
X137452885Y-102560689D01*
X137452887Y-102560689D01*
X137452890Y-102560690D01*
X137639996Y-102579118D01*
X137640000Y-102579118D01*
X137640004Y-102579118D01*
X137827109Y-102560690D01*
X137827110Y-102560689D01*
X137827115Y-102560689D01*
X138007039Y-102506109D01*
X138114179Y-102448840D01*
X138172854Y-102417479D01*
X138172855Y-102417477D01*
X138172857Y-102417477D01*
X138318199Y-102298199D01*
X138437477Y-102152857D01*
X138454922Y-102120221D01*
X138503415Y-102029496D01*
X138526109Y-101987039D01*
X138580689Y-101807115D01*
X138599118Y-101620004D01*
X139220882Y-101620004D01*
X139239309Y-101807109D01*
X139239310Y-101807112D01*
X139239311Y-101807115D01*
X139293891Y-101987039D01*
X139293894Y-101987044D01*
X139293895Y-101987047D01*
X139382520Y-102152854D01*
X139501796Y-102298193D01*
X139501801Y-102298199D01*
X139501806Y-102298203D01*
X139647145Y-102417479D01*
X139784925Y-102491123D01*
X139812961Y-102506109D01*
X139992885Y-102560689D01*
X139992887Y-102560689D01*
X139992890Y-102560690D01*
X140179996Y-102579118D01*
X140180000Y-102579118D01*
X140180004Y-102579118D01*
X140367109Y-102560690D01*
X140367110Y-102560689D01*
X140367115Y-102560689D01*
X140547039Y-102506109D01*
X140654179Y-102448840D01*
X140712854Y-102417479D01*
X140712855Y-102417477D01*
X140712857Y-102417477D01*
X140858199Y-102298199D01*
X140977477Y-102152857D01*
X140994922Y-102120221D01*
X141043415Y-102029496D01*
X141066109Y-101987039D01*
X141120689Y-101807115D01*
X141139118Y-101620004D01*
X141760882Y-101620004D01*
X141779309Y-101807109D01*
X141779310Y-101807112D01*
X141779311Y-101807115D01*
X141833891Y-101987039D01*
X141833894Y-101987044D01*
X141833895Y-101987047D01*
X141922520Y-102152854D01*
X142041796Y-102298193D01*
X142041801Y-102298199D01*
X142041806Y-102298203D01*
X142187145Y-102417479D01*
X142324925Y-102491123D01*
X142352961Y-102506109D01*
X142532885Y-102560689D01*
X142532887Y-102560689D01*
X142532890Y-102560690D01*
X142719996Y-102579118D01*
X142720000Y-102579118D01*
X142720004Y-102579118D01*
X142907109Y-102560690D01*
X142907110Y-102560689D01*
X142907115Y-102560689D01*
X143087039Y-102506109D01*
X143194179Y-102448840D01*
X143252854Y-102417479D01*
X143252855Y-102417477D01*
X143252857Y-102417477D01*
X143398199Y-102298199D01*
X143517477Y-102152857D01*
X143534922Y-102120221D01*
X143583415Y-102029496D01*
X143606109Y-101987039D01*
X143660689Y-101807115D01*
X143679118Y-101620004D01*
X144300882Y-101620004D01*
X144319309Y-101807109D01*
X144319310Y-101807112D01*
X144319311Y-101807115D01*
X144373891Y-101987039D01*
X144373894Y-101987044D01*
X144373895Y-101987047D01*
X144462520Y-102152854D01*
X144581796Y-102298193D01*
X144581801Y-102298199D01*
X144581806Y-102298203D01*
X144727145Y-102417479D01*
X144864925Y-102491123D01*
X144892961Y-102506109D01*
X145072885Y-102560689D01*
X145072887Y-102560689D01*
X145072890Y-102560690D01*
X145259996Y-102579118D01*
X145260000Y-102579118D01*
X145260004Y-102579118D01*
X145447109Y-102560690D01*
X145447110Y-102560689D01*
X145447115Y-102560689D01*
X145627039Y-102506109D01*
X145734179Y-102448840D01*
X145792854Y-102417479D01*
X145792855Y-102417477D01*
X145792857Y-102417477D01*
X145938199Y-102298199D01*
X146057477Y-102152857D01*
X146074922Y-102120221D01*
X146123415Y-102029496D01*
X146146109Y-101987039D01*
X146200689Y-101807115D01*
X146219118Y-101620004D01*
X146840882Y-101620004D01*
X146859309Y-101807109D01*
X146859310Y-101807112D01*
X146859311Y-101807115D01*
X146913891Y-101987039D01*
X146913894Y-101987044D01*
X146913895Y-101987047D01*
X147002520Y-102152854D01*
X147121796Y-102298193D01*
X147121801Y-102298199D01*
X147121806Y-102298203D01*
X147267145Y-102417479D01*
X147404925Y-102491123D01*
X147432961Y-102506109D01*
X147612885Y-102560689D01*
X147612887Y-102560689D01*
X147612890Y-102560690D01*
X147799996Y-102579118D01*
X147800000Y-102579118D01*
X147800004Y-102579118D01*
X147987109Y-102560690D01*
X147987110Y-102560689D01*
X147987115Y-102560689D01*
X148167039Y-102506109D01*
X148274179Y-102448840D01*
X148332854Y-102417479D01*
X148332855Y-102417477D01*
X148332857Y-102417477D01*
X148478199Y-102298199D01*
X148597477Y-102152857D01*
X148614922Y-102120221D01*
X148663415Y-102029496D01*
X148686109Y-101987039D01*
X148740689Y-101807115D01*
X148759118Y-101620004D01*
X149380882Y-101620004D01*
X149399309Y-101807109D01*
X149399310Y-101807112D01*
X149399311Y-101807115D01*
X149453891Y-101987039D01*
X149453894Y-101987044D01*
X149453895Y-101987047D01*
X149542520Y-102152854D01*
X149661796Y-102298193D01*
X149661801Y-102298199D01*
X149661806Y-102298203D01*
X149807145Y-102417479D01*
X149944925Y-102491123D01*
X149972961Y-102506109D01*
X150152885Y-102560689D01*
X150152887Y-102560689D01*
X150152890Y-102560690D01*
X150339996Y-102579118D01*
X150340000Y-102579118D01*
X150340004Y-102579118D01*
X150527109Y-102560690D01*
X150527110Y-102560689D01*
X150527115Y-102560689D01*
X150707039Y-102506109D01*
X150814179Y-102448840D01*
X150872854Y-102417479D01*
X150872855Y-102417477D01*
X150872857Y-102417477D01*
X151018199Y-102298199D01*
X151137477Y-102152857D01*
X151154922Y-102120221D01*
X151203415Y-102029496D01*
X151226109Y-101987039D01*
X151280689Y-101807115D01*
X151299118Y-101620004D01*
X151920882Y-101620004D01*
X151939309Y-101807109D01*
X151939310Y-101807112D01*
X151939311Y-101807115D01*
X151993891Y-101987039D01*
X151993894Y-101987044D01*
X151993895Y-101987047D01*
X152082520Y-102152854D01*
X152201796Y-102298193D01*
X152201801Y-102298199D01*
X152201806Y-102298203D01*
X152347145Y-102417479D01*
X152484925Y-102491123D01*
X152512961Y-102506109D01*
X152692885Y-102560689D01*
X152692887Y-102560689D01*
X152692890Y-102560690D01*
X152879996Y-102579118D01*
X152880000Y-102579118D01*
X152880004Y-102579118D01*
X153067109Y-102560690D01*
X153067110Y-102560689D01*
X153067115Y-102560689D01*
X153247039Y-102506109D01*
X153354179Y-102448840D01*
X153412854Y-102417479D01*
X153412855Y-102417477D01*
X153412857Y-102417477D01*
X153558199Y-102298199D01*
X153677477Y-102152857D01*
X153694922Y-102120221D01*
X153743415Y-102029496D01*
X153766109Y-101987039D01*
X153820689Y-101807115D01*
X153839118Y-101620000D01*
X153827522Y-101502258D01*
X153820690Y-101432890D01*
X153820689Y-101432887D01*
X153820689Y-101432885D01*
X153766109Y-101252961D01*
X153751123Y-101224925D01*
X153677479Y-101087145D01*
X153558203Y-100941806D01*
X153558199Y-100941801D01*
X153558193Y-100941796D01*
X153412854Y-100822520D01*
X153247047Y-100733895D01*
X153247044Y-100733894D01*
X153247039Y-100733891D01*
X153067115Y-100679311D01*
X153067112Y-100679310D01*
X153067109Y-100679309D01*
X152880004Y-100660882D01*
X152879996Y-100660882D01*
X152692890Y-100679309D01*
X152692887Y-100679310D01*
X152512964Y-100733890D01*
X152512961Y-100733891D01*
X152512958Y-100733892D01*
X152512952Y-100733895D01*
X152347145Y-100822520D01*
X152201806Y-100941796D01*
X152201796Y-100941806D01*
X152082520Y-101087145D01*
X151993895Y-101252952D01*
X151993890Y-101252964D01*
X151939310Y-101432887D01*
X151939309Y-101432890D01*
X151920882Y-101619995D01*
X151920882Y-101620004D01*
X151299118Y-101620004D01*
X151299118Y-101620000D01*
X151287522Y-101502258D01*
X151280690Y-101432890D01*
X151280689Y-101432887D01*
X151280689Y-101432885D01*
X151226109Y-101252961D01*
X151211123Y-101224925D01*
X151137479Y-101087145D01*
X151018203Y-100941806D01*
X151018199Y-100941801D01*
X151018193Y-100941796D01*
X150872854Y-100822520D01*
X150707047Y-100733895D01*
X150707044Y-100733894D01*
X150707039Y-100733891D01*
X150527115Y-100679311D01*
X150527112Y-100679310D01*
X150527109Y-100679309D01*
X150340004Y-100660882D01*
X150339996Y-100660882D01*
X150152890Y-100679309D01*
X150152887Y-100679310D01*
X149972964Y-100733890D01*
X149972961Y-100733891D01*
X149972958Y-100733892D01*
X149972952Y-100733895D01*
X149807145Y-100822520D01*
X149661806Y-100941796D01*
X149661796Y-100941806D01*
X149542520Y-101087145D01*
X149453895Y-101252952D01*
X149453890Y-101252964D01*
X149399310Y-101432887D01*
X149399309Y-101432890D01*
X149380882Y-101619995D01*
X149380882Y-101620004D01*
X148759118Y-101620004D01*
X148759118Y-101620000D01*
X148747522Y-101502258D01*
X148740690Y-101432890D01*
X148740689Y-101432887D01*
X148740689Y-101432885D01*
X148686109Y-101252961D01*
X148671123Y-101224925D01*
X148597479Y-101087145D01*
X148478203Y-100941806D01*
X148478199Y-100941801D01*
X148478193Y-100941796D01*
X148332854Y-100822520D01*
X148167047Y-100733895D01*
X148167044Y-100733894D01*
X148167039Y-100733891D01*
X147987115Y-100679311D01*
X147987112Y-100679310D01*
X147987109Y-100679309D01*
X147800004Y-100660882D01*
X147799996Y-100660882D01*
X147612890Y-100679309D01*
X147612887Y-100679310D01*
X147432964Y-100733890D01*
X147432961Y-100733891D01*
X147432958Y-100733892D01*
X147432952Y-100733895D01*
X147267145Y-100822520D01*
X147121806Y-100941796D01*
X147121796Y-100941806D01*
X147002520Y-101087145D01*
X146913895Y-101252952D01*
X146913890Y-101252964D01*
X146859310Y-101432887D01*
X146859309Y-101432890D01*
X146840882Y-101619995D01*
X146840882Y-101620004D01*
X146219118Y-101620004D01*
X146219118Y-101620000D01*
X146207522Y-101502258D01*
X146200690Y-101432890D01*
X146200689Y-101432887D01*
X146200689Y-101432885D01*
X146146109Y-101252961D01*
X146131123Y-101224925D01*
X146057479Y-101087145D01*
X145938203Y-100941806D01*
X145938199Y-100941801D01*
X145938193Y-100941796D01*
X145792854Y-100822520D01*
X145627047Y-100733895D01*
X145627044Y-100733894D01*
X145627039Y-100733891D01*
X145447115Y-100679311D01*
X145447112Y-100679310D01*
X145447109Y-100679309D01*
X145260004Y-100660882D01*
X145259996Y-100660882D01*
X145072890Y-100679309D01*
X145072887Y-100679310D01*
X144892964Y-100733890D01*
X144892961Y-100733891D01*
X144892958Y-100733892D01*
X144892952Y-100733895D01*
X144727145Y-100822520D01*
X144581806Y-100941796D01*
X144581796Y-100941806D01*
X144462520Y-101087145D01*
X144373895Y-101252952D01*
X144373890Y-101252964D01*
X144319310Y-101432887D01*
X144319309Y-101432890D01*
X144300882Y-101619995D01*
X144300882Y-101620004D01*
X143679118Y-101620004D01*
X143679118Y-101620000D01*
X143667522Y-101502258D01*
X143660690Y-101432890D01*
X143660689Y-101432887D01*
X143660689Y-101432885D01*
X143606109Y-101252961D01*
X143591123Y-101224925D01*
X143517479Y-101087145D01*
X143398203Y-100941806D01*
X143398199Y-100941801D01*
X143398193Y-100941796D01*
X143252854Y-100822520D01*
X143087047Y-100733895D01*
X143087044Y-100733894D01*
X143087039Y-100733891D01*
X142907115Y-100679311D01*
X142907112Y-100679310D01*
X142907109Y-100679309D01*
X142720004Y-100660882D01*
X142719996Y-100660882D01*
X142532890Y-100679309D01*
X142532887Y-100679310D01*
X142352964Y-100733890D01*
X142352961Y-100733891D01*
X142352958Y-100733892D01*
X142352952Y-100733895D01*
X142187145Y-100822520D01*
X142041806Y-100941796D01*
X142041796Y-100941806D01*
X141922520Y-101087145D01*
X141833895Y-101252952D01*
X141833890Y-101252964D01*
X141779310Y-101432887D01*
X141779309Y-101432890D01*
X141760882Y-101619995D01*
X141760882Y-101620004D01*
X141139118Y-101620004D01*
X141139118Y-101620000D01*
X141127522Y-101502258D01*
X141120690Y-101432890D01*
X141120689Y-101432887D01*
X141120689Y-101432885D01*
X141066109Y-101252961D01*
X141051123Y-101224925D01*
X140977479Y-101087145D01*
X140858203Y-100941806D01*
X140858199Y-100941801D01*
X140858193Y-100941796D01*
X140712854Y-100822520D01*
X140547047Y-100733895D01*
X140547044Y-100733894D01*
X140547039Y-100733891D01*
X140367115Y-100679311D01*
X140367112Y-100679310D01*
X140367109Y-100679309D01*
X140180004Y-100660882D01*
X140179996Y-100660882D01*
X139992890Y-100679309D01*
X139992887Y-100679310D01*
X139812964Y-100733890D01*
X139812961Y-100733891D01*
X139812958Y-100733892D01*
X139812952Y-100733895D01*
X139647145Y-100822520D01*
X139501806Y-100941796D01*
X139501796Y-100941806D01*
X139382520Y-101087145D01*
X139293895Y-101252952D01*
X139293890Y-101252964D01*
X139239310Y-101432887D01*
X139239309Y-101432890D01*
X139220882Y-101619995D01*
X139220882Y-101620004D01*
X138599118Y-101620004D01*
X138599118Y-101620000D01*
X138587522Y-101502258D01*
X138580690Y-101432890D01*
X138580689Y-101432887D01*
X138580689Y-101432885D01*
X138526109Y-101252961D01*
X138511123Y-101224925D01*
X138437479Y-101087145D01*
X138318203Y-100941806D01*
X138318199Y-100941801D01*
X138318193Y-100941796D01*
X138172854Y-100822520D01*
X138007047Y-100733895D01*
X138007044Y-100733894D01*
X138007039Y-100733891D01*
X137827115Y-100679311D01*
X137827112Y-100679310D01*
X137827109Y-100679309D01*
X137640004Y-100660882D01*
X137639996Y-100660882D01*
X137452890Y-100679309D01*
X137452887Y-100679310D01*
X137272964Y-100733890D01*
X137272961Y-100733891D01*
X137272958Y-100733892D01*
X137272952Y-100733895D01*
X137107145Y-100822520D01*
X136961806Y-100941796D01*
X136961796Y-100941806D01*
X136842520Y-101087145D01*
X136753895Y-101252952D01*
X136753890Y-101252964D01*
X136699310Y-101432887D01*
X136699309Y-101432890D01*
X136680882Y-101619995D01*
X136680882Y-101620004D01*
X134304965Y-101620004D01*
X135766405Y-100158564D01*
X135777664Y-100150493D01*
X135776905Y-100149487D01*
X135784221Y-100143961D01*
X135784228Y-100143958D01*
X135815877Y-100109239D01*
X135818995Y-100105974D01*
X135832174Y-100092797D01*
X135832238Y-100092702D01*
X135840753Y-100081953D01*
X135845434Y-100076818D01*
X135859916Y-100060933D01*
X135863465Y-100051770D01*
X135874106Y-100031582D01*
X135879656Y-100023481D01*
X135886169Y-99995785D01*
X135890220Y-99982706D01*
X135900500Y-99956173D01*
X135900500Y-99946348D01*
X135903129Y-99923683D01*
X135905379Y-99914119D01*
X135901449Y-99885944D01*
X135900500Y-99872268D01*
X135900500Y-99080004D01*
X136680882Y-99080004D01*
X136699309Y-99267109D01*
X136699310Y-99267112D01*
X136699311Y-99267115D01*
X136753891Y-99447039D01*
X136753894Y-99447044D01*
X136753895Y-99447047D01*
X136842520Y-99612854D01*
X136914443Y-99700493D01*
X136961801Y-99758199D01*
X136961806Y-99758203D01*
X137107145Y-99877479D01*
X137214502Y-99934862D01*
X137272961Y-99966109D01*
X137452885Y-100020689D01*
X137452887Y-100020689D01*
X137452890Y-100020690D01*
X137639996Y-100039118D01*
X137640000Y-100039118D01*
X137640004Y-100039118D01*
X137827109Y-100020690D01*
X137827110Y-100020689D01*
X137827115Y-100020689D01*
X138007039Y-99966109D01*
X138130725Y-99899997D01*
X138172854Y-99877479D01*
X138172855Y-99877477D01*
X138172857Y-99877477D01*
X138318199Y-99758199D01*
X138437477Y-99612857D01*
X138438506Y-99610933D01*
X138473321Y-99545797D01*
X138526109Y-99447039D01*
X138580689Y-99267115D01*
X138598426Y-99087033D01*
X138599118Y-99080004D01*
X138599118Y-99079995D01*
X138580690Y-98892890D01*
X138580689Y-98892887D01*
X138580689Y-98892885D01*
X138526109Y-98712961D01*
X138511123Y-98684925D01*
X138437479Y-98547145D01*
X138318203Y-98401806D01*
X138318199Y-98401801D01*
X138298147Y-98385345D01*
X138172854Y-98282520D01*
X138007047Y-98193895D01*
X138007044Y-98193894D01*
X138007039Y-98193891D01*
X137827115Y-98139311D01*
X137827112Y-98139310D01*
X137827109Y-98139309D01*
X137640004Y-98120882D01*
X137639996Y-98120882D01*
X137452890Y-98139309D01*
X137452887Y-98139310D01*
X137272964Y-98193890D01*
X137272961Y-98193891D01*
X137272958Y-98193892D01*
X137272952Y-98193895D01*
X137107145Y-98282520D01*
X136961806Y-98401796D01*
X136961796Y-98401806D01*
X136842520Y-98547145D01*
X136753895Y-98712952D01*
X136753890Y-98712964D01*
X136699310Y-98892887D01*
X136699309Y-98892890D01*
X136680882Y-99079995D01*
X136680882Y-99080004D01*
X135900500Y-99080004D01*
X135900500Y-97799000D01*
X135919407Y-97740809D01*
X135968907Y-97704845D01*
X135999500Y-97700000D01*
X138699999Y-97700000D01*
X138700000Y-97700000D01*
X138700000Y-95548843D01*
X138718907Y-95490652D01*
X138759013Y-95458278D01*
X138760931Y-95457431D01*
X138772765Y-95452206D01*
X138779709Y-95445260D01*
X138797601Y-95431089D01*
X138805952Y-95425919D01*
X138823089Y-95403223D01*
X138832082Y-95392887D01*
X139366405Y-94858564D01*
X139377664Y-94850493D01*
X139376905Y-94849487D01*
X139384221Y-94843961D01*
X139384228Y-94843958D01*
X139415877Y-94809239D01*
X139418995Y-94805974D01*
X139432174Y-94792797D01*
X139432238Y-94792702D01*
X139440753Y-94781953D01*
X139459916Y-94760933D01*
X139463465Y-94751770D01*
X139474106Y-94731582D01*
X139479656Y-94723481D01*
X139486169Y-94695785D01*
X139490220Y-94682706D01*
X139500500Y-94656173D01*
X139500500Y-94646348D01*
X139503129Y-94623683D01*
X139505379Y-94614119D01*
X139501449Y-94585944D01*
X139500500Y-94572268D01*
X139500500Y-93085168D01*
X139502731Y-93071495D01*
X139501505Y-93071324D01*
X139502773Y-93062232D01*
X139500606Y-93015357D01*
X139500500Y-93010785D01*
X139500500Y-92992160D01*
X139500500Y-92992156D01*
X139500478Y-92992042D01*
X139498898Y-92978430D01*
X139497585Y-92950008D01*
X139493615Y-92941017D01*
X139486864Y-92919215D01*
X139485932Y-92914230D01*
X139485061Y-92909567D01*
X139470085Y-92885379D01*
X139463698Y-92873262D01*
X139452206Y-92847235D01*
X139452205Y-92847233D01*
X139445256Y-92840284D01*
X139431090Y-92822399D01*
X139425919Y-92814048D01*
X139403221Y-92796907D01*
X139392879Y-92787908D01*
X138545249Y-91940278D01*
X138517472Y-91885761D01*
X138525949Y-91832233D01*
X138524249Y-91831529D01*
X138526108Y-91827041D01*
X138527032Y-91823995D01*
X138580689Y-91647115D01*
X138580974Y-91644230D01*
X138599118Y-91460004D01*
X138599118Y-91459995D01*
X138580690Y-91272890D01*
X138580689Y-91272887D01*
X138580689Y-91272885D01*
X138526109Y-91092961D01*
X138497825Y-91040046D01*
X138437479Y-90927145D01*
X138318203Y-90781806D01*
X138318199Y-90781801D01*
X138318193Y-90781796D01*
X138172854Y-90662520D01*
X138007047Y-90573895D01*
X138007044Y-90573894D01*
X138007039Y-90573891D01*
X137827115Y-90519311D01*
X137827112Y-90519310D01*
X137827109Y-90519309D01*
X137640004Y-90500882D01*
X137639996Y-90500882D01*
X137452890Y-90519309D01*
X137452887Y-90519310D01*
X137272964Y-90573890D01*
X137272961Y-90573891D01*
X137272958Y-90573892D01*
X137272952Y-90573895D01*
X137107145Y-90662520D01*
X136961806Y-90781796D01*
X136961796Y-90781806D01*
X136842520Y-90927145D01*
X136753895Y-91092952D01*
X136753890Y-91092964D01*
X136699310Y-91272887D01*
X136699309Y-91272890D01*
X136680882Y-91459995D01*
X136680882Y-91460004D01*
X136699309Y-91647109D01*
X136699310Y-91647112D01*
X136708493Y-91677383D01*
X136753891Y-91827039D01*
X136753894Y-91827044D01*
X136753895Y-91827047D01*
X136842520Y-91992854D01*
X136904295Y-92068127D01*
X136961801Y-92138199D01*
X136961806Y-92138203D01*
X137107145Y-92257479D01*
X137209458Y-92312166D01*
X137272961Y-92346109D01*
X137452885Y-92400689D01*
X137452887Y-92400689D01*
X137452890Y-92400690D01*
X137639996Y-92419118D01*
X137640000Y-92419118D01*
X137640004Y-92419118D01*
X137827109Y-92400690D01*
X137827110Y-92400689D01*
X137827115Y-92400689D01*
X138007039Y-92346109D01*
X138007041Y-92346108D01*
X138011529Y-92344249D01*
X138012415Y-92346389D01*
X138063750Y-92337174D01*
X138118825Y-92363827D01*
X138120278Y-92365249D01*
X138870504Y-93115475D01*
X138898281Y-93169992D01*
X138899500Y-93185479D01*
X138899500Y-94434521D01*
X138880593Y-94492712D01*
X138870504Y-94504525D01*
X138504525Y-94870504D01*
X138450008Y-94898281D01*
X138434521Y-94899500D01*
X138325229Y-94899500D01*
X138267038Y-94880593D01*
X138231074Y-94831093D01*
X138231074Y-94769907D01*
X138262424Y-94723972D01*
X138265895Y-94721122D01*
X138318199Y-94678199D01*
X138437477Y-94532857D01*
X138447262Y-94514552D01*
X138513965Y-94389758D01*
X138526109Y-94367039D01*
X138580689Y-94187115D01*
X138580974Y-94184228D01*
X138599118Y-94000004D01*
X138599118Y-93999995D01*
X138580690Y-93812890D01*
X138580689Y-93812887D01*
X138580689Y-93812885D01*
X138526109Y-93632961D01*
X138509082Y-93601105D01*
X138437479Y-93467145D01*
X138318203Y-93321806D01*
X138318199Y-93321801D01*
X138297148Y-93304525D01*
X138172854Y-93202520D01*
X138007047Y-93113895D01*
X138007044Y-93113894D01*
X138007039Y-93113891D01*
X137827115Y-93059311D01*
X137827112Y-93059310D01*
X137827109Y-93059309D01*
X137640004Y-93040882D01*
X137639996Y-93040882D01*
X137452890Y-93059309D01*
X137452887Y-93059310D01*
X137272964Y-93113890D01*
X137272961Y-93113891D01*
X137272958Y-93113892D01*
X137272952Y-93113895D01*
X137107145Y-93202520D01*
X136961806Y-93321796D01*
X136961796Y-93321806D01*
X136842521Y-93467144D01*
X136783390Y-93577770D01*
X136739284Y-93620176D01*
X136678675Y-93628559D01*
X136626076Y-93601105D01*
X136329496Y-93304525D01*
X136301719Y-93250008D01*
X136300500Y-93234521D01*
X136300500Y-91765168D01*
X136302731Y-91751495D01*
X136301505Y-91751324D01*
X136302773Y-91742232D01*
X136300606Y-91695357D01*
X136300500Y-91690785D01*
X136300500Y-91672160D01*
X136300500Y-91672156D01*
X136300478Y-91672042D01*
X136298898Y-91658430D01*
X136297585Y-91630008D01*
X136293614Y-91621016D01*
X136286864Y-91599214D01*
X136285061Y-91589568D01*
X136285061Y-91589567D01*
X136270085Y-91565379D01*
X136263697Y-91553260D01*
X136252206Y-91527234D01*
X136252205Y-91527233D01*
X136252204Y-91527231D01*
X136245254Y-91520281D01*
X136231088Y-91502395D01*
X136225921Y-91494050D01*
X136225919Y-91494048D01*
X136203225Y-91476910D01*
X136192883Y-91467911D01*
X135472226Y-90747254D01*
X134748564Y-90023593D01*
X134740479Y-90012344D01*
X134739487Y-90013094D01*
X134733958Y-90005772D01*
X134699272Y-89974151D01*
X134695968Y-89970996D01*
X134682800Y-89957828D01*
X134682796Y-89957825D01*
X134682693Y-89957755D01*
X134671962Y-89949255D01*
X134650933Y-89930084D01*
X134641762Y-89926531D01*
X134621586Y-89915895D01*
X134613484Y-89910345D01*
X134613479Y-89910343D01*
X134585797Y-89903832D01*
X134572703Y-89899777D01*
X134546177Y-89889500D01*
X134546173Y-89889500D01*
X134536348Y-89889500D01*
X134513683Y-89886870D01*
X134504119Y-89884621D01*
X134504118Y-89884621D01*
X134475946Y-89888551D01*
X134462269Y-89889500D01*
X134149019Y-89889500D01*
X134090828Y-89870593D01*
X134054864Y-89821093D01*
X134051501Y-89805012D01*
X134051450Y-89805023D01*
X134043603Y-89765582D01*
X134038867Y-89741769D01*
X133994552Y-89675448D01*
X133994548Y-89675445D01*
X133928233Y-89631134D01*
X133928231Y-89631133D01*
X133928228Y-89631132D01*
X133928227Y-89631132D01*
X133869758Y-89619501D01*
X133869748Y-89619500D01*
X131430252Y-89619500D01*
X131430251Y-89619500D01*
X131430241Y-89619501D01*
X131371772Y-89631132D01*
X131371766Y-89631134D01*
X131305451Y-89675445D01*
X131305445Y-89675451D01*
X131261134Y-89741766D01*
X131261132Y-89741772D01*
X131248550Y-89805023D01*
X131247488Y-89804811D01*
X131224984Y-89856261D01*
X131172197Y-89887200D01*
X131150981Y-89889500D01*
X131138418Y-89889500D01*
X131080227Y-89870593D01*
X131063599Y-89855331D01*
X131031128Y-89817857D01*
X130998182Y-89796684D01*
X130910057Y-89740049D01*
X130910054Y-89740047D01*
X130910053Y-89740047D01*
X130910050Y-89740046D01*
X130771964Y-89699500D01*
X130771961Y-89699500D01*
X130628039Y-89699500D01*
X130628035Y-89699500D01*
X130489949Y-89740046D01*
X130489942Y-89740049D01*
X130368873Y-89817855D01*
X130274622Y-89926628D01*
X130214834Y-90057543D01*
X130194353Y-90199997D01*
X130194353Y-90200002D01*
X130214834Y-90342456D01*
X130274622Y-90473371D01*
X130274623Y-90473373D01*
X130361721Y-90573890D01*
X130368873Y-90582144D01*
X130456150Y-90638233D01*
X130489947Y-90659953D01*
X130596403Y-90691211D01*
X130628035Y-90700499D01*
X130628036Y-90700499D01*
X130628039Y-90700500D01*
X130628041Y-90700500D01*
X130771959Y-90700500D01*
X130771961Y-90700500D01*
X130910053Y-90659953D01*
X131031128Y-90582143D01*
X131076660Y-90529595D01*
X131129054Y-90497999D01*
X131190015Y-90503234D01*
X131236257Y-90543301D01*
X131248576Y-90575110D01*
X131261132Y-90638227D01*
X131261134Y-90638233D01*
X131302740Y-90700500D01*
X131305448Y-90704552D01*
X131305451Y-90704554D01*
X131362517Y-90742685D01*
X131400396Y-90790735D01*
X131402798Y-90851873D01*
X131368805Y-90902747D01*
X131362517Y-90907315D01*
X131305451Y-90945445D01*
X131305445Y-90945451D01*
X131261134Y-91011766D01*
X131261132Y-91011772D01*
X131248550Y-91075023D01*
X131247488Y-91074811D01*
X131224984Y-91126261D01*
X131172197Y-91157200D01*
X131150981Y-91159500D01*
X131112424Y-91159500D01*
X131054233Y-91140593D01*
X131037605Y-91125332D01*
X131031126Y-91117855D01*
X130910057Y-91040049D01*
X130910054Y-91040047D01*
X130910053Y-91040047D01*
X130910050Y-91040046D01*
X130771964Y-90999500D01*
X130771961Y-90999500D01*
X130628039Y-90999500D01*
X130628035Y-90999500D01*
X130489949Y-91040046D01*
X130489942Y-91040049D01*
X130368872Y-91117856D01*
X130368870Y-91117858D01*
X130324319Y-91169273D01*
X130271923Y-91200869D01*
X130210962Y-91195633D01*
X130164721Y-91155565D01*
X130150500Y-91104442D01*
X130150500Y-91070253D01*
X130150498Y-91070241D01*
X130144492Y-91040047D01*
X130138867Y-91011769D01*
X130094552Y-90945448D01*
X130070354Y-90929279D01*
X130028233Y-90901134D01*
X130028231Y-90901133D01*
X130028228Y-90901132D01*
X130028227Y-90901132D01*
X129969758Y-90889501D01*
X129969748Y-90889500D01*
X127530252Y-90889500D01*
X127530251Y-90889500D01*
X127530241Y-90889501D01*
X127471772Y-90901132D01*
X127471766Y-90901134D01*
X127454501Y-90912671D01*
X127395612Y-90929279D01*
X127338209Y-90908101D01*
X127304217Y-90857227D01*
X127300500Y-90830355D01*
X127300500Y-89465479D01*
X127319407Y-89407288D01*
X127329496Y-89395475D01*
X128495475Y-88229496D01*
X128549992Y-88201719D01*
X128565479Y-88200500D01*
X136454521Y-88200500D01*
X136512712Y-88219407D01*
X136524525Y-88229496D01*
X136734750Y-88439721D01*
X136762527Y-88494238D01*
X136754050Y-88547757D01*
X136755754Y-88548463D01*
X136753892Y-88552957D01*
X136699310Y-88732887D01*
X136699309Y-88732890D01*
X136680882Y-88919995D01*
X136680882Y-88920004D01*
X136699309Y-89107109D01*
X136699310Y-89107112D01*
X136699311Y-89107115D01*
X136753891Y-89287039D01*
X136753894Y-89287044D01*
X136753895Y-89287047D01*
X136842520Y-89452854D01*
X136961796Y-89598193D01*
X136961801Y-89598199D01*
X136961806Y-89598203D01*
X137107145Y-89717479D01*
X137244925Y-89791123D01*
X137272961Y-89806109D01*
X137452885Y-89860689D01*
X137452887Y-89860689D01*
X137452890Y-89860690D01*
X137639996Y-89879118D01*
X137640000Y-89879118D01*
X137640004Y-89879118D01*
X137827109Y-89860690D01*
X137827110Y-89860689D01*
X137827115Y-89860689D01*
X138007039Y-89806109D01*
X138114179Y-89748840D01*
X138172854Y-89717479D01*
X138172855Y-89717477D01*
X138172857Y-89717477D01*
X138318199Y-89598199D01*
X138437477Y-89452857D01*
X138526109Y-89287039D01*
X138580689Y-89107115D01*
X138582137Y-89092422D01*
X138599118Y-88920004D01*
X138599118Y-88919995D01*
X138580690Y-88732890D01*
X138580689Y-88732887D01*
X138580689Y-88732885D01*
X138526109Y-88552961D01*
X138493332Y-88491639D01*
X138437479Y-88387145D01*
X138318203Y-88241806D01*
X138318199Y-88241801D01*
X138283063Y-88212966D01*
X138172854Y-88122520D01*
X138007047Y-88033895D01*
X138007044Y-88033894D01*
X138007039Y-88033891D01*
X137827115Y-87979311D01*
X137827112Y-87979310D01*
X137827109Y-87979309D01*
X137640004Y-87960882D01*
X137639996Y-87960882D01*
X137452890Y-87979309D01*
X137452887Y-87979310D01*
X137272957Y-88033892D01*
X137268463Y-88035754D01*
X137267583Y-88033630D01*
X137216154Y-88042811D01*
X137161104Y-88016106D01*
X137159721Y-88014750D01*
X136878565Y-87733594D01*
X136870479Y-87722344D01*
X136869487Y-87723094D01*
X136863958Y-87715772D01*
X136829272Y-87684151D01*
X136825968Y-87680996D01*
X136812800Y-87667828D01*
X136812796Y-87667825D01*
X136812693Y-87667755D01*
X136801962Y-87659255D01*
X136780933Y-87640084D01*
X136771762Y-87636531D01*
X136751586Y-87625895D01*
X136743484Y-87620345D01*
X136743479Y-87620343D01*
X136715797Y-87613832D01*
X136702703Y-87609777D01*
X136676177Y-87599500D01*
X136676173Y-87599500D01*
X136666348Y-87599500D01*
X136643683Y-87596870D01*
X136634119Y-87594621D01*
X136634118Y-87594621D01*
X136605946Y-87598551D01*
X136592269Y-87599500D01*
X135471091Y-87599500D01*
X135412900Y-87580593D01*
X135376936Y-87531093D01*
X135376936Y-87469907D01*
X135400532Y-87433326D01*
X135400422Y-87433243D01*
X135401549Y-87431749D01*
X135404396Y-87427337D01*
X135405947Y-87425921D01*
X135405952Y-87425919D01*
X135423089Y-87403223D01*
X135432090Y-87392880D01*
X136115476Y-86709496D01*
X136169992Y-86681719D01*
X136185479Y-86680500D01*
X136660283Y-86680500D01*
X136718474Y-86699407D01*
X136750329Y-86743251D01*
X136752031Y-86742547D01*
X136753889Y-86747032D01*
X136753891Y-86747039D01*
X136753894Y-86747044D01*
X136753895Y-86747047D01*
X136842520Y-86912854D01*
X136915892Y-87002258D01*
X136961801Y-87058199D01*
X136961806Y-87058203D01*
X137107145Y-87177479D01*
X137244925Y-87251123D01*
X137272961Y-87266109D01*
X137452885Y-87320689D01*
X137452887Y-87320689D01*
X137452890Y-87320690D01*
X137639996Y-87339118D01*
X137640000Y-87339118D01*
X137640004Y-87339118D01*
X137827109Y-87320690D01*
X137827110Y-87320689D01*
X137827115Y-87320689D01*
X138007039Y-87266109D01*
X138114179Y-87208840D01*
X138172854Y-87177479D01*
X138172855Y-87177477D01*
X138172857Y-87177477D01*
X138318199Y-87058199D01*
X138437477Y-86912857D01*
X138438458Y-86911023D01*
X138503693Y-86788976D01*
X138526109Y-86747039D01*
X138580689Y-86567115D01*
X138599118Y-86380000D01*
X138591462Y-86302262D01*
X138580690Y-86192890D01*
X138580689Y-86192887D01*
X138580689Y-86192885D01*
X138526109Y-86012961D01*
X138470726Y-85909347D01*
X138437479Y-85847145D01*
X138318203Y-85701806D01*
X138318199Y-85701801D01*
X138318193Y-85701796D01*
X138318189Y-85701792D01*
X138286795Y-85676028D01*
X138253807Y-85624497D01*
X138257409Y-85563418D01*
X138296224Y-85516121D01*
X138349599Y-85500500D01*
X139470401Y-85500500D01*
X139528592Y-85519407D01*
X139564556Y-85568907D01*
X139564556Y-85630093D01*
X139533205Y-85676028D01*
X139501810Y-85701792D01*
X139501796Y-85701806D01*
X139382520Y-85847145D01*
X139293895Y-86012952D01*
X139293890Y-86012964D01*
X139239310Y-86192887D01*
X139239309Y-86192890D01*
X139220882Y-86379995D01*
X139220882Y-86380004D01*
X139239309Y-86567109D01*
X139239310Y-86567112D01*
X139239311Y-86567115D01*
X139293891Y-86747039D01*
X139293894Y-86747044D01*
X139293895Y-86747047D01*
X139382520Y-86912854D01*
X139455892Y-87002258D01*
X139501801Y-87058199D01*
X139501806Y-87058203D01*
X139647145Y-87177479D01*
X139784925Y-87251123D01*
X139812961Y-87266109D01*
X139992885Y-87320689D01*
X139992887Y-87320689D01*
X139992890Y-87320690D01*
X140179996Y-87339118D01*
X140180000Y-87339118D01*
X140180004Y-87339118D01*
X140367109Y-87320690D01*
X140367110Y-87320689D01*
X140367115Y-87320689D01*
X140547039Y-87266109D01*
X140654179Y-87208840D01*
X140712854Y-87177479D01*
X140712855Y-87177477D01*
X140712857Y-87177477D01*
X140858199Y-87058199D01*
X140977477Y-86912857D01*
X140978458Y-86911023D01*
X141043693Y-86788976D01*
X141066109Y-86747039D01*
X141120689Y-86567115D01*
X141139118Y-86380000D01*
X141131462Y-86302262D01*
X141120690Y-86192890D01*
X141120689Y-86192887D01*
X141120689Y-86192885D01*
X141066109Y-86012961D01*
X141010726Y-85909347D01*
X140977479Y-85847145D01*
X140858203Y-85701806D01*
X140858199Y-85701801D01*
X140858193Y-85701796D01*
X140858189Y-85701792D01*
X140826795Y-85676028D01*
X140793807Y-85624497D01*
X140797409Y-85563418D01*
X140836224Y-85516121D01*
X140889599Y-85500500D01*
X142010401Y-85500500D01*
X142068592Y-85519407D01*
X142104556Y-85568907D01*
X142104556Y-85630093D01*
X142073205Y-85676028D01*
X142041810Y-85701792D01*
X142041796Y-85701806D01*
X141922520Y-85847145D01*
X141833895Y-86012952D01*
X141833890Y-86012964D01*
X141779310Y-86192887D01*
X141779309Y-86192890D01*
X141760882Y-86379995D01*
X141760882Y-86380004D01*
X141779309Y-86567109D01*
X141779310Y-86567112D01*
X141779311Y-86567115D01*
X141833891Y-86747039D01*
X141833894Y-86747044D01*
X141833895Y-86747047D01*
X141922520Y-86912854D01*
X141995892Y-87002258D01*
X142041801Y-87058199D01*
X142041806Y-87058203D01*
X142187145Y-87177479D01*
X142324925Y-87251123D01*
X142352961Y-87266109D01*
X142532885Y-87320689D01*
X142532887Y-87320689D01*
X142532890Y-87320690D01*
X142719996Y-87339118D01*
X142720000Y-87339118D01*
X142720004Y-87339118D01*
X142907109Y-87320690D01*
X142907110Y-87320689D01*
X142907115Y-87320689D01*
X143087039Y-87266109D01*
X143194179Y-87208840D01*
X143252854Y-87177479D01*
X143252855Y-87177477D01*
X143252857Y-87177477D01*
X143398199Y-87058199D01*
X143517477Y-86912857D01*
X143518458Y-86911023D01*
X143583693Y-86788976D01*
X143606109Y-86747039D01*
X143660689Y-86567115D01*
X143679118Y-86380004D01*
X144300882Y-86380004D01*
X144319309Y-86567109D01*
X144319310Y-86567112D01*
X144319311Y-86567115D01*
X144373891Y-86747039D01*
X144373894Y-86747044D01*
X144373895Y-86747047D01*
X144462520Y-86912854D01*
X144535892Y-87002258D01*
X144581801Y-87058199D01*
X144581806Y-87058203D01*
X144727145Y-87177479D01*
X144864925Y-87251123D01*
X144892961Y-87266109D01*
X145072885Y-87320689D01*
X145072887Y-87320689D01*
X145072890Y-87320690D01*
X145259996Y-87339118D01*
X145260000Y-87339118D01*
X145260004Y-87339118D01*
X145447109Y-87320690D01*
X145447110Y-87320689D01*
X145447115Y-87320689D01*
X145627039Y-87266109D01*
X145734179Y-87208840D01*
X145792854Y-87177479D01*
X145792855Y-87177477D01*
X145792857Y-87177477D01*
X145938199Y-87058199D01*
X146057477Y-86912857D01*
X146058458Y-86911023D01*
X146123693Y-86788976D01*
X146146109Y-86747039D01*
X146200689Y-86567115D01*
X146219118Y-86380004D01*
X146840882Y-86380004D01*
X146859309Y-86567109D01*
X146859310Y-86567112D01*
X146859311Y-86567115D01*
X146913891Y-86747039D01*
X146913894Y-86747044D01*
X146913895Y-86747047D01*
X147002520Y-86912854D01*
X147075892Y-87002258D01*
X147121801Y-87058199D01*
X147121806Y-87058203D01*
X147267145Y-87177479D01*
X147404925Y-87251123D01*
X147432961Y-87266109D01*
X147612885Y-87320689D01*
X147612887Y-87320689D01*
X147612890Y-87320690D01*
X147799996Y-87339118D01*
X147800000Y-87339118D01*
X147800004Y-87339118D01*
X147987109Y-87320690D01*
X147987110Y-87320689D01*
X147987115Y-87320689D01*
X148167039Y-87266109D01*
X148274179Y-87208840D01*
X148332854Y-87177479D01*
X148332855Y-87177477D01*
X148332857Y-87177477D01*
X148478199Y-87058199D01*
X148597477Y-86912857D01*
X148598458Y-86911023D01*
X148663693Y-86788976D01*
X148686109Y-86747039D01*
X148740689Y-86567115D01*
X148759118Y-86380004D01*
X149380882Y-86380004D01*
X149399309Y-86567109D01*
X149399310Y-86567112D01*
X149399311Y-86567115D01*
X149453891Y-86747039D01*
X149453894Y-86747044D01*
X149453895Y-86747047D01*
X149542520Y-86912854D01*
X149615892Y-87002258D01*
X149661801Y-87058199D01*
X149661806Y-87058203D01*
X149807145Y-87177479D01*
X149944925Y-87251123D01*
X149972961Y-87266109D01*
X150152885Y-87320689D01*
X150152887Y-87320689D01*
X150152890Y-87320690D01*
X150339996Y-87339118D01*
X150340000Y-87339118D01*
X150340004Y-87339118D01*
X150527109Y-87320690D01*
X150527110Y-87320689D01*
X150527115Y-87320689D01*
X150707039Y-87266109D01*
X150814179Y-87208840D01*
X150872854Y-87177479D01*
X150872855Y-87177477D01*
X150872857Y-87177477D01*
X151018199Y-87058199D01*
X151137477Y-86912857D01*
X151138458Y-86911023D01*
X151203693Y-86788976D01*
X151226109Y-86747039D01*
X151280689Y-86567115D01*
X151299118Y-86380004D01*
X151920882Y-86380004D01*
X151939309Y-86567109D01*
X151939310Y-86567112D01*
X151939311Y-86567115D01*
X151993891Y-86747039D01*
X151993894Y-86747044D01*
X151993895Y-86747047D01*
X152082520Y-86912854D01*
X152155892Y-87002258D01*
X152201801Y-87058199D01*
X152201806Y-87058203D01*
X152347145Y-87177479D01*
X152484925Y-87251123D01*
X152512961Y-87266109D01*
X152692885Y-87320689D01*
X152692887Y-87320689D01*
X152692890Y-87320690D01*
X152879996Y-87339118D01*
X152880000Y-87339118D01*
X152880004Y-87339118D01*
X153067109Y-87320690D01*
X153067110Y-87320689D01*
X153067115Y-87320689D01*
X153247039Y-87266109D01*
X153354179Y-87208840D01*
X153412854Y-87177479D01*
X153412855Y-87177477D01*
X153412857Y-87177477D01*
X153558199Y-87058199D01*
X153677477Y-86912857D01*
X153678458Y-86911023D01*
X153743693Y-86788976D01*
X153766109Y-86747039D01*
X153820689Y-86567115D01*
X153839118Y-86380004D01*
X154460882Y-86380004D01*
X154479309Y-86567109D01*
X154479310Y-86567112D01*
X154479311Y-86567115D01*
X154533891Y-86747039D01*
X154533894Y-86747044D01*
X154533895Y-86747047D01*
X154622520Y-86912854D01*
X154695892Y-87002258D01*
X154741801Y-87058199D01*
X154741806Y-87058203D01*
X154887145Y-87177479D01*
X155024925Y-87251123D01*
X155052961Y-87266109D01*
X155232885Y-87320689D01*
X155232887Y-87320689D01*
X155232890Y-87320690D01*
X155419996Y-87339118D01*
X155420000Y-87339118D01*
X155420004Y-87339118D01*
X155607109Y-87320690D01*
X155607110Y-87320689D01*
X155607115Y-87320689D01*
X155787039Y-87266109D01*
X155894179Y-87208840D01*
X155952854Y-87177479D01*
X155952855Y-87177477D01*
X155952857Y-87177477D01*
X156098199Y-87058199D01*
X156217477Y-86912857D01*
X156218458Y-86911023D01*
X156283693Y-86788976D01*
X156306109Y-86747039D01*
X156360689Y-86567115D01*
X156379118Y-86380000D01*
X156371462Y-86302262D01*
X156360690Y-86192890D01*
X156360689Y-86192887D01*
X156360689Y-86192885D01*
X156306109Y-86012961D01*
X156250726Y-85909347D01*
X156217479Y-85847145D01*
X156098203Y-85701806D01*
X156098199Y-85701801D01*
X156004003Y-85624497D01*
X155952854Y-85582520D01*
X155787047Y-85493895D01*
X155787044Y-85493894D01*
X155787039Y-85493891D01*
X155607115Y-85439311D01*
X155607112Y-85439310D01*
X155607109Y-85439309D01*
X155420004Y-85420882D01*
X155419996Y-85420882D01*
X155232890Y-85439309D01*
X155232887Y-85439310D01*
X155052964Y-85493890D01*
X155052961Y-85493891D01*
X155052958Y-85493892D01*
X155052952Y-85493895D01*
X154887145Y-85582520D01*
X154741806Y-85701796D01*
X154741796Y-85701806D01*
X154622520Y-85847145D01*
X154533895Y-86012952D01*
X154533890Y-86012964D01*
X154479310Y-86192887D01*
X154479309Y-86192890D01*
X154460882Y-86379995D01*
X154460882Y-86380004D01*
X153839118Y-86380004D01*
X153839118Y-86380000D01*
X153831462Y-86302262D01*
X153820690Y-86192890D01*
X153820689Y-86192887D01*
X153820689Y-86192885D01*
X153766109Y-86012961D01*
X153710726Y-85909347D01*
X153677479Y-85847145D01*
X153558203Y-85701806D01*
X153558199Y-85701801D01*
X153464003Y-85624497D01*
X153412854Y-85582520D01*
X153247047Y-85493895D01*
X153247044Y-85493894D01*
X153247039Y-85493891D01*
X153067115Y-85439311D01*
X153067112Y-85439310D01*
X153067109Y-85439309D01*
X152880004Y-85420882D01*
X152879996Y-85420882D01*
X152692890Y-85439309D01*
X152692887Y-85439310D01*
X152512964Y-85493890D01*
X152512961Y-85493891D01*
X152512958Y-85493892D01*
X152512952Y-85493895D01*
X152347145Y-85582520D01*
X152201806Y-85701796D01*
X152201796Y-85701806D01*
X152082520Y-85847145D01*
X151993895Y-86012952D01*
X151993890Y-86012964D01*
X151939310Y-86192887D01*
X151939309Y-86192890D01*
X151920882Y-86379995D01*
X151920882Y-86380004D01*
X151299118Y-86380004D01*
X151299118Y-86380000D01*
X151291462Y-86302262D01*
X151280690Y-86192890D01*
X151280689Y-86192887D01*
X151280689Y-86192885D01*
X151226109Y-86012961D01*
X151170726Y-85909347D01*
X151137479Y-85847145D01*
X151018203Y-85701806D01*
X151018199Y-85701801D01*
X150924003Y-85624497D01*
X150872854Y-85582520D01*
X150707047Y-85493895D01*
X150707044Y-85493894D01*
X150707039Y-85493891D01*
X150527115Y-85439311D01*
X150527112Y-85439310D01*
X150527109Y-85439309D01*
X150340004Y-85420882D01*
X150339996Y-85420882D01*
X150152890Y-85439309D01*
X150152887Y-85439310D01*
X149972964Y-85493890D01*
X149972961Y-85493891D01*
X149972958Y-85493892D01*
X149972952Y-85493895D01*
X149807145Y-85582520D01*
X149661806Y-85701796D01*
X149661796Y-85701806D01*
X149542520Y-85847145D01*
X149453895Y-86012952D01*
X149453890Y-86012964D01*
X149399310Y-86192887D01*
X149399309Y-86192890D01*
X149380882Y-86379995D01*
X149380882Y-86380004D01*
X148759118Y-86380004D01*
X148759118Y-86380000D01*
X148751462Y-86302262D01*
X148740690Y-86192890D01*
X148740689Y-86192887D01*
X148740689Y-86192885D01*
X148686109Y-86012961D01*
X148630726Y-85909347D01*
X148597479Y-85847145D01*
X148478203Y-85701806D01*
X148478199Y-85701801D01*
X148384003Y-85624497D01*
X148332854Y-85582520D01*
X148167047Y-85493895D01*
X148167044Y-85493894D01*
X148167039Y-85493891D01*
X147987115Y-85439311D01*
X147987112Y-85439310D01*
X147987109Y-85439309D01*
X147800004Y-85420882D01*
X147799996Y-85420882D01*
X147612890Y-85439309D01*
X147612887Y-85439310D01*
X147432964Y-85493890D01*
X147432961Y-85493891D01*
X147432958Y-85493892D01*
X147432952Y-85493895D01*
X147267145Y-85582520D01*
X147121806Y-85701796D01*
X147121796Y-85701806D01*
X147002520Y-85847145D01*
X146913895Y-86012952D01*
X146913890Y-86012964D01*
X146859310Y-86192887D01*
X146859309Y-86192890D01*
X146840882Y-86379995D01*
X146840882Y-86380004D01*
X146219118Y-86380004D01*
X146219118Y-86380000D01*
X146211462Y-86302262D01*
X146200690Y-86192890D01*
X146200689Y-86192887D01*
X146200689Y-86192885D01*
X146146109Y-86012961D01*
X146090726Y-85909347D01*
X146057479Y-85847145D01*
X145938203Y-85701806D01*
X145938199Y-85701801D01*
X145844003Y-85624497D01*
X145792854Y-85582520D01*
X145627047Y-85493895D01*
X145627044Y-85493894D01*
X145627039Y-85493891D01*
X145447115Y-85439311D01*
X145447112Y-85439310D01*
X145447109Y-85439309D01*
X145260004Y-85420882D01*
X145259996Y-85420882D01*
X145072890Y-85439309D01*
X145072887Y-85439310D01*
X144892964Y-85493890D01*
X144892961Y-85493891D01*
X144892958Y-85493892D01*
X144892952Y-85493895D01*
X144727145Y-85582520D01*
X144581806Y-85701796D01*
X144581796Y-85701806D01*
X144462520Y-85847145D01*
X144373895Y-86012952D01*
X144373890Y-86012964D01*
X144319310Y-86192887D01*
X144319309Y-86192890D01*
X144300882Y-86379995D01*
X144300882Y-86380004D01*
X143679118Y-86380004D01*
X143679118Y-86380000D01*
X143671462Y-86302262D01*
X143660690Y-86192890D01*
X143660689Y-86192887D01*
X143660689Y-86192885D01*
X143606109Y-86012961D01*
X143550726Y-85909347D01*
X143517479Y-85847145D01*
X143398203Y-85701806D01*
X143398199Y-85701801D01*
X143304003Y-85624497D01*
X143252854Y-85582520D01*
X143087047Y-85493895D01*
X143087044Y-85493894D01*
X143087039Y-85493891D01*
X142907115Y-85439311D01*
X142906769Y-85439206D01*
X142856573Y-85404221D01*
X142836527Y-85346412D01*
X142854289Y-85287862D01*
X142865498Y-85274471D01*
X143323784Y-84816185D01*
X143378299Y-84788410D01*
X143438731Y-84797981D01*
X143440454Y-84798881D01*
X143471040Y-84815229D01*
X143471046Y-84815232D01*
X143556191Y-84841060D01*
X143669065Y-84875300D01*
X143669070Y-84875301D01*
X143874997Y-84895583D01*
X143875000Y-84895583D01*
X143875003Y-84895583D01*
X144080929Y-84875301D01*
X144080934Y-84875300D01*
X144101788Y-84868974D01*
X144278954Y-84815232D01*
X144461450Y-84717685D01*
X144621410Y-84586410D01*
X144752685Y-84426450D01*
X144850232Y-84243954D01*
X144910300Y-84045934D01*
X144910301Y-84045929D01*
X144930583Y-83840003D01*
X145359417Y-83840003D01*
X145379698Y-84045929D01*
X145379699Y-84045934D01*
X145439768Y-84243954D01*
X145537316Y-84426452D01*
X145584516Y-84483965D01*
X145668590Y-84586410D01*
X145697838Y-84610413D01*
X145828547Y-84717683D01*
X145828548Y-84717683D01*
X145828550Y-84717685D01*
X146011046Y-84815232D01*
X146096191Y-84841060D01*
X146209065Y-84875300D01*
X146209070Y-84875301D01*
X146414997Y-84895583D01*
X146415000Y-84895583D01*
X146415003Y-84895583D01*
X146620929Y-84875301D01*
X146620934Y-84875300D01*
X146641788Y-84868974D01*
X146818954Y-84815232D01*
X147001450Y-84717685D01*
X147161410Y-84586410D01*
X147292685Y-84426450D01*
X147390232Y-84243954D01*
X147450300Y-84045934D01*
X147450301Y-84045929D01*
X147470583Y-83840003D01*
X147899417Y-83840003D01*
X147919698Y-84045929D01*
X147919699Y-84045934D01*
X147979768Y-84243954D01*
X148077316Y-84426452D01*
X148124516Y-84483965D01*
X148208590Y-84586410D01*
X148237838Y-84610413D01*
X148368547Y-84717683D01*
X148368548Y-84717683D01*
X148368550Y-84717685D01*
X148551046Y-84815232D01*
X148636191Y-84841060D01*
X148749065Y-84875300D01*
X148749070Y-84875301D01*
X148954997Y-84895583D01*
X148955000Y-84895583D01*
X148955003Y-84895583D01*
X149160929Y-84875301D01*
X149160934Y-84875300D01*
X149181788Y-84868974D01*
X149358954Y-84815232D01*
X149541450Y-84717685D01*
X149701410Y-84586410D01*
X149832685Y-84426450D01*
X149930232Y-84243954D01*
X149990300Y-84045934D01*
X149990301Y-84045929D01*
X150010583Y-83840003D01*
X150010583Y-83839996D01*
X149990301Y-83634070D01*
X149990300Y-83634065D01*
X149972078Y-83573997D01*
X149930232Y-83436046D01*
X149832685Y-83253550D01*
X149782008Y-83191800D01*
X149701414Y-83093595D01*
X149701410Y-83093590D01*
X149701404Y-83093585D01*
X149541452Y-82962316D01*
X149358954Y-82864768D01*
X149160934Y-82804699D01*
X149160929Y-82804698D01*
X148955003Y-82784417D01*
X148954997Y-82784417D01*
X148749070Y-82804698D01*
X148749065Y-82804699D01*
X148551045Y-82864768D01*
X148368547Y-82962316D01*
X148208595Y-83093585D01*
X148208585Y-83093595D01*
X148077316Y-83253547D01*
X147979768Y-83436045D01*
X147919699Y-83634065D01*
X147919698Y-83634070D01*
X147899417Y-83839996D01*
X147899417Y-83840003D01*
X147470583Y-83840003D01*
X147470583Y-83839996D01*
X147450301Y-83634070D01*
X147450300Y-83634065D01*
X147432078Y-83573997D01*
X147390232Y-83436046D01*
X147292685Y-83253550D01*
X147242008Y-83191800D01*
X147161414Y-83093595D01*
X147161410Y-83093590D01*
X147161404Y-83093585D01*
X147001452Y-82962316D01*
X146818954Y-82864768D01*
X146620934Y-82804699D01*
X146620929Y-82804698D01*
X146415003Y-82784417D01*
X146414997Y-82784417D01*
X146209070Y-82804698D01*
X146209065Y-82804699D01*
X146011045Y-82864768D01*
X145828547Y-82962316D01*
X145668595Y-83093585D01*
X145668585Y-83093595D01*
X145537316Y-83253547D01*
X145439768Y-83436045D01*
X145379699Y-83634065D01*
X145379698Y-83634070D01*
X145359417Y-83839996D01*
X145359417Y-83840003D01*
X144930583Y-83840003D01*
X144930583Y-83839996D01*
X144910301Y-83634070D01*
X144910300Y-83634065D01*
X144892078Y-83573997D01*
X144850232Y-83436046D01*
X144752685Y-83253550D01*
X144702008Y-83191800D01*
X144621414Y-83093595D01*
X144621410Y-83093590D01*
X144621404Y-83093585D01*
X144461452Y-82962316D01*
X144278954Y-82864768D01*
X144080934Y-82804699D01*
X144080929Y-82804698D01*
X143875003Y-82784417D01*
X143874997Y-82784417D01*
X143669070Y-82804698D01*
X143669065Y-82804699D01*
X143471045Y-82864768D01*
X143288547Y-82962316D01*
X143128595Y-83093585D01*
X143128585Y-83093595D01*
X142997316Y-83253547D01*
X142899768Y-83436045D01*
X142839699Y-83634065D01*
X142839698Y-83634070D01*
X142819417Y-83839996D01*
X142819417Y-83840003D01*
X142839698Y-84045929D01*
X142839699Y-84045934D01*
X142899768Y-84243954D01*
X142916118Y-84274542D01*
X142926874Y-84334775D01*
X142900173Y-84389826D01*
X142898812Y-84391214D01*
X142419526Y-84870503D01*
X142365009Y-84898281D01*
X142349522Y-84899500D01*
X141975704Y-84899500D01*
X141917513Y-84880593D01*
X141881549Y-84831093D01*
X141881549Y-84769907D01*
X141917513Y-84720407D01*
X141920705Y-84718183D01*
X141921450Y-84717685D01*
X141925796Y-84714118D01*
X142081410Y-84586410D01*
X142212685Y-84426450D01*
X142310232Y-84243954D01*
X142370300Y-84045934D01*
X142370301Y-84045929D01*
X142390583Y-83840003D01*
X142390583Y-83839996D01*
X142370301Y-83634070D01*
X142370300Y-83634065D01*
X142352078Y-83573997D01*
X142310232Y-83436046D01*
X142212685Y-83253550D01*
X142162008Y-83191800D01*
X142081414Y-83093595D01*
X142081410Y-83093590D01*
X142081404Y-83093585D01*
X141921452Y-82962316D01*
X141738954Y-82864768D01*
X141540934Y-82804699D01*
X141540929Y-82804698D01*
X141335003Y-82784417D01*
X141334997Y-82784417D01*
X141129070Y-82804698D01*
X141129065Y-82804699D01*
X140931052Y-82864766D01*
X140931049Y-82864766D01*
X140931046Y-82864768D01*
X140931044Y-82864768D01*
X140931044Y-82864769D01*
X140900453Y-82881120D01*
X140840220Y-82891874D01*
X140785169Y-82865171D01*
X140783783Y-82863812D01*
X140353565Y-82433594D01*
X140345479Y-82422344D01*
X140344487Y-82423094D01*
X140338958Y-82415772D01*
X140304272Y-82384151D01*
X140300968Y-82380996D01*
X140287800Y-82367828D01*
X140287796Y-82367825D01*
X140287693Y-82367755D01*
X140276962Y-82359255D01*
X140255933Y-82340084D01*
X140246762Y-82336531D01*
X140226586Y-82325895D01*
X140218484Y-82320345D01*
X140218479Y-82320343D01*
X140190797Y-82313832D01*
X140177703Y-82309777D01*
X140151177Y-82299500D01*
X140151173Y-82299500D01*
X140141348Y-82299500D01*
X140118683Y-82296870D01*
X140109119Y-82294621D01*
X140109118Y-82294621D01*
X140080946Y-82298551D01*
X140067269Y-82299500D01*
X139509705Y-82299500D01*
X139451514Y-82280593D01*
X139415550Y-82231093D01*
X139415550Y-82169907D01*
X139446900Y-82123972D01*
X139494191Y-82085161D01*
X139541410Y-82046410D01*
X139672685Y-81886450D01*
X139770232Y-81703954D01*
X139830300Y-81505934D01*
X139830301Y-81505929D01*
X139850583Y-81300003D01*
X140279417Y-81300003D01*
X140299698Y-81505929D01*
X140299699Y-81505934D01*
X140359768Y-81703954D01*
X140457316Y-81886452D01*
X140550913Y-82000500D01*
X140588590Y-82046410D01*
X140588595Y-82046414D01*
X140748547Y-82177683D01*
X140748548Y-82177683D01*
X140748550Y-82177685D01*
X140931046Y-82275232D01*
X141061944Y-82314939D01*
X141129065Y-82335300D01*
X141129070Y-82335301D01*
X141334997Y-82355583D01*
X141335000Y-82355583D01*
X141335003Y-82355583D01*
X141540929Y-82335301D01*
X141540934Y-82335300D01*
X141738954Y-82275232D01*
X141921450Y-82177685D01*
X142081410Y-82046410D01*
X142212685Y-81886450D01*
X142310232Y-81703954D01*
X142370300Y-81505934D01*
X142370301Y-81505929D01*
X142390583Y-81300003D01*
X142390583Y-81299996D01*
X142370301Y-81094070D01*
X142370300Y-81094065D01*
X142352078Y-81033997D01*
X142310232Y-80896046D01*
X142212685Y-80713550D01*
X142198382Y-80696122D01*
X142081414Y-80553595D01*
X142081410Y-80553590D01*
X142035499Y-80515912D01*
X141921452Y-80422316D01*
X141738954Y-80324768D01*
X141540934Y-80264699D01*
X141540929Y-80264698D01*
X141335003Y-80244417D01*
X141334997Y-80244417D01*
X141129070Y-80264698D01*
X141129065Y-80264699D01*
X140931045Y-80324768D01*
X140748547Y-80422316D01*
X140588595Y-80553585D01*
X140588585Y-80553595D01*
X140457316Y-80713547D01*
X140359768Y-80896045D01*
X140299699Y-81094065D01*
X140299698Y-81094070D01*
X140279417Y-81299996D01*
X140279417Y-81300003D01*
X139850583Y-81300003D01*
X139850583Y-81299996D01*
X139830301Y-81094070D01*
X139830300Y-81094065D01*
X139812078Y-81033997D01*
X139770232Y-80896046D01*
X139672685Y-80713550D01*
X139658382Y-80696122D01*
X139541414Y-80553595D01*
X139541410Y-80553590D01*
X139495499Y-80515912D01*
X139381452Y-80422316D01*
X139198954Y-80324768D01*
X139000934Y-80264699D01*
X139000929Y-80264698D01*
X138795003Y-80244417D01*
X138794997Y-80244417D01*
X138589070Y-80264698D01*
X138589065Y-80264699D01*
X138391045Y-80324768D01*
X138208547Y-80422316D01*
X138048595Y-80553585D01*
X138048585Y-80553595D01*
X137917316Y-80713547D01*
X137819768Y-80896045D01*
X137759699Y-81094065D01*
X137759698Y-81094070D01*
X137739417Y-81299996D01*
X137739417Y-81300003D01*
X137759698Y-81505929D01*
X137759699Y-81505934D01*
X137819768Y-81703954D01*
X137917316Y-81886452D01*
X138010913Y-82000500D01*
X138048590Y-82046410D01*
X138048595Y-82046414D01*
X138143100Y-82123972D01*
X138176087Y-82175503D01*
X138172485Y-82236582D01*
X138133670Y-82283879D01*
X138080295Y-82299500D01*
X136969705Y-82299500D01*
X136911514Y-82280593D01*
X136875550Y-82231093D01*
X136875550Y-82169907D01*
X136906900Y-82123972D01*
X136954191Y-82085161D01*
X137001410Y-82046410D01*
X137132685Y-81886450D01*
X137230232Y-81703954D01*
X137290300Y-81505934D01*
X137290301Y-81505929D01*
X137310583Y-81300003D01*
X137310583Y-81299996D01*
X137290301Y-81094070D01*
X137290300Y-81094065D01*
X137272078Y-81033997D01*
X137230232Y-80896046D01*
X137132685Y-80713550D01*
X137118382Y-80696122D01*
X137001414Y-80553595D01*
X137001410Y-80553590D01*
X136955499Y-80515912D01*
X136841452Y-80422316D01*
X136658954Y-80324768D01*
X136460934Y-80264699D01*
X136460929Y-80264698D01*
X136255003Y-80244417D01*
X136254997Y-80244417D01*
X136049070Y-80264698D01*
X136049065Y-80264699D01*
X135851045Y-80324768D01*
X135668547Y-80422316D01*
X135508595Y-80553585D01*
X135508585Y-80553595D01*
X135377316Y-80713547D01*
X135279768Y-80896045D01*
X135219699Y-81094065D01*
X135219698Y-81094070D01*
X135199417Y-81299996D01*
X135199417Y-81300003D01*
X135219698Y-81505929D01*
X135219699Y-81505934D01*
X135279768Y-81703954D01*
X135377316Y-81886452D01*
X135470913Y-82000500D01*
X135508590Y-82046410D01*
X135508595Y-82046414D01*
X135600459Y-82121805D01*
X135633446Y-82173336D01*
X135629844Y-82234416D01*
X135591029Y-82281713D01*
X135542227Y-82297227D01*
X135499989Y-82299179D01*
X135495358Y-82299394D01*
X135490787Y-82299500D01*
X135472152Y-82299500D01*
X135472029Y-82299523D01*
X135458419Y-82301101D01*
X135430011Y-82302414D01*
X135430007Y-82302415D01*
X135421013Y-82306386D01*
X135399228Y-82313132D01*
X135389571Y-82314937D01*
X135389565Y-82314939D01*
X135365381Y-82329913D01*
X135353259Y-82336302D01*
X135327238Y-82347792D01*
X135327231Y-82347796D01*
X135320286Y-82354742D01*
X135302406Y-82368905D01*
X135294048Y-82374080D01*
X135276907Y-82396778D01*
X135267909Y-82407118D01*
X134833590Y-82841437D01*
X134822361Y-82849550D01*
X134823090Y-82850515D01*
X134815771Y-82856041D01*
X134784141Y-82890737D01*
X134780989Y-82894038D01*
X134767830Y-82907198D01*
X134767818Y-82907212D01*
X134767749Y-82907314D01*
X134759255Y-82918035D01*
X134740083Y-82939066D01*
X134740083Y-82939067D01*
X134736529Y-82948240D01*
X134725896Y-82968412D01*
X134720346Y-82976515D01*
X134720341Y-82976524D01*
X134713830Y-83004206D01*
X134709777Y-83017296D01*
X134699501Y-83043823D01*
X134699500Y-83043829D01*
X134699500Y-83053651D01*
X134696870Y-83076318D01*
X134694621Y-83085879D01*
X134695070Y-83089098D01*
X134694260Y-83093658D01*
X134694197Y-83095043D01*
X134694016Y-83095034D01*
X134684383Y-83149343D01*
X134640326Y-83191800D01*
X134579727Y-83200253D01*
X134525733Y-83171473D01*
X134520491Y-83165580D01*
X134461414Y-83093595D01*
X134461410Y-83093590D01*
X134461404Y-83093585D01*
X134301452Y-82962316D01*
X134118954Y-82864768D01*
X133920934Y-82804699D01*
X133920929Y-82804698D01*
X133715003Y-82784417D01*
X133714997Y-82784417D01*
X133509070Y-82804698D01*
X133509065Y-82804699D01*
X133311045Y-82864768D01*
X133128547Y-82962316D01*
X132968595Y-83093585D01*
X132968585Y-83093595D01*
X132837316Y-83253547D01*
X132739768Y-83436045D01*
X132679699Y-83634065D01*
X132679698Y-83634070D01*
X132659417Y-83839996D01*
X132659417Y-83840003D01*
X132679698Y-84045929D01*
X132679699Y-84045934D01*
X132739768Y-84243954D01*
X132837316Y-84426452D01*
X132884516Y-84483965D01*
X132968590Y-84586410D01*
X132997838Y-84610413D01*
X133128547Y-84717683D01*
X133128548Y-84717683D01*
X133128550Y-84717685D01*
X133311046Y-84815232D01*
X133396191Y-84841060D01*
X133509065Y-84875300D01*
X133509070Y-84875301D01*
X133714997Y-84895583D01*
X133715000Y-84895583D01*
X133715003Y-84895583D01*
X133920929Y-84875301D01*
X133920934Y-84875300D01*
X133941788Y-84868974D01*
X134118954Y-84815232D01*
X134262584Y-84738459D01*
X134322813Y-84727704D01*
X134377865Y-84754405D01*
X134406708Y-84808365D01*
X134398325Y-84868974D01*
X134379254Y-84895774D01*
X133804525Y-85470504D01*
X133750008Y-85498281D01*
X133734521Y-85499500D01*
X127865164Y-85499500D01*
X127851488Y-85497267D01*
X127851317Y-85498494D01*
X127842233Y-85497226D01*
X127795358Y-85499394D01*
X127790786Y-85499500D01*
X127772152Y-85499500D01*
X127772029Y-85499523D01*
X127758419Y-85501101D01*
X127730010Y-85502414D01*
X127730006Y-85502415D01*
X127721015Y-85506385D01*
X127699227Y-85513132D01*
X127689570Y-85514937D01*
X127689564Y-85514940D01*
X127665381Y-85529912D01*
X127653262Y-85536300D01*
X127627237Y-85547792D01*
X127627233Y-85547795D01*
X127620284Y-85554744D01*
X127602409Y-85568903D01*
X127594048Y-85574080D01*
X127576907Y-85596778D01*
X127567909Y-85607118D01*
X125033590Y-88141437D01*
X125022361Y-88149550D01*
X125023090Y-88150515D01*
X125015771Y-88156041D01*
X124984141Y-88190737D01*
X124980989Y-88194038D01*
X124967830Y-88207198D01*
X124967818Y-88207212D01*
X124967749Y-88207314D01*
X124959255Y-88218035D01*
X124940083Y-88239066D01*
X124940083Y-88239067D01*
X124936529Y-88248240D01*
X124925896Y-88268412D01*
X124920346Y-88276515D01*
X124920341Y-88276524D01*
X124913830Y-88304206D01*
X124909777Y-88317296D01*
X124899501Y-88343823D01*
X124899500Y-88343829D01*
X124899500Y-88353651D01*
X124896870Y-88376318D01*
X124894621Y-88385881D01*
X124500500Y-88385881D01*
X124500500Y-83840003D01*
X125039417Y-83840003D01*
X125059698Y-84045929D01*
X125059699Y-84045934D01*
X125119768Y-84243954D01*
X125217316Y-84426452D01*
X125264516Y-84483965D01*
X125348590Y-84586410D01*
X125377838Y-84610413D01*
X125508547Y-84717683D01*
X125508548Y-84717683D01*
X125508550Y-84717685D01*
X125691046Y-84815232D01*
X125776191Y-84841060D01*
X125889065Y-84875300D01*
X125889070Y-84875301D01*
X126094997Y-84895583D01*
X126095000Y-84895583D01*
X126095003Y-84895583D01*
X126300929Y-84875301D01*
X126300934Y-84875300D01*
X126321788Y-84868974D01*
X126498954Y-84815232D01*
X126681450Y-84717685D01*
X126841410Y-84586410D01*
X126972685Y-84426450D01*
X127070232Y-84243954D01*
X127130300Y-84045934D01*
X127130301Y-84045929D01*
X127150583Y-83840003D01*
X127579417Y-83840003D01*
X127599698Y-84045929D01*
X127599699Y-84045934D01*
X127659768Y-84243954D01*
X127757316Y-84426452D01*
X127804516Y-84483965D01*
X127888590Y-84586410D01*
X127917838Y-84610413D01*
X128048547Y-84717683D01*
X128048548Y-84717683D01*
X128048550Y-84717685D01*
X128231046Y-84815232D01*
X128316191Y-84841060D01*
X128429065Y-84875300D01*
X128429070Y-84875301D01*
X128634997Y-84895583D01*
X128635000Y-84895583D01*
X128635003Y-84895583D01*
X128840929Y-84875301D01*
X128840934Y-84875300D01*
X128861788Y-84868974D01*
X129038954Y-84815232D01*
X129221450Y-84717685D01*
X129381410Y-84586410D01*
X129512685Y-84426450D01*
X129610232Y-84243954D01*
X129670300Y-84045934D01*
X129670301Y-84045929D01*
X129690583Y-83840003D01*
X130119417Y-83840003D01*
X130139698Y-84045929D01*
X130139699Y-84045934D01*
X130199768Y-84243954D01*
X130297316Y-84426452D01*
X130344516Y-84483965D01*
X130428590Y-84586410D01*
X130457838Y-84610413D01*
X130588547Y-84717683D01*
X130588548Y-84717683D01*
X130588550Y-84717685D01*
X130771046Y-84815232D01*
X130856191Y-84841060D01*
X130969065Y-84875300D01*
X130969070Y-84875301D01*
X131174997Y-84895583D01*
X131175000Y-84895583D01*
X131175003Y-84895583D01*
X131380929Y-84875301D01*
X131380934Y-84875300D01*
X131401788Y-84868974D01*
X131578954Y-84815232D01*
X131761450Y-84717685D01*
X131921410Y-84586410D01*
X132052685Y-84426450D01*
X132150232Y-84243954D01*
X132210300Y-84045934D01*
X132210301Y-84045929D01*
X132230583Y-83840003D01*
X132230583Y-83839996D01*
X132210301Y-83634070D01*
X132210300Y-83634065D01*
X132192078Y-83573997D01*
X132150232Y-83436046D01*
X132052685Y-83253550D01*
X132002008Y-83191800D01*
X131921414Y-83093595D01*
X131921410Y-83093590D01*
X131921404Y-83093585D01*
X131761452Y-82962316D01*
X131578954Y-82864768D01*
X131380934Y-82804699D01*
X131380929Y-82804698D01*
X131175003Y-82784417D01*
X131174997Y-82784417D01*
X130969070Y-82804698D01*
X130969065Y-82804699D01*
X130771045Y-82864768D01*
X130588547Y-82962316D01*
X130428595Y-83093585D01*
X130428585Y-83093595D01*
X130297316Y-83253547D01*
X130199768Y-83436045D01*
X130139699Y-83634065D01*
X130139698Y-83634070D01*
X130119417Y-83839996D01*
X130119417Y-83840003D01*
X129690583Y-83840003D01*
X129690583Y-83839996D01*
X129670301Y-83634070D01*
X129670300Y-83634065D01*
X129652078Y-83573997D01*
X129610232Y-83436046D01*
X129512685Y-83253550D01*
X129462008Y-83191800D01*
X129381414Y-83093595D01*
X129381410Y-83093590D01*
X129381404Y-83093585D01*
X129221452Y-82962316D01*
X129038954Y-82864768D01*
X128840934Y-82804699D01*
X128840929Y-82804698D01*
X128635003Y-82784417D01*
X128634997Y-82784417D01*
X128429070Y-82804698D01*
X128429065Y-82804699D01*
X128231045Y-82864768D01*
X128048547Y-82962316D01*
X127888595Y-83093585D01*
X127888585Y-83093595D01*
X127757316Y-83253547D01*
X127659768Y-83436045D01*
X127599699Y-83634065D01*
X127599698Y-83634070D01*
X127579417Y-83839996D01*
X127579417Y-83840003D01*
X127150583Y-83840003D01*
X127150583Y-83839996D01*
X127130301Y-83634070D01*
X127130300Y-83634065D01*
X127112078Y-83573997D01*
X127070232Y-83436046D01*
X126972685Y-83253550D01*
X126922008Y-83191800D01*
X126841414Y-83093595D01*
X126841410Y-83093590D01*
X126841404Y-83093585D01*
X126681452Y-82962316D01*
X126498954Y-82864768D01*
X126300934Y-82804699D01*
X126300929Y-82804698D01*
X126095003Y-82784417D01*
X126094997Y-82784417D01*
X125889070Y-82804698D01*
X125889065Y-82804699D01*
X125691045Y-82864768D01*
X125508547Y-82962316D01*
X125348595Y-83093585D01*
X125348585Y-83093595D01*
X125217316Y-83253547D01*
X125119768Y-83436045D01*
X125059699Y-83634065D01*
X125059698Y-83634070D01*
X125039417Y-83839996D01*
X125039417Y-83840003D01*
X124500500Y-83840003D01*
X124500500Y-81300003D01*
X125039417Y-81300003D01*
X125059698Y-81505929D01*
X125059699Y-81505934D01*
X125119768Y-81703954D01*
X125217316Y-81886452D01*
X125310913Y-82000500D01*
X125348590Y-82046410D01*
X125348595Y-82046414D01*
X125508547Y-82177683D01*
X125508548Y-82177683D01*
X125508550Y-82177685D01*
X125691046Y-82275232D01*
X125821944Y-82314939D01*
X125889065Y-82335300D01*
X125889070Y-82335301D01*
X126094997Y-82355583D01*
X126095000Y-82355583D01*
X126095003Y-82355583D01*
X126300929Y-82335301D01*
X126300934Y-82335300D01*
X126498954Y-82275232D01*
X126681450Y-82177685D01*
X126841410Y-82046410D01*
X126972685Y-81886450D01*
X127070232Y-81703954D01*
X127130300Y-81505934D01*
X127130301Y-81505929D01*
X127150583Y-81300003D01*
X127579417Y-81300003D01*
X127599698Y-81505929D01*
X127599699Y-81505934D01*
X127659768Y-81703954D01*
X127757316Y-81886452D01*
X127850913Y-82000500D01*
X127888590Y-82046410D01*
X127888595Y-82046414D01*
X128048547Y-82177683D01*
X128048548Y-82177683D01*
X128048550Y-82177685D01*
X128231046Y-82275232D01*
X128361944Y-82314939D01*
X128429065Y-82335300D01*
X128429070Y-82335301D01*
X128634997Y-82355583D01*
X128635000Y-82355583D01*
X128635003Y-82355583D01*
X128840929Y-82335301D01*
X128840934Y-82335300D01*
X129038954Y-82275232D01*
X129221450Y-82177685D01*
X129381410Y-82046410D01*
X129512685Y-81886450D01*
X129610232Y-81703954D01*
X129670300Y-81505934D01*
X129670301Y-81505929D01*
X129690583Y-81300003D01*
X129690583Y-81299996D01*
X129670301Y-81094070D01*
X129670300Y-81094065D01*
X129652078Y-81033997D01*
X129610232Y-80896046D01*
X129512685Y-80713550D01*
X129498382Y-80696122D01*
X129381414Y-80553595D01*
X129381410Y-80553590D01*
X129335499Y-80515912D01*
X129221452Y-80422316D01*
X129038954Y-80324768D01*
X128840934Y-80264699D01*
X128840929Y-80264698D01*
X128635003Y-80244417D01*
X128634997Y-80244417D01*
X128429070Y-80264698D01*
X128429065Y-80264699D01*
X128231045Y-80324768D01*
X128048547Y-80422316D01*
X127888595Y-80553585D01*
X127888585Y-80553595D01*
X127757316Y-80713547D01*
X127659768Y-80896045D01*
X127599699Y-81094065D01*
X127599698Y-81094070D01*
X127579417Y-81299996D01*
X127579417Y-81300003D01*
X127150583Y-81300003D01*
X127150583Y-81299996D01*
X127130301Y-81094070D01*
X127130300Y-81094065D01*
X127112078Y-81033997D01*
X127070232Y-80896046D01*
X126972685Y-80713550D01*
X126958382Y-80696122D01*
X126841414Y-80553595D01*
X126841410Y-80553590D01*
X126795499Y-80515912D01*
X126681452Y-80422316D01*
X126498954Y-80324768D01*
X126300934Y-80264699D01*
X126300929Y-80264698D01*
X126095003Y-80244417D01*
X126094997Y-80244417D01*
X125889070Y-80264698D01*
X125889065Y-80264699D01*
X125691045Y-80324768D01*
X125508547Y-80422316D01*
X125348595Y-80553585D01*
X125348585Y-80553595D01*
X125217316Y-80713547D01*
X125119768Y-80896045D01*
X125059699Y-81094065D01*
X125059698Y-81094070D01*
X125039417Y-81299996D01*
X125039417Y-81300003D01*
X124500500Y-81300003D01*
X124500500Y-78407790D01*
X124501719Y-78392304D01*
X124507811Y-78353837D01*
X124517379Y-78324387D01*
X124531485Y-78296702D01*
X124549682Y-78271655D01*
X124571655Y-78249682D01*
X124596702Y-78231485D01*
X124624387Y-78217379D01*
X124653835Y-78207811D01*
X124682883Y-78203210D01*
X124692304Y-78201719D01*
X124707790Y-78200500D01*
X124747595Y-78200500D01*
X152600500Y-78200500D01*
X152658691Y-78219407D01*
G37*
%TD.AperFunction*%
%TD*%
M02*
