%TF.GenerationSoftware,KiCad,Pcbnew,7.0.10*%
%TF.CreationDate,2025-10-01T21:30:06+02:00*%
%TF.ProjectId,PS2_Debug_Probe,5053325f-4465-4627-9567-5f50726f6265,rev?*%
%TF.SameCoordinates,Original*%
%TF.FileFunction,Legend,Top*%
%TF.FilePolarity,Positive*%
%FSLAX46Y46*%
G04 Gerber Fmt 4.6, Leading zero omitted, Abs format (unit mm)*
G04 Created by KiCad (PCBNEW 7.0.10) date 2025-10-01 21:30:06*
%MOMM*%
%LPD*%
G01*
G04 APERTURE LIST*
%ADD10C,0.150000*%
%ADD11C,0.200000*%
%ADD12C,0.120000*%
%ADD13C,0.127000*%
%ADD14C,0.300000*%
G04 APERTURE END LIST*
D10*
X156500000Y-99100000D02*
X159500000Y-99100000D01*
X156500000Y-88900000D02*
X156500000Y-99100000D01*
X159500000Y-88900000D02*
X156500000Y-88900000D01*
X124200000Y-79900000D02*
X124200000Y-108100000D01*
X159174580Y-82991792D02*
X159222200Y-83039411D01*
X159222200Y-83039411D02*
X159269819Y-83182268D01*
X159269819Y-83182268D02*
X159269819Y-83277506D01*
X159269819Y-83277506D02*
X159222200Y-83420363D01*
X159222200Y-83420363D02*
X159126961Y-83515601D01*
X159126961Y-83515601D02*
X159031723Y-83563220D01*
X159031723Y-83563220D02*
X158841247Y-83610839D01*
X158841247Y-83610839D02*
X158698390Y-83610839D01*
X158698390Y-83610839D02*
X158507914Y-83563220D01*
X158507914Y-83563220D02*
X158412676Y-83515601D01*
X158412676Y-83515601D02*
X158317438Y-83420363D01*
X158317438Y-83420363D02*
X158269819Y-83277506D01*
X158269819Y-83277506D02*
X158269819Y-83182268D01*
X158269819Y-83182268D02*
X158317438Y-83039411D01*
X158317438Y-83039411D02*
X158365057Y-82991792D01*
X159269819Y-82563220D02*
X158269819Y-82563220D01*
X158269819Y-82563220D02*
X159269819Y-81991792D01*
X159269819Y-81991792D02*
X158269819Y-81991792D01*
X158365057Y-81563220D02*
X158317438Y-81515601D01*
X158317438Y-81515601D02*
X158269819Y-81420363D01*
X158269819Y-81420363D02*
X158269819Y-81182268D01*
X158269819Y-81182268D02*
X158317438Y-81087030D01*
X158317438Y-81087030D02*
X158365057Y-81039411D01*
X158365057Y-81039411D02*
X158460295Y-80991792D01*
X158460295Y-80991792D02*
X158555533Y-80991792D01*
X158555533Y-80991792D02*
X158698390Y-81039411D01*
X158698390Y-81039411D02*
X159269819Y-81610839D01*
X159269819Y-81610839D02*
X159269819Y-80991792D01*
X142870112Y-95036009D02*
X142536779Y-95036009D01*
X142536779Y-95559819D02*
X142536779Y-94559819D01*
X142536779Y-94559819D02*
X143012969Y-94559819D01*
X143251065Y-94559819D02*
X143822493Y-94559819D01*
X143536779Y-95559819D02*
X143536779Y-94559819D01*
X144108208Y-94655057D02*
X144155827Y-94607438D01*
X144155827Y-94607438D02*
X144251065Y-94559819D01*
X144251065Y-94559819D02*
X144489160Y-94559819D01*
X144489160Y-94559819D02*
X144584398Y-94607438D01*
X144584398Y-94607438D02*
X144632017Y-94655057D01*
X144632017Y-94655057D02*
X144679636Y-94750295D01*
X144679636Y-94750295D02*
X144679636Y-94845533D01*
X144679636Y-94845533D02*
X144632017Y-94988390D01*
X144632017Y-94988390D02*
X144060589Y-95559819D01*
X144060589Y-95559819D02*
X144679636Y-95559819D01*
X145060589Y-94655057D02*
X145108208Y-94607438D01*
X145108208Y-94607438D02*
X145203446Y-94559819D01*
X145203446Y-94559819D02*
X145441541Y-94559819D01*
X145441541Y-94559819D02*
X145536779Y-94607438D01*
X145536779Y-94607438D02*
X145584398Y-94655057D01*
X145584398Y-94655057D02*
X145632017Y-94750295D01*
X145632017Y-94750295D02*
X145632017Y-94845533D01*
X145632017Y-94845533D02*
X145584398Y-94988390D01*
X145584398Y-94988390D02*
X145012970Y-95559819D01*
X145012970Y-95559819D02*
X145632017Y-95559819D01*
X145965351Y-94559819D02*
X146584398Y-94559819D01*
X146584398Y-94559819D02*
X146251065Y-94940771D01*
X146251065Y-94940771D02*
X146393922Y-94940771D01*
X146393922Y-94940771D02*
X146489160Y-94988390D01*
X146489160Y-94988390D02*
X146536779Y-95036009D01*
X146536779Y-95036009D02*
X146584398Y-95131247D01*
X146584398Y-95131247D02*
X146584398Y-95369342D01*
X146584398Y-95369342D02*
X146536779Y-95464580D01*
X146536779Y-95464580D02*
X146489160Y-95512200D01*
X146489160Y-95512200D02*
X146393922Y-95559819D01*
X146393922Y-95559819D02*
X146108208Y-95559819D01*
X146108208Y-95559819D02*
X146012970Y-95512200D01*
X146012970Y-95512200D02*
X145965351Y-95464580D01*
X146965351Y-94655057D02*
X147012970Y-94607438D01*
X147012970Y-94607438D02*
X147108208Y-94559819D01*
X147108208Y-94559819D02*
X147346303Y-94559819D01*
X147346303Y-94559819D02*
X147441541Y-94607438D01*
X147441541Y-94607438D02*
X147489160Y-94655057D01*
X147489160Y-94655057D02*
X147536779Y-94750295D01*
X147536779Y-94750295D02*
X147536779Y-94845533D01*
X147536779Y-94845533D02*
X147489160Y-94988390D01*
X147489160Y-94988390D02*
X146917732Y-95559819D01*
X146917732Y-95559819D02*
X147536779Y-95559819D01*
X147965351Y-95559819D02*
X147965351Y-94559819D01*
X147965351Y-95036009D02*
X148536779Y-95036009D01*
X148536779Y-95559819D02*
X148536779Y-94559819D01*
X142536779Y-97169819D02*
X142536779Y-96169819D01*
X142536779Y-96169819D02*
X142870112Y-96884104D01*
X142870112Y-96884104D02*
X143203445Y-96169819D01*
X143203445Y-96169819D02*
X143203445Y-97169819D01*
X143679636Y-97169819D02*
X143679636Y-96503152D01*
X143679636Y-96169819D02*
X143632017Y-96217438D01*
X143632017Y-96217438D02*
X143679636Y-96265057D01*
X143679636Y-96265057D02*
X143727255Y-96217438D01*
X143727255Y-96217438D02*
X143679636Y-96169819D01*
X143679636Y-96169819D02*
X143679636Y-96265057D01*
X144155826Y-96503152D02*
X144155826Y-97169819D01*
X144155826Y-96598390D02*
X144203445Y-96550771D01*
X144203445Y-96550771D02*
X144298683Y-96503152D01*
X144298683Y-96503152D02*
X144441540Y-96503152D01*
X144441540Y-96503152D02*
X144536778Y-96550771D01*
X144536778Y-96550771D02*
X144584397Y-96646009D01*
X144584397Y-96646009D02*
X144584397Y-97169819D01*
X145060588Y-97169819D02*
X145060588Y-96503152D01*
X145060588Y-96169819D02*
X145012969Y-96217438D01*
X145012969Y-96217438D02*
X145060588Y-96265057D01*
X145060588Y-96265057D02*
X145108207Y-96217438D01*
X145108207Y-96217438D02*
X145060588Y-96169819D01*
X145060588Y-96169819D02*
X145060588Y-96265057D01*
X146298683Y-97169819D02*
X146298683Y-96169819D01*
X146298683Y-96169819D02*
X146632016Y-96884104D01*
X146632016Y-96884104D02*
X146965349Y-96169819D01*
X146965349Y-96169819D02*
X146965349Y-97169819D01*
X147584397Y-97169819D02*
X147489159Y-97122200D01*
X147489159Y-97122200D02*
X147441540Y-97074580D01*
X147441540Y-97074580D02*
X147393921Y-96979342D01*
X147393921Y-96979342D02*
X147393921Y-96693628D01*
X147393921Y-96693628D02*
X147441540Y-96598390D01*
X147441540Y-96598390D02*
X147489159Y-96550771D01*
X147489159Y-96550771D02*
X147584397Y-96503152D01*
X147584397Y-96503152D02*
X147727254Y-96503152D01*
X147727254Y-96503152D02*
X147822492Y-96550771D01*
X147822492Y-96550771D02*
X147870111Y-96598390D01*
X147870111Y-96598390D02*
X147917730Y-96693628D01*
X147917730Y-96693628D02*
X147917730Y-96979342D01*
X147917730Y-96979342D02*
X147870111Y-97074580D01*
X147870111Y-97074580D02*
X147822492Y-97122200D01*
X147822492Y-97122200D02*
X147727254Y-97169819D01*
X147727254Y-97169819D02*
X147584397Y-97169819D01*
X148774873Y-97169819D02*
X148774873Y-96169819D01*
X148774873Y-97122200D02*
X148679635Y-97169819D01*
X148679635Y-97169819D02*
X148489159Y-97169819D01*
X148489159Y-97169819D02*
X148393921Y-97122200D01*
X148393921Y-97122200D02*
X148346302Y-97074580D01*
X148346302Y-97074580D02*
X148298683Y-96979342D01*
X148298683Y-96979342D02*
X148298683Y-96693628D01*
X148298683Y-96693628D02*
X148346302Y-96598390D01*
X148346302Y-96598390D02*
X148393921Y-96550771D01*
X148393921Y-96550771D02*
X148489159Y-96503152D01*
X148489159Y-96503152D02*
X148679635Y-96503152D01*
X148679635Y-96503152D02*
X148774873Y-96550771D01*
X149679635Y-96503152D02*
X149679635Y-97169819D01*
X149251064Y-96503152D02*
X149251064Y-97026961D01*
X149251064Y-97026961D02*
X149298683Y-97122200D01*
X149298683Y-97122200D02*
X149393921Y-97169819D01*
X149393921Y-97169819D02*
X149536778Y-97169819D01*
X149536778Y-97169819D02*
X149632016Y-97122200D01*
X149632016Y-97122200D02*
X149679635Y-97074580D01*
X150298683Y-97169819D02*
X150203445Y-97122200D01*
X150203445Y-97122200D02*
X150155826Y-97026961D01*
X150155826Y-97026961D02*
X150155826Y-96169819D01*
X151060588Y-97122200D02*
X150965350Y-97169819D01*
X150965350Y-97169819D02*
X150774874Y-97169819D01*
X150774874Y-97169819D02*
X150679636Y-97122200D01*
X150679636Y-97122200D02*
X150632017Y-97026961D01*
X150632017Y-97026961D02*
X150632017Y-96646009D01*
X150632017Y-96646009D02*
X150679636Y-96550771D01*
X150679636Y-96550771D02*
X150774874Y-96503152D01*
X150774874Y-96503152D02*
X150965350Y-96503152D01*
X150965350Y-96503152D02*
X151060588Y-96550771D01*
X151060588Y-96550771D02*
X151108207Y-96646009D01*
X151108207Y-96646009D02*
X151108207Y-96741247D01*
X151108207Y-96741247D02*
X150632017Y-96836485D01*
D11*
X132585161Y-90793482D02*
X132632780Y-90698244D01*
X132632780Y-90698244D02*
X132632780Y-90555387D01*
X132632780Y-90555387D02*
X132585161Y-90412530D01*
X132585161Y-90412530D02*
X132489923Y-90317292D01*
X132489923Y-90317292D02*
X132394685Y-90269673D01*
X132394685Y-90269673D02*
X132204209Y-90222054D01*
X132204209Y-90222054D02*
X132061352Y-90222054D01*
X132061352Y-90222054D02*
X131870876Y-90269673D01*
X131870876Y-90269673D02*
X131775638Y-90317292D01*
X131775638Y-90317292D02*
X131680400Y-90412530D01*
X131680400Y-90412530D02*
X131632780Y-90555387D01*
X131632780Y-90555387D02*
X131632780Y-90650625D01*
X131632780Y-90650625D02*
X131680400Y-90793482D01*
X131680400Y-90793482D02*
X131728019Y-90841101D01*
X131728019Y-90841101D02*
X132061352Y-90841101D01*
X132061352Y-90841101D02*
X132061352Y-90650625D01*
X131632780Y-91269673D02*
X132632780Y-91269673D01*
X132632780Y-91269673D02*
X132632780Y-91650625D01*
X132632780Y-91650625D02*
X132585161Y-91745863D01*
X132585161Y-91745863D02*
X132537542Y-91793482D01*
X132537542Y-91793482D02*
X132442304Y-91841101D01*
X132442304Y-91841101D02*
X132299447Y-91841101D01*
X132299447Y-91841101D02*
X132204209Y-91793482D01*
X132204209Y-91793482D02*
X132156590Y-91745863D01*
X132156590Y-91745863D02*
X132108971Y-91650625D01*
X132108971Y-91650625D02*
X132108971Y-91269673D01*
X131632780Y-93031578D02*
X132632780Y-93031578D01*
X132632780Y-93031578D02*
X132632780Y-93269673D01*
X132632780Y-93269673D02*
X132585161Y-93412530D01*
X132585161Y-93412530D02*
X132489923Y-93507768D01*
X132489923Y-93507768D02*
X132394685Y-93555387D01*
X132394685Y-93555387D02*
X132204209Y-93603006D01*
X132204209Y-93603006D02*
X132061352Y-93603006D01*
X132061352Y-93603006D02*
X131870876Y-93555387D01*
X131870876Y-93555387D02*
X131775638Y-93507768D01*
X131775638Y-93507768D02*
X131680400Y-93412530D01*
X131680400Y-93412530D02*
X131632780Y-93269673D01*
X131632780Y-93269673D02*
X131632780Y-93031578D01*
X132156590Y-94031578D02*
X132156590Y-94364911D01*
X131632780Y-94507768D02*
X131632780Y-94031578D01*
X131632780Y-94031578D02*
X132632780Y-94031578D01*
X132632780Y-94031578D02*
X132632780Y-94507768D01*
X132156590Y-95269673D02*
X132108971Y-95412530D01*
X132108971Y-95412530D02*
X132061352Y-95460149D01*
X132061352Y-95460149D02*
X131966114Y-95507768D01*
X131966114Y-95507768D02*
X131823257Y-95507768D01*
X131823257Y-95507768D02*
X131728019Y-95460149D01*
X131728019Y-95460149D02*
X131680400Y-95412530D01*
X131680400Y-95412530D02*
X131632780Y-95317292D01*
X131632780Y-95317292D02*
X131632780Y-94936340D01*
X131632780Y-94936340D02*
X132632780Y-94936340D01*
X132632780Y-94936340D02*
X132632780Y-95269673D01*
X132632780Y-95269673D02*
X132585161Y-95364911D01*
X132585161Y-95364911D02*
X132537542Y-95412530D01*
X132537542Y-95412530D02*
X132442304Y-95460149D01*
X132442304Y-95460149D02*
X132347066Y-95460149D01*
X132347066Y-95460149D02*
X132251828Y-95412530D01*
X132251828Y-95412530D02*
X132204209Y-95364911D01*
X132204209Y-95364911D02*
X132156590Y-95269673D01*
X132156590Y-95269673D02*
X132156590Y-94936340D01*
X132632780Y-95936340D02*
X131823257Y-95936340D01*
X131823257Y-95936340D02*
X131728019Y-95983959D01*
X131728019Y-95983959D02*
X131680400Y-96031578D01*
X131680400Y-96031578D02*
X131632780Y-96126816D01*
X131632780Y-96126816D02*
X131632780Y-96317292D01*
X131632780Y-96317292D02*
X131680400Y-96412530D01*
X131680400Y-96412530D02*
X131728019Y-96460149D01*
X131728019Y-96460149D02*
X131823257Y-96507768D01*
X131823257Y-96507768D02*
X132632780Y-96507768D01*
X132585161Y-97507768D02*
X132632780Y-97412530D01*
X132632780Y-97412530D02*
X132632780Y-97269673D01*
X132632780Y-97269673D02*
X132585161Y-97126816D01*
X132585161Y-97126816D02*
X132489923Y-97031578D01*
X132489923Y-97031578D02*
X132394685Y-96983959D01*
X132394685Y-96983959D02*
X132204209Y-96936340D01*
X132204209Y-96936340D02*
X132061352Y-96936340D01*
X132061352Y-96936340D02*
X131870876Y-96983959D01*
X131870876Y-96983959D02*
X131775638Y-97031578D01*
X131775638Y-97031578D02*
X131680400Y-97126816D01*
X131680400Y-97126816D02*
X131632780Y-97269673D01*
X131632780Y-97269673D02*
X131632780Y-97364911D01*
X131632780Y-97364911D02*
X131680400Y-97507768D01*
X131680400Y-97507768D02*
X131728019Y-97555387D01*
X131728019Y-97555387D02*
X132061352Y-97555387D01*
X132061352Y-97555387D02*
X132061352Y-97364911D01*
D10*
X159174580Y-106091792D02*
X159222200Y-106139411D01*
X159222200Y-106139411D02*
X159269819Y-106282268D01*
X159269819Y-106282268D02*
X159269819Y-106377506D01*
X159269819Y-106377506D02*
X159222200Y-106520363D01*
X159222200Y-106520363D02*
X159126961Y-106615601D01*
X159126961Y-106615601D02*
X159031723Y-106663220D01*
X159031723Y-106663220D02*
X158841247Y-106710839D01*
X158841247Y-106710839D02*
X158698390Y-106710839D01*
X158698390Y-106710839D02*
X158507914Y-106663220D01*
X158507914Y-106663220D02*
X158412676Y-106615601D01*
X158412676Y-106615601D02*
X158317438Y-106520363D01*
X158317438Y-106520363D02*
X158269819Y-106377506D01*
X158269819Y-106377506D02*
X158269819Y-106282268D01*
X158269819Y-106282268D02*
X158317438Y-106139411D01*
X158317438Y-106139411D02*
X158365057Y-106091792D01*
X159269819Y-105663220D02*
X158269819Y-105663220D01*
X158269819Y-105663220D02*
X159269819Y-105091792D01*
X159269819Y-105091792D02*
X158269819Y-105091792D01*
X158269819Y-104710839D02*
X158269819Y-104091792D01*
X158269819Y-104091792D02*
X158650771Y-104425125D01*
X158650771Y-104425125D02*
X158650771Y-104282268D01*
X158650771Y-104282268D02*
X158698390Y-104187030D01*
X158698390Y-104187030D02*
X158746009Y-104139411D01*
X158746009Y-104139411D02*
X158841247Y-104091792D01*
X158841247Y-104091792D02*
X159079342Y-104091792D01*
X159079342Y-104091792D02*
X159174580Y-104139411D01*
X159174580Y-104139411D02*
X159222200Y-104187030D01*
X159222200Y-104187030D02*
X159269819Y-104282268D01*
X159269819Y-104282268D02*
X159269819Y-104567982D01*
X159269819Y-104567982D02*
X159222200Y-104663220D01*
X159222200Y-104663220D02*
X159174580Y-104710839D01*
D12*
%TO.C,U2*%
X157905000Y-108030000D02*
X124765000Y-108030000D01*
X157905000Y-105430000D02*
X157905000Y-108030000D01*
X157905000Y-102830000D02*
X157905000Y-104160000D01*
X157905000Y-85170000D02*
X124765000Y-85170000D01*
X157905000Y-82570000D02*
X157905000Y-85170000D01*
X157905000Y-79970000D02*
X157905000Y-81300000D01*
X156575000Y-102830000D02*
X157905000Y-102830000D01*
X156575000Y-79970000D02*
X157905000Y-79970000D01*
X155305000Y-105430000D02*
X157905000Y-105430000D01*
X155305000Y-102830000D02*
X155305000Y-105430000D01*
X155305000Y-102830000D02*
X124765000Y-102830000D01*
X155305000Y-82570000D02*
X157905000Y-82570000D01*
X155305000Y-79970000D02*
X155305000Y-82570000D01*
X155305000Y-79970000D02*
X124765000Y-79970000D01*
X124765000Y-102830000D02*
X124765000Y-108030000D01*
X124765000Y-79970000D02*
X124765000Y-85170000D01*
D13*
%TO.C,J101*%
X129075000Y-91500000D02*
X126800000Y-91500000D01*
X129075000Y-92385000D02*
X129075000Y-91500000D01*
X124825000Y-92700000D02*
X124825000Y-95300000D01*
X129075000Y-96500000D02*
X129075000Y-95615000D01*
X126800000Y-96500000D02*
X129075000Y-96500000D01*
D14*
X129900000Y-92200000D02*
G75*
G03*
X129700000Y-92200000I-100000J0D01*
G01*
X129700000Y-92200000D02*
G75*
G03*
X129900000Y-92200000I100000J0D01*
G01*
%TD*%
M02*
