%TF.GenerationSoftware,KiCad,Pcbnew,7.0.10*%
%TF.CreationDate,2025-10-01T21:30:06+02:00*%
%TF.ProjectId,PS2_Debug_Probe,5053325f-4465-4627-9567-5f50726f6265,rev?*%
%TF.SameCoordinates,Original*%
%TF.FileFunction,Legend,Bot*%
%TF.FilePolarity,Positive*%
%FSLAX46Y46*%
G04 Gerber Fmt 4.6, Leading zero omitted, Abs format (unit mm)*
G04 Created by KiCad (PCBNEW 7.0.10) date 2025-10-01 21:30:06*
%MOMM*%
%LPD*%
G01*
G04 APERTURE LIST*
%ADD10C,0.150000*%
%ADD11C,0.200000*%
%ADD12C,0.127000*%
%ADD13C,0.120000*%
G04 APERTURE END LIST*
D10*
X151791792Y-92769819D02*
X152125125Y-92293628D01*
X152363220Y-92769819D02*
X152363220Y-91769819D01*
X152363220Y-91769819D02*
X151982268Y-91769819D01*
X151982268Y-91769819D02*
X151887030Y-91817438D01*
X151887030Y-91817438D02*
X151839411Y-91865057D01*
X151839411Y-91865057D02*
X151791792Y-91960295D01*
X151791792Y-91960295D02*
X151791792Y-92103152D01*
X151791792Y-92103152D02*
X151839411Y-92198390D01*
X151839411Y-92198390D02*
X151887030Y-92246009D01*
X151887030Y-92246009D02*
X151982268Y-92293628D01*
X151982268Y-92293628D02*
X152363220Y-92293628D01*
X151363220Y-92769819D02*
X151363220Y-91769819D01*
X151363220Y-91769819D02*
X150982268Y-91769819D01*
X150982268Y-91769819D02*
X150887030Y-91817438D01*
X150887030Y-91817438D02*
X150839411Y-91865057D01*
X150839411Y-91865057D02*
X150791792Y-91960295D01*
X150791792Y-91960295D02*
X150791792Y-92103152D01*
X150791792Y-92103152D02*
X150839411Y-92198390D01*
X150839411Y-92198390D02*
X150887030Y-92246009D01*
X150887030Y-92246009D02*
X150982268Y-92293628D01*
X150982268Y-92293628D02*
X151363220Y-92293628D01*
X150410839Y-91865057D02*
X150363220Y-91817438D01*
X150363220Y-91817438D02*
X150267982Y-91769819D01*
X150267982Y-91769819D02*
X150029887Y-91769819D01*
X150029887Y-91769819D02*
X149934649Y-91817438D01*
X149934649Y-91817438D02*
X149887030Y-91865057D01*
X149887030Y-91865057D02*
X149839411Y-91960295D01*
X149839411Y-91960295D02*
X149839411Y-92055533D01*
X149839411Y-92055533D02*
X149887030Y-92198390D01*
X149887030Y-92198390D02*
X150458458Y-92769819D01*
X150458458Y-92769819D02*
X149839411Y-92769819D01*
X149220363Y-91769819D02*
X149125125Y-91769819D01*
X149125125Y-91769819D02*
X149029887Y-91817438D01*
X149029887Y-91817438D02*
X148982268Y-91865057D01*
X148982268Y-91865057D02*
X148934649Y-91960295D01*
X148934649Y-91960295D02*
X148887030Y-92150771D01*
X148887030Y-92150771D02*
X148887030Y-92388866D01*
X148887030Y-92388866D02*
X148934649Y-92579342D01*
X148934649Y-92579342D02*
X148982268Y-92674580D01*
X148982268Y-92674580D02*
X149029887Y-92722200D01*
X149029887Y-92722200D02*
X149125125Y-92769819D01*
X149125125Y-92769819D02*
X149220363Y-92769819D01*
X149220363Y-92769819D02*
X149315601Y-92722200D01*
X149315601Y-92722200D02*
X149363220Y-92674580D01*
X149363220Y-92674580D02*
X149410839Y-92579342D01*
X149410839Y-92579342D02*
X149458458Y-92388866D01*
X149458458Y-92388866D02*
X149458458Y-92150771D01*
X149458458Y-92150771D02*
X149410839Y-91960295D01*
X149410839Y-91960295D02*
X149363220Y-91865057D01*
X149363220Y-91865057D02*
X149315601Y-91817438D01*
X149315601Y-91817438D02*
X149220363Y-91769819D01*
X148029887Y-92103152D02*
X148029887Y-92769819D01*
X148267982Y-91722200D02*
X148506077Y-92436485D01*
X148506077Y-92436485D02*
X147887030Y-92436485D01*
X147315601Y-91769819D02*
X147220363Y-91769819D01*
X147220363Y-91769819D02*
X147125125Y-91817438D01*
X147125125Y-91817438D02*
X147077506Y-91865057D01*
X147077506Y-91865057D02*
X147029887Y-91960295D01*
X147029887Y-91960295D02*
X146982268Y-92150771D01*
X146982268Y-92150771D02*
X146982268Y-92388866D01*
X146982268Y-92388866D02*
X147029887Y-92579342D01*
X147029887Y-92579342D02*
X147077506Y-92674580D01*
X147077506Y-92674580D02*
X147125125Y-92722200D01*
X147125125Y-92722200D02*
X147220363Y-92769819D01*
X147220363Y-92769819D02*
X147315601Y-92769819D01*
X147315601Y-92769819D02*
X147410839Y-92722200D01*
X147410839Y-92722200D02*
X147458458Y-92674580D01*
X147458458Y-92674580D02*
X147506077Y-92579342D01*
X147506077Y-92579342D02*
X147553696Y-92388866D01*
X147553696Y-92388866D02*
X147553696Y-92150771D01*
X147553696Y-92150771D02*
X147506077Y-91960295D01*
X147506077Y-91960295D02*
X147458458Y-91865057D01*
X147458458Y-91865057D02*
X147410839Y-91817438D01*
X147410839Y-91817438D02*
X147315601Y-91769819D01*
X145887029Y-91769819D02*
X145220363Y-91769819D01*
X145220363Y-91769819D02*
X145887029Y-92769819D01*
X145887029Y-92769819D02*
X145220363Y-92769819D01*
X144458458Y-92722200D02*
X144553696Y-92769819D01*
X144553696Y-92769819D02*
X144744172Y-92769819D01*
X144744172Y-92769819D02*
X144839410Y-92722200D01*
X144839410Y-92722200D02*
X144887029Y-92626961D01*
X144887029Y-92626961D02*
X144887029Y-92246009D01*
X144887029Y-92246009D02*
X144839410Y-92150771D01*
X144839410Y-92150771D02*
X144744172Y-92103152D01*
X144744172Y-92103152D02*
X144553696Y-92103152D01*
X144553696Y-92103152D02*
X144458458Y-92150771D01*
X144458458Y-92150771D02*
X144410839Y-92246009D01*
X144410839Y-92246009D02*
X144410839Y-92341247D01*
X144410839Y-92341247D02*
X144887029Y-92436485D01*
X143982267Y-92769819D02*
X143982267Y-92103152D01*
X143982267Y-92293628D02*
X143934648Y-92198390D01*
X143934648Y-92198390D02*
X143887029Y-92150771D01*
X143887029Y-92150771D02*
X143791791Y-92103152D01*
X143791791Y-92103152D02*
X143696553Y-92103152D01*
X143220362Y-92769819D02*
X143315600Y-92722200D01*
X143315600Y-92722200D02*
X143363219Y-92674580D01*
X143363219Y-92674580D02*
X143410838Y-92579342D01*
X143410838Y-92579342D02*
X143410838Y-92293628D01*
X143410838Y-92293628D02*
X143363219Y-92198390D01*
X143363219Y-92198390D02*
X143315600Y-92150771D01*
X143315600Y-92150771D02*
X143220362Y-92103152D01*
X143220362Y-92103152D02*
X143077505Y-92103152D01*
X143077505Y-92103152D02*
X142982267Y-92150771D01*
X142982267Y-92150771D02*
X142934648Y-92198390D01*
X142934648Y-92198390D02*
X142887029Y-92293628D01*
X142887029Y-92293628D02*
X142887029Y-92579342D01*
X142887029Y-92579342D02*
X142934648Y-92674580D01*
X142934648Y-92674580D02*
X142982267Y-92722200D01*
X142982267Y-92722200D02*
X143077505Y-92769819D01*
X143077505Y-92769819D02*
X143220362Y-92769819D01*
D11*
X125332780Y-98130326D02*
X126332780Y-98130326D01*
X126332780Y-98130326D02*
X126332780Y-97749374D01*
X126332780Y-97749374D02*
X126285161Y-97654136D01*
X126285161Y-97654136D02*
X126237542Y-97606517D01*
X126237542Y-97606517D02*
X126142304Y-97558898D01*
X126142304Y-97558898D02*
X125999447Y-97558898D01*
X125999447Y-97558898D02*
X125904209Y-97606517D01*
X125904209Y-97606517D02*
X125856590Y-97654136D01*
X125856590Y-97654136D02*
X125808971Y-97749374D01*
X125808971Y-97749374D02*
X125808971Y-98130326D01*
X125380400Y-97177945D02*
X125332780Y-97035088D01*
X125332780Y-97035088D02*
X125332780Y-96796993D01*
X125332780Y-96796993D02*
X125380400Y-96701755D01*
X125380400Y-96701755D02*
X125428019Y-96654136D01*
X125428019Y-96654136D02*
X125523257Y-96606517D01*
X125523257Y-96606517D02*
X125618495Y-96606517D01*
X125618495Y-96606517D02*
X125713733Y-96654136D01*
X125713733Y-96654136D02*
X125761352Y-96701755D01*
X125761352Y-96701755D02*
X125808971Y-96796993D01*
X125808971Y-96796993D02*
X125856590Y-96987469D01*
X125856590Y-96987469D02*
X125904209Y-97082707D01*
X125904209Y-97082707D02*
X125951828Y-97130326D01*
X125951828Y-97130326D02*
X126047066Y-97177945D01*
X126047066Y-97177945D02*
X126142304Y-97177945D01*
X126142304Y-97177945D02*
X126237542Y-97130326D01*
X126237542Y-97130326D02*
X126285161Y-97082707D01*
X126285161Y-97082707D02*
X126332780Y-96987469D01*
X126332780Y-96987469D02*
X126332780Y-96749374D01*
X126332780Y-96749374D02*
X126285161Y-96606517D01*
X126237542Y-96225564D02*
X126285161Y-96177945D01*
X126285161Y-96177945D02*
X126332780Y-96082707D01*
X126332780Y-96082707D02*
X126332780Y-95844612D01*
X126332780Y-95844612D02*
X126285161Y-95749374D01*
X126285161Y-95749374D02*
X126237542Y-95701755D01*
X126237542Y-95701755D02*
X126142304Y-95654136D01*
X126142304Y-95654136D02*
X126047066Y-95654136D01*
X126047066Y-95654136D02*
X125904209Y-95701755D01*
X125904209Y-95701755D02*
X125332780Y-96273183D01*
X125332780Y-96273183D02*
X125332780Y-95654136D01*
X125332780Y-94463659D02*
X126332780Y-94463659D01*
X126332780Y-94463659D02*
X126332780Y-94225564D01*
X126332780Y-94225564D02*
X126285161Y-94082707D01*
X126285161Y-94082707D02*
X126189923Y-93987469D01*
X126189923Y-93987469D02*
X126094685Y-93939850D01*
X126094685Y-93939850D02*
X125904209Y-93892231D01*
X125904209Y-93892231D02*
X125761352Y-93892231D01*
X125761352Y-93892231D02*
X125570876Y-93939850D01*
X125570876Y-93939850D02*
X125475638Y-93987469D01*
X125475638Y-93987469D02*
X125380400Y-94082707D01*
X125380400Y-94082707D02*
X125332780Y-94225564D01*
X125332780Y-94225564D02*
X125332780Y-94463659D01*
X125856590Y-93463659D02*
X125856590Y-93130326D01*
X125332780Y-92987469D02*
X125332780Y-93463659D01*
X125332780Y-93463659D02*
X126332780Y-93463659D01*
X126332780Y-93463659D02*
X126332780Y-92987469D01*
X125856590Y-92225564D02*
X125808971Y-92082707D01*
X125808971Y-92082707D02*
X125761352Y-92035088D01*
X125761352Y-92035088D02*
X125666114Y-91987469D01*
X125666114Y-91987469D02*
X125523257Y-91987469D01*
X125523257Y-91987469D02*
X125428019Y-92035088D01*
X125428019Y-92035088D02*
X125380400Y-92082707D01*
X125380400Y-92082707D02*
X125332780Y-92177945D01*
X125332780Y-92177945D02*
X125332780Y-92558897D01*
X125332780Y-92558897D02*
X126332780Y-92558897D01*
X126332780Y-92558897D02*
X126332780Y-92225564D01*
X126332780Y-92225564D02*
X126285161Y-92130326D01*
X126285161Y-92130326D02*
X126237542Y-92082707D01*
X126237542Y-92082707D02*
X126142304Y-92035088D01*
X126142304Y-92035088D02*
X126047066Y-92035088D01*
X126047066Y-92035088D02*
X125951828Y-92082707D01*
X125951828Y-92082707D02*
X125904209Y-92130326D01*
X125904209Y-92130326D02*
X125856590Y-92225564D01*
X125856590Y-92225564D02*
X125856590Y-92558897D01*
X126332780Y-91558897D02*
X125523257Y-91558897D01*
X125523257Y-91558897D02*
X125428019Y-91511278D01*
X125428019Y-91511278D02*
X125380400Y-91463659D01*
X125380400Y-91463659D02*
X125332780Y-91368421D01*
X125332780Y-91368421D02*
X125332780Y-91177945D01*
X125332780Y-91177945D02*
X125380400Y-91082707D01*
X125380400Y-91082707D02*
X125428019Y-91035088D01*
X125428019Y-91035088D02*
X125523257Y-90987469D01*
X125523257Y-90987469D02*
X126332780Y-90987469D01*
X126285161Y-89987469D02*
X126332780Y-90082707D01*
X126332780Y-90082707D02*
X126332780Y-90225564D01*
X126332780Y-90225564D02*
X126285161Y-90368421D01*
X126285161Y-90368421D02*
X126189923Y-90463659D01*
X126189923Y-90463659D02*
X126094685Y-90511278D01*
X126094685Y-90511278D02*
X125904209Y-90558897D01*
X125904209Y-90558897D02*
X125761352Y-90558897D01*
X125761352Y-90558897D02*
X125570876Y-90511278D01*
X125570876Y-90511278D02*
X125475638Y-90463659D01*
X125475638Y-90463659D02*
X125380400Y-90368421D01*
X125380400Y-90368421D02*
X125332780Y-90225564D01*
X125332780Y-90225564D02*
X125332780Y-90130326D01*
X125332780Y-90130326D02*
X125380400Y-89987469D01*
X125380400Y-89987469D02*
X125428019Y-89939850D01*
X125428019Y-89939850D02*
X125761352Y-89939850D01*
X125761352Y-89939850D02*
X125761352Y-90130326D01*
D12*
%TO.C,U1*%
X158550000Y-103000000D02*
X137050000Y-103000000D01*
X136050000Y-102000000D02*
X136050000Y-86000000D01*
X159550000Y-86000000D02*
X159550000Y-102000000D01*
X137050000Y-85000000D02*
X158550000Y-85000000D01*
X136050000Y-102000000D02*
G75*
G03*
X137050000Y-103000000I999999J-1D01*
G01*
X158550000Y-103000000D02*
G75*
G03*
X159550000Y-102000000I1J999999D01*
G01*
X137050000Y-85000000D02*
G75*
G03*
X136050000Y-86000000I0J-1000000D01*
G01*
X159550000Y-86000000D02*
G75*
G03*
X158550000Y-85000000I-1000000J0D01*
G01*
D11*
X158060000Y-84250000D02*
G75*
G03*
X157860000Y-84250000I-100000J0D01*
G01*
X157860000Y-84250000D02*
G75*
G03*
X158060000Y-84250000I100000J0D01*
G01*
D13*
%TO.C,J1*%
X127610000Y-98440000D02*
X128935000Y-98440000D01*
X128935000Y-89495000D02*
X132465000Y-89495000D01*
X128935000Y-89560000D02*
X128935000Y-89495000D01*
X128935000Y-98505000D02*
X128935000Y-98440000D01*
X128935000Y-98505000D02*
X132465000Y-98505000D01*
X132465000Y-89560000D02*
X132465000Y-89495000D01*
X132465000Y-98505000D02*
X132465000Y-98440000D01*
%TD*%
M02*
