M48
; DRILL file {KiCad 7.0.10} date Wed Oct  1 21:30:08 2025
; FORMAT={-:-/ absolute / metric / decimal}
; #@! TF.CreationDate,2025-10-01T21:30:08+02:00
; #@! TF.GenerationSoftware,Kicad,Pcbnew,7.0.10
; #@! TF.FileFunction,Plated,1,2,PTH
FMAT,2
METRIC
; #@! TA.AperFunction,Plated,PTH,ViaDrill
T1C0.300
; #@! TA.AperFunction,Plated,PTH,ComponentDrill
T2C1.000
%
G90
G05
T1
X126.0Y-86.0
X126.0Y-98.9
X126.0Y-101.8
X127.3Y-100.5
X128.635Y-99.9
X128.7Y-89.0
X129.9Y-101.1
X130.7Y-90.2
X130.7Y-91.5
X130.7Y-94.1
X130.7Y-98.0
X130.8Y-102.5
X131.5Y-89.0
X134.1Y-89.0
X134.5Y-93.0
X135.0Y-102.0
X136.1Y-90.6
X141.0Y-90.0
X141.0Y-94.0
X141.0Y-98.0
X145.0Y-90.0
X145.0Y-94.0
X145.0Y-98.0
X149.0Y-90.0
X149.0Y-94.0
X149.0Y-98.0
X153.0Y-90.0
X153.0Y-94.0
X153.0Y-98.0
X157.0Y-90.0
X157.0Y-94.0
X157.0Y-98.0
T2
X126.095Y-81.3
X126.095Y-83.84
X126.095Y-104.16
X126.095Y-106.7
X128.635Y-81.3
X128.635Y-83.84
X128.635Y-104.16
X128.635Y-106.7
X131.175Y-81.3
X131.175Y-83.84
X131.175Y-104.16
X131.175Y-106.7
X133.715Y-81.3
X133.715Y-83.84
X133.715Y-104.16
X133.715Y-106.7
X136.255Y-81.3
X136.255Y-83.84
X136.255Y-104.16
X136.255Y-106.7
X137.64Y-86.38
X137.64Y-88.92
X137.64Y-91.46
X137.64Y-94.0
X137.64Y-96.54
X137.64Y-99.08
X137.64Y-101.62
X138.795Y-81.3
X138.795Y-83.84
X138.795Y-104.16
X138.795Y-106.7
X140.18Y-86.38
X140.18Y-101.62
X141.335Y-81.3
X141.335Y-83.84
X141.335Y-104.16
X141.335Y-106.7
X142.72Y-86.38
X142.72Y-101.62
X143.875Y-81.3
X143.875Y-83.84
X143.875Y-104.16
X143.875Y-106.7
X145.26Y-86.38
X145.26Y-101.62
X146.415Y-81.3
X146.415Y-83.84
X146.415Y-104.16
X146.415Y-106.7
X147.8Y-86.38
X147.8Y-101.62
X148.955Y-81.3
X148.955Y-83.84
X148.955Y-104.16
X148.955Y-106.7
X150.34Y-86.38
X150.34Y-101.62
X151.495Y-81.3
X151.495Y-83.84
X151.495Y-104.16
X151.495Y-106.7
X152.88Y-86.38
X152.88Y-101.62
X154.035Y-81.3
X154.035Y-83.84
X154.035Y-104.16
X154.035Y-106.7
X155.42Y-86.38
X155.42Y-101.62
X156.575Y-81.3
X156.575Y-83.84
X156.575Y-104.16
X156.575Y-106.7
X157.96Y-86.38
X157.96Y-101.62
M30
